<?xml version="1.0" encoding="utf-8"?>
<!-- Generator: Adobe Illustrator 23.0.2, SVG Export Plug-In . SVG Version: 6.00 Build 0)  -->
<svg version="1.1" id="Capa_1" xmlns="http://www.w3.org/2000/svg" xmlns:xlink="http://www.w3.org/1999/xlink" x="0px" y="0px"
	 viewBox="0 0 953 344" style="enable-background:new 0 0 953 344;" xml:space="preserve">
<style type="text/css">
	.st0{fill:#4ED3DD;}
</style>
<title>apple</title>
<path class="st0" d="M403,40.2c12.2-0.8,24.5,0.6,36.3,4.2c6.7,1.9,13.1,4.8,18.8,8.8c5.8,4,10.2,9.6,12.7,16.2
	c4.6,13-0.7,27.6,2.5,41c-14-0.2-27.7-4.2-39.6-11.6c-6.2-3.8-12-8.7-15.8-14.9c-6.6-10.8-6.6-24.3-10.2-36.5
	C406.8,44.3,406.2,41.1,403,40.2"/>
<path class="st0" d="M472.4,264.1c-14.3,0-29.1-3.5-41.9-12.1c-19.8-13.3-46-50.1-36.6-96.9c8.9-44.3,35.6-41.3,63.9-38.1
	c4.5,0.5,9.2,1,13.7,1.3l0,0c4.8,0.2,9.5,0.1,14.3-0.3c21.3-1.3,50.5-3,59.7,35c12.1,50-9.7,90.5-36.4,103.2
	C497.6,261.4,485.1,264.1,472.4,264.1z M437.1,117.3c-19,0-35,6.5-41.3,38.1c-9.2,45.9,16.4,81.9,35.8,94.9
	c24.2,16.3,56.7,13.5,76.7,4c26-12.3,47.2-51.9,35.3-101c-8.8-36.4-35.9-34.8-57.7-33.5c-4.8,0.4-9.7,0.5-14.5,0.3l0,0
	c-4.6-0.3-9.3-0.8-13.8-1.3C450.8,117.9,444,117.4,437.1,117.3z"/>
</svg>
