<?xml version="1.0" encoding="utf-8"?>
<!-- Generator: Adobe Illustrator 23.0.2, SVG Export Plug-In . SVG Version: 6.00 Build 0)  -->
<svg version="1.1" id="Capa_1" xmlns="http://www.w3.org/2000/svg" xmlns:xlink="http://www.w3.org/1999/xlink" x="0px" y="0px"
	 viewBox="0 0 953 344" style="enable-background:new 0 0 953 344;" xml:space="preserve">
<style type="text/css">
	.st0{fill:#4ED3DD;}
</style>
<title>beerglass</title>
<path class="st0" d="M439.9,254.7c-14,0.1-28-0.6-42-2c-18-2.1-27.8-5.6-30-10.7c-4.8-11-0.3-23.2,4.9-37.4
	c2.9-7.5,5.3-15.1,7.4-22.8c4.7-18.8,4.5-65.2,4.3-96c0-11.1-0.1-20.6,0.1-26.3c0.5-16,6.6-19.2,16.3-19.2h14
	c26-0.1,74.3-0.3,91.3,0c20.9,0.5,22.1,5.3,22.6,14.4v0.8c0.4,7.3,18.1,7.1,33.7,7h6.7c10.4,0,16.9,9,17.7,24.6
	c0.6,10.3,0.3,24.1,0.2,37.4c-0.2,9.7-0.3,19.7-0.2,28.1c0.3,18-20,28.8-34.8,36.6c-7.6,4-14.1,7.5-15.5,10.6
	c-1.7,3.9,0.9,11.9,3.5,19.8c3.2,9.8,6.3,19,2.8,23.7C538.4,249.2,486.1,254.7,439.9,254.7z M369.8,241.3c1.3,3,7.3,7,28.4,9.5
	c48.6,5.6,138.2-2.1,143.1-8.7c2.9-3.9-0.1-13-3.1-21.9c-2.8-8.6-5.5-16.6-3.4-21.2c1.7-3.7,8.2-7.2,16.4-11.5
	c14.4-7.6,34-18,33.7-34.8c-0.2-8.4,0-18.4,0.2-28.1c0.2-13.3,0.4-27.1-0.1-37.3c-0.8-14.4-6.5-22.7-15.7-22.7h-6.7
	c-17.3,0.2-35.2,0.3-35.7-8.9v-0.8c-0.4-7.8-0.6-12.1-20.6-12.5c-17-0.4-65.3-0.2-91.2,0l-14,0c-9.1,0-13.8,2.7-14.3,17.2
	c-0.2,5.7-0.1,15.2-0.1,26.3c0.1,30.9,0.4,77.5-4.4,96.5c-2.1,7.8-4.5,15.5-7.4,23C369.4,219.7,365.3,231,369.8,241.3L369.8,241.3z"
	/>
<path class="st0" d="M534.9,181.5c-0.8,0-1.5-0.1-2.2-0.5c-6-3.6-9.3-36.3-9.3-57.4c0-5.2,0-10.3-0.1-15
	c-0.2-21.6-0.2-31.3,2.6-32.6s39.8-2.9,44.4,1.1l0,0c3.8,3.3,3.5,37.3,3.5,41.2c-0.1,6.4-0.6,38.4-4.9,43.3
	C563.9,167.4,543.2,181.5,534.9,181.5z M547.6,76.4c-9.8,0-19.4,0.6-20.8,1.3c-1.8,1.2-1.6,16.3-1.5,30.8c0,4.7,0.1,9.8,0.1,15
	c0,25.6,4.1,53.2,8.4,55.7c3.9,2.4,27.2-11.5,33.7-19c2.4-2.8,4.2-19.7,4.4-42c0.2-22.8-1.3-38.4-2.8-39.8
	C567.2,77,557.4,76.4,547.6,76.4z"/>
<path class="st0" d="M378.2,234.2c3.9,11.3,51.2,9.8,73.8,9.8s70.4-3.4,75.8-11.3c5.8-8.4-2.1-21.9-8.5-62.2
	c-5.3-33.3-12-40.8-40-28.7c-26.1,11.3-40.9,7.2-56.5-4.3c-15.1-11.2-28.1-4.6-29.5,22.6C391.6,194,374.1,222.4,378.2,234.2z"/>
</svg>
