<?xml version="1.0" encoding="utf-8"?>
<!-- Generator: Adobe Illustrator 23.0.2, SVG Export Plug-In . SVG Version: 6.00 Build 0)  -->
<svg version="1.1" id="Capa_1" xmlns="http://www.w3.org/2000/svg" xmlns:xlink="http://www.w3.org/1999/xlink" x="0px" y="0px"
	 viewBox="0 0 1920 1080" style="enable-background:new 0 0 1920 1080;" xml:space="preserve">
<style type="text/css">
	.st0{fill:none;stroke:#4ED3DD;stroke-miterlimit:10;}
	.st1{fill:#4ED3DD;}
	.st2{fill:none;stroke:#4ED3DD;stroke-width:0.5;stroke-miterlimit:10;}
	.st3{fill:none;stroke:#4ED3DD;stroke-width:0.75;stroke-miterlimit:10;}
</style>
<g>
	<path class="st0" d="M3751.6,590c-16.9,0-27.3-0.4-30.7,4.8s-6.1,18.2-13,24.7c-7.6,7.1-7.4,23.4-3.9,30.3
		c3.5,6.9,37.6,6.1,47.6,6.1h-0.1c9.9,0,44.1,0.9,47.6-6.1c3.5-6.9,3.7-23.2-3.9-30.3c-6.9-6.5-9.5-19.5-13-24.7
		S3768.3,590,3751.6,590"/>
	<path class="st1" d="M3751.7,593.5c8.2,0,23.8,0,25.1,1.3s9.9,16.9,8.6,19s-27.7,3-33.8,3s-32.5-0.9-33.8-2.6
		c-1.3-1.7,6.5-19,8.6-19.9C3728.7,593.5,3744.8,593.5,3751.7,593.5z"/>
	<path class="st1" d="M3707.1,665.3c0.9,0.9,4.1,0.7,6.7,0.7s6.5,0,7.4-0.9s0.9-6.9,0.9-6.9s-4.3,0-9.1-0.9s-6.9-1.7-6.9-1.7
		S3705.4,663.6,3707.1,665.3z"/>
	<path class="st1" d="M3796.1,665.3c-0.9,0.9-4.1,0.7-6.7,0.7c-2.6,0-6.5,0-7.4-0.9s-0.9-6.9-0.9-6.9s4.3,0,9.1-0.9s6.9-1.7,6.9-1.7
		S3797.8,663.6,3796.1,665.3z"/>
	<circle class="st1" cx="3718.1" cy="637.1" r="5.8"/>
	<circle class="st1" cx="3785.6" cy="637.1" r="5.8"/>
</g>
<g>
	<path class="st2" d="M1820-492c-8.1,0.9-16.8,0.7-18.2,2.7s3.3,31.7,5.1,33.5c1.7,1.8,3.4,0.5,17.1-2.9s12.8-7,10.9-18.7
		C1832.8-490,1829.7-493,1820-492z"/>
</g>
<g>
	<path class="st2" d="M1499.2-544.1c-4.3-5.4-2.2-11.6,0.6-14.9c2.8-3.3,7.5-4.6,11.8-4.7c4.3-0.1,6.7,4.3,5.1,10.7
		c-1.9,7.8,3.2,13.2-0.8,14.1C1510.2-537.6,1502.8-539.7,1499.2-544.1z"/>
</g>
<path class="st2" d="M1629.9-571.2c-0.6,0.5-4.8-1.6-9.9-3.9c-5.1-2.3-10.7-5.8-10.9-7.1s5.2-4.9,7.2-5.5s17,6.1,17.4,7.4
	C1634.2-579.2,1630.6-571.7,1629.9-571.2z"/>
<path class="st2" d="M1600.3-551.4c5.7,2.3,8.3,0.2,7.4-4c-1-4.3-0.5-7.7,4.3-12.1c5.2-4.7,4.2-6.8-2.2-11c-7.7-5-9.8-7.9-12.1-7.5
	c-2.1,0.4-7.3,10-9.4,14.7s-6.8,14.4-4.8,16.3C1585.6-553.1,1593.1-554.1,1600.3-551.4z"/>
<path class="st2" d="M1712.8-500.4c-0.8-0.3-1.5,0.2-2.2,0.8c-2.8,1.9-5,4.7-8.2,5.8c-1.8,0.6-3.8,0.7-5.7,0.4
	c-3.7-0.5-7.2-2-10.1-4.3c2.9-2.2,4.3-6.1,7.4-8c1.6-1,3.5-1.3,5.3-1.2c1.8,0.1,3.6,0.6,5.3,1.3
	C1707.7-504.3,1710.3-502.6,1712.8-500.4"/>
<g>
	<path class="st2" d="M1840.8-388.2c1.4,1.8-3.6,18.6-4.5,22.3c-0.9,3.7-4.6,19.6-6.2,20.6s-8.9-0.8-12.2-1.6
		c-3.3-0.9-11.1-3.1-12.3-4.7c-1.2-1.6,3.9-18.4,4.4-21.1s5.1-20.8,6.3-21.8c1.2-1,9.5,1,12.7,1.8
		C1831.5-392.1,1839.5-390.3,1840.8-388.2z"/>
	<path class="st2" d="M1814.7-340.5c-0.1-0.2-0.2-0.5-0.1-0.7c0-0.2,0-0.3,0.1-0.5c0.1-0.3,0.4-0.5,0.6-0.7c0.4-0.3,0.9-0.2,1.4-0.1
		s0.9,0.2,1.2,0.5c0.5,0.5,0.6,1.2,0.3,1.8c-0.3,0.4-0.7,0.6-1.2,0.7C1816.3-339.4,1815-339.5,1814.7-340.5z"/>
</g>
<path class="st2" d="M1719.6-378.2c-0.4,2.1-6.9,8.2-13.6,7s-7.9-6.2-5.6-10.5c1.7-3.1,3.7-0.6,11.2,1
	C1716.7-379.6,1720-380.2,1719.6-378.2z"/>
<path class="st2" d="M1703.1-412.4c5.8-10.8,11.4-19.1,12.8-18.3c1.4,0.8-1.8,10.3-7.6,21.1s-12.8,20.4-14.2,19.6
	C1692.7-390.8,1697.3-401.6,1703.1-412.4z"/>
<g>
	<path class="st2" d="M1573.8-473.9c-1.7,5.9-4.1,11.6-7.1,17c-1.8,3.2-3.8,6.3-5.2,9.7c-1.4,3.3-2.2,7.1-1.5,10.7
		c0,0.2,0.1,0.4,0.2,0.5c0.2,0.2,0.5,0.2,0.8,0.2c7.8,0.1,15.4-3,22.3-6.8c0.8-0.4,1.7-1,2.2-1.8c0.9-1.4,0.3-3.3-0.3-4.9
		c-0.5-1.4-1.1-2.8-1.6-4.2c-1.9-4.9-3.8-9.8-4.6-14.9c-0.7-4.3-1.2-13.1-2.3-12.9C1575.8-481.1,1574.3-476.5,1573.8-473.9z"/>
</g>
<path class="st2" d="M1490.8-456.3c-1,0.9-1.7,2-2,3.5c-0.1,0.6-0.2,1.2-0.2,1.9s0.2,1.4,0.5,2s0.8,1.2,1.5,1.7s1.7,0.9,2.9,1.2
	c1.1,0.3,2.5,0.3,4,0.2l1.4-9.9c-0.6-0.3-1.3-0.5-1.9-0.7s-1.2-0.3-1.6-0.4C1493.4-457.3,1491.9-457.1,1490.8-456.3z"/>
<path class="st2" d="M1499.8-473.1c-0.5-0.2-1-0.3-1.4-0.4c-2-0.4-3.5-0.2-4.5,0.5s-1.6,1.7-1.9,2.9c-0.1,0.4-0.1,1-0.1,1.5
	s0.1,1.1,0.5,1.6s0.8,1,1.5,1.4s1.6,0.7,2.8,1c1,0.2,2.2,0.3,3.5,0.2c0.2-1.7,0.5-3.2,0.7-4.6c0.3-1.4,0.5-2.6,0.6-3.7
	C1500.9-472.9,1500.4-473.1,1499.8-473.1z"/>
<path class="st2" d="M1450.6-447.6c-1.8-0.4-2.9-1-3.3-1.9c-0.5-0.9-0.6-1.9-0.4-3.1l0.4-3c0-0.3,0.2-0.5,0.4-0.6
	c0.2,0,0.5-0.1,0.7,0l12.8,2.7c-1.1-2.5-2.2-4.9-3.4-7.3c-1.1-2.4-2.2-4.6-3.2-6.5s-1.8-3.5-2.5-4.8c-0.6-1.2-1-2-1.1-2.2
	c-0.5-1.3-0.7-2.4-0.5-3.4l0.5-3.3c0-0.3,0.2-0.5,0.4-0.6c0.2,0,0.5-0.1,0.7,0l20.5,4.3c0.9,0.2,1.6,0.4,2.1,0.8
	c0.5,0.3,0.9,0.7,1.1,1.2s0.3,1,0.3,1.5c0,0.6,0,1.1-0.1,1.6l-0.4,2.8c0,0.3-0.1,0.5-0.2,0.6s-0.3,0.2-0.6,0.1l-11.2-2.4
	c1.7,4.1,3.2,7.6,4.6,10.2c1.4,2.7,2.5,4.9,3.5,6.6s1.7,3.2,2.2,4.3c0.4,1.1,0.6,2.2,0.4,3.3l-0.5,3.3c-0.1,0.4-0.4,0.6-0.8,0.5
	L1450.6-447.6z"/>
<g>
	<path class="st2" d="M1521.3-406.7c1.3,0.3,7.5,9.6,6.9,10.7c-0.6,1.2-15.8,4.2-19.3,4.8s-18.8,2.6-19.8,1.5
		c-0.9-1.2,2.6-11,3.2-11.9s9.6-2.4,14.4-3.2C1510.8-405.5,1520.1-407,1521.3-406.7z"/>
	<path class="st2" d="M1539.2-373.3c0,0-1.1,0.7-3.8,1.7c-2.7,1-5.2,1.4-5.2,1.4s0.6,3.5,1.2,3.9c0.5,0.4,2.8,0,4.3-0.2
		s3.4-0.4,3.8-1C1540.3-368.7,1539.2-373.3,1539.2-373.3z"/>
	<path class="st2" d="M1486.3-364.4c0,0,1.4,0.3,4.2,0.3c2.8,0,5.3-0.4,5.3-0.4s0.6,3.5,0.2,4.1s-2.7,1-4.2,1.2
		c-1.5,0.3-3.3,0.7-3.9,0.3C1486.8-359.8,1486.3-364.4,1486.3-364.4z"/>
	<circle class="st2" cx="1530.3" cy="-382.8" r="3.4"/>
	<circle class="st2" cx="1491.3" cy="-376.3" r="3.4"/>
</g>
<g>
	<path class="st2" d="M343.9-764.1c-6.2-5.1-12.1-11.5-14.6-11.1s-20.5,24.6-20.5,27.1c-0.1,2.6,2,2.9,14,10.3
		c12,7.5,13.9,4.4,21-5.2C351.5-753.2,351.5-757.6,343.9-764.1z"/>
</g>
<g>
	<path class="st2" d="M156.8-1029.6c0.9-6.9,6.8-9.7,11.1-10s8.5,2.1,11.6,5.1c3.1,3.1,1.6,7.8-4.1,11.2c-6.9,4.1-7.1,11.5-10.6,9.3
		C159.8-1017.2,156.3-1024,156.8-1029.6z"/>
</g>
<path class="st2" d="M267.6-955c-0.7,0-2.1-4.5-4.1-9.8s-3.4-11.8-2.6-12.8c0.8-1.1,7.2,0.3,9,1.3s7.5,16.4,6.9,17.6
	C276.3-957.6,268.5-955,267.6-955z"/>
<path class="st2" d="M232.8-962.3c2.4,5.7,5.8,6.1,8.1,2.5c2.4-3.7,5.2-5.8,11.7-5.4c6.9,0.4,7.8-1.8,6.3-9.3
	c-1.8-9.2-1.2-12.7-3.1-14c-1.8-1.2-12.3,1.8-17.1,3.6s-15,5.2-15,7.9C223.7-974.1,229.7-969.5,232.8-962.3z"/>
<path class="st2" d="M275-846.4c-0.4-0.8-1.2-0.8-2.1-1.2c-3.3-0.6-6.9-0.3-9.9-1.8c-1.7-0.8-3.1-2.2-4.3-3.8c-2.2-3-3.6-6.5-4-10.2
	c3.6,0.6,7.4-1.2,10.9-0.3c1.8,0.5,3.4,1.6,4.6,3s2.1,3.1,2.8,4.8C274.2-852.8,274.9-849.7,275-846.4"/>
<g>
	<path class="st2" d="M284.5-676.2c-0.4,2.3-15.8,10.5-19.1,12.4c-3.3,1.9-17.2,10.4-19.1,9.9s-5.7-7-7.4-9.9
		c-1.7-3-5.6-10.1-5.3-12.1s15.8-10.1,18.1-11.6s18.5-10.8,20-10.7c1.6,0.1,5.9,7.5,7.6,10.3C280.5-685.8,284.8-678.8,284.5-676.2z"
		/>
	<path class="st2" d="M231.7-661.4c0.1-0.2,0.2-0.5,0.4-0.6s0.3-0.2,0.5-0.3s0.6-0.1,0.9-0.1c0.5,0,0.8,0.5,1.1,0.9
		c0.2,0.3,0.5,0.7,0.5,1.1c0.1,0.6-0.4,1.3-1,1.4c-0.4,0.1-0.9,0-1.3-0.3C232.3-659.7,231.5-660.8,231.7-661.4z"/>
</g>
<path class="st2" d="M192.4-755.9c-1.8,1.1-10.7,0.8-14.5-4.9s-1.1-10,3.6-11.4c3.4-1,3,2.2,7.1,8.7
	C191.3-759.1,194.1-757.1,192.4-755.9z"/>
<path class="st2" d="M205.3-791.8c11.7-3.4,21.5-5.2,22-3.6c0.4,1.6-8.6,5.9-20.4,9.3c-11.8,3.5-23.4,5.2-23.9,3.6
	C182.6-784.1,193.5-788.3,205.3-791.8z"/>
<g>
	<path class="st2" d="M158.7-927.1c-5.5,2.9-11.3,5.2-17.2,6.8c-3.6,1-7.2,1.7-10.6,3.1c-3.4,1.3-6.6,3.4-8.7,6.4
		c-0.1,0.1-0.2,0.3-0.2,0.5c0,0.3,0.2,0.5,0.4,0.7c5.4,5.7,12.9,9,20.5,11.2c1,0.3,2,0.5,2.9,0.3c1.7-0.4,2.6-2.2,3.3-3.7
		c0.6-1.4,1.3-2.7,1.9-4.1c2.2-4.7,4.4-9.5,7.5-13.7c2.5-3.5,8.5-10.1,7.6-10.7C165.3-930.8,161.2-928.6,158.7-927.1z"/>
</g>
<path class="st2" d="M88.2-974.1c-1.3-0.1-2.6,0.2-3.9,1c-0.5,0.3-1,0.7-1.5,1.2s-0.9,1-1.1,1.7s-0.3,1.5-0.2,2.3
	c0.1,0.9,0.5,1.8,1.2,2.9c0.6,1,1.5,2,2.7,3l8.1-5.9c-0.2-0.7-0.5-1.4-0.8-1.9s-0.6-1-0.8-1.4C90.8-972.9,89.6-973.9,88.2-974.1z"/>
<path class="st2" d="M106.8-979.6c-0.2-0.5-0.5-0.9-0.7-1.3c-1.1-1.7-2.3-2.7-3.5-2.9s-2.3,0-3.4,0.7c-0.4,0.3-0.8,0.6-1.2,1
	c-0.4,0.4-0.6,0.9-0.8,1.5c-0.2,0.6-0.1,1.3,0,2.1s0.5,1.7,1.2,2.7c0.6,0.9,1.3,1.8,2.3,2.7c1.4-1,2.6-1.9,3.8-2.7
	c1.1-0.8,2.2-1.6,3-2.2C107.3-978.6,107-979.1,106.8-979.6z"/>
<path class="st2" d="M54-996.8c-1-1.6-1.4-2.8-1-3.7s1-1.7,2-2.4l2.4-1.8c0.2-0.2,0.5-0.2,0.7-0.1c0.2,0.1,0.4,0.3,0.5,0.5l7,11
	c1-2.6,1.9-5.1,2.8-7.6c0.9-2.6,1.7-4.8,2.4-6.9c0.7-2.1,1.3-3.8,1.7-5.2c0.4-1.4,0.7-2.2,0.8-2.4c0.6-1.3,1.3-2.2,2.1-2.8l2.7-2
	c0.2-0.2,0.5-0.2,0.7-0.1c0.2,0.1,0.4,0.3,0.5,0.5l11.2,17.7c0.5,0.8,0.8,1.5,0.9,2.1s0.1,1.1-0.1,1.6c-0.1,0.5-0.4,0.9-0.8,1.3
	c-0.4,0.3-0.8,0.7-1.2,1l-2.3,1.7c-0.2,0.2-0.4,0.3-0.6,0.3s-0.3-0.1-0.5-0.4l-6.2-9.7c-1.8,4.2-3.2,7.7-4.1,10.5s-1.6,5.2-2.2,7.1
	c-0.6,1.9-1.1,3.5-1.6,4.6c-0.5,1.2-1.2,2.1-2.1,2.7l-2.7,1.9c-0.4,0.3-0.7,0.2-0.9-0.2L54-996.8z"/>
<g>
	<path class="st2" d="M74.2-917.7c0.7,1.1-1.6,12-2.8,12.4c-1.2,0.3-14-8.4-16.9-10.5c-2.8-2.1-15-11.6-14.9-13.1s9.6-5.8,10.7-6
		c1-0.2,8.4,5.3,12.3,8.1C65.8-924.4,73.5-918.9,74.2-917.7z"/>
	<path class="st2" d="M62.7-881.6c0,0-1.3-0.4-3.9-1.6s-4.6-2.7-4.6-2.7s-2.1,2.9-2,3.6s2,2.1,3.2,3s2.7,2.1,3.4,2
		C60.2-877.5,62.7-881.6,62.7-881.6z"/>
	<path class="st2" d="M19.6-913.3c0,0,0.7,1.1,2.7,3.2c2,2.1,4,3.6,4,3.6s-2.1,2.9-2.8,3c-0.7,0.2-2.6-1.2-3.8-2.1
		c-1.3-0.9-2.9-1.9-3-2.6C16.3-909.6,19.6-913.3,19.6-913.3z"/>
	
		<ellipse transform="matrix(3.701233e-02 -0.9993 0.9993 3.701233e-02 954.8672 -798.1084)" class="st2" cx="63.3" cy="-894.5" rx="3.4" ry="3.4"/>
	
		<ellipse transform="matrix(0.9998 -2.040448e-02 2.040448e-02 0.9998 18.7349 0.4475)" class="st2" cx="31.3" cy="-917.9" rx="3.4" ry="3.4"/>
</g>
<g>
	<path class="st2" d="M357-641.6c-10.8,5.1-14.2,6.4-9.3,19.6c4.9,13.3,4.8,15.4,7.3,15.8c2.5,0.5,29.8-12.4,30.6-14.7
		s-4.2-9.4-8.1-16.5C372.8-646.1,368.5-646.9,357-641.6z"/>
</g>
<g>
	<path class="st2" d="M587.8-412.9c-1.5-3.8,5.8-2.6,11.2-8.6c4.4-4.9,9.3-5.4,11.7-1.8c2.3,3.6,3.9,8.2,2.7,12.4
		c-1.1,4.2-5,9.5-12,8.9C595.7-402.4,589.8-407.3,587.8-412.9z"/>
</g>
<path class="st2" d="M555.2-533.5c1.3-0.4,15.4,8.2,16,10.2c0.7,2,0.8,8.5-0.4,9.1c-1.1,0.6-7.2-2.1-12-5c-4.7-3-8.9-5.3-8.8-6
	C550.1-526,554.2-533.2,555.2-533.5z"/>
<path class="st2" d="M562.8-477.6c2.7,0.6,8-8.7,10.7-13.1s7.7-14.1,6.8-16.1c-1-2.2-4.5-2.2-13.1-5.8c-7.1-3-9.3-2.6-10.3,4.3
	c-0.9,6.4-3.5,8.8-7.6,10.4c-3.9,1.6-4.2,4.9,0.9,8.4C556.7-485.1,560.1-478.3,562.8-477.6z"/>
<path class="st2" d="M444.8-553.6c3.2,0.7,6.2,2,8.8,3.9c1.5,1,3,2.1,4.1,3.6s1.9,3.3,2,5.1c0.2,3.6-2.2,7-2.4,10.6
	c-3.5-1.1-6.7-3.2-9.2-5.9c-1.3-1.5-2.4-3.1-2.9-5c-0.8-3.3,0.2-6.7,0.2-10.1C445.3-552.3,445.4-553.1,444.8-553.6"/>
<path class="st2" d="M346.7-485.1c5.5,5.3,8.7,5.6,7.1,8.7c-2.3,4.3-7.1,6.1-11.9,1.3c-4.8-4.9-3.4-13.6-1.9-15.2
	C341.5-491.8,342.8-488.8,346.7-485.1z"/>
<path class="st2" d="M364.2-476c-1.4-0.7,2.6-11.8,8.2-22.7s11.6-19,13.1-18.2c1.4,0.8-2.2,10-7.9,20.9
	C371.8-485.2,365.6-475.3,364.2-476z"/>
<g>
	<path class="st2" d="M506.1-430.5c-0.5-1-8.1,3.6-12,5.4c-4.7,2.2-9.8,3.4-14.9,4.6c-1.5,0.4-2.9,0.8-4.4,1.1
		c-1.7,0.4-3.6,1-4.3,2.5c-0.5,0.9-0.4,1.9-0.3,2.9c0.7,7.8,2.5,15.8,7,22.3c0.1,0.2,0.3,0.5,0.6,0.5c0.2,0,0.4,0,0.6-0.1
		c3.3-1.4,6-4.2,8-7.3s3.5-6.5,5.1-9.8c2.7-5.5,6.1-10.7,10-15.5C503.1-425.9,506.2-429.7,506.1-430.5z"/>
</g>
<path class="st2" d="M531.3-349.7c-0.4-0.3-0.8-0.7-1.3-1.1s-1-0.8-1.6-1.2l-7.4,6.7c0.7,1.3,1.5,2.4,2.4,3.2
	c0.9,0.9,1.8,1.4,2.6,1.7c0.9,0.3,1.6,0.4,2.3,0.3s1.3-0.3,1.9-0.7c0.5-0.4,1-0.8,1.4-1.2c1-1.1,1.6-2.3,1.7-3.6
	C533.5-346.9,532.8-348.3,531.3-349.7z"/>
<path class="st2" d="M541.2-363.6c-0.8,0.8-1.7,1.6-2.7,2.6s-2.2,2.1-3.4,3.2c0.7,1.2,1.5,2.1,2.2,2.8c0.9,0.8,1.7,1.4,2.4,1.7
	c0.7,0.3,1.4,0.4,2,0.4c0.6-0.1,1.1-0.2,1.6-0.5s0.9-0.6,1.2-1c0.8-0.9,1.3-2,1.3-3.2c0-1.3-0.7-2.6-2.2-4c-0.3-0.3-0.7-0.7-1.1-1
	C542.1-363,541.6-363.3,541.2-363.6z"/>
<path class="st2" d="M532.4-323c-0.3-0.4-0.3-0.7,0-1l2.4-2.3c0.8-0.7,1.8-1.3,3-1.5c1.2-0.3,2.8-0.5,4.8-0.7
	c1.9-0.2,4.4-0.5,7.4-0.8c2.9-0.3,6.6-1,11-1.9l-8.3-7.9c-0.3-0.3-0.4-0.5-0.3-0.6s0.2-0.3,0.4-0.5l2.1-1.9c0.4-0.4,0.8-0.7,1.2-1
	s0.9-0.5,1.4-0.6s1,0,1.6,0.2s1.2,0.6,1.9,1.3l15.1,14.4c0.2,0.2,0.3,0.4,0.4,0.6c0.1,0.2,0,0.5-0.2,0.7l-2.5,2.2
	c-0.7,0.7-1.8,1.2-3.1,1.5c-0.2,0-1.1,0.1-2.5,0.3s-3.2,0.4-5.4,0.7s-4.6,0.6-7.2,1c-2.7,0.4-5.3,0.8-8,1.3l9.5,9
	c0.2,0.2,0.3,0.4,0.4,0.6c0.1,0.2,0,0.5-0.2,0.7l-2.2,2c-0.9,0.8-1.9,1.3-2.8,1.4s-2.1-0.4-3.4-1.7L532.4-323z"/>
<g>
	<path class="st2" d="M1368.6-219.3c5.4-10.6,7.3-13.6-4.7-21.1s-13.1-9.2-15.4-8s-15.9,28-15.1,30.4s9.1,4.9,16.5,8.1
		C1358.8-206,1362.8-208,1368.6-219.3z"/>
</g>
<path class="st2" d="M1145.7-182.9c-0.8,1.1-17.2,2.9-18.9,1.7c-1.7-1.1-5.7-6.2-5.2-7.4c0.6-1.2,7-2.8,12.6-3.4
	c5.5-0.6,10.2-1.3,10.6-0.7C1145.3-192.1,1146.3-183.9,1145.7-182.9z"/>
<path class="st2" d="M1105.3-222.3c-2.5,1.1-1,11.8-0.4,16.9c0.6,5.2,2.6,15.9,4.5,16.9c2.1,1.1,4.9-1,13.9-3.5
	c7.4-2.1,8.9-3.8,5.5-9.8c-3.2-5.6-2.6-9.1-0.4-12.9c2.2-3.7,0.4-6.5-5.8-6.1C1114.9-220.3,1108.1-223.6,1105.3-222.3z"/>
<path class="st2" d="M1245.3-234.8c-3,1.4-6.1,2.2-9.3,2.6c-1.8,0.1-3.7,0.1-5.5-0.4s-3.5-1.4-4.7-2.8c-2.4-2.8-2.5-6.9-4.6-9.9
	c3.5-1.3,7.3-1.7,10.9-1c1.9,0.4,3.8,1,5.3,2.2c2.6,2,3.9,5.3,6,8C1243.9-235.4,1244.3-234.7,1245.3-234.8"/>
<g>
	<path class="st2" d="M1388.8-301.6c-3.3-0.2-11.8-0.8-12.6-2.1c-0.8-1.4,0.4-20,0.7-22.7c0.3-2.7,0.6-20.3,2.3-21.4
		c1.7-1.2,9.8-0.9,13.2-0.7s10.9,0.7,12.2,2.2c1.2,1.4-0.1,17.8-0.4,21.5s-0.7,21.2-2.6,22.6
		C1399.6-300.8,1391.4-301.6,1388.8-301.6z"/>
	<path class="st2" d="M1393.8-356.1c0.4,0.3,0.8,0.6,0.9,1.1c0.2,0.7-0.2,1.4-0.8,1.6c-0.3,0.2-0.8,0.1-1.2,0.1
		c-0.5-0.1-1.1-0.2-1.3-0.6c-0.1-0.3-0.3-0.6-0.3-0.9c0-0.1,0-0.3,0-0.5c0-0.3,0.2-0.5,0.3-0.7
		C1391.8-356.6,1393.3-356.4,1393.8-356.1z"/>
</g>
<path class="st2" d="M1280.8-349.2c-7.7-0.8-10.4,1-11-2.5c-0.9-4.8,1.7-9.2,8.5-8.3c6.7,0.9,11,8.7,10.8,10.8
	C1288.9-347,1285.9-348.6,1280.8-349.2z"/>
<path class="st2" d="M1261.3-345.7c1.6-0.3,5.3,11,7.5,23s2.4,22.1,0.8,22.4s-4.4-9.2-6.6-21.3
	C1260.8-333.6,1259.8-345.3,1261.3-345.7z"/>
<g>
	<path class="st2" d="M1121.7-294.7c0.9,0.5,4.1-7.7,6.1-11.6c2.4-4.6,5.7-8.7,8.9-12.8c0.9-1.2,1.9-2.3,2.8-3.5
		c1-1.3,2.2-2.9,1.8-4.6c-0.3-0.9-0.9-1.7-1.6-2.4c-5.4-5.7-11.7-11-19.2-13.3c-0.2-0.1-0.6-0.1-0.8,0c-0.2,0.1-0.3,0.2-0.4,0.4
		c-1.8,3.2-2.2,7-1.9,10.7c0.3,3.6,1.3,7.2,2,10.8c1.2,6,1.7,12.2,1.6,18.4C1120.8-299.9,1120.8-295.1,1121.7-294.7z"/>
</g>
<g>
	<path class="st2" d="M755.8-316.6c-6.2,10.1-8.3,13.1,3.1,21.4s12.5,10.1,14.8,9.1c2.4-1,17.9-26.8,17.3-29.2
		c-0.6-2.4-8.8-5.5-15.9-9.3C766.3-329.2,762.3-327.5,755.8-316.6z"/>
</g>
<path class="st2" d="M877.6-292.2c3.1-1.2,6.2-1.7,9.4-1.8c1.9,0,3.8,0.2,5.5,0.8c1.8,0.6,3.4,1.6,4.5,3.1c2.2,2.9,2,7.1,3.9,10.2
	c-3.5,1.1-7.3,1.1-10.9,0.2c-1.9-0.4-3.7-1.2-5.2-2.5c-2.5-2.3-3.5-5.7-5.4-8.5C878.9-291.5,878.5-292.2,877.6-292.2"/>
<g>
	<path class="st2" d="M729.6-235.9c3.2,0.5,11.7,1.7,12.4,3.1c0.7,1.3-1.8,19.8-2.3,22.5s-2,20.2-3.8,21.2s-9.8,0.2-13.2-0.3
		s-10.9-1.6-12-3.1c-1.2-1.5,1.4-17.7,1.9-21.4c0.5-3.8,2.2-21.2,4.2-22.4C718.8-237.6,727-236.3,729.6-235.9z"/>
	<path class="st2" d="M720.8-182c-0.4-0.2-0.7-0.6-0.8-1.1c-0.1-0.6,0.3-1.3,0.9-1.5c0.4-0.1,0.8-0.1,1.2,0s1,0.3,1.2,0.7
		c0.2,0.3,0.3,0.6,0.3,0.9c0,0.2-0.1,0.3-0.1,0.5c-0.1,0.2-0.3,0.4-0.4,0.6C722.6-181.4,721.2-181.7,720.8-182z"/>
</g>
<path class="st2" d="M833.8-180.8c7.6,1.4,10.4-0.2,10.8,3.3c0.6,4.9-2.4,9.1-9.1,7.7c-6.7-1.3-10.4-9.4-10-11.5
	C825.8-183.5,828.7-181.7,833.8-180.8z"/>
<path class="st2" d="M853.5-182.9c-1.6,0.1-4.5-11.3-5.8-23.5s-0.7-22.2,0.9-22.4c1.6-0.1,3.7,9.6,5,21.8
	C854.8-194.8,855.1-183.1,853.5-182.9z"/>
<path class="st2" d="M1920.2-349.1c-65-22-56.3-58.6-91.1-77.6c-35.3-19.2-64.9,3.2-119-15c-32.5-10.9-48.9-19-54.9-32.1
	c-3.3-6.8-0.9-18.7,10-27c10.1-7.6,16,2,20.7,5.3c7,5,16.1,8.1,9.7,20.2c-5.7,10.7-16.9,14.2-23.5,13.6
	c-13.9-1.3-33.6-13.5-48.1-37.4c-13.8-22.7-30.4-31.3-44.8-24.4c-2.3,1-5,2.7-7.1,4.6c-2.5,2.3-6,6.3-8.1,9
	c-4.3,5.7-7.1,10.1-11.3,15.8c-2,2.8-4,5.6-5.3,8.7c-2.5,6.2-1.9,13.3,0.6,19.4c0.8,1.9,1.8,3.8,3.2,5.3c1.7,1.8,4,3.1,6.3,4.1
	c1.3,0.6,2.6,1.1,4,1.6c0.3,0.1,0.7,0.2,1,0.1c0.4-0.1,0.5-0.4,0.7-0.7c6.3-11.1,12.8-35.4,14-35.5c1-0.1,4.3,11,5,16.7
	c0.3,2.1,0.4,4.3,1.2,6.3c0.8,2,2.6,3.7,4.7,3.8c2.3,0.1,4.1-1.7,5.6-3.5c4.5-5.5,8-11.7,10.3-18.4c1.3-3.6,2.2-7.3,3-11
	c1.2-5.3,2.2-10.9,0.6-16.1c-1.6-5-7.1-11.1-11.8-13.5c-14.1-7.8-24.6-12.2-45.2-7c-23.2,5.8-31.4,22.8-37,56.7
	c-0.1,0.4-0.2,1.1-0.3,1.7c0,0.3-0.1,0.7-0.2,1.2c-0.1,0.4-0.2,1.2-0.4,2.4c-0.2,1.2-0.4,2.8-0.7,4.9c-0.2,2.1-0.6,5-1.1,8.6
	c-0.4,3-0.7,5.4-1,7.3s-0.5,3.5-0.7,4.7s-0.3,2.1-0.4,2.8c-0.1,0.6-0.2,1.1-0.3,1.5c-0.3,1.2-0.7,2.2-1.2,3s-1.3,1.4-2.3,1.8
	c-1,0.3-2.3,0.5-3.9,0.5s-3.5-0.3-5.9-0.8c-3.6-0.8-6.6-1.8-8.9-3c-2.2-1.2-4-2.6-5.2-4.1s-1.9-3.2-2.2-4.9
	c-0.3-1.8-0.2-3.6,0.2-5.4c0.5-2.3,1.4-4.2,2.7-5.6c1.4-1.4,3.2-2.3,5.7-2.5c-1.2-0.6-2.1-1.3-2.8-2.2c-0.6-0.8-1.1-1.8-1.4-2.8
	s-0.4-2-0.4-3.1c0-1,0.1-2,0.3-3c0.3-1.7,1-3.2,1.9-4.4s2.2-2.2,3.7-2.8s3.4-1,5.7-1c2.3,0,5,0.3,8,0.9c1.2,0.2,2.7,0.6,4.3,1
	c1.6,0.5,5.1,1.5,7.4,2.2c29.2,10.7,3.6,39.6,37.5,72.9c41.2,40.6,13.3,108.6-87.7,97.5c-29.7-3.2-51.1,9.7-63.1,10.5
	c-4,0.3-9.9,0-12.1-0.2c-3.9-0.3-14.2-1-15.2-2.7s0.6-26.1,1-29.7c0.4-3.5,0.9-26.5,2.9-28s11.8-1.3,15.9-1s13.2,0.9,14.7,2.8
	s-0.3,23.3-0.6,28.2c-0.3,4-0.9,19.8-2.2,26.6c-5.7,30.7-54.2,13.3-71.5,33.6c-13.5,14.4-24.6,41.2-23.8,43.7
	c0.9,2.8,30.5,13.3,39.2,17.1c10.6,4.6,15.3,2.3,22.1-11.1c6.3-12.5,8.6-16.2-5.6-25c-12.8-7.9-22.9-16.7-34.5-19.3
	c-19.4-4.3-42.6,0.3-56.9-20.7c-15.7-23-18-60.6-14.6-63.9c1.6-1.6,6.1,0.3,5.8-4.4c-0.3-4.7,1.3-12.4,10.5-13
	c7.8-0.5,13,4.8,14.8,8.4s3.5,8.8,4.7,9.4c1.3,0.6,3.9,1.2,4.8,1.5c4.1,1.4,9.1,28.6,5.4,31.2c-1.6,1.1-8.4,6.6-17,10.3
	c-7,3-14.9,5-18.4,5.5c-23.1,3.1-47.4-6.2-70.2,0.7c-34.3,10.4-18.4,67.6-54.8,72.4c-5,0.6-21.8,2.9-27.8,2.1s-10.4-3.2-13.8-1.3
	c-4.4,2.5,1.7,37.8,4.1,39.2c1.9,1.2,7.5-3.2,9.6-2.5c2.3,0.8,5.8,11,11.8,10.2c4.4-0.6,10.8-0.9,14.8-1.6c3.2-0.6,5.2-2.1,4.9-4.4
	c-0.4-4.2-1.3-9.2,0.8-9.6c1.9-0.4,3.1-0.4,2.7-5.3c-0.4-5-1.7-21.2-2-23.4c-3.7-25.8-42.3,1.8-90.3-32
	c-24.1-15.8-39.8-18.1-51.8-11.5c-11.1,6.1-18.2,11.7-19.3,12.7c-1.5,1.2,3.1,13.1,7.5,20.5c4.6,7.6,12.2,8.4,17.2,8.7
	c3.5,0.2,7.5,9.2,9.8,13.5c2.7,5,4.5,9.2,0.5,12.7c-4.7,4.1-3.4,7.4,8.3,1.1c11.5-6.2,10.6-9.6,4.6-7.8c-6.9,2.1-8.4-1.6-11.3-7
	s-7.3-12.7-6.2-15.6c1.4-3.7,4.5-7.5,3.5-15.1c-0.9-7.3-8.9-17-12.7-21.3c-6.2-7-25.8-11.2-50.3,4.9C937.5-241,914.6-237,901.2-241
	c-6.4-1.9-15.5-9.3-16.7-21.4c-1.4-13.6,8.2-13.1,16.6-15.1c5.5-1.3,14.7-7.9,21.1,2.9c7,11.8,4.8,23.7-0.8,28.8
	c-10.5,9.9-28.7,11.3-63,9.2c-57-3.5-76-35.3-116-30.7c-39.7,4.6-61.2,40.7-105.4,38.8c-31-1.3-55.2-29.3-107.5-46.1
	C470-293.7,461.9-336.5,502-361c59.1-39.5,52.5-50.2,75.9-66.2c8-5.7,19.5-11.1,20.9-11.6c1.7-0.7,10,9,14.4,16.4
	c4.5,7.6,1.5,14.6-0.6,19.2c-1.5,3.2,4.5,11,7.2,15.1c3.1,4.7,5.9,8.3,10.9,6.5c5.9-2.2,8.2,0.5-2.9,7.8c-11,7.1-13.6,4.7-9.1,0.3
	c5.1-5.1,2.6-8.2-0.8-13.3s-7.8-12.4-10.8-12.8c-3.8-0.5-8.7,0.4-14.9-4.1c-5.9-4.2-10.8-15.9-12.6-21.3
	c-17.2-56.2-64.6-58.1-51.7-80.7c1.1-2,10-15.6,12.7-19.7c2.7-4.1,3.7-3.4,5.4-2.5c1.9,1,4.3-3.5,6.5-7.1c1.3-2,3.7-2,6.6-0.4
	c3.6,1.9,8.8,5.5,12.7,7.8c5.2,3.1,1.7,13.3,3.1,15.3c1.3,1.8,8.4,1.8,9.2,3.9c1.1,2.6-15.8,34.2-20.8,33.5
	c-3.9-0.6-5.9-5.2-10.1-9.5c-4.2-4.3-18.9-12.9-23.2-15.4c-31.7-18.5-54.2,36.4-87.7,23.6c-22.2-8.5-35.7-30.8-55.8-42.5
	c-3-1.8-10.5-5-17.9-7c-9.1-2.4-17.8-2.2-19.8-2.3c-4.6-0.2-17.3,24.3-14.9,27.9c0.5,0.7,2.2,2.8,2.8,4.1c0.6,1.2-1.3,6.3-2,10.3
	c-0.7,3.9,0.1,11.4,6.5,15.7c7.6,5.2,13.6,0.1,16.3-3.8c2.7-3.9,5,0.4,7.3,0.1c4.7-0.5,26-31.6,27.7-59.4
	c1.7-25.3-19.5-36-32.2-51.3c-7.6-9.1-10.2-22.3-15.4-36.4c-5.9-15.6-1.8-17.1,10.9-23.1c13.6-6.4,18.7-5.4,24.3,4.8
	c4.5,8.3,21.4,34.7,20.4,37.5c-0.9,2.4-26.1,16.8-45.6,19.9c-26.2,5.5-38.1-11.1-41.6-17.4c-31.3-56,1.1-74.4-9.8-112.8
	c-11-38.7-47.6-44.2-72.5-95.6c-15-30.9-20.6-48.3-15.5-61.7c2.6-7.1,12.8-13.7,26.3-11.7c12.5,1.9,9.8,12.9,10.7,18.5
	c1.3,8.5,5.4,17.2-7.7,21.1c-11.7,3.4-22-2.1-26.2-7.3c-8.8-10.9-13.9-33.6-6.9-60.6c6.6-25.7,1.1-43.6-13.9-49.1
	c-2.3-0.9-5.4-1.6-8.2-1.8c-3.4-0.2-8.7,0.1-12.1,0.5c-7,0.9-12.2,1.9-19.2,2.9c-3.4,0.5-6.8,1-9.9,2.3c-6.1,2.5-10.8,7.9-13.4,14
	c-0.8,1.9-1.4,3.9-1.5,6c-0.2,2.5,0.5,5,1.4,7.4c0.5,1.4,1.1,2.7,1.7,4c0.2,0.3,0.4,0.7,0.7,0.8c0.3,0.2,0.7,0.1,1,0
	c12.3-3.2,34.2-15.6,35.1-14.8c0.7,0.6-4.9,10.7-8.5,15.2c-1.3,1.7-2.8,3.3-3.7,5.3c-0.8,2-0.9,4.5,0.6,6.1s4.1,1.7,6.4,1.5
	c7.1-0.6,14-2.5,20.4-5.5c3.5-1.7,6.8-3.6,10-5.6c4.6-2.9,9.3-6,11.9-10.8c2.5-4.6,2.9-12.9,1.4-17.9c-4.3-15.5-8.5-26-26.6-37.2
	c-20.4-12.6-38.3-6.5-66.4,13.2c-0.3,0.3-0.8,0.7-1.4,1c-0.3,0.2-0.6,0.4-1,0.7c-0.4,0.2-1.1,0.7-2,1.4c-1,0.7-2.3,1.6-4,2.9
	c-1.7,1.3-4,3-6.9,5.2c-2.4,1.8-4.3,3.2-5.9,4.4c-1.5,1.1-2.8,2.1-3.8,2.8s-1.8,1.3-2.3,1.7c-0.6,0.4-1,0.7-1.3,0.9
	c-1.1,0.7-2.1,1.1-3,1.3c-1,0.2-1.9,0.1-2.9-0.4s-2-1.3-3.1-2.4c-1.1-1.2-2.3-2.8-3.6-4.8c-2-3.2-3.4-6-4.1-8.5
	c-0.7-2.4-0.9-4.7-0.7-6.6c0.3-1.9,0.9-3.6,2-5s2.4-2.6,4-3.6c2-1.3,3.9-1.9,5.9-2s3.9,0.7,5.8,2.3c-0.4-1.2-0.6-2.4-0.4-3.5
	c0.1-1.1,0.5-2.1,1-3c0.5-1,1.1-1.8,1.9-2.5c0.8-0.8,1.6-1.4,2.4-1.9c1.5-0.9,3-1.5,4.5-1.7s3.1,0,4.6,0.7s3.1,1.8,4.7,3.4
	c1.6,1.6,3.2,3.7,4.9,6.3c0.7,1.1,1.5,2.3,2.3,3.8s2.4,4.7,3.6,6.8c12.8,28.4-25.8,30.3-25.9,77.8c-0.7,63.8-48.1,29.7-94.1,37.7"/>
<g>
	<path class="st2" d="M1020.1-232.4c-2.8,6.4-9.3,7.3-13.5,6.3c-4.3-1-7.6-4.5-9.6-8.3c-2.1-3.7,0.8-7.9,7.2-9.4
		c7.8-1.9,10.2-8.9,12.9-5.8C1021-245.2,1022.5-237.6,1020.1-232.4z"/>
</g>
<g>
	<path class="st2" d="M561.9-243.8c1.4-0.3,11.2,5.5,11.1,6.8s-14,10.6-17.2,12.7c-3.3,2-17.7,10.5-19.1,9.9
		c-1.4-0.6-1.9-11.1-1.6-12.2c0.2-1,8.6-6.3,13-9.1C552-238,560.5-243.4,561.9-243.8z"/>
	<path class="st2" d="M593.1-220.7c0,0-0.9,1.2-3.2,3.2s-4.6,3.5-4.6,3.5s2,3,2.7,3.1s2.8-1.2,4.2-2.1c1.4-0.9,3.2-1.9,3.4-2.6
		C595.8-217,593.1-220.7,593.1-220.7z"/>
	<path class="st2" d="M544-190c0,0,1.5-0.3,4.3-1.5c2.9-1.1,5.2-2.6,5.2-2.6s2,3,1.8,3.7s-2.3,2-3.7,2.9s-3.1,2.1-3.8,2
		C546.3-185.8,544-190,544-190z"/>
	
		<ellipse transform="matrix(0.9171 -0.3986 0.3986 0.9171 138.0313 212.6918)" class="st2" cx="580.5" cy="-225.6" rx="3.7" ry="3.4"/>
	
		<ellipse transform="matrix(0.9171 -0.3986 0.3986 0.9171 125.9352 200.1092)" class="st2" cx="544.2" cy="-202.8" rx="3.7" ry="3.4"/>
</g>
<path class="st2" d="M-0.2-869.5c36.5-1.7,33.1,23.8,56.8,25.2c37.9,0.6,34-60,16.9-75.7c-2.2-2.1-5.7-4.5-10-7.7h0.1
	c-8-5.9-12.8-9.7-16.2-8.4s-9.2,6.5-14.7,7.2c-6,0.7-11.5,8.5-12.3,13c-0.7,4.5,15.8,16,20.5,19.4h-0.1c4.8,3.4,20.6,15.7,24.7,13.6
	c4.1-2.1,9.8-9.7,8.7-15.7c-0.8-4.6,1.1-12.7,2.4-16.1c12.7-32.5,66.6-53.9,100.5-86.2c7-6.7,14.6-16.9,15.4-18.2
	c1-1.6-6.9-11.7-13.3-17.4c-6.5-5.9-14-4.4-18.9-3.2c-3.5,0.8-9.9-6.6-13.4-10c-4.1-4.1-7.1-7.4-4.3-12c3.3-5.3,1.1-8.1-8.2,1.4
	c-9.2,9.3-7.3,12.3-2.1,8.8c6-4,8.5-0.9,12.9,3.4s10.7,10,10.5,13.1c-0.3,3.9-2.1,8.5,1.1,15.4c3.1,6.7,13.5,13.8,18.5,16.6
	c51.7,27.8,44.3,74.7,69,66.5c2.1-0.7,17.2-6.8,21.8-8.6c4.6-1.9,4.1-3,3.5-4.8c-0.6-2,4.3-3.5,8.2-4.9c2.2-0.9,2.7-3.3,1.7-6.4
	c-1.2-3.9-3.7-9.8-5.2-14c-2-5.7-12.7-4.2-14.4-6c-1.6-1.6-0.2-8.6-2.1-9.8c-2.3-1.5-36.6,8.8-36.9,13.9c-0.3,4,3.9,6.8,7.3,11.8
	s8.9,21.1,10.5,25.8c12,34.7-46.3,46-40.3,81.4c4,23.5,23.2,41.1,30.8,63.1c1.1,3.3,2.8,11.3,3.3,18.9c0.6,9.4-1.3,17.9-1.6,19.9
	c-0.7,4.5-27.3,12.2-30.3,9.1c-0.6-0.7-2.3-2.7-3.5-3.6c-1.1-0.8-6.5,0.1-10.5,0c-4,0-11.1-2.3-14.1-9.4c-3.5-8.5,2.6-13.4,7-15.3
	c4.4-1.9,0.6-5,1.3-7.2c1.4-4.5,36.1-19.3,63.7-15.5c25.2,3.4,31.4,26.2,44,41.7c7.5,9.3,19.9,14.4,32.7,22.3
	c14.2,8.8,16.5,5.1,24.8-6.2c8.9-12.2,8.9-17.3,0-24.8c-7.3-6.1-29.9-27.8-32.8-27.4c-2.6,0.4-21.6,22.2-28.5,40.8
	c-10.4,24.6,26.9,60.1,1.9,79c-5.6,4.2-19.4,11.8-22.9,13.8c-4.3,2.5-22.6,13.6-25,13.1s-7-8.3-9.1-11.9c-2.1-3.6-6.7-12.2-6.3-14.7
	c0.5-2.4,20.8-13.2,23.8-15.1c3-1.9,24.1-14.2,26.1-14.1c1.9,0.1,7.2,9,9.2,12.4c1.1,1.9,4.1,7,5.6,10.7
	c4.6,11.2-8.9,26.7,33.8,73.5c36.3,39.8,30.5,53.2,76,87.7c27.4,20.8,43.3,29.7,57.5,27.3c7.4-1.2,15.9-9.9,16.6-23.5
	c0.7-12.6-10.6-12.1-16-14.1c-8.1-3-15.8-8.7-22.2,3.4c-5.6,10.7-2.3,22,2,27.1c8.9,10.8,30.1,20.1,58,18.6
	c26.5-1.5,43,7.4,45.4,23.2c0.4,2.4,0.5,5.6,0.2,8.4c-0.5,3.4-1.8,8.6-2.9,11.8c-2.2,6.8-4.2,11.6-6.6,18.3
	c-1.1,3.2-2.3,6.4-4.2,9.2c-3.6,5.5-9.8,9.1-16.3,10.4c-2.1,0.4-4.2,0.6-6.2,0.3c-2.4-0.4-4.8-1.6-6.9-2.9c-1.2-0.8-2.4-1.6-3.6-2.4
	c-0.3-0.2-0.6-0.5-0.7-0.8c-0.1-0.4,0.1-0.7,0.2-1c5.6-11.4,22-30.5,21.4-31.5c-0.5-0.9-11.4,2.7-16.6,5.3c-1.9,1-3.8,2.2-5.9,2.6
	s-4.5-0.1-5.8-1.8c-1.3-1.8-0.8-4.4-0.2-6.6c2-6.8,5.2-13.2,9.4-18.9c2.2-3.1,4.8-5.9,7.4-8.7c3.7-4,7.7-8,12.9-9.6
	c5-1.6,13.2-0.4,17.8,2.1c14.3,7.2,23.8,13.4,31.2,33.4c8.3,22.4-1.2,38.8-26,62.5c-0.3,0.3-0.7,0.7-1.2,1.2
	c-0.2,0.2-0.5,0.5-0.8,0.8c-0.3,0.4-0.9,0.9-1.8,1.7c-0.9,0.8-2.1,1.9-3.7,3.3c-1.6,1.4-3.7,3.4-6.4,5.8c-2.2,2-4.1,3.6-5.5,4.9
	s-2.6,2.4-3.5,3.2c-0.9,0.8-1.6,1.4-2.1,1.9s-0.8,0.8-1.1,1.1c-0.8,0.9-1.4,1.8-1.8,2.7c-0.4,0.9-0.5,1.8-0.2,2.9
	c0.2,1,0.8,2.2,1.7,3.5c0.9,1.3,2.3,2.7,4,4.4c2.7,2.6,5.2,4.5,7.5,5.7s4.5,1.9,6.4,2c2,0.2,3.7-0.1,5.3-0.9s3-1.8,4.3-3.2
	c1.6-1.7,2.6-3.5,3.1-5.4s0.1-3.9-1.1-6.1c1.2,0.6,2.3,0.9,3.4,1c1,0.1,2.1-0.1,3.1-0.4s1.9-0.8,2.8-1.4s1.6-1.3,2.3-2
	c1.2-1.3,2-2.7,2.5-4.1s0.6-3,0.2-4.6c-0.3-1.6-1.1-3.4-2.4-5.3c-1.2-1.9-3-4-5.2-6.1c-0.9-0.9-2-1.9-3.3-3s-4.2-3.4-6-4.9
	c-15.9-12.6-37.6-2.7-45.9,7.8c-35,44,45.5,100.8,72.4,123.8c2.9,2.4,10,6.9,15,7.6c6.4,0.9,11.6,8.9,12,13.5
	c0.5,4.6-18.2,15.7-23.5,19.1l0.1-0.1c-5.3,3.3-23.4,15.3-27.5,13.1s-9.6-10-7.8-16.1c1.6-5.6-1.3-12.8-1.1-16.5
	c0.1-3.7,5.8-7,14.9-12.7l-0.1,0.1c4.8-3.1,8.7-5.6,11.7-7c22.5-11.1,39.5-8.5,68,2.5c43,16.7,97.5,0.9,91.1,0.9
	c4,0,9.9,0.8,12.1,1.1c3.9,0.6,14.1,2,15,3.8s-2.5,26.1-3.1,29.6c-0.7,3.6-2.9,26.4-5,27.8c-2.1,1.4-11.9,0.4-15.9-0.2
	s-13-1.9-14.4-3.9s1.9-23.2,2.6-28.1c0.6-4,2.3-19.7,4.1-26.4c7.9-30.2,55-9.3,73.7-28.3c14.5-13.5,27.5-39.4,26.9-41.9
	c-0.7-2.8-29.4-15.5-37.8-19.9c-10.3-5.4-15.1-3.5-22.9,9.4c-7.3,12-9.8,15.5,3.7,25.3c12.1,8.8,21.6,18.4,33,21.8
	c19.1,5.7,42.6,2.8,55.3,24.8c14,24,13.5,61.8,9.9,64.8c-1.8,1.5-6-0.8-6.1,3.9s-2.3,12.3-11.5,12.2c-7.7-0.1-12.5-5.8-14.1-9.5
	s-2.9-9-4-9.7c-1.3-0.8-3.8-1.6-4.7-1.9c-4-1.7-7-29.2-3.1-31.5c1.7-1.1,8.9-6.1,17.8-9.1c7.2-2.5,15.2-3.9,18.7-4.1
	c23.2-1.3,46.8,9.7,70,4.5c35-8,52.4-50.9,89.1-51.8c33.7-0.8,50.6,11.8,71.1,25.3c18.1,11.2,31.2,10.4,47,7.3
	c5.2-0.9,12.4-4.9,15.4-9.2c3.1-4.4,3.8-10.1,4.3-15.5c0.3-3.8,0.6-7.6,0.5-11.4c-0.2-7.1-1.6-14.1-4.2-20.7c-0.8-2.2-2-4.5-4.2-5.1
	c-2.1-0.6-4.3,0.6-5.7,2.2c-1.4,1.7-2.2,3.8-3.1,5.7c-2.4,5.2-8.9,14.7-9.8,14.4c-1.1-0.4,0.2-25.5-2.4-38c-0.1-0.3-0.1-0.7-0.4-0.9
	c-0.3-0.2-0.6-0.2-1-0.2c-1.4,0-2.9,0.1-4.3,0.3c-2.5,0.3-5,0.8-7.2,2c-1.8,1-3.4,2.4-4.7,4c-4.3,5-7,11.6-6.5,18.2
	c0.3,3.4,1.3,6.7,2.4,9.9c2.3,6.7,3.6,11.8,6,18.5c1.2,3.3,3.3,8.2,5,11.1c1.4,2.4,3.5,4.8,5.3,6.5c11.6,11,30.1,7.9,50.1-9.5
	c21.1-18.3,43.6-23.9,57.3-20.9c6.5,1.5,16.1,8.3,18.2,20.2c2.4,13.4-7.2,13.7-15.4,16.3c-5.4,1.7-14.1,9-21.3-1.3
	c-7.9-11.2-6.5-23.3-1.3-28.8c9.7-10.6,27.8-13.3,62.1-13.7c57.1-0.8,78.3,29.6,117.9,22.1c39.2-7.4,49-51.4,113-47.5
	c50.1,3.1,68.2-1.8,78.7-15.6c23-30.2-27.8-77.3-51-76.1c-3.1,0.1-7.2,0.8-12.5,1.7h0.1c-9.7,1.6-15.8,2.4-17.3,5.7
	s-1.7,11.1-5.1,15.5c-3.7,4.8-2,14.2,0.7,17.9c2.7,3.7,22.4-0.1,28.2-1.1h-0.1c5.8-1,25.7-3.8,27-8.1c1.3-4.4-0.1-13.8-5.2-17.2
	c-4-2.7-8.4-9.7-9.9-13c-14.3-31.8,8.1-85.3,8.7-132.1c0.2-9.8-1.9-22.4-2.2-23.8c-0.4-1.9-13.1-3.3-21.7-2.7
	c-8.7,0.6-12.9,7-15.5,11.3c-1.8,3-11.6,2.4-16.5,2.5c-5.7,0.1-10.2-0.1-11.5-5.3c-1.6-6.1-5-6.5-4.8,6.8c0.2,13.1,3.7,13.9,4.8,7.7
	c1.3-7.1,5.3-6.7,11.4-6.8c6.1-0.2,14.7-0.7,16.7,1.6c2.6,2.9,4.6,7.4,11.8,10c6.8,2.5,19.2,0,24.7-1.6
	c56.1-17.5,84.4,20.6,95.8-2.8c1-2,7.2-17.1,9.1-21.6s0.7-4.9-1-5.8c-1.9-1,0.5-5.5,2.2-9.3c0.9-2.2-0.5-4.2-3.4-5.7
	c-3.6-1.9-9.5-4.2-13.6-6.1c-5.5-2.6-11.9,6.1-14.4,6.1c-2.2,0-6.2-5.9-8.4-5.4c-2.7,0.6-19.3,32.3-15.9,36.1c2.6,2.9,7.6,2,13.5,3
	s21.3,8.4,25.8,10.5c33.1,15.7,0.5,65.3,30,85.7c19.6,13.6,45.6,12.1,66.6,22.1c3.1,1.5,10,5.8,15.8,10.8c7.1,6.1,11.9,13.4,13.1,15
	c2.7,3.6-10.4,28-14.7,28c-0.9,0-3.5-0.2-5,0c-1.4,0.2-4.5,4.7-7.4,7.5c-2.8,2.8-9.4,6.4-16.6,3.5c-8.5-3.3-7.7-11.1-6-15.6
	c1.7-4.4-3.1-3.9-4.2-5.9c-2.2-4.2,11.5-39.4,33.5-56.4c20.1-15.6,40.7-4.2,60.6-2.3c11.8,1.1,24.2-4.2,38.8-7.8
	c16.2-4,15.1-8.2,12.9-22.1c-2.4-14.8-6.1-18.5-17.7-17.3c-9.5,1-40.8,1.9-42.5,4.3c-1.5,2.1,0.9,31,9.3,48.9
	c10.3,24.7,61.8,22.9,57.8,53.9c-0.9,6.9-5.1,22.1-6.1,26c-1.2,4.8-6.1,25.7-8.1,27c-2,1.4-10.8-0.8-14.8-1.8s-13.4-3.7-14.9-5.8
	s5.1-24.1,5.8-27.6c0.8-3.5,6.7-27.3,8.2-28.6c1.4-1.3,11.4,1.1,15.3,2.1c2.2,0.6,7.9,2,11.6,3.5c11.3,4.4,49,28.5,78.7,31.9"/>
<g>
	<path class="st2" d="M1411.1,1733.8c-2.3,5.6,2.9,11.5,5.8,10.6c3-1,4.7,1,4.7,2.7c0,2-2.6,3.5-4.9,1.5c-2-1.7-7.6-3.5-8.4,0.3
		s3.2,10.1,7.7,8.9c3.5-0.9,4.8,2.4,4.6,3.7c-0.4,1.8-1.1,2.7-3.2,3.9s-3.7,7-2.8,12.9c0.6,4.2,2.3,1.8,4.7,3.3s4.8,0.9,5.2,2.3
		c0.4,1.4-3,1.4-5.8,1.4s-0.5-0.1-10.7,0.7c-10.2,0.8-9.4-1.7-9-2.6s3.1-2,3.1-4.4c0-7.4,5.6-8.7,2.2-12.7s-14.5-3.7-14.9-10.7
		c-0.1-3,1.7-5.3,0.3-6.1c-1.6-1-3.9,1.3-4.7-1.7c-0.8-3,0.1-11.7,3.3-16.9c2.9-4.7,8.1-2.4,11.9-4.2c3.1-1.5,4.4-3.2,3.3-7
		c-1.6-5.4,5.4-9.1,10.9-6.2c6.3,3.2-0.4,10.4-0.1,13.9C1414.6,1731.1,1412.3,1731.1,1411.1,1733.8z"/>
	<path class="st2" d="M1401.9,1780.1c2.2-0.3,5,4.4,8.8,4.1c3.8-0.2,4.6-3.7,4.6-3.7"/>
	<path class="st2" d="M1402.1,1764.8c2.5,1.3,6,1.9,5.6,8c-0.3,5.2-2.8,8.6-2.8,8.6c-1.5,2.2-2.8,3.8-1.1,4.9"/>
	<path class="st2" d="M1395.8,1727.7c1.1,5.3-7,10.5-5.7,22.2"/>
	<path class="st2" d="M1412.9,1731.3c-3.1,1-3.6-2.5-4.9-4.8c-1.8-3.2-4.5-2.5-4.5-2.5"/>
	<path class="st2" d="M1408.4,1727.1c1.5-1.3,3.1-2,2.5-5s1.7-6.7,5-7.6"/>
	<path class="st2" d="M1390.6,1758.8c0,0,4.3,2.5,14.2-2.6"/>
	<path class="st2" d="M1399.5,1785.5c-2.8,0.2-31.8,1.2-36.1,1.2c-4.3,0.1-4.7,4.3,0.8,3.4s34.9-2,45.7-3c9.4-0.8,44-2.9,49.9-3.4
		s5.2-3.8,2.8-3.4s-2.5-0.1-3.8-0.8c-1.9-1.1-22.6,2.8-36.8,3.1"/>
	<path class="st2" d="M1408.7,1748.1c2.3-3.7,2.6-6.8,1.7-11.1c0,0-5.4-10.9-11-7.3c-2.8,1.8-0.6,6.6,0.6,9.3
		c2.5,5.4-1.3,9.8,2,14.8c1.7,2.5,6.5,4.4,8.7,7.8c2.5,3.7,5.6,4.4,7.2,3.7"/>
	<path class="st2" d="M1417.1,1757.8c-0.3,1.7-3.1,1.5-4.3,2.9c-1,1.2-0.3,2.9,0.7,3.6"/>
	<path class="st2" d="M1416.7,1748.7c-0.9-1.2-1.8-3.7,0.2-4.3"/>
	<path class="st2" d="M1368.3,1786.7c0-2.6,22.7-1.4,30.5-2"/>
	<path class="st2" d="M1424.4,1783.8c3.1,0,32.5-2.3,38.3-3.4"/>
	<path class="st2" d="M1414.3,1764.8c0,0-35.3,27.3-35.8,27.7c-0.6,0.4-1.1-0.7-1.4-0.5s0.4,1.1,0.1,1.3c-0.1,0.1-0.9,0.7-0.9,0.7"
		/>
	<line class="st2" x1="1417.2" y1="1749.1" x2="1409.8" y2="1754.9"/>
	<path class="st2" d="M1398.4,1763.2c0,0-16.5,12.6-16.9,12.9c-0.3,0.3-1.2-0.9-1.4-0.6c-0.2,0.2,0.5,1.1,0.3,1.4
		c-0.2,0.2-0.8,0.8-0.8,0.8"/>
</g>
<g>
	<path class="st2" d="M292.2,1394c-5.1-4.2-10-9.5-12.1-9.2s-17,20.4-17,22.5c-0.1,2.2,1.7,2.4,11.6,8.6c10,6.2,11.5,3.7,17.4-4.3
		C298.4,1403.1,298.4,1399.4,292.2,1394z"/>
</g>
<path class="st2" d="M228.9,1235.5c-0.6,0-1.7-3.7-3.4-8.1s-2.8-9.8-2.2-10.6c0.7-0.9,6,0.2,7.5,1.1c1.5,0.8,6.2,13.6,5.7,14.6
	C236,1233.4,229.5,1235.5,228.9,1235.5z"/>
<path class="st2" d="M199.9,1229.5c2,4.7,4.8,5.1,6.7,2.1c2-3.1,4.3-4.8,9.7-4.5c5.7,0.3,6.5-1.5,5.2-7.7c-1.5-7.6-1-10.5-2.6-11.6
	c-1.5-1-10.2,1.5-14.2,3s-12.5,4.3-12.5,6.6C192.3,1219.7,197.3,1223.5,199.9,1229.5z"/>
<path class="st2" d="M234.9,1325.7c-0.3-0.7-1-0.7-1.7-1c-2.7-0.5-5.7-0.2-8.2-1.5c-1.4-0.7-2.6-1.8-3.6-3.2c-1.8-2.5-3-5.4-3.3-8.5
	c3,0.5,6.1-1,9-0.2c1.5,0.4,2.8,1.3,3.8,2.5s1.7,2.6,2.3,4C234.3,1320.4,234.8,1322.9,234.9,1325.7"/>
<g>
	<path class="st2" d="M242.8,1467c-0.3,1.9-13.1,8.7-15.9,10.3s-14.3,8.6-15.9,8.2c-1.6-0.4-4.7-5.8-6.1-8.2
		c-1.4-2.5-4.6-8.4-4.4-10c0.2-1.7,13.1-8.4,15-9.6s15.4-9,16.6-8.9c1.3,0.1,4.9,6.2,6.3,8.6C239.5,1459,243.1,1464.8,242.8,1467z"
		/>
	<path class="st2" d="M199,1479.3c0.1-0.2,0.2-0.4,0.3-0.5c0.2-0.1,0.2-0.2,0.4-0.2c0.2-0.1,0.5-0.1,0.7-0.1c0.4,0,0.7,0.4,0.9,0.7
		c0.2,0.2,0.4,0.6,0.4,0.9c0.1,0.5-0.3,1.1-0.8,1.2c-0.3,0.1-0.7,0-1.1-0.2C199.5,1480.7,198.8,1479.8,199,1479.3z"/>
</g>
<path class="st2" d="M166.3,1400.8c-1.5,0.9-8.9,0.7-12-4.1c-3.2-4.7-0.9-8.3,3-9.5c2.8-0.8,2.5,1.8,5.9,7.2
	C165.5,1398.2,167.8,1399.8,166.3,1400.8z"/>
<path class="st2" d="M177.1,1371c9.7-2.8,17.8-4.3,18.3-3c0.3,1.3-7.1,4.9-16.9,7.7c-9.8,2.9-19.4,4.3-19.8,3
	C158.2,1377.4,167.3,1373.9,177.1,1371z"/>
<g>
	<path class="st2" d="M138.5,1258.7c-4.6,2.4-9.4,4.3-14.3,5.6c-3,0.8-6,1.4-8.8,2.6c-2.8,1.1-5.5,2.8-7.2,5.3
		c-0.1,0.1-0.2,0.2-0.2,0.4c0,0.2,0.2,0.4,0.3,0.6c4.5,4.7,10.7,7.5,17,9.3c0.8,0.2,1.7,0.4,2.4,0.2c1.4-0.3,2.2-1.8,2.7-3.1
		c0.5-1.2,1.1-2.2,1.6-3.4c1.8-3.9,3.7-7.9,6.2-11.4c2.1-2.9,7.1-8.4,6.3-8.9C143.9,1255.6,140.4,1257.4,138.5,1258.7z"/>
</g>
<g>
	<path class="st2" d="M303,1495.7c-9,4.2-11.8,5.3-7.7,16.3c4.1,11,4,12.8,6.1,13.1c2.1,0.4,24.7-10.3,25.4-12.2
		c0.7-1.9-3.5-7.8-6.7-13.7C316.1,1492,312.5,1491.3,303,1495.7z"/>
</g>
<g>
	<path class="st2" d="M494.6,1685.5c-1.2-3.2,4.8-2.2,9.3-7.1c3.7-4.1,7.7-4.5,9.7-1.5c1.9,3,3.2,6.8,2.2,10.3
		c-0.9,3.5-4.2,7.9-10,7.4C501.1,1694.3,496.2,1690.2,494.6,1685.5z"/>
</g>
<path class="st2" d="M467.5,1585.4c1.1-0.3,12.8,6.8,13.3,8.5c0.6,1.7,0.7,7.1-0.3,7.6c-0.9,0.5-6-1.7-10-4.2
	c-3.9-2.5-7.4-4.4-7.3-5C463.3,1591.7,466.7,1585.7,467.5,1585.4z"/>
<path class="st2" d="M473.9,1631.8c2.2,0.5,6.6-7.2,8.9-10.9c2.2-3.7,6.4-11.7,5.6-13.4c-0.8-1.8-3.7-1.8-10.9-4.8
	c-5.9-2.5-7.7-2.2-8.6,3.6c-0.7,5.3-2.9,7.3-6.3,8.6c-3.2,1.3-3.5,4.1,0.7,7C468.8,1625.6,471.6,1631.3,473.9,1631.8z"/>
<path class="st2" d="M375.9,1568.7c2.7,0.6,5.1,1.7,7.3,3.2c1.2,0.8,2.5,1.7,3.4,3c0.9,1.2,1.6,2.7,1.7,4.2c0.2,3-1.8,5.8-2,8.8
	c-2.9-0.9-5.6-2.7-7.6-4.9c-1.1-1.2-2-2.6-2.4-4.2c-0.7-2.7,0.2-5.6,0.2-8.4C376.4,1569.8,376.5,1569.2,375.9,1568.7"/>
<path class="st2" d="M294.4,1625.6c4.6,4.4,7.2,4.6,5.9,7.2c-1.9,3.6-5.9,5.1-9.9,1.1c-4-4.1-2.8-11.3-1.6-12.6
	C290.1,1620.1,291.3,1622.5,294.4,1625.6z"/>
<path class="st2" d="M309,1633.2c-1.2-0.6,2.2-9.8,6.8-18.8c4.6-9,9.6-15.8,10.9-15.1c1.2,0.7-1.8,8.3-6.6,17.3
	C315.4,1625.5,310.1,1633.7,309,1633.2z"/>
<g>
	<path class="st2" d="M426.8,1670.9c-0.4-0.8-6.7,3-10,4.5c-3.9,1.8-8.1,2.8-12.4,3.8c-1.2,0.3-2.4,0.7-3.7,0.9
		c-1.4,0.3-3,0.8-3.6,2.1c-0.4,0.7-0.3,1.6-0.2,2.4c0.6,6.5,2.1,13.1,5.8,18.5c0.1,0.2,0.2,0.4,0.5,0.4c0.2,0,0.3,0,0.5-0.1
		c2.7-1.2,5-3.5,6.6-6.1c1.7-2.6,2.9-5.4,4.2-8.1c2.2-4.6,5.1-8.9,8.3-12.9C424.3,1674.8,426.8,1671.6,426.8,1670.9z"/>
</g>
<path class="st2" d="M447.8,1738c-0.3-0.2-0.7-0.6-1.1-0.9s-0.8-0.7-1.3-1l-6.1,5.6c0.6,1.1,1.2,2,2,2.7c0.7,0.7,1.5,1.2,2.2,1.4
	c0.7,0.2,1.3,0.3,1.9,0.2c0.6-0.1,1.1-0.2,1.6-0.6c0.4-0.3,0.8-0.7,1.2-1c0.8-0.9,1.3-1.9,1.4-3C449.5,1740.3,449,1739.2,447.8,1738
	z"/>
<path class="st2" d="M455.9,1726.5c-0.7,0.7-1.4,1.3-2.2,2.2c-0.8,0.8-1.8,1.7-2.8,2.7c0.6,1,1.2,1.7,1.8,2.3c0.7,0.7,1.4,1.2,2,1.4
	c0.6,0.2,1.2,0.3,1.7,0.3c0.5-0.1,0.9-0.2,1.3-0.4s0.7-0.5,1-0.8c0.7-0.7,1.1-1.7,1.1-2.7c0-1.1-0.6-2.2-1.8-3.3
	c-0.2-0.2-0.6-0.6-0.9-0.8C456.6,1727,456.2,1726.7,455.9,1726.5z"/>
<path class="st2" d="M448.7,1760.2c-0.2-0.3-0.2-0.6,0-0.8l2-1.9c0.7-0.6,1.5-1.1,2.5-1.2c1-0.2,2.3-0.4,4-0.6
	c1.6-0.2,3.7-0.4,6.1-0.7c2.4-0.2,5.5-0.8,9.1-1.6l-6.9-6.6c-0.2-0.2-0.3-0.4-0.2-0.5c0.1-0.1,0.2-0.2,0.3-0.4l1.7-1.6
	c0.3-0.3,0.7-0.6,1-0.8c0.3-0.2,0.7-0.4,1.2-0.5s0.8,0,1.3,0.2s1,0.5,1.6,1.1l12.5,12c0.2,0.2,0.2,0.3,0.3,0.5
	c0.1,0.2,0,0.4-0.2,0.6l-2.1,1.8c-0.6,0.6-1.5,1-2.6,1.2c-0.2,0-0.9,0.1-2.1,0.2c-1.2,0.2-2.7,0.3-4.5,0.6s-3.8,0.5-6,0.8
	s-4.4,0.7-6.6,1.1l7.9,7.5c0.2,0.2,0.2,0.3,0.3,0.5c0.1,0.2,0,0.4-0.2,0.6l-1.8,1.7c-0.7,0.7-1.6,1.1-2.3,1.2
	c-0.7,0.1-1.7-0.3-2.8-1.4L448.7,1760.2z"/>
<g>
	<path class="st2" d="M632.4,1711.9c-5.1,8.4-6.9,10.9,2.6,17.8s10.4,8.4,12.3,7.6c2-0.8,14.9-22.2,14.4-24.2s-7.3-4.6-13.2-7.7
		C641.2,1701.5,637.8,1702.9,632.4,1711.9z"/>
</g>
<path class="st2" d="M733.5,1732.2c2.6-1,5.1-1.4,7.8-1.5c1.6,0,3.2,0.2,4.6,0.7c1.5,0.5,2.8,1.3,3.7,2.6c1.8,2.4,1.7,5.9,3.2,8.5
	c-2.9,0.9-6.1,0.9-9,0.2c-1.6-0.3-3.1-1-4.3-2.1c-2.1-1.9-2.9-4.7-4.5-7.1C734.5,1732.8,734.2,1732.2,733.5,1732.2"/>
<g>
	<path class="st2" d="M610.6,1778.9c2.7,0.4,9.7,1.4,10.3,2.6c0.6,1.1-1.5,16.4-1.9,18.7c-0.4,2.2-1.7,16.8-3.2,17.6
		c-1.5,0.8-8.1,0.2-11-0.2c-2.8-0.4-9-1.3-10-2.6c-1-1.2,1.2-14.7,1.6-17.8c0.4-3.2,1.8-17.6,3.5-18.6
		C601.7,1777.5,608.5,1778.6,610.6,1778.9z"/>
	<path class="st2" d="M603.3,1823.7c-0.3-0.2-0.6-0.5-0.7-0.9c-0.1-0.5,0.2-1.1,0.7-1.2c0.3-0.1,0.7-0.1,1,0s0.8,0.2,1,0.6
		c0.2,0.2,0.2,0.5,0.2,0.7s-0.1,0.2-0.1,0.4c-0.1,0.2-0.2,0.3-0.3,0.5C604.8,1824.2,603.6,1823.9,603.3,1823.7z"/>
</g>
<path class="st2" d="M697.1,1824.7c6.3,1.2,8.6-0.2,9,2.7c0.5,4.1-2,7.6-7.6,6.4c-5.6-1.1-8.6-7.8-8.3-9.5
	C690.5,1822.4,692.9,1823.9,697.1,1824.7z"/>
<path class="st2" d="M713.5,1822.9c-1.3,0.1-3.7-9.4-4.8-19.5s-0.6-18.4,0.7-18.6c1.3-0.1,3.1,8,4.2,18.1
	C714.6,1813.1,714.8,1822.8,713.5,1822.9z"/>
<g>
	<path class="st2" d="M473.2,1825.9c1.2-0.2,9.3,4.6,9.2,5.6c-0.1,1.1-11.6,8.8-14.3,10.5c-2.7,1.7-14.7,8.7-15.9,8.2
		c-1.2-0.5-1.6-9.2-1.3-10.1c0.2-0.8,7.1-5.2,10.8-7.6C464.9,1830.7,471.9,1826.3,473.2,1825.9z"/>
	<path class="st2" d="M499,1845.1c0,0-0.7,1-2.7,2.7c-1.9,1.7-3.8,2.9-3.8,2.9s1.7,2.5,2.2,2.6s2.3-1,3.5-1.7s2.7-1.6,2.8-2.2
		C501.3,1848.2,499,1845.1,499,1845.1z"/>
	<path class="st2" d="M458.3,1870.6c0,0,1.2-0.2,3.6-1.2c2.4-0.9,4.3-2.2,4.3-2.2s1.7,2.5,1.5,3.1s-1.9,1.7-3.1,2.4
		c-1.2,0.7-2.6,1.7-3.2,1.7C460.2,1874.1,458.3,1870.6,458.3,1870.6z"/>
	
		<ellipse transform="matrix(0.9171 -0.3986 0.3986 0.9171 -693.3242 347.3321)" class="st2" cx="488.6" cy="1840.9" rx="3.1" ry="2.8"/>
	
		<ellipse transform="matrix(0.9171 -0.3986 0.3986 0.9171 -703.3613 336.8876)" class="st2" cx="458.5" cy="1859.9" rx="3.1" ry="2.8"/>
</g>
<g>
	<g>
		<path class="st2" d="M240.7,1623.7c-9.7-1.5-12.7-2.2-15.5,9.2c-2.7,11.4-3.8,12.8-2.3,14.2c1.5,1.5,26.2,5.2,27.8,4
			c1.7-1.2,1.4-8.4,2.1-15.1C253.7,1627.9,251.2,1625.3,240.7,1623.7z"/>
	</g>
	<path class="st2" d="M327.4,1790c1.1,0.3,6.7,12.7,6.3,14.4c-0.5,1.7-3.4,6.2-4.5,6s-4-4.8-6-9s-3.7-7.7-3.3-8.2
		C320.3,1792.7,326.5,1789.7,327.4,1790z"/>
	<path class="st2" d="M306.8,1831.9c1.6,1.6,9.6-2.3,13.5-4.1c3.9-1.8,11.8-6.2,12.1-7.9c0.3-1.9-2.1-3.6-6.3-10
		c-3.5-5.3-5.3-6.1-9.1-1.8c-3.6,4-6.4,4.5-10,3.6c-3.5-0.7-5.2,1.5-3.3,6.2C305.9,1823.9,305.2,1830.2,306.8,1831.9z"/>
	<path class="st2" d="M260.6,1724.9c1.8,2,3.3,4.2,4.4,6.8c0.6,1.4,1,2.9,1.1,4.4s-0.1,3.1-1,4.4c-1.6,2.6-4.8,3.8-6.6,6.2
		c-1.9-2.4-3.2-5.3-3.6-8.4c-0.3-1.6-0.2-3.2,0.3-4.7c0.9-2.7,3.2-4.5,4.8-6.8C260.4,1726.2,260.8,1725.6,260.6,1724.9"/>
	<g>
		<path class="st2" d="M179.1,1607.2c0.7,2.7,2.4,9.5,1.6,10.5c-0.8,1-15.8,4.9-18.1,5.4s-16.2,4.8-17.5,3.8s-3.2-7.4-4-10.2
			c-0.7-2.7-2.2-8.8-1.4-10.1c0.8-1.3,14-4.5,17.1-5.3s17-5,18.5-3.9C177,1598.5,178.6,1605.2,179.1,1607.2z"/>
		<path class="st2" d="M135,1617.5c0.1-0.4,0.2-0.7,0.6-1c0.5-0.3,1.1-0.2,1.5,0.2c0.3,0.2,0.3,0.6,0.4,1s0.2,0.8-0.1,1.2
			c-0.2,0.2-0.3,0.4-0.6,0.5c-0.2,0.1-0.2,0.1-0.4,0.1c-0.2,0.1-0.4,0-0.6-0.1C135,1619.2,134.9,1618,135,1617.5z"/>
	</g>
	<path class="st2" d="M161.2,1726.7c1.4,6.2,3.5,7.9,0.9,9.3c-3.6,1.9-7.7,1-8.8-4.6s4-11,5.7-11.3
		C160.8,1719.7,160.3,1722.5,161.2,1726.7z"/>
	<path class="st2" d="M169.1,1741.2c-0.7-1.2,7.3-7,16.2-11.9s16.8-7.6,17.5-6.4s-6.2,5.9-15.1,10.7
		C178.7,1738.4,169.7,1742.3,169.1,1741.2z"/>
	<g>
		<path class="st2" d="M245.6,1838c0.2-0.9-7.1-1.3-10.7-1.8c-4.2-0.6-8.3-2.2-12.4-3.7c-1.2-0.4-2.3-0.9-3.5-1.3
			c-1.3-0.5-2.9-1-4.1-0.2c-0.7,0.4-1.2,1.2-1.5,1.8c-3.1,5.8-5.6,12.1-5.5,18.6c0,0.2,0,0.5,0.2,0.7c0.1,0.1,0.3,0.2,0.4,0.2
			c3,0.6,6.1-0.1,8.9-1.3c2.8-1.2,5.4-2.9,8-4.4c4.5-2.5,9.2-4.6,14.1-6C241.6,1840,245.5,1838.8,245.6,1838z"/>
	</g>
</g>
<g>
	<g>
		<path class="st2" d="M272.3,1162.1c-1.4,3.1-5-1.9-11.6-1.6c-5.5,0.3-8.7-2.4-7.9-5.9s2.6-7.1,5.7-8.9s8.5-2.5,12.2,1.9
			C273.7,1151.3,274.3,1157.7,272.3,1162.1z"/>
	</g>
	<path class="st2" d="M334.7,1234c0.1,1.1,0.4,2.1,1.2,3.1c0.3,0.4,0.7,0.8,1.1,1.1c0.5,0.4,1,0.6,1.6,0.7c0.5,0.1,1.2,0.1,1.9-0.1
		s1.5-0.6,2.3-1.2s1.5-1.5,2.2-2.5l-5.7-6.1c-0.5,0.2-1,0.6-1.4,0.9s-0.8,0.6-1.1,0.8C335.4,1231.8,334.7,1232.8,334.7,1234z"/>
	<path class="st2" d="M328.4,1219.5c-0.4,0.2-0.7,0.5-1,0.7c-1.3,1.1-2,2.2-2,3.2c-0.1,1,0.3,1.9,0.9,2.7c0.2,0.3,0.6,0.6,0.9,0.8
		c0.3,0.3,0.8,0.5,1.3,0.5s1.1,0,1.7-0.2s1.3-0.7,2.1-1.3c0.7-0.5,1.3-1.3,2-2.2c-1-1-1.8-2-2.6-2.8c-0.7-0.9-1.4-1.7-2.1-2.3
		C329.2,1218.8,328.8,1219,328.4,1219.5z"/>
	<path class="st2" d="M319.3,1264.6c-1.2,1-2.2,1.4-2.9,1.1c-0.8-0.1-1.5-0.6-2.2-1.4l-1.7-1.8c-0.2-0.2-0.2-0.4-0.2-0.6
		c0.1-0.1,0.2-0.4,0.4-0.5l8.4-6.9c-2.2-0.6-4.3-1.1-6.5-1.6c-2.1-0.5-4.1-1-5.9-1.3c-1.7-0.3-3.2-0.7-4.4-0.9
		c-1.1-0.2-1.8-0.4-2-0.4c-1.1-0.4-1.9-0.8-2.5-1.4l-1.9-2c-0.2-0.2-0.2-0.4-0.2-0.6c0.1-0.1,0.2-0.4,0.4-0.5l13.5-11
		c0.6-0.5,1.1-0.8,1.6-0.9c0.5-0.2,0.9-0.2,1.3-0.1s0.8,0.3,1.1,0.6c0.4,0.3,0.7,0.6,1,0.9l1.6,1.7c0.2,0.2,0.3,0.3,0.3,0.4
		s0,0.3-0.2,0.4l-7.4,6c3.5,1,6.6,1.9,9,2.3c2.5,0.5,4.5,0.9,6.1,1.2c1.6,0.2,3,0.6,3.9,0.8c0.9,0.3,1.7,0.8,2.3,1.5l1.9,2
		c0.2,0.3,0.2,0.6-0.1,0.8L319.3,1264.6z"/>
	<g>
		<path class="st2" d="M382.6,1240.1c0.9-0.7,10.1,0.2,10.5,1.1c0.5,1-5.5,12.4-6.9,15s-8.1,13.5-9.3,13.6c-1.2,0-5.8-7.4-6-8.3
			c-0.3-0.9,3.4-7.5,5.4-11C377.9,1247.6,381.7,1240.8,382.6,1240.1z"/>
		<path class="st2" d="M413.5,1246c0,0-0.1,1.1-0.9,3.3s-1.8,4.1-1.8,4.1s2.6,1.4,3.1,1.3s1.5-1.8,2.1-2.9s1.5-2.4,1.3-3
			C417,1247.7,413.5,1246,413.5,1246z"/>
		<path class="st2" d="M391.7,1284.7c0,0,0.9-0.7,2.4-2.6c1.5-1.8,2.5-3.6,2.5-3.6s2.6,1.4,2.8,2s-0.8,2.3-1.4,3.3
			c-0.6,1.1-1.3,2.5-1.8,2.7C394.9,1286.9,391.7,1284.7,391.7,1284.7z"/>
		
			<ellipse transform="matrix(0.6273 -0.7787 0.7787 0.6273 -820.8513 778.0715)" class="st2" cx="402.5" cy="1246.7" rx="2.8" ry="2.8"/>
		
			<ellipse transform="matrix(0.6273 -0.7787 0.7787 0.6273 -849.1466 776.1774)" class="st2" cx="386.4" cy="1275.3" rx="2.8" ry="2.8"/>
	</g>
	<g>
		<path class="st2" d="M386.6,1358.7c-1.8,2-6.7,7.2-7.9,7.1c-1.3-0.2-12.7-10.7-14.3-12.3c-1.6-1.6-12.8-11-12.6-12.6
			c0.1-1.7,4.5-6.8,6.4-8.9s6.1-6.7,7.8-6.7c1.5,0,11.5,9.3,13.7,11.5c2.2,2.1,13.3,11.5,13.3,13.5
			C392.7,1352.2,387.9,1357,386.6,1358.7z"/>
		<path class="st2" d="M353.9,1327.1c0.4-0.1,0.8-0.2,1.2,0c0.6,0.2,0.8,0.9,0.6,1.4c0,0.3-0.4,0.6-0.6,0.8
			c-0.3,0.3-0.7,0.6-1.1,0.5c-0.2-0.1-0.5-0.1-0.7-0.3c-0.1-0.1-0.2-0.2-0.3-0.3c-0.2-0.2-0.2-0.4-0.3-0.6
			C352.6,1328.1,353.4,1327.3,353.9,1327.1z"/>
	</g>
</g>
<path class="st2" d="M391.2,1471.6c0,1.8-4.1,7.9-9.7,8.1c-5.7,0.2-7.5-3.6-6.4-7.5c0.8-2.8,2.9-1.2,9.3-1.3
	C388.6,1470.9,391.2,1469.8,391.2,1471.6z"/>
<path class="st2" d="M371.7,1446.9c2.7-9.8,5.7-17.5,7-17.1s0.4,8.7-2.3,18.5c-2.7,9.8-6.6,18.8-7.9,18.5
	C367.2,1466.2,369,1456.6,371.7,1446.9z"/>
<path class="st2" d="M185.3,1171.8"/>
<path class="st2" d="M218.1,1179.4c48,23.4,71.6-13.6,115,29.1c0.2,0.3,0.6,0.7,0.9,1.1c0.2,0.2,0.4,0.4,0.7,0.8
	c0.2,0.3,0.7,0.8,1.3,1.5c0.7,0.8,1.6,1.7,2.8,3c1.3,1.2,2.9,3,5,5.2c1.7,1.8,3.1,3.3,4.2,4.4s2,2.1,2.7,2.9s1.2,1.3,1.6,1.7
	c0.3,0.4,0.6,0.7,0.8,1c0.6,0.8,1.1,1.6,1.3,2.3c0.3,0.7,0.2,1.6,0,2.4c-0.3,0.8-0.9,1.7-1.7,2.8c-0.8,1-2,2.1-3.6,3.4
	c-2.4,1.9-4.6,3.3-6.6,4.2c-1.9,0.8-3.8,1.2-5.4,1.2s-3.1-0.4-4.3-1.1c-1.3-0.7-2.4-1.7-3.4-2.9c-1.2-1.5-2-3.1-2.2-4.7
	s0.2-3.3,1.4-5c-1,0.5-1.9,0.7-2.9,0.7c-0.8,0-1.7-0.2-2.5-0.6c-0.8-0.3-1.5-0.8-2.2-1.4c-0.6-0.5-1.2-1.1-1.8-1.8
	c-0.9-1.1-1.5-2.3-1.9-3.5c-0.3-1.2-0.3-2.6,0.1-3.9s1.1-2.7,2.3-4.2s2.8-3.1,4.7-4.7c0.8-0.7,1.8-1.4,2.9-2.3
	c1.2-0.8,3.6-2.5,5.3-3.6c22.1-13.3,27.5,18.3,66.7,13.7c47.7-5.5,84.5,22.2,24.7,81.7c-17.5,17.5-22.7,42.1-28.4,50.3
	c-1.9,2.7-5.2,6.4-6.4,7.7c-2.2,2.4-8,8.7-9.7,8.4c-1.6-0.2-16.6-14-18.7-16.1s-16.7-14.4-16.6-16.5s5.3-8.3,7.6-10.8
	c2.3-2.5,7.5-8.1,9.5-8c2,0,14.9,12.3,17.9,15.1c2.4,2.3,12.3,10.9,16.1,15.3c16.9,19.7-1,52.8-11.5,67.6
	c-13.3,18.9-19.4,48.8-16.8,51.8c1.2,1.4,5.1,0.2,4.5,4.1s0.2,10.3,7.7,11.5c6.4,1,11.1-3,12.9-5.9c1.8-2.8,3.5-7,4.6-7.4
	s3.3-0.7,4.1-0.9c3.5-0.9,9.6-23,6.8-25.4c-1.2-1-6.5-6.1-13.3-9.8c-5.6-3-12-5.2-14.8-5.9c-22.7-3.2-35.8,22.3-58.4,37.4
	c-16.1,10.7-53.6,13.2-65.6-33c-9.1-32.1-34.2-32.8-54.8-75.5c-12.5-25.7-19.2-38.9-14.9-50.1c2.2-5.9,10.6-11.4,21.8-9.7
	c10.4,1.6,8.1,10.7,8.9,15.4c1.1,7.1,4.5,14.3-6.4,17.5c-9.7,2.8-18.3-1.7-21.7-6.1c-7.3-9-11.5-27.9-5.7-50.3
	c5.5-21.3,0.9-36.2-11.5-40.8c-1.9-0.7-4.5-1.3-6.8-1.5c-2.8-0.2-7.2,0.1-10,0.4c-5.8,0.7-10.1,1.6-15.9,2.4
	c-2.8,0.4-5.6,0.8-8.2,1.9c-5.1,2.1-9,6.6-11.1,11.6c-0.7,1.6-1.2,3.2-1.2,5c-0.2,2.1,0.4,4.2,1.2,6.1c0.4,1.2,0.9,2.2,1.4,3.3
	c0.2,0.2,0.3,0.6,0.6,0.7c0.2,0.2,0.6,0.1,0.8,0c10.2-2.7,28.4-13,29.1-12.3c0.6,0.5-4.1,8.9-7.1,12.6c-1.1,1.4-2.3,2.7-3.1,4.4
	c-0.7,1.7-0.7,3.7,0.5,5.1c1.2,1.3,3.4,1.4,5.3,1.2c5.9-0.5,11.6-2.1,16.9-4.6c2.9-1.4,5.6-3,8.3-4.6c3.8-2.4,7.7-5,9.9-9
	c2.1-3.8,2-10.6,1.2-14.9c-0.6-2.9-2.4-14.1-15.6-28C147.6,1192.2,167.7,1154.8,218.1,1179.4z"/>
<g>
	<path class="st2" d="M70.9,1633.3c-0.2,0.7,0.3,1.2,0.7,1.8c1.8,2.2,4.3,3.8,5.4,6.3c0.7,1.4,0.9,3.1,0.8,4.7
		c-0.1,3-1.1,6.1-2.8,8.7c-2.1-2.2-5.4-3.1-7.2-5.5c-0.9-1.2-1.3-2.8-1.4-4.3s0.3-3.1,0.7-4.5C68,1637.8,69.2,1635.5,70.9,1633.3"/>
	<g>
		<path class="st2" d="M94.8,1746c0.2-0.8-7-1.9-10.5-2.9c-4.2-1.1-8.1-3.1-12-4.9c-1.1-0.5-2.2-1.1-3.3-1.6
			c-1.2-0.6-2.7-1.3-4.1-0.6c-0.7,0.4-1.2,1-1.7,1.7c-3.7,5.4-6.8,11.5-7.4,17.9c0,0.2,0,0.5,0.1,0.6s0.2,0.2,0.4,0.3
			c2.9,0.9,6.1,0.5,9-0.4c2.9-0.9,5.6-2.3,8.4-3.6c4.6-2,9.6-3.6,14.6-4.6C90.7,1747.6,94.6,1746.8,94.8,1746z"/>
	</g>
	<g>
		<path class="st2" d="M170.7,1815.3c5.7,1.1,7.6,6.2,7.5,9.8c0,3.7-2.3,7-5,9.3c-2.6,2.4-6.5,0.8-8.9-4.2c-2.9-6-9-6.7-7-9.4
			C160.1,1817,166,1814.4,170.7,1815.3z"/>
	</g>
	<path class="st2" d="M7.3,1386.5c35.9,14.8,89.2,7.8,117.8,21c25.3,11.7,28.9,72.3-7.2,96.3c-35.8,23.8-54,43.9-54,62.5
		c0,32.1,40,35.8,49.7,65c9,27.1-6.4,42-16.7,48c-5.4,3.2-15.4,2.2-23.1-6.2c-7.1-7.7,0.4-13.4,2.8-17.5c3.6-6.2,5.5-13.9,16-9.6
		c9.3,3.8,13.1,12.8,13.1,18.4c0,11.6-9.4,35.9,8.3,47.5c22.7,14.8,23.2,24.6,16.3,35.9c-1.1,1.8-2.6,3.9-4.3,5.5
		c-2,1.9-5.6,4.5-8.1,6c-5,3.1-8.9,5.1-13.9,8.2c-2.4,1.5-4.9,2.9-7.6,3.7c-5.3,1.6-11.1,0.6-15.9-2c-1.5-0.8-3-1.8-4.1-3.1
		c-1.4-1.6-2.2-3.5-2.9-5.5c-0.4-1.1-0.8-2.3-1-3.4c-0.1-0.3-0.1-0.6,0-0.8s0.4-0.4,0.7-0.5c9.7-4.3,30.2-7.8,30.4-8.7
		c0.1-0.8-8.8-4.4-13.4-5.4c-1.7-0.4-3.5-0.7-5.2-1.5c-1.5-0.8-2.9-2.4-2.8-4.2c0.1-1.9,1.7-3.3,3.4-4.3c4.9-3.3,10.3-5.7,16-7.1
		c3.1-0.8,6.2-1.2,9.3-1.6c4.5-0.6,9.1-0.1,13.2,1.7c4,1.7,8.6,6.2,11.1,9.7c6,8.4,9.3,24.8,2.5,40.5c-13,30.1-10,40.3-4.8,55.8
		c12.7,37.9,63.4,58,100,55.2c19.7-1.5,52.2-11.6,54.5-39.7c2.3-28.4-7.7-41.6,8.4-49.6c1.7-0.8,14.1-6.1,17.9-7.7
		c3.7-1.6,4.1-0.6,4.8,0.8c0.8,1.6,4.6-0.5,7.7-1.9c1.8-0.8,3.5,0.4,4.8,2.8c1.6,3,3.5,7.9,5.2,11.2c2.2,4.5-5,9.9-5,12
		c0,1.8,4.9,5.1,4.5,6.9c-0.5,2.2-26.7,16.2-29.9,13.4c-2.4-2.1-1.7-6.3-2.6-11.2c-0.9-4.9-7.1-17.6-8.9-21.3
		c-13.2-27.4-54.2,0-71.3-24.3c-11.4-16.2-10.3-37.8-18.8-55.1c-1.3-2.6-4.9-8.3-9.1-13c-5.1-5.9-11.2-9.8-12.5-10.8
		c-3-2.2-23.2,8.8-23.1,12.4c0,0.7,0.2,2.9,0,4.2c-0.2,1.2-3.9,3.8-6.2,6.2c-2.3,2.3-5.3,7.8-2.8,13.8c2.8,7,9.3,6.3,13,4.9
		c3.6-1.4,3.3,2.5,4.9,3.4c3.5,1.8,32.6-9.8,46.6-28.2c12.8-16.8,3.2-33.8,1.5-50.3c-1-9.8,3.3-20.1,6.2-32.3
		c3.2-13.5,6.7-12.6,18.3-10.9c12.3,1.9,15.4,4.9,14.5,14.6c-0.8,7.9-1.3,33.9-3.3,35.3c-1.7,1.3-25.7-0.5-40.7-7.4
		c-20.6-8.4-10.8-73.1-36.5-69.6c-5.7,0.8-18.3,4.4-21.5,5.2c-4,1-21.3,5.2-22.4,6.9c-1.1,1.7,0.7,9,1.6,12.3s3.2,11.1,4.9,12.3
		c1.8,1.2,20-4.4,22.9-5c2.9-0.7,22.6-5.7,23.7-7c1.1-1.2-1-9.5-1.8-12.7c-0.5-1.8-1.7-6.5-3-9.6c-3.7-9.4-20.4-21.7-23.7-51.2
		c-5.2-46,66.1-56.3,107.8-15c5.1,4.9,20.2,18.4,37.9,14.8c16.2-2.6,37.1-14.5,37.9-16.5c0.8-2.3-13.2-24.2-16.9-31.1
		c-4.6-8.5-8.9-9.3-20.2-4c-10.5,5-13.9,6.2-9,19.2c4.3,11.7,6.5,22.7,12.8,30.2c10.5,12.7,28.1,21.6,26.7,42.6
		c-1.4,23.1-19.1,48.9-23,49.3c-1.9,0.2-3.8-3.3-6.1-0.1c-2.2,3.2-7.2,7.5-13.5,3.2c-5.3-3.6-6-9.8-5.4-13c0.6-3.3,2.2-7.6,1.7-8.6
		c-0.5-1.1-1.9-2.8-2.3-3.4c-2-3,8.6-23.3,12.4-23.2c1.7,0.1,8.9-0.1,16.4,1.9c6.1,1.7,12.4,4.3,14.9,5.8
		c16.7,9.7,27.9,28.2,46.3,35.3c27.8,10.6,46.5-34.9,72.8-19.6c3.6,2.1,15.8,9.2,19.3,12.8c3.5,3.6,5.1,7.4,8.4,7.9
		c4.2,0.6,18.2-25.7,17.3-27.8c-0.7-1.7-6.6-1.7-7.6-3.2c-1.2-1.7,1.7-10.1-2.6-12.7c-3.2-1.9-7.6-4.9-10.5-6.5
		c-2.4-1.3-4.4-1.3-5.5,0.3c-1.8,3-3.8,6.7-5.4,5.9c-1.4-0.7-2.2-1.3-4.5,2.1c-2.2,3.4-9.6,14.7-10.5,16.4
		c-10.7,18.8,28.6,20.3,42.9,67c1.5,4.5,5.6,14.2,10.5,17.7c5.1,3.7,9.2,3,12.4,3.4c2.5,0.3,6.1,6.4,9,10.6c2.8,4.2,4.9,6.8,0.7,11
		c-3.7,3.7-1.6,5.6,7.6-0.2c9.2-6.1,7.3-8.3,2.4-6.5c-4.2,1.5-6.5-1.5-9-5.4c-2.2-3.4-7.2-9.9-6-12.5c1.7-3.8,4.2-9.6,0.5-15.9
		c-3.7-6.1-10.5-14.2-12-13.6c-1.2,0.4-10.7,4.9-17.3,9.6c-19.4,13.3-13.9,22.2-63,55c-33.3,20.3-26.6,55.9,22.8,71.7
		c43.4,13.9,59.7,40.5,85.4,39.2c48.7-2.4,33.5-75.7,80.3-84.5c33.2-3.8,58.3,20.4,105.6,23.3c28.5,1.7,43.6,0.6,52.3-7.6
		c4.6-4.2,6.5-14.1,0.7-23.9c-5.3-9-13-3.5-17.5-2.4c-7,1.7-14.9,1.2-13.8,12.5c1,10,8.6,16.2,13.9,17.8c11.1,3.3,31.3,0.1,50.3-13
		c49.6-34,136.3-38.9,271.9-20.4c105.4,14.4,183.4,49.1,304.8,43.7"/>
</g>
<path class="st2" d="M69.9,1481.4c-0.1-1.1,8.9-11.4,10.6-11.6c1.7-0.3,7,0.6,7.3,1.6c0.3,1.1-2.7,5.6-5.8,9.1
	c-3,3.5-5.5,6.5-6.1,6.4S70,1482.4,69.9,1481.4z"/>
<path class="st2" d="M116.6,1482.9c0.9-2.1-6-7.8-9.2-10.6c-3.3-2.8-10.5-8.3-12.2-7.8c-1.9,0.5-2.4,3.4-6.5,9.9
	c-3.4,5.4-3.3,7.3,2.1,9.1c5.1,1.6,6.7,4.1,7.5,7.7c0.7,3.5,3.4,4.2,7,0.5C109.6,1487.1,115.7,1485.2,116.6,1482.9z"/>
<path class="st2" d="M7.3,1419c32.4,35.3,120,24.9,139.8,61.7c24.4,45.5-41.7,87.7-58.5,74c-1.4-1.2-11.3-10.4-14.3-13.2
	c-3-2.8-2.3-3.4-1.3-4.8c1.1-1.4-2.3-4-4.9-6.3c-1.5-1.2-1.1-3.3,0.5-5.4c2.1-2.7,5.8-6.4,8.2-9.3c3.2-3.9,11.1,0.4,12.9-0.4
	c1.7-0.7,2.6-6.6,4.5-6.9c2.3-0.5,25.8,17.7,24.5,21.7c-1,3.1-5.1,4.1-9.2,6.9c-4.1,2.9-13.1,13.7-15.8,16.9
	c-19.6,23.3-35.1,63,1.2,112.3c32.5,44.2,4.2,62.6,27.3,88.9c28.3,32.3,14.6,46.7,4.2,76c-9.7,27.2,12.5,38.1,20,46.7
	c6.9,7.9,12.7,12.7,13.7,13.4c1.2,1,10.1-4.9,15.3-9.7c5.3-5.1,4.6-11.4,4-15.5c-0.5-2.9,6.1-7.7,9.2-10.4c3.6-3.1,6.7-5.3,10.2-2.7
	c4.2,3.1,6.6,1.4-0.6-6.9c-7.1-8.2-9.7-6.9-7.1-2.3c2.9,5.2,0.2,7.1-3.7,10.4s-9,8.2-11.5,7.8c-3.2-0.5-6.9-2.3-12.9-0.1
	c-5.8,2-12.2,10.3-15,14.1c-15.2,17.9-5.1,52.5,26.7,49.3c67.8-6.9,76.3,15.3,101.4,2.6c21.4-10.8,13.5-47,7.1-58.8
	c-2.1-3.9-7.1-8.4-11.3-9.7c-4.3-1.3-9-0.4-13.4,0.6c-3.1,0.7-6.1,1.5-9.1,2.6c-5.5,2-10.7,4.9-15.2,8.7c-1.5,1.3-3,2.8-2.9,4.7
	c0.1,1.7,1.5,3.2,3.2,3.9c1.7,0.7,3.5,0.7,5.2,1c4.7,0.5,14,3.2,13.9,4c-0.1,1-20.2,6.6-29.4,11.9c-0.2,0.2-0.5,0.3-0.6,0.6
	c-0.1,0.2,0,0.6,0.1,0.8c0.4,1.2,0.8,2.2,1.4,3.3c0.8,1.9,1.9,3.8,3.4,5.2c1.3,1.2,2.8,2,4.4,2.6c5.1,2,11,2.5,16.1,0.4
	c2.6-1.1,4.9-2.8,7.2-4.5c4.7-3.5,8.3-5.9,13-9.5c2.2-1.8,5.5-4.7,7.4-6.8c1.6-1.8,3-4,3.8-5.9c5.6-12-1.6-25.7-20.5-37
	c-19.9-11.9-30.2-28.2-31.4-39.7c-0.5-5.5,2.3-14.8,11.1-19.6c10-5.4,12.6,2.1,16.8,7.9c2.8,3.9,10.8,8.7,4.5,17.1
	c-6.8,9.1-16.7,11.2-22.3,8.5c-10.9-4.9-17.7-18.5-27-45.4c-15.5-44.8,1.7-101.1-14.5-130.3c-16-28.8-49.2-26.4-51.7-49.9
	c-4.2-38.4,56.8-24.1,98-53.4c32.1-23,56.8-3.9,87.2-26.9c18.4-13.9,19.5-39.8,66.3-86.4c36.9-36.7-10.2-60.5,32-93
	c28.4-21.9,35-29.8,31.6-43.8c-7.3-28.1-69.2-18.5-80.5-2.8c-1.5,2.1-3.2,5.1-5.4,9l0.1-0.1c-4,7.1-6.7,11.5-5.3,14.2
	c1.4,2.7,6.3,6.9,7.4,11.4c1.2,4.9,8.1,8.7,11.9,8.9c3.8,0.2,11.6-14.5,14-18.8l-0.1,0.1c2.4-4.3,10.9-18.6,8.8-21.7
	c-2.2-3.1-9-7.1-13.8-5.6c-3.8,1.2-10.6,0.4-13.6-0.4c-28-7.3-44.4-54.3-114.7-61.7c-8-1.4-17.9-5.1-19-5.6
	c-1.5-0.6-0.6-11.2,1.3-18.1c1.9-7,7.8-9.4,11.7-10.8c2.7-1,3.8-9.1,4.7-13c1-4.6,1.6-8.3-2.5-10.2c-4.7-2.3-4.5-5.1,6.3-2.8
	c10.6,2.3,10.7,5.2,5.5,5.1c-6-0.1-6.3,3.2-7.4,8.2c-1.1,4.9-2.9,11.9-1.4,13.9c1.9,2.6,5.3,4.9,6.3,11.2c0.9,5.9-2.3,16.1-5.3,19.9
	c-13.3,17.1-37.8,26.9-69.9,1.1c-32.8-26.5-60.7,12.4-36.8,27.5c33.2,21,26,55.2,46.5,48.4c1.7-0.6,14.3-5.6,18.1-7.1
	c3.8-1.6,3.4-2.5,2.9-4c-0.5-1.7,3.6-2.9,6.8-4.1c1.8-0.7,2.2-2.7,1.4-5.3c-1-3.2-3.1-8.1-4.3-11.6c-1.7-4.7-10.5-3.5-12-5
	c-1.3-1.3-0.2-7.1-1.7-8.1c-1.9-1.2-30.4,7.3-30.6,11.5c-0.2,3.3,3.2,5.6,6.1,9.8c2.8,4.2,7.4,17.5,8.7,21.4
	c10,28.8-38.4,38.2-33.5,67.6c3.3,19.5,19.3,34.1,25.6,52.4c0.9,2.7,2.3,9.4,2.7,15.7c0.5,7.8-1.1,14.9-1.3,16.5
	c-0.6,3.7-22.7,10.1-25.2,7.6c-0.5-0.6-1.9-2.2-2.9-3c-0.9-0.7-5.4,0.1-8.7,0c-3.3,0-9.2-1.9-11.7-7.8c-2.9-7.1,2.2-11.1,5.8-12.7
	s0.5-4.2,1.1-6c1.2-3.7,30-16,52.9-12.9c20.9,2.8,26.1,21.2,36.6,34.1c6.2,7.7,16.5,12,27.1,18.5c11.8,7.3,13.7,4.8,20.5-4.6
	c7.4-10.1,7.9-15.2,0.6-21.5c-13-10.8-23.2-22.4-27.6-21.7c-2.2,0.3-18.1,18.3-23.8,33.7c-8.6,20.4,22.3,49.9,1.6,65.6
	c-4.6,3.5-16.1,9.8-19,11.5c-3.6,2.1-18.8,11.3-20.8,10.9s-5.8-6.9-7.6-9.9c-1.7-3-5.6-10.1-5.2-12.2c0.4-2,17.3-11,19.8-12.5
	c2.5-1.6,20-11.8,21.7-11.7c1.6,0.1,6,7.5,7.6,10.3c0.9,1.6,3.4,5.8,4.6,8.9c3.8,9.3-7.4,22.2,28.1,61c30.1,33,25.3,44.2,63.1,72.8
	c22.7,17.3,35.9,24.7,47.7,22.7c6.1-1,13.2-8.2,13.8-19.5c0.6-10.5-8.8-10-13.3-11.7c-6.7-2.5-13.1-7.2-18.4,2.8
	c-4.6,8.9-1.9,18.3,1.7,22.5c7.4,9,25,16.7,48.1,15.4c22-1.2,35.7,6.1,37.7,19.3c0.3,2,0.4,4.6,0.2,7c-0.4,2.8-1.5,7.1-2.4,9.8
	c-1.8,5.6-3.5,9.6-5.5,15.2c-0.9,2.7-1.9,5.3-3.5,7.6c-3,4.6-8.1,7.6-13.5,8.6c-1.7,0.3-3.5,0.5-5.1,0.2c-2-0.3-4-1.3-5.7-2.4
	c-1-0.7-2-1.3-3-2c-0.2-0.2-0.5-0.4-0.6-0.7c-0.1-0.3,0.1-0.6,0.2-0.8c4.6-9.5,18.3-25.3,17.8-26.1c-0.4-0.7-9.5,2.2-13.8,4.4
	c-1.6,0.8-3.2,1.8-4.9,2.2c-1.7,0.3-3.7-0.1-4.8-1.5c-1.1-1.5-0.7-3.7-0.2-5.5c1.7-5.6,4.3-11,7.8-15.7c1.8-2.6,4-4.9,6.1-7.2
	c3.1-3.3,6.4-6.6,10.7-8c4.2-1.3,11-0.3,14.8,1.7c11.9,6,19.8,11.1,25.9,27.7c6.9,18.6-1,32.2-21.6,51.9c-0.2,0.2-0.6,0.6-1,1
	c-0.2,0.2-0.4,0.4-0.7,0.7c-0.2,0.3-0.7,0.7-1.5,1.4c-0.7,0.7-1.7,1.6-3.1,2.7c-1.3,1.2-3.1,2.8-5.3,4.8c-1.8,1.7-3.4,3-4.6,4.1
	s-2.2,2-2.9,2.7c-0.7,0.7-1.3,1.2-1.7,1.6c-0.4,0.4-0.7,0.7-0.9,0.9c-0.7,0.7-1.2,1.5-1.5,2.2s-0.4,1.5-0.2,2.4
	c0.2,0.8,0.7,1.8,1.4,2.9c0.7,1.1,1.9,2.2,3.3,3.7c2.2,2.2,4.3,3.7,6.2,4.7c1.9,1,3.7,1.6,5.3,1.7c1.7,0.2,3.1-0.1,4.4-0.7
	c1.3-0.7,2.5-1.5,3.6-2.7c1.3-1.4,2.2-2.9,2.6-4.5s0.1-3.2-0.9-5.1c1,0.5,1.9,0.7,2.8,0.8c0.8,0.1,1.7-0.1,2.6-0.3
	c0.8-0.2,1.6-0.7,2.3-1.2s1.3-1.1,1.9-1.7c1-1.1,1.7-2.2,2.1-3.4c0.4-1.2,0.5-2.5,0.2-3.8c-0.2-1.3-0.9-2.8-2-4.4
	c-1-1.6-2.5-3.3-4.3-5.1c-0.7-0.7-1.7-1.6-2.7-2.5c-1.1-0.9-3.5-2.8-5-4.1c-13.2-10.5-31.2-2.2-38.1,6.5
	c-29.1,36.5,37.8,83.7,60.1,102.8c2.4,2,8.3,5.7,12.5,6.3c5.3,0.7,9.6,7.4,10,11.2c0.4,3.8-15.1,13-19.5,15.9l0.1-0.1
	c-4.4,2.7-19.4,12.7-22.8,10.9c-3.4-1.8-8-8.3-6.5-13.4c1.3-4.6-1.1-10.6-0.9-13.7c0.1-3.1,4.8-5.8,12.4-10.5l-0.1,0.1
	c4-2.6,7.2-4.6,9.7-5.8c18.7-9.2,28.5-5.5,52.7,1.9c44.2,13.5,58.1-53.2,77.7-52.6c3.3,0.1,8.2,0.7,10,0.9
	c3.2,0.5,11.7,1.7,12.5,3.2c0.7,1.5-2.1,21.7-2.6,24.6c-0.6,3-2.4,21.9-4.2,23.1c-1.7,1.2-9.9,0.3-13.2-0.2s-10.8-1.6-12-3.2
	s1.6-19.3,2.2-23.3c0.5-3.3,1.9-16.4,3.4-21.9c6.6-25.1,45.7-7.7,61.2-23.5c12-11.2,22.8-32.7,22.3-34.8
	c-0.6-2.3-24.4-12.9-31.4-16.5c-8.6-4.5-12.5-2.9-19,7.8c-6.1,10-8.1,12.9,3.1,21c10,7.3,17.9,15.3,27.4,18.1
	c15.9,4.7,35.4,2.3,45.9,20.6c11.6,19.9,11.2,51.3,8.2,53.8c-1.5,1.2-5-0.7-5.1,3.2s-1.9,10.2-9.5,10.1c-6.4-0.1-10.4-4.8-11.7-7.9
	s-2.4-7.5-3.3-8.1c-1.1-0.7-3.2-1.3-3.9-1.6c-3.3-1.4-5.8-24.2-2.6-26.1c1.4-0.9,7.4-5.1,14.8-7.6c6-2.1,12.6-3.2,15.5-3.4
	c19.3-1.1,35.4,6.9,63.2-0.1c49.6-11.9,85.2-58.7,156.4-61.8c124.9-5.4,300.2,81,443.4,68.1"/>
<path class="st3" d="M-2010.7-278.4c132.4-40,316-58.4,603,46.5c176.2,64.4,297.5,44.2,428.4,28.3"/>
<path class="st3" d="M-2010.2-190.3c229.3-91.7,446.3-63.3,646.9,9.5c243,88.1,370.7-69.7,656.9,24.6"/>
<path class="st3" d="M-467.7-87.4c-171.2-43.1-251.2-95.1-358.7-113c-194.8-32.4-338.4,59.9-545.1,41.1
	c-116.7-10.6-217.7-86-304.5-166.8c-111-103.3-228.4-129.3-334.2-139.3"/>
<g>
	<path class="st3" d="M-402.7-138.4c-4.9,6.2-0.5,15.4,3.4,15.4c4.1-0.1,5.6,2.9,4.9,5.1c-0.7,2.5-4.5,3.4-6.6,0.2
		c-1.9-2.9-8.2-7.1-10.6-2.6s0.3,13.8,6.5,13.9c4.7,0.1,5.2,4.7,4.4,6.3c-1.2,2.1-2.4,3-5.4,3.6c-3,0.7-7.2,7.4-8.3,15.2
		c-0.8,5.5,2.2,3,4.7,5.7s5.6,2.9,5.7,4.7c0,1.9-4.2,0.6-7.8-0.3c-3.6-1-0.5-0.3-13.7-3c-13-2.7-11.2-5.5-10.2-6.6
		c0.8-0.9,4.6-1.3,5.5-4.4c2.6-9.2,10.2-8.8,7.3-15.1c-2.8-6.3-16.8-9.8-14.7-18.8c0.9-3.8,4-6,2.6-7.5c-1.7-1.8-5.4,0.2-5.3-3.8
		c0.2-4,4.3-14.6,10.2-19.9c5.4-4.9,11.1,0,16.4-1c4.4-0.8,6.7-2.4,6.7-7.6c0-7.4,10.1-9.5,15.9-3.8c6.7,6.3-4.3,12.9-5.2,17.4
		C-397.3-140.5-400.3-141.4-402.7-138.4z"/>
	<path class="st3" d="M-430.9-83.8c2.9,0.5,4.6,7.4,9.5,8.3c4.8,1.1,7.1-2.9,7.1-2.9"/>
	<path class="st3" d="M-425.1-102.8c2.6,2.5,6.8,4.6,4.1,12.1c-2.3,6.4-6.7,9.8-6.7,9.8c-2.7,2.3-4.8,3.8-3.1,5.7"/>
	<path class="st3" d="M-419.6-151.5c-0.5,7-12.6,10.5-15.1,25.8"/>
	<path class="st3" d="M-399.5-140.8c-4.3,0.1-3.6-4.5-4.4-7.7c-1-4.6-4.8-4.7-4.8-4.7"/>
	<path class="st3" d="M-403.7-147.6c2.4-1,4.6-1.3,5-5.4c0.4-4,4.6-7.7,9-7.7"/>
	<path class="st3" d="M-437.4-114.4c0,0,4.5,4.7,18.7,2"/>
	<path class="st3" d="M-435.8-77.8c-3.5-0.8-37.9-9.5-43.3-11s-7.5,3.7-0.3,4.5c7.2,0.9,42.1,9.6,56,12.3
		c12.1,2.3,50,10.8,57.5,12.2c7.5,1.6,7.9-2.9,4.8-3.2c-3.1-0.4-3.1-1.1-4.4-2.3c-2-2.1-23.2-3-41.1-7.9"/>
	<path class="st3" d="M-410.8-121.3c4.2-3.9,5.8-7.6,6.2-13.3c0,0-2.8-15.6-11-13.1c-4.2,1.3-3.2,8-2.6,11.9
		c1.2,7.7-5.2,11.7-2.9,19.2c1.2,3.8,6.6,7.9,8.1,12.8c1.8,5.6,5.4,7.5,7.7,7.2"/>
	<path class="st3" d="M-403.8-106.1c-1.1,2-4.5,0.8-6.4,2.1c-1.7,1.2-1.4,3.5-0.4,4.8"/>
	<path class="st3" d="M-401-117.7c-0.7-1.8-0.9-5.3,1.8-5.3"/>
	<path class="st3" d="M-473.2-87.1c0.9-3.3,26.7,5.9,36.6,7.9"/>
	<path class="st3" d="M-404.1-70.9c3.9,1.2,35.5,7.2,43,7.9"/>
	<path class="st3" d="M-409.9-98.4c0,0-54,21.4-54.8,21.6c-0.9,0.3-1.2-1.3-1.6-1.1c-0.4,0.1,0.1,1.6-0.3,1.8
		c-0.2,0.2-1.3,0.5-1.3,0.5"/>
	<line class="st3" x1="-400.6" y1="-117.1" x2="-411.9" y2="-112.4"/>
	<path class="st3" d="M-429.2-106.1c0,0-25.2,9.8-25.7,10c-0.6,0.3-1.2-1.5-1.6-1.3s0.3,1.6-0.1,1.9c-0.2,0.2-1.4,0.7-1.4,0.7"/>
</g>
<path class="st3" d="M-1103.8-143.3c-284.3,55.9-467.1-23.9-628.5-139.9c-99.7-71.6-202.7-94.4-277.9-94.4"/>
<path class="st1" d="M-90.6-32.1c-136.6,0-354-32.8-506.6-88.3c-175.4-63.8-261.6-83.3-512.9-21.3s-378.6,2.7-496.8-25.9
	c-146-35.2-281.9,4.7-403.7,68.1l-0.2,166.2h1920L-90.6-32.1z"/>
</svg>
