<?xml version="1.0" encoding="utf-8"?>
<!-- Generator: Adobe Illustrator 23.0.2, SVG Export Plug-In . SVG Version: 6.00 Build 0)  -->
<svg version="1.1" id="Capa_1" xmlns="http://www.w3.org/2000/svg" xmlns:xlink="http://www.w3.org/1999/xlink" x="0px" y="0px"
	 viewBox="0 0 1920 1080" style="enable-background:new 0 0 1920 1080;" xml:space="preserve">
<style type="text/css">
	.st0{fill:#F08377;}
	.st1{fill:#FFFFFF;}
	.st2{fill:none;stroke:#FFFFFF;stroke-width:0.75;stroke-miterlimit:10;}
</style>
<rect y="52.5" class="st0" width="1920" height="1014.7"/>
<path class="st1" d="M0,62.7c-0.2,21.1,558.6,40.3,960.1,82.8c366.2,38.8,586.8,127.6,586.8,211.3c4.1,120.6-713.7,150-721.1,275.2
	c-7.4,126,400.1,89,406.2,247.2c5.2,136.8-499.5,172.3-1232,188.5v12.3h1920V901.1c-160.7-106.7-419.1-145.1-689.7-170
	c-277.1-25.5-387.9-43-384-99.1c4.1-59.2,204.9-90,315.3-111.3c142.5-27.5,750.5-99,758.5-159.8L1920,0H0V62.7z"/>
<g>
	<path class="st2" d="M1014.2,454.6c5.4,6.8,0.5,17.1-3.9,17c-4.6-0.1-6.2,3.1-5.5,5.6c0.8,2.9,5.1,3.8,7.3,0.3
		c2.1-3.2,9.2-7.9,11.8-2.9c2.6,5-0.5,15.2-7.2,15.4c-5.1,0.2-5.8,5.1-4.9,6.9c1.3,2.4,2.6,3.3,6.1,4.2c3.4,0.9,7.8,8.3,8.9,16.9
		c0.7,6.1-2.5,3.4-5.3,6.3c-2.7,3-6.3,3-6.4,5.2c0,2.1,4.7,0.8,8.6-0.3c4-1.1,0.6-0.3,15.1-3.1c14.4-2.9,12.5-6,11.4-7.1
		c-0.9-1.1-5.2-1.6-6-5c-2.8-10.3-11.2-9.9-8-16.8s18.7-10.7,16.5-20.7c-1-4.2-4.4-6.6-2.7-8.4c1.8-2,5.9,0.4,5.9-4.1
		c-0.1-4.4-4.5-16.1-11.2-22.1c-5.9-5.4-12.2-0.1-18.2-1.3c-4.8-1-7.4-2.8-7.3-8.5c0.1-8.2-11-10.5-17.7-4.4
		c-7.5,6.9,4.6,14.3,5.6,19.3C1008.2,452.1,1011.6,451.3,1014.2,454.6z"/>
	<path class="st2" d="M1044.9,515.3c-3.1,0.5-5.3,8-10.6,9.1c-5.4,1-7.7-3.2-7.7-3.2"/>
	<path class="st2" d="M1038.6,494.3c-2.9,2.8-7.5,4.9-4.7,13.4c2.5,7.1,7.2,10.9,7.2,10.9c2.9,2.5,5.4,4.3,3.3,6.3"/>
	<path class="st2" d="M1033.2,440.3c0.5,7.7,13.9,11.8,16.4,28.7"/>
	<path class="st2" d="M1010.7,451.9c4.7,0.1,4.1-5,5-8.5c1.2-5.1,5.4-5.2,5.4-5.2"/>
	<path class="st2" d="M1015.4,444.5c-2.6-1.2-5.1-1.6-5.4-6.1s-4.9-8.6-9.8-8.5"/>
	<path class="st2" d="M1052.4,481.5c0,0-5,5.2-20.7,2"/>
	<path class="st2" d="M1050.3,522.1c4-0.9,23.2-6.4,29.1-7.9c6-1.5,8.3,4.2,0.2,5c-7.9,0.8-27.7,6.4-43.2,9.2
		c-13.3,2.5-44,9.4-52.3,11s-8.7-3.3-5.2-3.6c3.4-0.3,3.5-1.1,4.9-2.5c2.2-2.2,14.2-1.3,34.1-6.3"/>
	<path class="st2" d="M1023.1,473.6c-4.6-4.3-6.2-8.6-6.7-14.9c0,0,3.2-17.2,12.4-14.4c4.6,1.4,3.4,8.9,2.8,13.1
		c-1.4,8.6,5.7,13.1,3,21.2c-1.4,4.3-7.3,8.7-9.1,14.2c-2.2,6.2-6.1,8.3-8.6,7.9"/>
	<path class="st2" d="M1015.1,490.3c1.1,2.4,4.9,1,7,2.4c1.9,1.3,1.6,3.8,0.5,5.3"/>
	<path class="st2" d="M1012.1,477.6c0.8-1.9,1.1-5.8-1.8-5.9"/>
	<path class="st2" d="M1072.8,515.9c-1-3.7-10.6,2.5-21.6,4.6"/>
	<path class="st2" d="M1015.1,529.2c-4.3,1.2-27.8,5.8-36.3,6.5"/>
	<path class="st2" d="M1021.8,498.9c0,0,59.5,24.2,60.4,24.5c0.9,0.4,1.2-1.3,1.8-1.2c0.4,0.2,0,1.7,0.4,1.9
		c0.2,0.1,1.4,0.5,1.4,0.5"/>
	<line class="st2" x1="1011.6" y1="478.2" x2="1024.2" y2="483.5"/>
	<path class="st2" d="M1043.4,490.6c0,0,27.8,11,28.5,11.4c0.6,0.3,1.3-1.7,1.7-1.4s-0.3,1.8,0.2,2.1c0.3,0.2,1.5,0.8,1.5,0.8"/>
</g>
</svg>
