<?xml version="1.0" encoding="utf-8"?>
<!-- Generator: Adobe Illustrator 23.0.2, SVG Export Plug-In . SVG Version: 6.00 Build 0)  -->
<svg version="1.1" id="Capa_1" xmlns="http://www.w3.org/2000/svg" xmlns:xlink="http://www.w3.org/1999/xlink" x="0px" y="0px"
	 viewBox="0 0 953 344" style="enable-background:new 0 0 953 344;" xml:space="preserve">
<style type="text/css">
	.st0{fill:#4ED3DD;}
</style>
<title>BZ</title>
<g>
	<g>
		<path class="st0" d="M408.3,266.1c-9.6,0-17.5-0.6-23.7-1.8c-6.2-1.2-11.3-3.1-15-5.5c-3.8-2.4-6.5-5.6-7.9-9.3
			c-1.4-3.6-2.1-8-2.1-13c0-1.5,0.1-3.6,0.2-6.2c0.2-2.7,0.4-6.4,0.7-11.3c0.3-5,0.8-11.3,1.3-18.8c0.6-7.6,1.3-17.1,2.3-29
			c1.1-14.4,2-25.8,2.7-34.2c0.6-8.4,1.1-14.9,1.5-19.5c0.3-4.5,0.5-7.8,0.6-9.7c0.1-1.9,0.1-3.4,0.1-4.7c0-2.7,0-4.8,0.1-6.4
			c0.1-1.7,0.3-3,0.5-4c0.3-1.1,0.8-2,1.6-2.5c0.8-0.5,1.8-0.8,3.1-0.8c9.4-0.6,17.6-1.1,24.3-1.5c6.7-0.3,12.6-0.5,17.6-0.5
			c12.3,0,23,1,31.9,3.1c8.9,2,16.2,5,21.8,8.8c5.6,3.8,9.8,8.6,12.5,14.2c2.6,5.6,4,12,4,19.1c0,3.9-0.4,8-1.2,12.2
			c-0.8,4.2-2.2,8.3-4.2,12c-2,3.8-4.7,7.2-8.1,10.1c-2.7,2.3-6,4.2-9.9,5.5c8,3,13.9,7.7,17.5,13.9c3.9,6.8,6,15,6,24.4
			c0,7.5-1.2,14.7-3.7,21.3c-2.5,6.7-6.8,12.6-12.9,17.6c-6.1,5-14.2,9-24.1,11.9C435.8,264.6,423.2,266.1,408.3,266.1z M416.3,89.6
			c-5,0-10.9,0.2-17.5,0.5c-6.7,0.3-14.9,0.8-24.3,1.5c-1.2,0-1.8,0.2-2,0.4c-0.4,0.3-0.6,0.7-0.8,1.4c-0.2,0.8-0.4,2-0.5,3.5
			c-0.1,1.6-0.1,3.6-0.1,6.3c0,1.3,0,2.9-0.1,4.8c-0.1,1.9-0.3,5.2-0.6,9.7c-0.3,4.6-0.8,11.1-1.5,19.5c-0.6,8.4-1.5,19.8-2.7,34.2
			c-1,11.9-1.7,21.4-2.3,29c-0.6,7.5-1,13.8-1.3,18.8c-0.3,4.8-0.6,8.6-0.7,11.3c-0.2,2.6-0.2,4.7-0.2,6.1c0,4.7,0.7,8.8,2,12.2
			c1.3,3.3,3.7,6.2,7.1,8.4c3.5,2.3,8.3,4,14.3,5.2c6.1,1.2,13.9,1.8,23.3,1.8c14.7,0,27.1-1.5,36.8-4.3c9.7-2.9,17.6-6.8,23.4-11.6
			c5.8-4.8,10-10.4,12.3-16.8c2.4-6.4,3.6-13.3,3.6-20.6c0-9-1.9-16.9-5.7-23.4c-3.7-6.5-10.2-11.2-19.3-14l-3.4-1l3.4-0.9
			c4.8-1.2,8.9-3.3,12.1-6c3.2-2.7,5.8-5.9,7.6-9.5c1.9-3.6,3.2-7.5,4-11.5c0.8-4,1.2-8,1.2-11.8c0-6.8-1.3-12.9-3.8-18.2
			c-2.5-5.3-6.5-9.8-11.8-13.4c-5.4-3.6-12.5-6.5-21.1-8.5C439,90.6,428.4,89.6,416.3,89.6z M420.7,234.6c-4.8,0-10.2-0.9-16.1-2.7
			l-0.8-0.2l2.8-41.1l0.8-0.1c2.8-0.5,5.5-0.9,8.1-1.1c2.6-0.2,4.8-0.4,6.6-0.4c8.4,0,14.4,2.2,17.9,6.6c3.4,4.3,5.2,9.6,5.2,15.8
			c0,2.3-0.3,4.9-0.9,7.6c-0.6,2.8-1.8,5.4-3.6,7.7c-1.8,2.3-4.3,4.2-7.5,5.7C430,233.8,425.8,234.6,420.7,234.6z M405.9,230.2
			c5.4,1.6,10.3,2.4,14.7,2.4c4.8,0,8.8-0.7,11.7-2.1c2.9-1.4,5.2-3.1,6.8-5.2c1.6-2,2.7-4.4,3.2-6.9c0.5-2.6,0.8-5,0.8-7.2
			c0-5.7-1.6-10.6-4.8-14.5c-3.1-3.9-8.6-5.8-16.3-5.8c-1.7,0-3.9,0.1-6.5,0.4c-2.3,0.2-4.7,0.5-7.1,0.9L405.9,230.2z M423.8,159.4
			c-4.1,0-8.8-0.7-14.1-2l-0.8-0.2l0.1-0.8c0.5-6.6,0.8-12.8,1.1-18.4c0.2-5.8,0.5-10.6,0.9-14.8l0.1-0.8l0.8-0.1
			c2.3-0.3,4.5-0.6,6.7-0.9c2.2-0.2,4.2-0.4,6.1-0.4c8.3,0,14.3,1.9,17.8,5.8c3.5,3.8,5.2,8.4,5.2,13.6c0,2-0.3,4.1-0.9,6.3
			c-0.6,2.3-1.8,4.4-3.6,6.3c-1.8,1.9-4.2,3.4-7.3,4.6C432.8,158.8,428.8,159.4,423.8,159.4z M411,155.7c4.7,1.1,9,1.7,12.8,1.7
			c4.7,0,8.5-0.5,11.3-1.6c2.8-1.1,5-2.5,6.5-4.1c1.6-1.6,2.6-3.5,3.2-5.4c0.5-2,0.8-4,0.8-5.8c0-4.7-1.6-8.9-4.7-12.3
			c-3.1-3.4-8.6-5.1-16.4-5.1c-1.7,0-3.7,0.1-5.8,0.4c-1.9,0.2-3.9,0.5-5.8,0.7c-0.3,4-0.6,8.6-0.8,14
			C411.8,143.5,411.5,149.4,411,155.7z"/>
	</g>
	<path class="st0" d="M498,262.7c-1.8,0-2.7-0.9-2.7-2.7l0.7-13.1c0.2-4.4,1.7-8.6,4.5-12.6c2.8-4,6.8-9.1,12-15
		c5.2-6,11.6-13.5,19.2-22.7c7.6-9.1,16.4-21.1,26.4-35.8h-45.6c-1.3,0-2.1-0.3-2.3-0.8c-0.2-0.6-0.4-1.4-0.4-2.5l0.7-11.2
		c0.2-2.1,0.4-4.2,0.8-6.2c0.4-2,1.2-3.8,2.4-5.5c1.2-1.6,2.9-2.9,5.2-3.9c2.3-1,5.3-1.5,9-1.5H611c1,0,1.9,0.2,2.7,0.7
		c0.8,0.5,1.2,1.4,1.2,2.7l-1,13.1c-0.2,4-1.8,8.3-4.8,12.9c-0.5,0.8-2.6,3.4-6.3,7.8c-3.7,4.4-8.3,9.9-13.7,16.6
		c-5.4,6.7-11.4,14.2-17.9,22.5c-6.5,8.3-13,16.9-19.3,25.6h51.9c1,0,1.9,0.2,2.7,0.7c0.8,0.5,1.2,1.4,1.2,2.7l-1,11.9
		c-0.3,4.8-1.7,8.8-4,11.8c-2.3,3-7.2,4.5-14.4,4.5H498z"/>
</g>
</svg>
