<?xml version="1.0" encoding="utf-8"?>
<!-- Generator: Adobe Illustrator 23.0.2, SVG Export Plug-In . SVG Version: 6.00 Build 0)  -->
<svg version="1.1" id="Capa_1" xmlns="http://www.w3.org/2000/svg" xmlns:xlink="http://www.w3.org/1999/xlink" x="0px" y="0px"
	 viewBox="0 0 953 344" style="enable-background:new 0 0 953 344;" xml:space="preserve">
<style type="text/css">
	.st0{fill:#4ED3DD;}
</style>
<title>car</title>
<path class="st0" d="M491.3,224.9h-9.3h-6.6H469c-45,0.3-91.8-1.2-98.3-13.9c-8.1-16.3-8.1-51.8,8.7-67.5c9.5-9,15.2-23.3,20.2-35.9
	c2.8-7.3,5.4-13.5,8.2-17.8c7.3-11,27.2-10.9,60.1-10.9h15.4c32.9-0.1,52.7-0.1,60.1,10.9c2.8,4.3,5.2,10.5,8.2,17.8
	c4.9,12.7,10.6,27,20.1,35.8c16.7,15.7,16.8,51.2,8.7,67.5C574.3,222.9,533.3,224.9,491.3,224.9z M475.7,222.7h6.4
	c24.5,0.1,89.6,0.5,96.2-12.7c7.6-15.3,7.5-50-8.3-64.9c-9.8-9.2-15.5-23.8-20.5-36.7c-2.8-7.2-5.2-13.3-8-17.4
	c-6.7-9.9-26.1-9.9-58.3-9.9h-15.5c-32.2-0.1-51.6-0.1-58.3,9.9c-2.7,4-5.1,10.3-8,17.4c-5,12.9-10.8,27.5-20.6,36.7
	c-15.8,14.8-15.9,49.6-8.3,64.9c6.6,13.2,71.7,12.8,96.3,12.7h6.3H475.7z"/>
<path class="st0" d="M475.8,87.6c18,0,52,0,54.8,2.8c2.8,2.8,21.7,36.9,18.9,41.6c-2.8,4.7-60.5,6.7-73.7,6.7
	c-13.2,0-70.9-1.9-73.7-5.7s14.2-41.6,18.9-43.5C425.7,87.7,460.8,87.6,475.8,87.6z"/>
<path class="st0" d="M378.7,244.5c1.9,1.9,9,1.4,14.6,1.4s14.2,0,16.1-1.9c1.9-1.9,1.9-15.2,1.9-15.2c-6.7-0.1-13.3-0.8-19.9-1.9
	c-10.4-1.9-15.2-3.8-15.2-3.8S374.8,240.8,378.7,244.5z"/>
<path class="st0" d="M572.8,244.5c-1.9,1.9-9,1.4-14.6,1.4s-14.2,0-16.1-1.9c-1.9-1.9-1.9-15.2-1.9-15.2c6.7-0.1,13.3-0.8,19.9-1.9
	c10.4-1.9,15.1-3.8,15.1-3.8S576.6,240.8,572.8,244.5z"/>
<circle class="st0" cx="402.6" cy="183.1" r="12.6"/>
<circle class="st0" cx="550" cy="183.1" r="12.6"/>
</svg>
