<?xml version="1.0" encoding="utf-8"?>
<!-- Generator: Adobe Illustrator 23.0.2, SVG Export Plug-In . SVG Version: 6.00 Build 0)  -->
<svg version="1.1" id="Capa_1" xmlns="http://www.w3.org/2000/svg" xmlns:xlink="http://www.w3.org/1999/xlink" x="0px" y="0px"
	 viewBox="0 0 953 344" style="enable-background:new 0 0 953 344;" xml:space="preserve">
<style type="text/css">
	.st0{fill:#4ED3DD;}
</style>
<title>coffecup</title>
<path class="st0" d="M449.8,252.1c-3.2,0-6.3,0-9.5-0.1c-11.6-0.3-50-2.2-54.8-12.6l0,0c-0.4-0.9-1.1-2.2-1.9-3.8
	c-5.6-11.3-18.9-37.9-26-69.2c-8.2-36.1-10-75.8-6.8-81.6c4.8-8.8,35.9-12,61-13.2c28.4-1.2,56.9-0.6,85.2,1.8
	c16.7,1.5,45.3,4.9,49.7,11.4c2,2.9,1.8,6.8,1.6,10.6c-0.3,7-0.7,13.1,10.4,14.4c23.6,2.9,47.5,17.8,43.7,50.8
	c-3.6,31.4-29,47.3-43.5,51.7c-5.6,1.7-12,3.2-18.1,4.6c-9.3,2.1-19,4.3-20.7,6.6c-2.4,3.2-5.2,9-7.2,13.1c-0.8,1.7-1.5,3.1-2,4.1
	C506.7,248.3,478.4,252.1,449.8,252.1z M387.3,238.4c2.9,6.1,23.7,10.6,53.1,11.5c34.9,1,65.1-3.6,68.8-10.4c0.5-0.9,1.2-2.3,2-4
	c2-4.3,4.8-10.1,7.4-13.5c2.1-2.8,9.6-4.6,21.8-7.4c6.1-1.4,12.4-2.8,18-4.6c14-4.3,38.6-19.7,42.1-50c4.6-39.7-30.9-47.2-41.9-48.6
	c-13-1.6-12.6-9.5-12.3-16.5c0.2-3.6,0.3-7-1.2-9.3c-5.8-8.7-74.3-15-133.1-12.2c-34.4,1.6-56,6-59.4,12.2c-2.6,4.8-1.4,42.8,7,80.2
	c7,31.1,20.2,57.5,25.8,68.8C386.2,236.2,386.9,237.5,387.3,238.4L387.3,238.4z"/>
<path class="st0" d="M535.7,202c-0.9,0-1.9-0.1-2.8-0.3c-1.5-0.3-2.8-1.3-3.6-2.7c-1.5-3.1,0.3-8,3.2-15.3c1.7-4.3,3.7-9.5,5.5-15.6
	l0,0c2.2-7.6,3.9-15.4,5.2-23.3c2-11.9,3.1-17.9,13.1-17.9c10.5,0,19.4,4,24.5,10.9c5.4,7.3,6.2,17.4,2.5,29.1
	C575.8,190.5,547.1,202,535.7,202z M539,168.3l1,0.3c-1.8,6.1-3.9,11.5-5.5,15.8c-2.6,6.6-4.4,11.4-3.3,13.7
	c0.5,0.9,1.4,1.5,2.3,1.6c8,2.3,40-8.6,47.9-33.4c3.5-11.1,2.8-20.6-2.2-27.4c-4.7-6.4-13-10.1-22.9-10.1c-8.4,0-9.1,4.4-11.2,16.2
	c-1.3,7.9-3,15.8-5.2,23.5L539,168.3z"/>
<path class="st0" d="M539,91c0,6.4-45.8,12.7-93.6,12.7s-86.7-6.4-86.7-12.7s38.8-10.4,86.7-10.4S539,84.6,539,91z"/>
</svg>
