<?xml version="1.0" encoding="utf-8"?>
<!-- Generator: Adobe Illustrator 23.0.2, SVG Export Plug-In . SVG Version: 6.00 Build 0)  -->
<svg version="1.1" id="Capa_1" xmlns="http://www.w3.org/2000/svg" xmlns:xlink="http://www.w3.org/1999/xlink" x="0px" y="0px"
	 viewBox="0 0 1920 746.6" style="enable-background:new 0 0 1920 746.6;" xml:space="preserve">
<style type="text/css">
	.st0{fill:#EF8377;}
	.st1{fill:none;stroke:#FF8676;stroke-width:3;stroke-miterlimit:10;}
	.st2{fill:#FF8676;}
</style>
<title>gafitas</title>
<path class="st0" d="M1920.1,746.6H0.2L0,0h1920L1920.1,746.6z M1119.2,671.9c58.5,54.9,185.1,25.7,274.7-63.7
	c89.1-89,71.3-312.5,21.3-381.4c-53-73.2-202.2-112.1-454.3-112.1s-403.1,39-456.1,112.1c-49.9,68.9-67.8,292.5,21.3,381.4
	c89.5,89.4,216.2,118.6,274.7,63.7s84.6-127.3,160.1-129.7C1036.4,544.5,1060.7,617,1119.2,671.9z"/>
<path class="st1" d="M960.9,562.7c-42.2,1.6-65.6,31.1-95.2,68.4c-14.7,18.5-29.9,37.7-49.1,55.7c-17.3,16.2-39.4,26.7-65.7,31.1
	c-9.2,1.5-18.7,2.3-28.5,2.3c-16,0-32.8-2-50.2-6.1c-56.5-13.1-112.9-45.5-158.8-91.4c-19.6-19.6-35.4-45.5-46.9-77.1l0,0
	c-11-24-80.7-23.1-93-60c-10-30-12-107-3-141c10-37.8,78-25,89-60l0.1,0c7.7-28.7,18-52.9,30.3-69.9c15-20.8,36.8-39,64.6-54.3
	c26.9-14.8,60.4-27.2,99.5-37c77.5-19.4,180.7-29.2,306.8-29.2l0.3,0.5c126.1,0,229,9.3,306.5,28.7c39.1,9.8,72.6,22.3,99.5,37
	c27.8,15.3,49.6,33.6,64.6,54.3c12.3,17,22.6,41.2,30.3,69.9l0.1,0c11,33,79,22.2,89,60c9,34,9,109-1,139c-12.3,36.9-84,38-95,62
	l0,0c-11.5,31.6-27.2,57.4-46.9,77.1c-46,45.9-102.4,78.3-158.8,91.4c-17.4,4-34.2,6.1-50.2,6.1c-9.8,0-19.3-0.8-28.5-2.3
	c-26.3-4.4-48.4-14.8-65.7-31.1c-19.2-18.1-34.4-37.2-49.1-55.7C1026.4,593.8,1003,564.3,960.9,562.7"/>
<path class="st2" d="M1477.6,338.6c0,0,4.7,34.5,4.7,79.8c0,38.2-7.1,75.5-7.1,75.5c3.6-0.9,42.4-5.4,50.8-30.9
	c6.9-20.7,8-68.8,3.4-92.6c-5.3-27.5-39.1-29.3-51.5-32"/>
<path class="st2" d="M443.8,338.6c0,0-4.7,34.5-4.7,79.8c0,38.2,7.1,75.5,7.1,75.5c-3.6-0.9-42.4-5.4-50.8-30.9
	c-6.9-20.7-8-68.8-3.4-92.6c5.3-27.5,39.1-29.3,51.5-32"/>
</svg>
