<svg id="Capa_1" data-name="Capa 1" xmlns="http://www.w3.org/2000/svg" viewBox="0 0 820 757"><defs><style>.cls-1{fill:#ff8676;}.cls-2{fill:none;stroke:#ef8377;stroke-miterlimit:10;stroke-width:3px;}.cls-3{fill:#ef8377;}</style></defs><title>gafitasshort2</title><path class="cls-1" d="M820,757H0V0H820ZM493.75,642.71c36.3,37,114.86,17.34,170.46-43,55.28-60,44.24-210.8,13.21-257.28C644.54,293.1,552,266.86,395.53,266.86s-250.13,26.31-283,75.62c-31,46.48-42.07,197.31,13.22,257.28,55.54,60.31,134.15,80,170.45,43s52.5-85.87,99.35-87.49c46.83,1.52,61.9,50.43,98.2,87.46Z"/><path class="cls-2" d="M395.53,569.07c-26.19,1.08-40.71,21-59.07,46.14-9.13,12.48-18.56,25.43-30.47,37.57-10.74,10.93-24.45,18-40.77,21a100.79,100.79,0,0,1-17.68,1.56,125.47,125.47,0,0,1-31.15-4.12c-35.06-8.84-70.06-30.69-98.54-61.66-12.16-13.22-22-30.69-29.1-52h0C81.92,541.34,38.67,542,31,517.06c-6.2-20.24-7.44-72.18-1.86-95.12,6.21-25.5,48.4-16.86,55.23-40.47h.06c4.78-19.36,11.17-35.69,18.8-47.15,9.31-14,22.83-26.31,40.08-36.63,16.7-10,37.48-18.35,61.74-25C253.18,259.64,317.22,253,395.47,253l.18.34c78.25,0,142.1,6.27,190.19,19.36,24.26,6.61,45,15,61.74,25,17.25,10.32,30.77,22.66,40.08,36.63,7.63,11.46,14,27.79,18.8,47.15h.06c6.83,22.26,49,15,55.23,40.47,5.58,22.94,5.58,73.53-.62,93.77-7.63,24.89-52.12,25.63-59,41.82h0c-7.13,21.32-16.88,38.72-29.1,52-28.54,31-63.54,52.82-98.54,61.66a129,129,0,0,1-31.15,4.12,100.79,100.79,0,0,1-17.68-1.56c-16.32-3-30-10-40.77-21-11.91-12.21-21.34-25.09-30.46-37.57-18.31-25.16-32.83-45.06-59-46.14"/><path class="cls-3" d="M716.14,417.9a479.24,479.24,0,0,1,2.92,53.83,336.9,336.9,0,0,1-4.41,50.93c2.24-.61,26.31-3.64,31.53-20.85,4.28-14,5-46.41,2.1-62.46C745,420.8,724,419.58,716.33,417.76"/><path class="cls-3" d="M74.66,417.9a481.6,481.6,0,0,0-2.91,53.83,338.19,338.19,0,0,0,4.4,50.93c-2.23-.61-26.31-3.64-31.52-20.85-4.28-14-5-46.41-2.11-62.46,3.29-18.55,24.26-19.77,32-21.59"/></svg>