<svg id="Capa_1" data-name="Capa 1" xmlns="http://www.w3.org/2000/svg" viewBox="0 0 1920 747"><defs><style>.cls-1{fill:#ff8676;}.cls-2{fill:none;stroke:#ef8377;stroke-miterlimit:10;stroke-width:3px;}.cls-3{fill:#ef8377;}</style></defs><title>gafitas2</title><path class="cls-1" d="M1920.1,746.6H.2L0,0H1920Zm-800.9-74.7c58.5,54.9,185.1,25.7,274.7-63.7,89.1-89,71.3-312.5,21.3-381.4-53-73.2-202.2-112.1-454.3-112.1s-403.1,39-456.1,112.1c-49.9,68.9-67.8,292.5,21.3,381.4,89.5,89.4,216.2,118.6,274.7,63.7s84.6-127.3,160.1-129.7C1036.4,544.5,1060.7,617,1119.2,671.9Z"/><path class="cls-2" d="M960.9,562.7c-42.2,1.6-65.6,31.1-95.2,68.4-14.7,18.5-29.9,37.7-49.1,55.7-17.3,16.2-39.4,26.7-65.7,31.1a176.83,176.83,0,0,1-28.5,2.3,219.06,219.06,0,0,1-50.2-6.1c-56.5-13.1-112.9-45.5-158.8-91.4-19.6-19.6-35.4-45.5-46.9-77.1h0c-11-24-80.7-23.1-93-60-10-30-12-107-3-141,10-37.8,78-25,89-60h.1c7.7-28.7,18-52.9,30.3-69.9,15-20.8,36.8-39,64.6-54.3,26.9-14.8,60.4-27.2,99.5-37C731.5,104,834.7,94.2,960.8,94.2l.3.5c126.1,0,229,9.3,306.5,28.7,39.1,9.8,72.6,22.3,99.5,37,27.8,15.3,49.6,33.6,64.6,54.3,12.3,17,22.6,41.2,30.3,69.9h.1c11,33,79,22.2,89,60,9,34,9,109-1,139-12.3,36.9-84,38-95,62h0c-11.5,31.6-27.2,57.4-46.9,77.1-46,45.9-102.4,78.3-158.8,91.4a224.75,224.75,0,0,1-50.2,6.1,176.83,176.83,0,0,1-28.5-2.3c-26.3-4.4-48.4-14.8-65.7-31.1-19.2-18.1-34.4-37.2-49.1-55.7-29.5-37.3-52.9-66.8-95-68.4"/><path class="cls-3" d="M1477.6,338.6a656.49,656.49,0,0,1,4.7,79.8c0,38.2-7.1,75.5-7.1,75.5,3.6-.9,42.4-5.4,50.8-30.9,6.9-20.7,8-68.8,3.4-92.6-5.3-27.5-39.1-29.3-51.5-32"/><path class="cls-3" d="M443.8,338.6a656.49,656.49,0,0,0-4.7,79.8c0,38.2,7.1,75.5,7.1,75.5-3.6-.9-42.4-5.4-50.8-30.9-6.9-20.7-8-68.8-3.4-92.6,5.3-27.5,39.1-29.3,51.5-32"/></svg>