<?xml version="1.0" encoding="utf-8"?>
<!-- Generator: Adobe Illustrator 23.0.2, SVG Export Plug-In . SVG Version: 6.00 Build 0)  -->
<svg version="1.1" id="Capa_1" xmlns="http://www.w3.org/2000/svg" xmlns:xlink="http://www.w3.org/1999/xlink" x="0px" y="0px"
	 viewBox="0 0 820 843" style="enable-background:new 0 0 820 843;" xml:space="preserve">
<style type="text/css">
	.st0{fill:#FFFFFF;}
	.st1{fill:none;stroke:#FF8676;stroke-width:3;stroke-miterlimit:10;}
	.st2{fill:#FF8676;}
</style>
<title>gafitasshort</title>
<path class="st0" d="M820,757H0V0h820V757z M493.8,642.7c36.3,37,114.9,17.3,170.5-43c55.3-60,44.2-210.8,13.2-257.3
	c-32.9-49.3-125.4-75.6-281.9-75.6s-250.1,26.3-283,75.6c-31,46.5-42.1,197.3,13.2,257.3c55.5,60.3,134.1,80,170.5,43
	s52.5-85.9,99.4-87.5C442.4,556.8,457.5,605.7,493.8,642.7L493.8,642.7z"/>
<path class="st1" d="M395.5,569.1c-26.2,1.1-40.7,21-59.1,46.1c-9.1,12.5-18.6,25.4-30.5,37.6c-10.7,10.9-24.5,18-40.8,21
	c-5.8,1-11.8,1.6-17.7,1.6c-10.5-0.1-21-1.4-31.1-4.1c-35.1-8.8-70.1-30.7-98.5-61.7c-12.2-13.2-22-30.7-29.1-52l0,0
	c-6.8-16.3-50-15.6-57.7-40.5c-6.2-20.2-7.4-72.2-1.9-95.1c6.2-25.5,48.4-16.9,55.2-40.5h0.1c4.8-19.4,11.2-35.7,18.8-47.1
	c9.3-14,22.8-26.3,40.1-36.6c16.7-10,37.5-18.4,61.7-25c48.1-13,112.2-19.7,190.4-19.7l0.2,0.3c78.3,0,142.1,6.3,190.2,19.4
	c24.3,6.6,45,15,61.7,25c17.3,10.3,30.8,22.7,40.1,36.6c7.6,11.5,14,27.8,18.8,47.1h0.1c6.8,22.3,49,15,55.2,40.5
	c5.6,22.9,5.6,73.5-0.6,93.8c-7.6,24.9-52.1,25.6-59,41.8l0,0c-7.1,21.3-16.9,38.7-29.1,52c-28.5,31-63.5,52.8-98.5,61.7
	c-10.2,2.6-20.6,4-31.2,4.1c-5.9,0-11.8-0.5-17.7-1.6c-16.3-3-30-10-40.8-21c-11.9-12.2-21.3-25.1-30.5-37.6
	c-18.3-25.2-32.8-45.1-59-46.1"/>
<path class="st2" d="M716.1,417.9c2,17.9,3,35.8,2.9,53.8c-0.2,17.1-1.7,34.1-4.4,50.9c2.2-0.6,26.3-3.6,31.5-20.9
	c4.3-14,5-46.4,2.1-62.5c-3.3-18.5-24.3-19.8-32-21.6"/>
<path class="st2" d="M74.7,417.9c-2,17.9-2.9,35.8-2.9,53.8c0.2,17.1,1.6,34.1,4.4,50.9C74,522,49.9,519,44.7,501.7
	c-4.3-14-5-46.4-2.1-62.5c3.3-18.5,24.3-19.8,32-21.6"/>
<rect y="730" class="st0" width="820" height="113"/>
</svg>
