<?xml version="1.0" encoding="utf-8"?>
<!-- Generator: Adobe Illustrator 23.0.2, SVG Export Plug-In . SVG Version: 6.00 Build 0)  -->
<svg version="1.1" id="Capa_1" xmlns="http://www.w3.org/2000/svg" xmlns:xlink="http://www.w3.org/1999/xlink" x="0px" y="0px"
	 viewBox="0 0 953 344" style="enable-background:new 0 0 953 344;" xml:space="preserve">
<style type="text/css">
	.st0{fill:#4ED3DD;}
</style>
<title>iphone</title>
<path class="st0" d="M475.2,258c-21.8,0-44.8-0.8-49.9-6.3c-4.6-5-5.1-47-4.8-87.5c0-2.6,0-4.8,0-6.5c0-2.9-0.1-7.6-0.2-13.6
	c-0.8-38.9-1.2-80.8,4.7-85.9c7.4-6.5,34.8-6.3,47.9-6.2h3.2c23.7,0,48.4,0.7,51.9,5.9c4,5.9,4.2,89,3.9,98.9
	c-0.1,2.9,0,9.7,0.2,18.3c0.8,37.6,1,71.6-3.7,75.7C520.1,257.9,475.7,258,475.2,258z M467.4,54.2c-13.4,0-35.1,0.6-41,5.7
	c-5.6,5-4.4,60.5-4,84.3c0.1,5.9,0.2,10.7,0.2,13.7c0,1.7,0,3.9,0,6.5c-0.1,20-0.3,81,4.3,86c5.1,5.5,36.5,5.5,48.3,5.5
	c17,0,46-1.8,51.6-6.5c4.4-3.7,3.4-51.2,3-74c-0.2-8.7-0.3-15.5-0.2-18.5c0.6-14.4-0.2-92.8-3.4-97.6c-2.2-3.3-19.1-5-50-5h-3.3
	L467.4,54.2z"/>
<path class="st0" d="M475.9,66.5c10.9,0,39.1,0,42.2,4.2c3,4.2,3.4,65.9,3,74.9s2.6,67-2.6,71.1c-5.3,4.1-31.9,5.2-43.3,5.2
	s-36.1,0-40.7-4.5c-4.5-4.5-3.7-58.6-3.7-71.1c0-12.4-2.8-70.4,3.3-75.2C440.5,65.8,467.6,66.5,475.9,66.5z"/>
<path class="st0" d="M472.5,247c-1.4-0.6-2.6-1.8-3.2-3.3c-0.6-2.1,0.3-4.4,2.3-5.4c1.3-0.6,2.6-0.7,4.1-0.6
	c1.7,0.1,3.4,0.2,4.4,1.5c0.7,0.8,1.1,1.8,1.3,2.8c0,0.7,0,1.2,0,1.8c-0.1,0.8-0.4,1.5-0.9,2.2C479,248.3,474.3,247.8,472.5,247z"/>
</svg>
