<?xml version="1.0" encoding="utf-8"?>
<!-- Generator: Adobe Illustrator 23.0.2, SVG Export Plug-In . SVG Version: 6.00 Build 0)  -->
<svg version="1.1" id="Capa_1" xmlns="http://www.w3.org/2000/svg" xmlns:xlink="http://www.w3.org/1999/xlink" x="0px" y="0px"
	 viewBox="0 0 100 100" style="enable-background:new 0 0 100 100;" xml:space="preserve">
<style type="text/css">
	.st0{fill:#FFFFFF;}
	.st1{fill:#4ED3DD;}
	.st2{fill:none;stroke:#4ED3DD;stroke-miterlimit:10;}
</style>
<rect class="st0" width="100" height="100"/>
<g>
	<path class="st1" d="M67.5,84.4c-1.9,0-4.1-0.9-6.5-2.6c-7.9-5.6-15.5-11.7-22.7-18.1c-2.8-2.5-5.5-5.2-6.4-8.8
		c-0.1-0.6-0.2-1.3-0.3-1.9c-2.4-2.5-4.4-5.8-3.8-9.5c0.7-4.5,6.5-10.3,9-12.8l0.4-0.4c6.7-6.7,16.2-15.5,21.6-14.6
		c1.3,0.2,2.4,1,3,2.3c1.9,3.7-3,7-7.8,10.1c-1.6,1-3.2,2.1-4.5,3.1c-3.8,3-8.2,6.7-11.9,10.9l0,0c-2.1,2.3-4.3,5.8-4.2,10
		c0.5,0.5,0.9,0.9,1.4,1.3c5.4,4.5,11.9,7.7,18.2,10.8c4.6,2.3,9.4,4.6,13.7,7.5c1.8,1.2,3.7,2.6,4.7,4.6c1.1,2.1,1.1,5.1-0.9,6.9
		C69.8,84,68.7,84.4,67.5,84.4z M34,55.2c0.9,2.7,3.2,4.9,5.5,6.9c7.2,6.4,14.8,12.4,22.6,18c1.9,1.3,5.3,3.3,7.3,1.6
		c1.2-1.1,1.1-3.1,0.4-4.5c-0.8-1.5-2.2-2.6-4.1-3.9c-4.3-2.8-9-5.1-13.5-7.4C46,62.9,39.5,59.7,34,55.2z M58,17.6
		c-2.6,0-8,2.6-19.4,14.1L38.2,32c-2.2,2.2-7.9,7.9-8.5,11.7c-0.3,2.3,0.6,4.4,1.9,6.2c0.4-3.2,2-6.3,4.6-9.2l0,0
		c3.8-4.3,8.2-8,12.1-11.1c1.4-1.1,3-2.2,4.6-3.3c3.8-2.5,8.2-5.4,7.1-7.5c-0.4-0.7-0.9-1.1-1.6-1.2C58.3,17.6,58.1,17.6,58,17.6z"
		/>
</g>
<path class="st2" d="M202.7,28.3c-3.3,3.8-5.2,8.3-4.1,13.2c0.8,3.4,3.4,6,6,8.3c7.2,6.4,14.8,12.4,22.7,18.1
	c2.6,1.8,6.2,3.6,8.5,1.5c1.5-1.4,1.6-3.9,0.6-5.7c-1-1.8-2.7-3.1-4.4-4.2c-10.3-6.8-22.6-10.5-32-18.4c-3.2-2.7-6.2-6.4-5.5-10.6
	c0.5-3,7.1-10,9.2-12.2c4-4,19.4-20.1,23-13c2,4-7,8-12,12C210.5,20.7,206.3,24.3,202.7,28.3z"/>
</svg>
