<?xml version="1.0" encoding="utf-8"?>
<!-- Generator: Adobe Illustrator 23.0.2, SVG Export Plug-In . SVG Version: 6.00 Build 0)  -->
<svg version="1.1" id="Capa_1" xmlns="http://www.w3.org/2000/svg" xmlns:xlink="http://www.w3.org/1999/xlink" x="0px" y="0px"
	 viewBox="0 0 698.6 131.2" style="enable-background:new 0 0 698.6 131.2;" xml:space="preserve">
<style type="text/css">
	.st0{fill:none;stroke:#FFFFFF;stroke-miterlimit:10;}
</style>
<title>lastskier</title>
<g>
	<path class="st0" d="M337.3,38.1c4.7,8.4-2.5,18.8-7.2,17.9c-5-0.9-7.3,2.4-7,5.2c0.4,3.3,4.8,4.9,8,1.6c2.9-3,11.3-7,13.3-1
		s-3.2,16.5-10.6,15.5c-3.1-0.6-6,1.5-6.6,4.5c-0.1,0.7-0.1,1.4,0,2.1c1,2.8,2.3,4.1,5.8,5.5s7.1,10.4,6.8,19.9
		c-0.2,6.7-3.4,3.2-6.8,6s-7.4,2.3-7.8,4.6s5,1.6,9.5,1.2s0.7-0.2,17.1-0.8c16.4-0.6,14.6-4.4,13.7-5.8s-5.3-2.5-5.7-6.4
		c-1.2-11.7-10.4-12.7-5.7-19.6c4.7-6.9,22.3-8.5,21.5-19.7c-0.3-4.8-3.6-8-1.5-9.6c2.3-1.8,6.4,1.4,7.1-3.5s-2.2-18.5-8.3-26.1
		c-5.5-6.9-13.3-2.3-19.6-4.5c-5.1-1.8-7.6-4.3-6.5-10.5c1.5-8.9-10.2-13.4-18.4-7.9c-9.3,6.3,2.5,16.4,2.7,22.1
		C331.3,34.5,335.1,34,337.3,38.1z"/>
	<path class="st0" d="M360.4,109.6c-3.5,0-7.1,7.9-13.1,8.2c-3.4,0.3-6.5-1.7-7.8-4.8"/>
	<path class="st0" d="M357.2,85.5c-3.7,2.5-9.1,4.1-7.4,13.7c0.8,4.8,2.9,9.3,6,13.1c2.7,3.3,5.1,5.5,2.6,7.5"/>
	<path class="st0" d="M360.5,25.6c-0.8,8.5,13,15.3,13,34.1"/>
	<path class="st0" d="M333.9,34.5c5.1,1,5.3-4.6,6.9-8.5c2.3-5.3,6.7-4.8,6.7-4.8"/>
	<path class="st0" d="M340.4,27.1c-2.6-1.8-5.3-2.6-4.9-7.5s-3.9-10.3-9.3-11"/>
	<path class="st0" d="M374.4,74c0,0-6.3,4.8-23-1.4"/>
	<path class="st0" d="M365.1,117.8c4.5-0.2,26.3-2.9,33.1-3.6c6.7-0.7,8.2,5.9-0.6,5.5c-8.8-0.4-31.4,2.2-48.7,2.6
		c-15,0.4-49.6,2.7-59,3s-8.9-5.1-5.1-4.8c3.8,0.3,4-0.6,5.8-1.9c2.8-2,15.7,1.2,38.3-1"/>
	<path class="st0" d="M343.7,60.2c-4.3-5.5-5.3-10.3-4.8-17.3c0,0,6.5-18.3,16-13.5c4.7,2.4,2.2,10.3,0.7,14.8
		c-2.9,9,3.9,15.2-0.4,23.7c-2.2,4.3-9.4,8.2-12.4,13.9c-3.4,6.4-8.1,8-10.8,7.1"/>
	<path class="st0" d="M332.2,77.2c0.8,2.7,5.3,1.9,7.2,3.8c1.8,1.8,1,4.5-0.4,5.8"/>
	<path class="st0" d="M331.1,62.7c1.3-2,2.2-6.2-1-6.8"/>
	<path class="st0" d="M390.6,115c-0.5-4.1-12,0.9-24.5,1.3"/>
	<path class="st0" d="M325.4,119.6c-4.9,0.6-31.4,1.5-40.6,0.9"/>
	<path class="st0" d="M337.9,87.7c0,0,60.7,36.7,61.7,37.2s1.6-1.3,2.1-1s-0.3,1.9,0,2.2c0.3,0.3,1.5,0.9,1.5,0.9"/>
	<line class="st0" x1="330.4" y1="63.3" x2="343.2" y2="71.3"/>
	<path class="st0" d="M362.8,82.3c0,0,28.5,16.9,29.1,17.3s1.8-1.5,2.2-1.2s-0.7,1.9-0.2,2.3s1.5,1.1,1.5,1.1"/>
</g>
</svg>
