<?xml version="1.0" encoding="utf-8"?>
<!-- Generator: Adobe Illustrator 23.0.2, SVG Export Plug-In . SVG Version: 6.00 Build 0)  -->
<svg version="1.1" id="Capa_1" xmlns="http://www.w3.org/2000/svg" xmlns:xlink="http://www.w3.org/1999/xlink" x="0px" y="0px"
	 viewBox="0 0 953 344" style="enable-background:new 0 0 953 344;" xml:space="preserve">
<style type="text/css">
	.st0{fill:#4ED3DD;}
</style>
<title>pizzamarguerita</title>
<path class="st0" d="M470.1,242.3c-19,0-38.1-2.7-56.4-8.2c-11.9-3.7-23.7-8.1-35.3-13.1c-16.6-7-33.7-15.1-44.5-29.4
	c-9.8-13.1-14-31.3-11.4-50c1.9-12.4,6.2-22.9,13-30.5c7-7.8,16.6-12.8,25.9-17.2c8.4-4,17.2-7.1,26.3-9.5
	c10.7-2.5,28.1-4.2,39.7-4.4c14-0.4,25.7-0.2,38.1-0.1C473.4,80,482,80,491.3,80c10.4,0,22.2-0.1,33.5,2.6
	c20.1,4.9,38.8,19.3,51.1,39.2c3.7,5.8,6.5,12.3,8.1,19c1.9,9,0.4,18.2-1,25.1c-0.9,4.7-2.1,9.3-3.4,13.8c-0.2,1.4-1,2.7-2.2,3.6
	c-1.2,0.7-2.6,0.8-4,0.5c-25-2.6-62-14-89.2-22.3c-14-4.3-27.2-8.3-30.6-8.5c1.5,5,21,30.5,34.8,43.3c1,0.9,2.1,2,3.1,2.8
	c4.3,3.7,8.5,7.7,11.7,12.6c3.4,5.5,5.8,14.4,1.2,21.3c-4.7,6.9-13.7,8.2-21,8.6C478.7,242.2,474.4,242.3,470.1,242.3z M447.4,82.4
	c-6.2,0-12.7,0-19.9,0.2c-11.6,0.4-28.7,2-39.3,4.4c-8.9,2.2-17.5,5.4-25.7,9.3c-9.1,4.2-18.4,9.1-25.2,16.5
	c-6.5,7.1-10.7,17.3-12.5,29.2c-2.6,17.9,1.4,35.6,10.9,48c10.5,13.9,27.2,21.8,43.4,28.7c11.4,5,23.1,9.3,35,13.1
	c22.2,6.7,45.3,9.2,68.3,7.7c6.9-0.4,15.2-1.6,19.3-7.7c3.7-5.6,2.1-13.4-1.2-18.6c-2.8-4.7-7.1-8.4-11.2-12c-1-0.9-2.1-2-3.3-2.8
	c-8.5-8.3-16.3-17.3-23.6-26.6c-13.7-17.6-12.3-19.5-11.6-20.2l0,0c1.3-1.6,5.5-0.7,33.6,7.9c27,8.3,64.1,19.6,88.8,22.2
	c1.3,0.5,2.8,0,3.4-1.3c0.1-0.4,0.2-0.8,0.2-1.2c1.3-4.4,2.5-9.1,3.4-13.7c1.3-6.8,2.7-15.5,1-24.2c-1.4-6.5-4.2-12.6-7.8-18.2
	c-12-19.5-30.1-33.4-49.6-38.2c-10.9-2.6-22.5-2.6-32.8-2.5c-9.3,0-17.6,0-25.8-0.1C459.3,82.4,453.5,82.4,447.4,82.4z"/>
<path class="st0" d="M478.9,171c-2.6,2.5,20,20.8,30,30.8c12,12,21.6,26.5,31.1,40.6l8.2,12.4c3.1,4.7,6.9,9.8,12.5,10.3
	c3.3,0.2,6.2-1,9.1-2.5c23.4-11.1,46.1-25.3,60.8-46.5c1.2-0.9,1.3-2.6,0.4-3.7c-0.1-0.1-0.2-0.2-0.4-0.4
	c-8.2-8.9-19.7-13.9-31.5-16.6c-11.8-2.7-23.9-3.4-35.8-4.8c-20.1-2.3-39.8-6.9-59.1-13.7C496.1,174.1,481,169,478.9,171z"/>
</svg>
