<svg id="Capa_1" data-name="Capa 1" xmlns="http://www.w3.org/2000/svg" viewBox="0 0 1920 1158"><defs><style>.cls-1{fill:#fff;stroke:#999;}.cls-1,.cls-2{stroke-miterlimit:10;}.cls-2{fill:none;stroke:#4ed3dd;opacity:0.4;}</style></defs><title>prueba</title><rect class="cls-1" y="-1" width="1920" height="1159"/><path class="cls-2" d="M615.5-1.5c0,15,1.52,63.09,160,86,166,24,184,95,47,157-138.73,62.78-122.11,126.42-41,157,191,72,526,56,526,190,0,157.67-550.78,265.6-703.28,464.49-24.5,32-38.72,56.51-38.72,103.51"/><path class="cls-2" d="M228.39,459.09l6.27-6.94a19.12,19.12,0,0,1,4.25-3.84,52.89,52.89,0,0,0,8.83,10"/><path class="cls-2" d="M231.42,466.5c2.15-2.56,5.52-4.26,6.53-7.44.17-.55.49-1.28,1.05-1.17a1.12,1.12,0,0,1,.46.27,32.78,32.78,0,0,1,6,6.69"/><path class="cls-2" d="M231.23,472.73a13.45,13.45,0,0,0,6.24-5.87,1.44,1.44,0,0,1,.4-.51,1.08,1.08,0,0,1,.59-.09c1.6.16,2.68,1.69,3.32,3.16s1.13,3.12,2.38,4.13"/><path class="cls-2" d="M233.94,479.26a71.9,71.9,0,0,1,5.21-5.41.72.72,0,0,1,.5-.27c.26,0,.43.26.55.48l3.41,6.07"/><path class="cls-2" d="M232.16,485.93a45.36,45.36,0,0,0,7-6.55.64.64,0,0,1,.31-.23c.23,0,.41.2.52.41a55,55,0,0,0,8.46,11.54"/><path class="cls-2" d="M229,492.16a16.38,16.38,0,0,0,8.28-5.33,1.84,1.84,0,0,1,1-.77c.74-.14,1.28.65,1.64,1.31a37.86,37.86,0,0,0,9.45,11.46"/><path class="cls-2" d="M228.77,499.06a40.84,40.84,0,0,0,8.61-5.55,1.69,1.69,0,0,1,1.28-.56c.51.08.8.61,1,1.06A29.26,29.26,0,0,0,249.47,505"/><path class="cls-2" d="M238.79,449.06c-.55,15.31,1.53,30.68.22,45.95-.35,4.06-.93,8.1-.95,12.18,0,9.62,3.11,19.23,1.71,28.75"/><path class="cls-2" d="M315.39,510.09l6.27-6.94a19.12,19.12,0,0,1,4.25-3.84,52.89,52.89,0,0,0,8.83,10"/><path class="cls-2" d="M318.42,517.5c2.15-2.56,5.52-4.26,6.53-7.44.17-.55.49-1.28,1.05-1.17a1.12,1.12,0,0,1,.46.27,32.78,32.78,0,0,1,6,6.69"/><path class="cls-2" d="M318.23,523.73a13.45,13.45,0,0,0,6.24-5.87,1.44,1.44,0,0,1,.4-.51,1.08,1.08,0,0,1,.59-.09c1.6.16,2.68,1.69,3.32,3.16s1.13,3.12,2.38,4.13"/><path class="cls-2" d="M320.94,530.26a71.9,71.9,0,0,1,5.21-5.41.72.72,0,0,1,.5-.27c.26,0,.43.26.55.48l3.41,6.07"/><path class="cls-2" d="M319.16,536.93a45.36,45.36,0,0,0,6.95-6.55.64.64,0,0,1,.31-.23c.23,0,.41.2.52.41a55,55,0,0,0,8.46,11.54"/><path class="cls-2" d="M316,543.16a16.38,16.38,0,0,0,8.28-5.33,1.84,1.84,0,0,1,1-.77c.74-.14,1.28.65,1.64,1.31a37.86,37.86,0,0,0,9.45,11.46"/><path class="cls-2" d="M315.77,550.06a40.84,40.84,0,0,0,8.61-5.55,1.69,1.69,0,0,1,1.28-.56c.51.08.8.61,1,1.06a29.26,29.26,0,0,0,9.77,11"/><path class="cls-2" d="M325.79,500.06c-.55,15.31,1.53,30.68.22,45.95-.35,4.06-.93,8.1-.95,12.18,0,9.62,3.11,19.23,1.71,28.75"/><path class="cls-2" d="M466.39,601.09l6.27-6.94a19.12,19.12,0,0,1,4.25-3.84,52.89,52.89,0,0,0,8.83,10"/><path class="cls-2" d="M469.42,608.5c2.15-2.56,5.52-4.26,6.53-7.44.17-.55.49-1.28,1.05-1.17a1.12,1.12,0,0,1,.46.27,32.78,32.78,0,0,1,6,6.69"/><path class="cls-2" d="M469.23,614.73a13.45,13.45,0,0,0,6.24-5.87,1.44,1.44,0,0,1,.4-.51,1.08,1.08,0,0,1,.59-.09c1.6.16,2.68,1.69,3.32,3.16s1.13,3.12,2.38,4.13"/><path class="cls-2" d="M471.94,621.26a71.9,71.9,0,0,1,5.21-5.41.72.72,0,0,1,.5-.27c.26,0,.43.26.55.48l3.41,6.07"/><path class="cls-2" d="M470.16,627.93a45.36,45.36,0,0,0,6.95-6.55.64.64,0,0,1,.31-.23c.23,0,.41.2.52.41a55,55,0,0,0,8.46,11.54"/><path class="cls-2" d="M467,634.16a16.38,16.38,0,0,0,8.28-5.33,1.84,1.84,0,0,1,1-.77c.74-.14,1.28.65,1.64,1.31a37.86,37.86,0,0,0,9.45,11.46"/><path class="cls-2" d="M466.77,641.06a40.84,40.84,0,0,0,8.61-5.55,1.69,1.69,0,0,1,1.28-.56c.51.08.8.61,1,1.06a29.26,29.26,0,0,0,9.77,11"/><path class="cls-2" d="M476.79,591.06c-.55,15.31,1.53,30.68.22,46-.35,4.06-.93,8.1-.95,12.18,0,9.62,3.11,19.23,1.71,28.75"/><path class="cls-2" d="M401.39,543.09l6.27-6.94a19.12,19.12,0,0,1,4.25-3.84,52.89,52.89,0,0,0,8.83,10"/><path class="cls-2" d="M404.42,550.5c2.15-2.56,5.52-4.26,6.53-7.44.17-.55.49-1.28,1.05-1.17a1.12,1.12,0,0,1,.46.27,32.78,32.78,0,0,1,6,6.69"/><path class="cls-2" d="M404.23,556.73a13.45,13.45,0,0,0,6.24-5.87,1.44,1.44,0,0,1,.4-.51,1.08,1.08,0,0,1,.59-.09c1.6.16,2.68,1.69,3.32,3.16s1.13,3.12,2.38,4.13"/><path class="cls-2" d="M406.94,563.26a71.9,71.9,0,0,1,5.21-5.41.72.72,0,0,1,.5-.27c.26,0,.43.26.55.48l3.41,6.07"/><path class="cls-2" d="M405.16,569.93a45.36,45.36,0,0,0,6.95-6.55.64.64,0,0,1,.31-.23c.23,0,.41.2.52.41a55,55,0,0,0,8.46,11.54"/><path class="cls-2" d="M402,576.16a16.38,16.38,0,0,0,8.28-5.33,1.84,1.84,0,0,1,1-.77c.74-.14,1.28.65,1.64,1.31a37.86,37.86,0,0,0,9.45,11.46"/><path class="cls-2" d="M401.77,583.06a40.84,40.84,0,0,0,8.61-5.55,1.69,1.69,0,0,1,1.28-.56c.51.08.8.61,1,1.06a29.26,29.26,0,0,0,9.77,11"/><path class="cls-2" d="M411.79,533.06c-.55,15.31,1.53,30.68.22,46-.35,4.06-.93,8.1-.95,12.18,0,9.62,3.11,19.23,1.71,28.75"/><path class="cls-2" d="M294.39,747.09l6.27-6.94a19.12,19.12,0,0,1,4.25-3.84,52.89,52.89,0,0,0,8.83,10"/><path class="cls-2" d="M297.42,754.5c2.15-2.56,5.52-4.26,6.53-7.44.17-.55.49-1.28,1.05-1.17a1.12,1.12,0,0,1,.46.27,32.78,32.78,0,0,1,6,6.69"/><path class="cls-2" d="M297.23,760.73a13.45,13.45,0,0,0,6.24-5.87,1.44,1.44,0,0,1,.4-.51,1.08,1.08,0,0,1,.59-.09c1.6.16,2.68,1.69,3.32,3.16s1.13,3.12,2.38,4.13"/><path class="cls-2" d="M299.94,767.26a71.9,71.9,0,0,1,5.21-5.41.72.72,0,0,1,.5-.27c.26,0,.43.26.55.48l3.41,6.07"/><path class="cls-2" d="M298.16,773.93a45.36,45.36,0,0,0,6.95-6.55.64.64,0,0,1,.31-.23c.23,0,.41.2.52.41a55,55,0,0,0,8.46,11.54"/><path class="cls-2" d="M295,780.16a16.38,16.38,0,0,0,8.28-5.33,1.84,1.84,0,0,1,1-.77c.74-.14,1.28.65,1.64,1.31a37.86,37.86,0,0,0,9.45,11.46"/><path class="cls-2" d="M294.77,787.06a40.84,40.84,0,0,0,8.61-5.55,1.69,1.69,0,0,1,1.28-.56c.51.08.8.61,1,1.06a29.26,29.26,0,0,0,9.77,11"/><path class="cls-2" d="M304.79,737.06c-.55,15.31,1.53,30.68.22,46-.35,4.06-.93,8.1-.95,12.18,0,9.62,3.11,19.23,1.71,28.75"/><path class="cls-2" d="M223.39,812.09l6.27-6.94a19.12,19.12,0,0,1,4.25-3.84,52.89,52.89,0,0,0,8.83,10"/><path class="cls-2" d="M226.42,819.5c2.15-2.56,5.52-4.26,6.53-7.44.17-.55.49-1.28,1.05-1.17a1.12,1.12,0,0,1,.46.27,32.78,32.78,0,0,1,6,6.69"/><path class="cls-2" d="M226.23,825.73a13.45,13.45,0,0,0,6.24-5.87,1.44,1.44,0,0,1,.4-.51,1.08,1.08,0,0,1,.59-.09c1.6.16,2.68,1.69,3.32,3.16s1.13,3.12,2.38,4.13"/><path class="cls-2" d="M228.94,832.26a71.9,71.9,0,0,1,5.21-5.41.72.72,0,0,1,.5-.27c.26,0,.43.26.55.48l3.41,6.07"/><path class="cls-2" d="M227.16,838.93a45.36,45.36,0,0,0,7-6.55.64.64,0,0,1,.31-.23c.23,0,.41.2.52.41a55,55,0,0,0,8.46,11.54"/><path class="cls-2" d="M224,845.16a16.38,16.38,0,0,0,8.28-5.33,1.84,1.84,0,0,1,1-.77c.74-.14,1.28.65,1.64,1.31a37.86,37.86,0,0,0,9.45,11.46"/><path class="cls-2" d="M223.77,852.06a40.84,40.84,0,0,0,8.61-5.55,1.69,1.69,0,0,1,1.28-.56c.51.08.8.61,1,1.06a29.26,29.26,0,0,0,9.77,11"/><path class="cls-2" d="M233.79,802.06c-.55,15.31,1.53,30.68.22,46-.35,4.06-.93,8.1-.95,12.18,0,9.62,3.11,19.23,1.71,28.75"/><path class="cls-2" d="M165.39,872.09l6.27-6.94a19.12,19.12,0,0,1,4.25-3.84,52.89,52.89,0,0,0,8.83,10"/><path class="cls-2" d="M168.42,879.5c2.15-2.56,5.52-4.26,6.53-7.44.17-.55.49-1.28,1.05-1.17a1.12,1.12,0,0,1,.46.27,32.78,32.78,0,0,1,6,6.69"/><path class="cls-2" d="M168.23,885.73a13.45,13.45,0,0,0,6.24-5.87,1.44,1.44,0,0,1,.4-.51,1.08,1.08,0,0,1,.59-.09c1.6.16,2.68,1.69,3.32,3.16s1.13,3.12,2.38,4.13"/><path class="cls-2" d="M170.94,892.26a71.9,71.9,0,0,1,5.21-5.41.72.72,0,0,1,.5-.27c.26,0,.43.26.55.48l3.41,6.07"/><path class="cls-2" d="M169.16,898.93a45.36,45.36,0,0,0,7-6.55.64.64,0,0,1,.31-.23c.23,0,.41.2.52.41a55,55,0,0,0,8.46,11.54"/><path class="cls-2" d="M166,905.16a16.38,16.38,0,0,0,8.28-5.33,1.84,1.84,0,0,1,1-.77c.74-.14,1.28.65,1.64,1.31a37.86,37.86,0,0,0,9.45,11.46"/><path class="cls-2" d="M165.77,912.06a40.84,40.84,0,0,0,8.61-5.55,1.69,1.69,0,0,1,1.28-.56c.51.08.8.61,1,1.06a29.26,29.26,0,0,0,9.77,11"/><path class="cls-2" d="M175.79,862.06c-.55,15.31,1.53,30.68.22,46-.35,4.06-.93,8.1-.95,12.18,0,9.62,3.11,19.23,1.71,28.75"/><path class="cls-2" d="M103.39,864.09l6.27-6.94a19.12,19.12,0,0,1,4.25-3.84,52.89,52.89,0,0,0,8.83,10"/><path class="cls-2" d="M106.42,871.5c2.15-2.56,5.52-4.26,6.53-7.44.17-.55.49-1.28,1-1.17a1.12,1.12,0,0,1,.46.27,32.78,32.78,0,0,1,6,6.69"/><path class="cls-2" d="M106.23,877.73a13.45,13.45,0,0,0,6.24-5.87,1.44,1.44,0,0,1,.4-.51,1.08,1.08,0,0,1,.59-.09c1.6.16,2.68,1.69,3.32,3.16s1.13,3.12,2.38,4.13"/><path class="cls-2" d="M108.94,884.26a71.9,71.9,0,0,1,5.21-5.41.72.72,0,0,1,.5-.27c.26,0,.43.26.55.48l3.41,6.07"/><path class="cls-2" d="M107.16,890.93a45.36,45.36,0,0,0,7-6.55.64.64,0,0,1,.31-.23c.23,0,.41.2.52.41a55,55,0,0,0,8.46,11.54"/><path class="cls-2" d="M104,897.16a16.38,16.38,0,0,0,8.28-5.33,1.84,1.84,0,0,1,1-.77c.74-.14,1.28.65,1.64,1.31a37.86,37.86,0,0,0,9.45,11.46"/><path class="cls-2" d="M103.77,904.06a40.84,40.84,0,0,0,8.61-5.55,1.69,1.69,0,0,1,1.28-.56c.51.08.8.61,1,1.06a29.26,29.26,0,0,0,9.77,11"/><path class="cls-2" d="M113.79,854.06c-.55,15.31,1.53,30.68.22,46-.35,4.06-.93,8.1-1,12.18,0,9.62,3.11,19.23,1.71,28.75"/><path class="cls-2" d="M48.39,944.09l6.27-6.94a19.12,19.12,0,0,1,4.25-3.84,52.89,52.89,0,0,0,8.83,10"/><path class="cls-2" d="M51.42,951.5c2.15-2.56,5.52-4.26,6.53-7.44.17-.55.49-1.28,1-1.17a1.12,1.12,0,0,1,.46.27,32.78,32.78,0,0,1,6,6.69"/><path class="cls-2" d="M51.23,957.73a13.45,13.45,0,0,0,6.24-5.87,1.44,1.44,0,0,1,.4-.51,1.08,1.08,0,0,1,.59-.09c1.6.16,2.68,1.69,3.32,3.16s1.13,3.12,2.38,4.13"/><path class="cls-2" d="M53.94,964.26a71.9,71.9,0,0,1,5.21-5.41.72.72,0,0,1,.5-.27c.26,0,.43.26.55.48l3.41,6.07"/><path class="cls-2" d="M52.16,970.93a45.36,45.36,0,0,0,7-6.55.64.64,0,0,1,.31-.23c.23,0,.41.2.52.41A55,55,0,0,0,68.4,976.1"/><path class="cls-2" d="M49,977.16a16.38,16.38,0,0,0,8.28-5.33,1.84,1.84,0,0,1,1-.77c.74-.14,1.28.65,1.64,1.31a37.86,37.86,0,0,0,9.45,11.46"/><path class="cls-2" d="M48.77,984.06a40.84,40.84,0,0,0,8.61-5.55,1.69,1.69,0,0,1,1.28-.56c.51.08.8.61,1,1.06a29.26,29.26,0,0,0,9.77,11"/><path class="cls-2" d="M58.79,934.06c-.55,15.31,1.53,30.68.22,46-.35,4.06-.93,8.1-.95,12.18,0,9.62,3.11,19.23,1.71,28.75"/><path class="cls-2" d="M27.39,1065.09l6.27-6.94a19.12,19.12,0,0,1,4.25-3.84,52.89,52.89,0,0,0,8.83,10"/><path class="cls-2" d="M30.42,1072.5c2.15-2.56,5.52-4.26,6.53-7.44.17-.55.49-1.28,1-1.17a1.12,1.12,0,0,1,.46.27,32.78,32.78,0,0,1,6,6.69"/><path class="cls-2" d="M30.23,1078.73a13.45,13.45,0,0,0,6.24-5.87,1.44,1.44,0,0,1,.4-.51,1.08,1.08,0,0,1,.59-.09c1.6.16,2.68,1.69,3.32,3.16s1.13,3.12,2.38,4.13"/><path class="cls-2" d="M32.94,1085.26a71.9,71.9,0,0,1,5.21-5.41.72.72,0,0,1,.5-.27c.26,0,.43.26.55.48l3.41,6.07"/><path class="cls-2" d="M31.16,1091.93a45.36,45.36,0,0,0,7-6.55.64.64,0,0,1,.31-.23c.23,0,.41.2.52.41a55,55,0,0,0,8.46,11.54"/><path class="cls-2" d="M28,1098.16a16.38,16.38,0,0,0,8.28-5.33,1.84,1.84,0,0,1,1-.77c.74-.14,1.28.65,1.64,1.31a37.86,37.86,0,0,0,9.45,11.46"/><path class="cls-2" d="M27.77,1105.06a40.84,40.84,0,0,0,8.61-5.55,1.69,1.69,0,0,1,1.28-.56c.51.08.8.61,1,1.06a29.26,29.26,0,0,0,9.77,11"/><path class="cls-2" d="M37.79,1055.06c-.55,15.31,1.53,30.68.22,46-.35,4.06-.93,8.1-.95,12.18,0,9.62,3.11,19.23,1.71,28.75"/><path class="cls-2" d="M24.39,845.09l6.27-6.94a19.12,19.12,0,0,1,4.25-3.84,52.89,52.89,0,0,0,8.83,10"/><path class="cls-2" d="M27.42,852.5c2.15-2.56,5.52-4.26,6.53-7.44.17-.55.49-1.28,1-1.17a1.12,1.12,0,0,1,.46.27,32.78,32.78,0,0,1,6,6.69"/><path class="cls-2" d="M27.23,858.73a13.45,13.45,0,0,0,6.24-5.87,1.44,1.44,0,0,1,.4-.51,1.08,1.08,0,0,1,.59-.09c1.6.16,2.68,1.69,3.32,3.16s1.13,3.12,2.38,4.13"/><path class="cls-2" d="M29.94,865.26a71.9,71.9,0,0,1,5.21-5.41.72.72,0,0,1,.5-.27c.26,0,.43.26.55.48l3.41,6.07"/><path class="cls-2" d="M28.16,871.93a45.36,45.36,0,0,0,7-6.55.64.64,0,0,1,.31-.23c.23,0,.41.2.52.41A55,55,0,0,0,44.4,877.1"/><path class="cls-2" d="M25,878.16a16.38,16.38,0,0,0,8.28-5.33,1.84,1.84,0,0,1,1-.77c.74-.14,1.28.65,1.64,1.31a37.86,37.86,0,0,0,9.45,11.46"/><path class="cls-2" d="M24.77,885.06a40.84,40.84,0,0,0,8.61-5.55,1.69,1.69,0,0,1,1.28-.56c.51.08.8.61,1,1.06a29.26,29.26,0,0,0,9.77,11"/><path class="cls-2" d="M34.79,835.06c-.55,15.31,1.53,30.68.22,46-.35,4.06-.93,8.1-.95,12.18,0,9.62,3.11,19.23,1.71,28.75"/><path class="cls-2" d="M155.39,747.09l6.27-6.94a19.12,19.12,0,0,1,4.25-3.84,52.89,52.89,0,0,0,8.83,10"/><path class="cls-2" d="M158.42,754.5c2.15-2.56,5.52-4.26,6.53-7.44.17-.55.49-1.28,1.05-1.17a1.12,1.12,0,0,1,.46.27,32.78,32.78,0,0,1,6,6.69"/><path class="cls-2" d="M158.23,760.73a13.45,13.45,0,0,0,6.24-5.87,1.44,1.44,0,0,1,.4-.51,1.08,1.08,0,0,1,.59-.09c1.6.16,2.68,1.69,3.32,3.16s1.13,3.12,2.38,4.13"/><path class="cls-2" d="M160.94,767.26a71.9,71.9,0,0,1,5.21-5.41.72.72,0,0,1,.5-.27c.26,0,.43.26.55.48l3.41,6.07"/><path class="cls-2" d="M159.16,773.93a45.36,45.36,0,0,0,7-6.55.64.64,0,0,1,.31-.23c.23,0,.41.2.52.41a55,55,0,0,0,8.46,11.54"/><path class="cls-2" d="M156,780.16a16.38,16.38,0,0,0,8.28-5.33,1.84,1.84,0,0,1,1-.77c.74-.14,1.28.65,1.64,1.31a37.86,37.86,0,0,0,9.45,11.46"/><path class="cls-2" d="M155.77,787.06a40.84,40.84,0,0,0,8.61-5.55,1.69,1.69,0,0,1,1.28-.56c.51.08.8.61,1,1.06a29.26,29.26,0,0,0,9.77,11"/><path class="cls-2" d="M165.79,737.06c-.55,15.31,1.53,30.68.22,46-.35,4.06-.93,8.1-.95,12.18,0,9.62,3.11,19.23,1.71,28.75"/><path class="cls-2" d="M220.39,699.09l6.27-6.94a19.12,19.12,0,0,1,4.25-3.84,52.89,52.89,0,0,0,8.83,10"/><path class="cls-2" d="M223.42,706.5c2.15-2.56,5.52-4.26,6.53-7.44.17-.55.49-1.28,1.05-1.17a1.12,1.12,0,0,1,.46.27,32.78,32.78,0,0,1,6,6.69"/><path class="cls-2" d="M223.23,712.73a13.45,13.45,0,0,0,6.24-5.87,1.44,1.44,0,0,1,.4-.51,1.08,1.08,0,0,1,.59-.09c1.6.16,2.68,1.69,3.32,3.16s1.13,3.12,2.38,4.13"/><path class="cls-2" d="M225.94,719.26a71.9,71.9,0,0,1,5.21-5.41.72.72,0,0,1,.5-.27c.26,0,.43.26.55.48l3.41,6.07"/><path class="cls-2" d="M224.16,725.93a45.36,45.36,0,0,0,7-6.55.64.64,0,0,1,.31-.23c.23,0,.41.2.52.41a55,55,0,0,0,8.46,11.54"/><path class="cls-2" d="M221,732.16a16.38,16.38,0,0,0,8.28-5.33,1.84,1.84,0,0,1,1-.77c.74-.14,1.28.65,1.64,1.31a37.86,37.86,0,0,0,9.45,11.46"/><path class="cls-2" d="M220.77,739.06a40.84,40.84,0,0,0,8.61-5.55,1.69,1.69,0,0,1,1.28-.56c.51.08.8.61,1,1.06a29.26,29.26,0,0,0,9.77,11"/><path class="cls-2" d="M230.79,689.06c-.55,15.31,1.53,30.68.22,46-.35,4.06-.93,8.1-.95,12.18,0,9.62,3.11,19.23,1.71,28.75"/><path class="cls-2" d="M90.39,759.09l6.27-6.94a19.12,19.12,0,0,1,4.25-3.84,52.89,52.89,0,0,0,8.83,10"/><path class="cls-2" d="M93.42,766.5c2.15-2.56,5.52-4.26,6.53-7.44.17-.55.49-1.28,1-1.17a1.12,1.12,0,0,1,.46.27,32.78,32.78,0,0,1,6,6.69"/><path class="cls-2" d="M93.23,772.73a13.45,13.45,0,0,0,6.24-5.87,1.44,1.44,0,0,1,.4-.51,1.08,1.08,0,0,1,.59-.09c1.6.16,2.68,1.69,3.32,3.16s1.13,3.12,2.38,4.13"/><path class="cls-2" d="M95.94,779.26a71.9,71.9,0,0,1,5.21-5.41.72.72,0,0,1,.5-.27c.26,0,.43.26.55.48l3.41,6.07"/><path class="cls-2" d="M94.16,785.93a45.36,45.36,0,0,0,7-6.55.64.64,0,0,1,.31-.23c.23,0,.41.2.52.41a55,55,0,0,0,8.46,11.54"/><path class="cls-2" d="M91,792.16a16.38,16.38,0,0,0,8.28-5.33,1.84,1.84,0,0,1,1-.77c.74-.14,1.28.65,1.64,1.31a37.86,37.86,0,0,0,9.45,11.46"/><path class="cls-2" d="M90.77,799.06a40.84,40.84,0,0,0,8.61-5.55,1.69,1.69,0,0,1,1.28-.56c.51.08.8.61,1,1.06a29.26,29.26,0,0,0,9.77,11"/><path class="cls-2" d="M100.79,749.06c-.55,15.31,1.53,30.68.22,46-.35,4.06-.93,8.1-1,12.18,0,9.62,3.11,19.23,1.71,28.75"/><path class="cls-2" d="M33.39,716.09l6.27-6.94a19.12,19.12,0,0,1,4.25-3.84,52.89,52.89,0,0,0,8.83,10"/><path class="cls-2" d="M36.42,723.5c2.15-2.56,5.52-4.26,6.53-7.44.17-.55.49-1.28,1-1.17a1.12,1.12,0,0,1,.46.27,32.78,32.78,0,0,1,6,6.69"/><path class="cls-2" d="M36.23,729.73a13.45,13.45,0,0,0,6.24-5.87,1.44,1.44,0,0,1,.4-.51,1.08,1.08,0,0,1,.59-.09c1.6.16,2.68,1.69,3.32,3.16s1.13,3.12,2.38,4.13"/><path class="cls-2" d="M38.94,736.26a71.9,71.9,0,0,1,5.21-5.41.72.72,0,0,1,.5-.27c.26,0,.43.26.55.48l3.41,6.07"/><path class="cls-2" d="M37.16,742.93a45.36,45.36,0,0,0,7-6.55.64.64,0,0,1,.31-.23c.23,0,.41.2.52.41A55,55,0,0,0,53.4,748.1"/><path class="cls-2" d="M34,749.16a16.38,16.38,0,0,0,8.28-5.33,1.84,1.84,0,0,1,1-.77c.74-.14,1.28.65,1.64,1.31a37.86,37.86,0,0,0,9.45,11.46"/><path class="cls-2" d="M33.77,756.06a40.84,40.84,0,0,0,8.61-5.55,1.69,1.69,0,0,1,1.28-.56c.51.08.8.61,1,1.06a29.26,29.26,0,0,0,9.77,11"/><path class="cls-2" d="M43.79,706.06c-.55,15.31,1.53,30.68.22,46-.35,4.06-.93,8.1-.95,12.18,0,9.62,3.11,19.23,1.71,28.75"/><path class="cls-2" d="M317.39,634.09l6.27-6.94a19.12,19.12,0,0,1,4.25-3.84,52.89,52.89,0,0,0,8.83,10"/><path class="cls-2" d="M320.42,641.5c2.15-2.56,5.52-4.26,6.53-7.44.17-.55.49-1.28,1.05-1.17a1.12,1.12,0,0,1,.46.27,32.78,32.78,0,0,1,6,6.69"/><path class="cls-2" d="M320.23,647.73a13.45,13.45,0,0,0,6.24-5.87,1.44,1.44,0,0,1,.4-.51,1.08,1.08,0,0,1,.59-.09c1.6.16,2.68,1.69,3.32,3.16s1.13,3.12,2.38,4.13"/><path class="cls-2" d="M322.94,654.26a71.9,71.9,0,0,1,5.21-5.41.72.72,0,0,1,.5-.27c.26,0,.43.26.55.48l3.41,6.07"/><path class="cls-2" d="M321.16,660.93a45.36,45.36,0,0,0,6.95-6.55.64.64,0,0,1,.31-.23c.23,0,.41.2.52.41a55,55,0,0,0,8.46,11.54"/><path class="cls-2" d="M318,667.16a16.38,16.38,0,0,0,8.28-5.33,1.84,1.84,0,0,1,1-.77c.74-.14,1.28.65,1.64,1.31a37.86,37.86,0,0,0,9.45,11.46"/><path class="cls-2" d="M317.77,674.06a40.84,40.84,0,0,0,8.61-5.55,1.69,1.69,0,0,1,1.28-.56c.51.08.8.61,1,1.06a29.26,29.26,0,0,0,9.77,11"/><path class="cls-2" d="M327.79,624.06c-.55,15.31,1.53,30.68.22,46-.35,4.06-.93,8.1-.95,12.18,0,9.62,3.11,19.23,1.71,28.75"/><path class="cls-2" d="M238.39,584.09l6.27-6.94a19.12,19.12,0,0,1,4.25-3.84,52.89,52.89,0,0,0,8.83,10"/><path class="cls-2" d="M241.42,591.5c2.15-2.56,5.52-4.26,6.53-7.44.17-.55.49-1.28,1.05-1.17a1.12,1.12,0,0,1,.46.27,32.78,32.78,0,0,1,6,6.69"/><path class="cls-2" d="M241.23,597.73a13.45,13.45,0,0,0,6.24-5.87,1.44,1.44,0,0,1,.4-.51,1.08,1.08,0,0,1,.59-.09c1.6.16,2.68,1.69,3.32,3.16s1.13,3.12,2.38,4.13"/><path class="cls-2" d="M243.94,604.26a71.9,71.9,0,0,1,5.21-5.41.72.72,0,0,1,.5-.27c.26,0,.43.26.55.48l3.41,6.07"/><path class="cls-2" d="M242.16,610.93a45.36,45.36,0,0,0,7-6.55.64.64,0,0,1,.31-.23c.23,0,.41.2.52.41a55,55,0,0,0,8.46,11.54"/><path class="cls-2" d="M239,617.16a16.38,16.38,0,0,0,8.28-5.33,1.84,1.84,0,0,1,1-.77c.74-.14,1.28.65,1.64,1.31a37.86,37.86,0,0,0,9.45,11.46"/><path class="cls-2" d="M238.77,624.06a40.84,40.84,0,0,0,8.61-5.55,1.69,1.69,0,0,1,1.28-.56c.51.08.8.61,1,1.06a29.26,29.26,0,0,0,9.77,11"/><path class="cls-2" d="M248.79,574.06c-.55,15.31,1.53,30.68.22,46-.35,4.06-.93,8.1-.95,12.18,0,9.62,3.11,19.23,1.71,28.75"/><path class="cls-2" d="M167.39,618.09l6.27-6.94a19.12,19.12,0,0,1,4.25-3.84,52.89,52.89,0,0,0,8.83,10"/><path class="cls-2" d="M170.42,625.5c2.15-2.56,5.52-4.26,6.53-7.44.17-.55.49-1.28,1.05-1.17a1.12,1.12,0,0,1,.46.27,32.78,32.78,0,0,1,6,6.69"/><path class="cls-2" d="M170.23,631.73a13.45,13.45,0,0,0,6.24-5.87,1.44,1.44,0,0,1,.4-.51,1.08,1.08,0,0,1,.59-.09c1.6.16,2.68,1.69,3.32,3.16s1.13,3.12,2.38,4.13"/><path class="cls-2" d="M172.94,638.26a71.9,71.9,0,0,1,5.21-5.41.72.72,0,0,1,.5-.27c.26,0,.43.26.55.48l3.41,6.07"/><path class="cls-2" d="M171.16,644.93a45.36,45.36,0,0,0,7-6.55.64.64,0,0,1,.31-.23c.23,0,.41.2.52.41a55,55,0,0,0,8.46,11.54"/><path class="cls-2" d="M168,651.16a16.38,16.38,0,0,0,8.28-5.33,1.84,1.84,0,0,1,1-.77c.74-.14,1.28.65,1.64,1.31a37.86,37.86,0,0,0,9.45,11.46"/><path class="cls-2" d="M167.77,658.06a40.84,40.84,0,0,0,8.61-5.55,1.69,1.69,0,0,1,1.28-.56c.51.08.8.61,1,1.06a29.26,29.26,0,0,0,9.77,11"/><path class="cls-2" d="M177.79,608.06c-.55,15.31,1.53,30.68.22,46-.35,4.06-.93,8.1-.95,12.18,0,9.62,3.11,19.23,1.71,28.75"/><path class="cls-2" d="M91.39,626.09l6.27-6.94a19.12,19.12,0,0,1,4.25-3.84,52.89,52.89,0,0,0,8.83,10"/><path class="cls-2" d="M94.42,633.5c2.15-2.56,5.52-4.26,6.53-7.44.17-.55.49-1.28,1-1.17a1.12,1.12,0,0,1,.46.27,32.78,32.78,0,0,1,6,6.69"/><path class="cls-2" d="M94.23,639.73a13.45,13.45,0,0,0,6.24-5.87,1.44,1.44,0,0,1,.4-.51,1.08,1.08,0,0,1,.59-.09c1.6.16,2.68,1.69,3.32,3.16s1.13,3.12,2.38,4.13"/><path class="cls-2" d="M96.94,646.26a71.9,71.9,0,0,1,5.21-5.41.72.72,0,0,1,.5-.27c.26,0,.43.26.55.48l3.41,6.07"/><path class="cls-2" d="M95.16,652.93a45.36,45.36,0,0,0,7-6.55.64.64,0,0,1,.31-.23c.23,0,.41.2.52.41a55,55,0,0,0,8.46,11.54"/><path class="cls-2" d="M92,659.16a16.38,16.38,0,0,0,8.28-5.33,1.84,1.84,0,0,1,1-.77c.74-.14,1.28.65,1.64,1.31a37.86,37.86,0,0,0,9.45,11.46"/><path class="cls-2" d="M91.77,666.06a40.84,40.84,0,0,0,8.61-5.55,1.69,1.69,0,0,1,1.28-.56c.51.08.8.61,1,1.06a29.26,29.26,0,0,0,9.77,11"/><path class="cls-2" d="M101.79,616.06c-.55,15.31,1.53,30.68.22,46-.35,4.06-.93,8.1-1,12.18,0,9.62,3.11,19.23,1.71,28.75"/><path class="cls-2" d="M28.39,583.09l6.27-6.94a19.12,19.12,0,0,1,4.25-3.84,52.89,52.89,0,0,0,8.83,10"/><path class="cls-2" d="M31.42,590.5c2.15-2.56,5.52-4.26,6.53-7.44.17-.55.49-1.28,1-1.17a1.12,1.12,0,0,1,.46.27,32.78,32.78,0,0,1,6,6.69"/><path class="cls-2" d="M31.23,596.73a13.45,13.45,0,0,0,6.24-5.87,1.44,1.44,0,0,1,.4-.51,1.08,1.08,0,0,1,.59-.09c1.6.16,2.68,1.69,3.32,3.16s1.13,3.12,2.38,4.13"/><path class="cls-2" d="M33.94,603.26a71.9,71.9,0,0,1,5.21-5.41.72.72,0,0,1,.5-.27c.26,0,.43.26.55.48l3.41,6.07"/><path class="cls-2" d="M32.16,609.93a45.36,45.36,0,0,0,7-6.55.64.64,0,0,1,.31-.23c.23,0,.41.2.52.41A55,55,0,0,0,48.4,615.1"/><path class="cls-2" d="M29,616.16a16.38,16.38,0,0,0,8.28-5.33,1.84,1.84,0,0,1,1-.77c.74-.14,1.28.65,1.64,1.31a37.86,37.86,0,0,0,9.45,11.46"/><path class="cls-2" d="M28.77,623.06a40.84,40.84,0,0,0,8.61-5.55,1.69,1.69,0,0,1,1.28-.56c.51.08.8.61,1,1.06a29.26,29.26,0,0,0,9.77,11"/><path class="cls-2" d="M38.79,573.06c-.55,15.31,1.53,30.68.22,46-.35,4.06-.93,8.1-.95,12.18,0,9.62,3.11,19.23,1.71,28.75"/><path class="cls-2" d="M81.39,496.09l6.27-6.94a19.12,19.12,0,0,1,4.25-3.84,52.89,52.89,0,0,0,8.83,10"/><path class="cls-2" d="M84.42,503.5c2.15-2.56,5.52-4.26,6.53-7.44.17-.55.49-1.28,1-1.17a1.12,1.12,0,0,1,.46.27,32.78,32.78,0,0,1,6,6.69"/><path class="cls-2" d="M84.23,509.73a13.45,13.45,0,0,0,6.24-5.87,1.44,1.44,0,0,1,.4-.51,1.08,1.08,0,0,1,.59-.09c1.6.16,2.68,1.69,3.32,3.16s1.13,3.12,2.38,4.13"/><path class="cls-2" d="M86.94,516.26a71.9,71.9,0,0,1,5.21-5.41.72.72,0,0,1,.5-.27c.26,0,.43.26.55.48l3.41,6.07"/><path class="cls-2" d="M85.16,522.93a45.36,45.36,0,0,0,7-6.55.64.64,0,0,1,.31-.23c.23,0,.41.2.52.41a55,55,0,0,0,8.46,11.54"/><path class="cls-2" d="M82,529.16a16.38,16.38,0,0,0,8.28-5.33,1.84,1.84,0,0,1,1-.77c.74-.14,1.28.65,1.64,1.31a37.86,37.86,0,0,0,9.45,11.46"/><path class="cls-2" d="M81.77,536.06a40.84,40.84,0,0,0,8.61-5.55,1.69,1.69,0,0,1,1.28-.56c.51.08.8.61,1,1.06a29.26,29.26,0,0,0,9.77,11"/><path class="cls-2" d="M91.79,486.06c-.55,15.31,1.53,30.68.22,45.95-.35,4.06-.93,8.1-1,12.18,0,9.62,3.11,19.23,1.71,28.75"/><path class="cls-2" d="M29.39,424.09l6.27-6.94a19.12,19.12,0,0,1,4.25-3.84,52.89,52.89,0,0,0,8.83,10"/><path class="cls-2" d="M32.42,431.5c2.15-2.56,5.52-4.26,6.53-7.44.17-.55.49-1.28,1-1.17a1.12,1.12,0,0,1,.46.27,32.78,32.78,0,0,1,6,6.69"/><path class="cls-2" d="M32.23,437.73a13.45,13.45,0,0,0,6.24-5.87,1.44,1.44,0,0,1,.4-.51,1.08,1.08,0,0,1,.59-.09c1.6.16,2.68,1.69,3.32,3.16s1.13,3.12,2.38,4.13"/><path class="cls-2" d="M34.94,444.26a71.9,71.9,0,0,1,5.21-5.41.72.72,0,0,1,.5-.27c.26,0,.43.26.55.48l3.41,6.07"/><path class="cls-2" d="M33.16,450.93a45.36,45.36,0,0,0,7-6.55.64.64,0,0,1,.31-.23c.23,0,.41.2.52.41A55,55,0,0,0,49.4,456.1"/><path class="cls-2" d="M30,457.16a16.38,16.38,0,0,0,8.28-5.33,1.84,1.84,0,0,1,1-.77c.74-.14,1.28.65,1.64,1.31a37.86,37.86,0,0,0,9.45,11.46"/><path class="cls-2" d="M29.77,464.06a40.84,40.84,0,0,0,8.61-5.55,1.69,1.69,0,0,1,1.28-.56c.51.08.8.61,1,1.06A29.26,29.26,0,0,0,50.47,470"/><path class="cls-2" d="M39.79,414.06c-.55,15.31,1.53,30.68.22,45.95-.35,4.06-.93,8.1-.95,12.18,0,9.62,3.11,19.23,1.71,28.75"/><path class="cls-2" d="M125.39,367.09l6.27-6.94a19.12,19.12,0,0,1,4.25-3.84,52.89,52.89,0,0,0,8.83,10"/><path class="cls-2" d="M128.42,374.5c2.15-2.56,5.52-4.26,6.53-7.44.17-.55.49-1.28,1.05-1.17a1.12,1.12,0,0,1,.46.27,32.78,32.78,0,0,1,6,6.69"/><path class="cls-2" d="M128.23,380.73a13.45,13.45,0,0,0,6.24-5.87,1.44,1.44,0,0,1,.4-.51,1.08,1.08,0,0,1,.59-.09c1.6.16,2.68,1.69,3.32,3.16s1.13,3.12,2.38,4.13"/><path class="cls-2" d="M130.94,387.26a71.9,71.9,0,0,1,5.21-5.41.72.72,0,0,1,.5-.27c.26,0,.43.26.55.48l3.41,6.07"/><path class="cls-2" d="M129.16,393.93a45.36,45.36,0,0,0,7-6.55.64.64,0,0,1,.31-.23c.23,0,.41.2.52.41a55,55,0,0,0,8.46,11.54"/><path class="cls-2" d="M126,400.16a16.38,16.38,0,0,0,8.28-5.33,1.84,1.84,0,0,1,1-.77c.74-.14,1.28.65,1.64,1.31a37.86,37.86,0,0,0,9.45,11.46"/><path class="cls-2" d="M125.77,407.06a40.84,40.84,0,0,0,8.61-5.55,1.69,1.69,0,0,1,1.28-.56c.51.08.8.61,1,1.06A29.26,29.26,0,0,0,146.47,413"/><path class="cls-2" d="M135.79,357.06c-.55,15.31,1.53,30.68.22,45.95-.35,4.06-.93,8.1-.95,12.18,0,9.62,3.11,19.23,1.71,28.75"/><path class="cls-2" d="M49.39,296.09l6.27-6.94a19.12,19.12,0,0,1,4.25-3.84,52.89,52.89,0,0,0,8.83,10"/><path class="cls-2" d="M52.42,303.5c2.15-2.56,5.52-4.26,6.53-7.44.17-.55.49-1.28,1-1.17a1.12,1.12,0,0,1,.46.27,32.78,32.78,0,0,1,6,6.69"/><path class="cls-2" d="M52.23,309.73a13.45,13.45,0,0,0,6.24-5.87,1.44,1.44,0,0,1,.4-.51,1.08,1.08,0,0,1,.59-.09c1.6.16,2.68,1.69,3.32,3.16s1.13,3.12,2.38,4.13"/><path class="cls-2" d="M54.94,316.26a71.9,71.9,0,0,1,5.21-5.41.72.72,0,0,1,.5-.27c.26,0,.43.26.55.48l3.41,6.07"/><path class="cls-2" d="M53.16,322.93a45.36,45.36,0,0,0,7-6.55.64.64,0,0,1,.31-.23c.23,0,.41.2.52.41A55,55,0,0,0,69.4,328.1"/><path class="cls-2" d="M50,329.16a16.38,16.38,0,0,0,8.28-5.33,1.84,1.84,0,0,1,1-.77c.74-.14,1.28.65,1.64,1.31a37.86,37.86,0,0,0,9.45,11.46"/><path class="cls-2" d="M49.77,336.06a40.84,40.84,0,0,0,8.61-5.55,1.69,1.69,0,0,1,1.28-.56c.51.08.8.61,1,1.06A29.26,29.26,0,0,0,70.47,342"/><path class="cls-2" d="M59.79,286.06c-.55,15.31,1.53,30.68.22,45.95-.35,4.06-.93,8.1-.95,12.18,0,9.62,3.11,19.23,1.71,28.75"/><path class="cls-2" d="M118.39,214.09l6.27-6.94a19.12,19.12,0,0,1,4.25-3.84,52.89,52.89,0,0,0,8.83,10"/><path class="cls-2" d="M121.42,221.5c2.15-2.56,5.52-4.26,6.53-7.44.17-.55.49-1.28,1-1.17a1.12,1.12,0,0,1,.46.27,32.78,32.78,0,0,1,6,6.69"/><path class="cls-2" d="M121.23,227.73a13.45,13.45,0,0,0,6.24-5.87,1.44,1.44,0,0,1,.4-.51,1.08,1.08,0,0,1,.59-.09c1.6.16,2.68,1.69,3.32,3.16s1.13,3.12,2.38,4.13"/><path class="cls-2" d="M123.94,234.26a71.9,71.9,0,0,1,5.21-5.41.72.72,0,0,1,.5-.27c.26,0,.43.26.55.48l3.41,6.07"/><path class="cls-2" d="M122.16,240.93a45.36,45.36,0,0,0,7-6.55.64.64,0,0,1,.31-.23c.23,0,.41.2.52.41a55,55,0,0,0,8.46,11.54"/><path class="cls-2" d="M119,247.16a16.38,16.38,0,0,0,8.28-5.33,1.84,1.84,0,0,1,1-.77c.74-.14,1.28.65,1.64,1.31a37.86,37.86,0,0,0,9.45,11.46"/><path class="cls-2" d="M118.77,254.06a40.84,40.84,0,0,0,8.61-5.55,1.69,1.69,0,0,1,1.28-.56c.51.08.8.61,1,1.06A29.26,29.26,0,0,0,139.47,260"/><path class="cls-2" d="M128.79,204.06c-.55,15.31,1.53,30.68.22,45.95-.35,4.06-.93,8.1-.95,12.18,0,9.62,3.11,19.23,1.71,28.75"/><path class="cls-2" d="M42.39,157.09l6.27-6.94a19.12,19.12,0,0,1,4.25-3.84,52.89,52.89,0,0,0,8.83,10"/><path class="cls-2" d="M45.42,164.5c2.15-2.56,5.52-4.26,6.53-7.44.17-.55.49-1.28,1-1.17a1.12,1.12,0,0,1,.46.27,32.78,32.78,0,0,1,6,6.69"/><path class="cls-2" d="M45.23,170.73a13.45,13.45,0,0,0,6.24-5.87,1.44,1.44,0,0,1,.4-.51,1.08,1.08,0,0,1,.59-.09c1.6.16,2.68,1.69,3.32,3.16s1.13,3.12,2.38,4.13"/><path class="cls-2" d="M47.94,177.26a71.9,71.9,0,0,1,5.21-5.41.72.72,0,0,1,.5-.27c.26,0,.43.26.55.48l3.41,6.07"/><path class="cls-2" d="M46.16,183.93a45.36,45.36,0,0,0,7-6.55.64.64,0,0,1,.31-.23c.23,0,.41.2.52.41A55,55,0,0,0,62.4,189.1"/><path class="cls-2" d="M43,190.16a16.38,16.38,0,0,0,8.28-5.33,1.84,1.84,0,0,1,1-.77c.74-.14,1.28.65,1.64,1.31a37.86,37.86,0,0,0,9.45,11.46"/><path class="cls-2" d="M42.77,197.06a40.84,40.84,0,0,0,8.61-5.55,1.69,1.69,0,0,1,1.28-.56c.51.08.8.61,1,1.06a29.26,29.26,0,0,0,9.77,11"/><path class="cls-2" d="M52.79,147.06c-.55,15.31,1.53,30.68.22,45.95-.35,4.06-.93,8.1-.95,12.18,0,9.62,3.11,19.23,1.71,28.75"/><path class="cls-2" d="M49.39,27.09l6.27-6.94a19.12,19.12,0,0,1,4.25-3.84,52.89,52.89,0,0,0,8.83,10"/><path class="cls-2" d="M52.42,34.5c2.15-2.56,5.52-4.26,6.53-7.44.17-.55.49-1.28,1-1.17a1.12,1.12,0,0,1,.46.27,32.78,32.78,0,0,1,6,6.69"/><path class="cls-2" d="M52.23,40.73a13.45,13.45,0,0,0,6.24-5.87,1.44,1.44,0,0,1,.4-.51,1.08,1.08,0,0,1,.59-.09c1.6.16,2.68,1.69,3.32,3.16s1.13,3.12,2.38,4.13"/><path class="cls-2" d="M54.94,47.26a71.9,71.9,0,0,1,5.21-5.41.72.72,0,0,1,.5-.27c.26,0,.43.26.55.48l3.41,6.07"/><path class="cls-2" d="M53.16,53.93a45.36,45.36,0,0,0,7-6.55.64.64,0,0,1,.31-.23c.23,0,.41.2.52.41A55,55,0,0,0,69.4,59.1"/><path class="cls-2" d="M50,60.16a16.38,16.38,0,0,0,8.28-5.33,1.84,1.84,0,0,1,1-.77c.74-.14,1.28.65,1.64,1.31a37.86,37.86,0,0,0,9.45,11.46"/><path class="cls-2" d="M49.77,67.06a40.84,40.84,0,0,0,8.61-5.55A1.69,1.69,0,0,1,59.66,61c.51.08.8.61,1,1.06A29.26,29.26,0,0,0,70.47,73"/><path class="cls-2" d="M59.79,17.06c-.55,15.31,1.53,30.68.22,46-.35,4.06-.93,8.1-.95,12.18,0,9.62,3.11,19.23,1.71,28.75"/><path class="cls-2" d="M188.39,163.09l6.27-6.94a19.12,19.12,0,0,1,4.25-3.84,52.89,52.89,0,0,0,8.83,10"/><path class="cls-2" d="M191.42,170.5c2.15-2.56,5.52-4.26,6.53-7.44.17-.55.49-1.28,1.05-1.17a1.12,1.12,0,0,1,.46.27,32.78,32.78,0,0,1,6,6.69"/><path class="cls-2" d="M191.23,176.73a13.45,13.45,0,0,0,6.24-5.87,1.44,1.44,0,0,1,.4-.51,1.08,1.08,0,0,1,.59-.09c1.6.16,2.68,1.69,3.32,3.16s1.13,3.12,2.38,4.13"/><path class="cls-2" d="M193.94,183.26a71.9,71.9,0,0,1,5.21-5.41.72.72,0,0,1,.5-.27c.26,0,.43.26.55.48l3.41,6.07"/><path class="cls-2" d="M192.16,189.93a45.36,45.36,0,0,0,7-6.55.64.64,0,0,1,.31-.23c.23,0,.41.2.52.41a55,55,0,0,0,8.46,11.54"/><path class="cls-2" d="M189,196.16a16.38,16.38,0,0,0,8.28-5.33,1.84,1.84,0,0,1,1-.77c.74-.14,1.28.65,1.64,1.31a37.86,37.86,0,0,0,9.45,11.46"/><path class="cls-2" d="M188.77,203.06a40.84,40.84,0,0,0,8.61-5.55,1.69,1.69,0,0,1,1.28-.56c.51.08.8.61,1,1.06a29.26,29.26,0,0,0,9.77,11"/><path class="cls-2" d="M198.79,153.06c-.55,15.31,1.53,30.68.22,45.95-.35,4.06-.93,8.1-.95,12.18,0,9.62,3.11,19.23,1.71,28.75"/><path class="cls-2" d="M121.39,63.09l6.27-6.94a19.12,19.12,0,0,1,4.25-3.84,52.89,52.89,0,0,0,8.83,10"/><path class="cls-2" d="M124.42,70.5c2.15-2.56,5.52-4.26,6.53-7.44.17-.55.49-1.28,1.05-1.17a1.12,1.12,0,0,1,.46.27,32.78,32.78,0,0,1,6,6.69"/><path class="cls-2" d="M124.23,76.73a13.45,13.45,0,0,0,6.24-5.87,1.44,1.44,0,0,1,.4-.51,1.08,1.08,0,0,1,.59-.09c1.6.16,2.68,1.69,3.32,3.16s1.13,3.12,2.38,4.13"/><path class="cls-2" d="M126.94,83.26a71.9,71.9,0,0,1,5.21-5.41.72.72,0,0,1,.5-.27c.26,0,.43.26.55.48l3.41,6.07"/><path class="cls-2" d="M125.16,89.93a45.36,45.36,0,0,0,7-6.55.64.64,0,0,1,.31-.23c.23,0,.41.2.52.41A55,55,0,0,0,141.4,95.1"/><path class="cls-2" d="M122,96.16a16.38,16.38,0,0,0,8.28-5.33,1.84,1.84,0,0,1,1-.77c.74-.14,1.28.65,1.64,1.31a37.86,37.86,0,0,0,9.45,11.46"/><path class="cls-2" d="M121.77,103.06a40.84,40.84,0,0,0,8.61-5.55,1.69,1.69,0,0,1,1.28-.56c.51.08.8.61,1,1.06A29.26,29.26,0,0,0,142.47,109"/><path class="cls-2" d="M131.79,53.06c-.55,15.31,1.53,30.68.22,46-.35,4.06-.93,8.1-.95,12.18,0,9.62,3.11,19.23,1.71,28.75"/><path class="cls-2" d="M160.39,502.09l6.27-6.94a19.12,19.12,0,0,1,4.25-3.84,52.89,52.89,0,0,0,8.83,10"/><path class="cls-2" d="M163.42,509.5c2.15-2.56,5.52-4.26,6.53-7.44.17-.55.49-1.28,1.05-1.17a1.12,1.12,0,0,1,.46.27,32.78,32.78,0,0,1,6,6.69"/><path class="cls-2" d="M163.23,515.73a13.45,13.45,0,0,0,6.24-5.87,1.44,1.44,0,0,1,.4-.51,1.08,1.08,0,0,1,.59-.09c1.6.16,2.68,1.69,3.32,3.16s1.13,3.12,2.38,4.13"/><path class="cls-2" d="M165.94,522.26a71.9,71.9,0,0,1,5.21-5.41.72.72,0,0,1,.5-.27c.26,0,.43.26.55.48l3.41,6.07"/><path class="cls-2" d="M164.16,528.93a45.36,45.36,0,0,0,7-6.55.64.64,0,0,1,.31-.23c.23,0,.41.2.52.41a55,55,0,0,0,8.46,11.54"/><path class="cls-2" d="M161,535.16a16.38,16.38,0,0,0,8.28-5.33,1.84,1.84,0,0,1,1-.77c.74-.14,1.28.65,1.64,1.31a37.86,37.86,0,0,0,9.45,11.46"/><path class="cls-2" d="M160.77,542.06a40.84,40.84,0,0,0,8.61-5.55,1.69,1.69,0,0,1,1.28-.56c.51.08.8.61,1,1.06a29.26,29.26,0,0,0,9.77,11"/><path class="cls-2" d="M170.79,492.06c-.55,15.31,1.53,30.68.22,45.95-.35,4.06-.93,8.1-.95,12.18,0,9.62,3.11,19.23,1.71,28.75"/><path class="cls-2" d="M388.39,669.09l6.27-6.94a19.12,19.12,0,0,1,4.25-3.84,52.89,52.89,0,0,0,8.83,10"/><path class="cls-2" d="M391.42,676.5c2.15-2.56,5.52-4.26,6.53-7.44.17-.55.49-1.28,1.05-1.17a1.12,1.12,0,0,1,.46.27,32.78,32.78,0,0,1,6,6.69"/><path class="cls-2" d="M391.23,682.73a13.45,13.45,0,0,0,6.24-5.87,1.44,1.44,0,0,1,.4-.51,1.08,1.08,0,0,1,.59-.09c1.6.16,2.68,1.69,3.32,3.16s1.13,3.12,2.38,4.13"/><path class="cls-2" d="M393.94,689.26a71.9,71.9,0,0,1,5.21-5.41.72.72,0,0,1,.5-.27c.26,0,.43.26.55.48l3.41,6.07"/><path class="cls-2" d="M392.16,695.93a45.36,45.36,0,0,0,6.95-6.55.64.64,0,0,1,.31-.23c.23,0,.41.2.52.41a55,55,0,0,0,8.46,11.54"/><path class="cls-2" d="M389,702.16a16.38,16.38,0,0,0,8.28-5.33,1.84,1.84,0,0,1,1-.77c.74-.14,1.28.65,1.64,1.31a37.86,37.86,0,0,0,9.45,11.46"/><path class="cls-2" d="M388.77,709.06a40.84,40.84,0,0,0,8.61-5.55,1.69,1.69,0,0,1,1.28-.56c.51.08.8.61,1,1.06a29.26,29.26,0,0,0,9.77,11"/><path class="cls-2" d="M398.79,659.06c-.55,15.31,1.53,30.68.22,46-.35,4.06-.93,8.1-.95,12.18,0,9.62,3.11,19.23,1.71,28.75"/><path class="cls-2" d="M95.39,986.09l6.27-6.94a19.12,19.12,0,0,1,4.25-3.84,52.89,52.89,0,0,0,8.83,10"/><path class="cls-2" d="M98.42,993.5c2.15-2.56,5.52-4.26,6.53-7.44.17-.55.49-1.28,1-1.17a1.12,1.12,0,0,1,.46.27,32.78,32.78,0,0,1,6,6.69"/><path class="cls-2" d="M98.23,999.73a13.45,13.45,0,0,0,6.24-5.87,1.44,1.44,0,0,1,.4-.51,1.08,1.08,0,0,1,.59-.09c1.6.16,2.68,1.69,3.32,3.16s1.13,3.12,2.38,4.13"/><path class="cls-2" d="M100.94,1006.26a71.9,71.9,0,0,1,5.21-5.41.72.72,0,0,1,.5-.27c.26,0,.43.26.55.48l3.41,6.07"/><path class="cls-2" d="M99.16,1012.93a45.36,45.36,0,0,0,7-6.55.64.64,0,0,1,.31-.23c.23,0,.41.2.52.41a55,55,0,0,0,8.46,11.54"/><path class="cls-2" d="M96,1019.16a16.38,16.38,0,0,0,8.28-5.33,1.84,1.84,0,0,1,1-.77c.74-.14,1.28.65,1.64,1.31a37.86,37.86,0,0,0,9.45,11.46"/><path class="cls-2" d="M95.77,1026.06a40.84,40.84,0,0,0,8.61-5.55,1.69,1.69,0,0,1,1.28-.56c.51.08.8.61,1,1.06a29.26,29.26,0,0,0,9.77,11"/><path class="cls-2" d="M105.79,976.06c-.55,15.31,1.53,30.68.22,46-.35,4.06-.93,8.1-1,12.18,0,9.62,3.11,19.23,1.71,28.75"/><path class="cls-2" d="M196.39,276.09l6.27-6.94a19.12,19.12,0,0,1,4.25-3.84,52.89,52.89,0,0,0,8.83,10"/><path class="cls-2" d="M199.42,283.5c2.15-2.56,5.52-4.26,6.53-7.44.17-.55.49-1.28,1.05-1.17a1.12,1.12,0,0,1,.46.27,32.78,32.78,0,0,1,6,6.69"/><path class="cls-2" d="M199.23,289.73a13.45,13.45,0,0,0,6.24-5.87,1.44,1.44,0,0,1,.4-.51,1.08,1.08,0,0,1,.59-.09c1.6.16,2.68,1.69,3.32,3.16s1.13,3.12,2.38,4.13"/><path class="cls-2" d="M201.94,296.26a71.9,71.9,0,0,1,5.21-5.41.72.72,0,0,1,.5-.27c.26,0,.43.26.55.48l3.41,6.07"/><path class="cls-2" d="M200.16,302.93a45.36,45.36,0,0,0,7-6.55.64.64,0,0,1,.31-.23c.23,0,.41.2.52.41a55,55,0,0,0,8.46,11.54"/><path class="cls-2" d="M197,309.16a16.38,16.38,0,0,0,8.28-5.33,1.84,1.84,0,0,1,1-.77c.74-.14,1.28.65,1.64,1.31a37.86,37.86,0,0,0,9.45,11.46"/><path class="cls-2" d="M196.77,316.06a40.84,40.84,0,0,0,8.61-5.55,1.69,1.69,0,0,1,1.28-.56c.51.08.8.61,1,1.06A29.26,29.26,0,0,0,217.47,322"/><path class="cls-2" d="M206.79,266.06c-.55,15.31,1.53,30.68.22,45.95-.35,4.06-.93,8.1-.95,12.18,0,9.62,3.11,19.23,1.71,28.75"/><path class="cls-2" d="M274.39,208.09l6.27-6.94a19.12,19.12,0,0,1,4.25-3.84,52.89,52.89,0,0,0,8.83,10"/><path class="cls-2" d="M277.42,215.5c2.15-2.56,5.52-4.26,6.53-7.44.17-.55.49-1.28,1.05-1.17a1.12,1.12,0,0,1,.46.27,32.78,32.78,0,0,1,6,6.69"/><path class="cls-2" d="M277.23,221.73a13.45,13.45,0,0,0,6.24-5.87,1.44,1.44,0,0,1,.4-.51,1.08,1.08,0,0,1,.59-.09c1.6.16,2.68,1.69,3.32,3.16s1.13,3.12,2.38,4.13"/><path class="cls-2" d="M279.94,228.26a71.9,71.9,0,0,1,5.21-5.41.72.72,0,0,1,.5-.27c.26,0,.43.26.55.48l3.41,6.07"/><path class="cls-2" d="M278.16,234.93a45.36,45.36,0,0,0,6.95-6.55.64.64,0,0,1,.31-.23c.23,0,.41.2.52.41a55,55,0,0,0,8.46,11.54"/><path class="cls-2" d="M275,241.16a16.38,16.38,0,0,0,8.28-5.33,1.84,1.84,0,0,1,1-.77c.74-.14,1.28.65,1.64,1.31a37.86,37.86,0,0,0,9.45,11.46"/><path class="cls-2" d="M274.77,248.06a40.84,40.84,0,0,0,8.61-5.55,1.69,1.69,0,0,1,1.28-.56c.51.08.8.61,1,1.06a29.26,29.26,0,0,0,9.77,11"/><path class="cls-2" d="M284.79,198.06c-.55,15.31,1.53,30.68.22,45.95-.35,4.06-.93,8.1-.95,12.18,0,9.62,3.11,19.23,1.71,28.75"/><path class="cls-2" d="M338.39,155.09l6.27-6.94a19.12,19.12,0,0,1,4.25-3.84,52.89,52.89,0,0,0,8.83,10"/><path class="cls-2" d="M341.42,162.5c2.15-2.56,5.52-4.26,6.53-7.44.17-.55.49-1.28,1.05-1.17a1.12,1.12,0,0,1,.46.27,32.78,32.78,0,0,1,6,6.69"/><path class="cls-2" d="M341.23,168.73a13.45,13.45,0,0,0,6.24-5.87,1.44,1.44,0,0,1,.4-.51,1.08,1.08,0,0,1,.59-.09c1.6.16,2.68,1.69,3.32,3.16s1.13,3.12,2.38,4.13"/><path class="cls-2" d="M343.94,175.26a71.9,71.9,0,0,1,5.21-5.41.72.72,0,0,1,.5-.27c.26,0,.43.26.55.48l3.41,6.07"/><path class="cls-2" d="M342.16,181.93a45.36,45.36,0,0,0,6.95-6.55.64.64,0,0,1,.31-.23c.23,0,.41.2.52.41a55,55,0,0,0,8.46,11.54"/><path class="cls-2" d="M339,188.16a16.38,16.38,0,0,0,8.28-5.33,1.84,1.84,0,0,1,1-.77c.74-.14,1.28.65,1.64,1.31a37.86,37.86,0,0,0,9.45,11.46"/><path class="cls-2" d="M338.77,195.06a40.84,40.84,0,0,0,8.61-5.55,1.69,1.69,0,0,1,1.28-.56c.51.08.8.61,1,1.06a29.26,29.26,0,0,0,9.77,11"/><path class="cls-2" d="M348.79,145.06c-.55,15.31,1.53,30.68.22,45.95-.35,4.06-.93,8.1-.95,12.18,0,9.62,3.11,19.23,1.71,28.75"/><path class="cls-2" d="M255.39,88.09l6.27-6.94a19.12,19.12,0,0,1,4.25-3.84,52.89,52.89,0,0,0,8.83,10"/><path class="cls-2" d="M258.42,95.5c2.15-2.56,5.52-4.26,6.53-7.44.17-.55.49-1.28,1.05-1.17a1.12,1.12,0,0,1,.46.27,32.78,32.78,0,0,1,6,6.69"/><path class="cls-2" d="M258.23,101.73a13.45,13.45,0,0,0,6.24-5.87,1.44,1.44,0,0,1,.4-.51,1.08,1.08,0,0,1,.59-.09c1.6.16,2.68,1.69,3.32,3.16s1.13,3.12,2.38,4.13"/><path class="cls-2" d="M260.94,108.26a71.9,71.9,0,0,1,5.21-5.41.72.72,0,0,1,.5-.27c.26,0,.43.26.55.48l3.41,6.07"/><path class="cls-2" d="M259.16,114.93a45.36,45.36,0,0,0,6.95-6.55.64.64,0,0,1,.31-.23c.23,0,.41.2.52.41a55,55,0,0,0,8.46,11.54"/><path class="cls-2" d="M256,121.16a16.38,16.38,0,0,0,8.28-5.33,1.84,1.84,0,0,1,1-.77c.74-.14,1.28.65,1.64,1.31a37.86,37.86,0,0,0,9.45,11.46"/><path class="cls-2" d="M255.77,128.06a40.84,40.84,0,0,0,8.61-5.55,1.69,1.69,0,0,1,1.28-.56c.51.08.8.61,1,1.06a29.26,29.26,0,0,0,9.77,11"/><path class="cls-2" d="M265.79,78.06c-.55,15.31,1.53,30.68.22,46-.35,4.06-.93,8.1-.95,12.18,0,9.62,3.11,19.23,1.71,28.75"/><path class="cls-2" d="M185.39,21.09l6.27-6.94a19.12,19.12,0,0,1,4.25-3.84,52.89,52.89,0,0,0,8.83,10"/><path class="cls-2" d="M188.42,28.5c2.15-2.56,5.52-4.26,6.53-7.44.17-.55.49-1.28,1.05-1.17a1.12,1.12,0,0,1,.46.27,32.78,32.78,0,0,1,6,6.69"/><path class="cls-2" d="M188.23,34.73a13.45,13.45,0,0,0,6.24-5.87,1.44,1.44,0,0,1,.4-.51,1.08,1.08,0,0,1,.59-.09c1.6.16,2.68,1.69,3.32,3.16s1.13,3.12,2.38,4.13"/><path class="cls-2" d="M190.94,41.26a71.9,71.9,0,0,1,5.21-5.41.72.72,0,0,1,.5-.27c.26,0,.43.26.55.48l3.41,6.07"/><path class="cls-2" d="M189.16,47.93a45.36,45.36,0,0,0,7-6.55.64.64,0,0,1,.31-.23c.23,0,.41.2.52.41A55,55,0,0,0,205.4,53.1"/><path class="cls-2" d="M186,54.16a16.38,16.38,0,0,0,8.28-5.33,1.84,1.84,0,0,1,1-.77c.74-.14,1.28.65,1.64,1.31a37.86,37.86,0,0,0,9.45,11.46"/><path class="cls-2" d="M185.77,61.06a40.84,40.84,0,0,0,8.61-5.55,1.69,1.69,0,0,1,1.28-.56c.51.08.8.61,1,1.06A29.26,29.26,0,0,0,206.47,67"/><path class="cls-2" d="M195.79,11.06c-.55,15.31,1.53,30.68.22,45.95-.35,4.06-.93,8.1-.95,12.18,0,9.62,3.11,19.23,1.71,28.75"/><path class="cls-2" d="M1543.39,18.09l6.27-6.94a19.12,19.12,0,0,1,4.25-3.84,52.89,52.89,0,0,0,8.83,10"/><path class="cls-2" d="M1546.42,25.5c2.15-2.56,5.52-4.26,6.53-7.44.17-.55.49-1.28,1-1.17a1.12,1.12,0,0,1,.46.27,32.78,32.78,0,0,1,6,6.69"/><path class="cls-2" d="M1546.23,31.73a13.45,13.45,0,0,0,6.24-5.87,1.44,1.44,0,0,1,.4-.51,1.08,1.08,0,0,1,.59-.09c1.6.16,2.68,1.69,3.32,3.16s1.13,3.12,2.38,4.13"/><path class="cls-2" d="M1548.94,38.26a71.9,71.9,0,0,1,5.21-5.41.72.72,0,0,1,.5-.27c.26,0,.43.26.55.48l3.41,6.07"/><path class="cls-2" d="M1547.16,44.93a45.36,45.36,0,0,0,6.95-6.55.64.64,0,0,1,.31-.23c.23,0,.41.2.52.41a55,55,0,0,0,8.46,11.54"/><path class="cls-2" d="M1544,51.16a16.38,16.38,0,0,0,8.28-5.33,1.84,1.84,0,0,1,1-.77c.74-.14,1.28.65,1.64,1.31a37.86,37.86,0,0,0,9.45,11.46"/><path class="cls-2" d="M1543.77,58.06a40.84,40.84,0,0,0,8.61-5.55,1.69,1.69,0,0,1,1.28-.56c.51.08.8.61,1,1.06a29.26,29.26,0,0,0,9.77,11"/><path class="cls-2" d="M1553.79,8.06c-.55,15.31,1.53,30.68.22,45.95-.35,4.06-.93,8.1-1,12.18,0,9.62,3.11,19.23,1.71,28.75"/><path class="cls-2" d="M1614.39,49.09l6.27-6.94a19.12,19.12,0,0,1,4.25-3.84,52.89,52.89,0,0,0,8.83,10"/><path class="cls-2" d="M1617.42,56.5c2.15-2.56,5.52-4.26,6.53-7.44.17-.55.49-1.28,1-1.17a1.12,1.12,0,0,1,.46.27,32.78,32.78,0,0,1,6,6.69"/><path class="cls-2" d="M1617.23,62.73a13.45,13.45,0,0,0,6.24-5.87,1.44,1.44,0,0,1,.4-.51,1.08,1.08,0,0,1,.59-.09c1.6.16,2.68,1.69,3.32,3.16s1.13,3.12,2.38,4.13"/><path class="cls-2" d="M1619.94,69.26a71.9,71.9,0,0,1,5.21-5.41.72.72,0,0,1,.5-.27c.26,0,.43.26.55.48l3.41,6.07"/><path class="cls-2" d="M1618.16,75.93a45.36,45.36,0,0,0,6.95-6.55.64.64,0,0,1,.31-.23c.23,0,.41.2.52.41a55,55,0,0,0,8.46,11.54"/><path class="cls-2" d="M1615,82.16a16.38,16.38,0,0,0,8.28-5.33,1.84,1.84,0,0,1,1-.77c.74-.14,1.28.65,1.64,1.31a37.86,37.86,0,0,0,9.45,11.46"/><path class="cls-2" d="M1614.77,89.06a40.84,40.84,0,0,0,8.61-5.55,1.69,1.69,0,0,1,1.28-.56c.51.08.8.61,1,1.06A29.26,29.26,0,0,0,1635.47,95"/><path class="cls-2" d="M1624.79,39.06c-.55,15.31,1.53,30.68.22,46-.35,4.06-.93,8.1-1,12.18,0,9.62,3.11,19.23,1.71,28.75"/><path class="cls-2" d="M1694.39,134.09l6.27-6.94a19.12,19.12,0,0,1,4.25-3.84,52.89,52.89,0,0,0,8.83,10"/><path class="cls-2" d="M1697.42,141.5c2.15-2.56,5.52-4.26,6.53-7.44.17-.55.49-1.28,1-1.17a1.12,1.12,0,0,1,.46.27,32.78,32.78,0,0,1,6,6.69"/><path class="cls-2" d="M1697.23,147.73a13.45,13.45,0,0,0,6.24-5.87,1.44,1.44,0,0,1,.4-.51,1.08,1.08,0,0,1,.59-.09c1.6.16,2.68,1.69,3.32,3.16s1.13,3.12,2.38,4.13"/><path class="cls-2" d="M1699.94,154.26a71.9,71.9,0,0,1,5.21-5.41.72.72,0,0,1,.5-.27c.26,0,.43.26.55.48l3.41,6.07"/><path class="cls-2" d="M1698.16,160.93a45.36,45.36,0,0,0,6.95-6.55.64.64,0,0,1,.31-.23c.23,0,.41.2.52.41a55,55,0,0,0,8.46,11.54"/><path class="cls-2" d="M1695,167.16a16.38,16.38,0,0,0,8.28-5.33,1.84,1.84,0,0,1,1-.77c.74-.14,1.28.65,1.64,1.31a37.86,37.86,0,0,0,9.45,11.46"/><path class="cls-2" d="M1694.77,174.06a40.84,40.84,0,0,0,8.61-5.55,1.69,1.69,0,0,1,1.28-.56c.51.08.8.61,1,1.06a29.26,29.26,0,0,0,9.77,11"/><path class="cls-2" d="M1704.79,124.06c-.55,15.31,1.53,30.68.22,45.95-.35,4.06-.93,8.1-1,12.18,0,9.62,3.11,19.23,1.71,28.75"/><path class="cls-2" d="M1675.39,18.09l6.27-6.94a19.12,19.12,0,0,1,4.25-3.84,52.89,52.89,0,0,0,8.83,10"/><path class="cls-2" d="M1678.42,25.5c2.15-2.56,5.52-4.26,6.53-7.44.17-.55.49-1.28,1-1.17a1.12,1.12,0,0,1,.46.27,32.78,32.78,0,0,1,6,6.69"/><path class="cls-2" d="M1678.23,31.73a13.45,13.45,0,0,0,6.24-5.87,1.44,1.44,0,0,1,.4-.51,1.08,1.08,0,0,1,.59-.09c1.6.16,2.68,1.69,3.32,3.16s1.13,3.12,2.38,4.13"/><path class="cls-2" d="M1680.94,38.26a71.9,71.9,0,0,1,5.21-5.41.72.72,0,0,1,.5-.27c.26,0,.43.26.55.48l3.41,6.07"/><path class="cls-2" d="M1679.16,44.93a45.36,45.36,0,0,0,6.95-6.55.64.64,0,0,1,.31-.23c.23,0,.41.2.52.41a55,55,0,0,0,8.46,11.54"/><path class="cls-2" d="M1676,51.16a16.38,16.38,0,0,0,8.28-5.33,1.84,1.84,0,0,1,1-.77c.74-.14,1.28.65,1.64,1.31a37.86,37.86,0,0,0,9.45,11.46"/><path class="cls-2" d="M1675.77,58.06a40.84,40.84,0,0,0,8.61-5.55,1.69,1.69,0,0,1,1.28-.56c.51.08.8.61,1,1.06a29.26,29.26,0,0,0,9.77,11"/><path class="cls-2" d="M1685.79,8.06c-.55,15.31,1.53,30.68.22,45.95-.35,4.06-.93,8.1-1,12.18,0,9.62,3.11,19.23,1.71,28.75"/><path class="cls-2" d="M1649.39,309.09l6.27-6.94a19.12,19.12,0,0,1,4.25-3.84,52.89,52.89,0,0,0,8.83,10"/><path class="cls-2" d="M1652.42,316.5c2.15-2.56,5.52-4.26,6.53-7.44.17-.55.49-1.28,1-1.17a1.12,1.12,0,0,1,.46.27,32.78,32.78,0,0,1,6,6.69"/><path class="cls-2" d="M1652.23,322.73a13.45,13.45,0,0,0,6.24-5.87,1.44,1.44,0,0,1,.4-.51,1.08,1.08,0,0,1,.59-.09c1.6.16,2.68,1.69,3.32,3.16s1.13,3.12,2.38,4.13"/><path class="cls-2" d="M1654.94,329.26a71.9,71.9,0,0,1,5.21-5.41.72.72,0,0,1,.5-.27c.26,0,.43.26.55.48l3.41,6.07"/><path class="cls-2" d="M1653.16,335.93a45.36,45.36,0,0,0,6.95-6.55.64.64,0,0,1,.31-.23c.23,0,.41.2.52.41a55,55,0,0,0,8.46,11.54"/><path class="cls-2" d="M1650,342.16a16.38,16.38,0,0,0,8.28-5.33,1.84,1.84,0,0,1,1-.77c.74-.14,1.28.65,1.64,1.31a37.86,37.86,0,0,0,9.45,11.46"/><path class="cls-2" d="M1649.77,349.06a40.84,40.84,0,0,0,8.61-5.55,1.69,1.69,0,0,1,1.28-.56c.51.08.8.61,1,1.06a29.26,29.26,0,0,0,9.77,10.95"/><path class="cls-2" d="M1659.79,299.06c-.55,15.31,1.53,30.68.22,45.95-.35,4.06-.93,8.1-1,12.18,0,9.62,3.11,19.23,1.71,28.75"/><path class="cls-2" d="M1701.39,244.09l6.27-6.94a19.12,19.12,0,0,1,4.25-3.84,52.89,52.89,0,0,0,8.83,10"/><path class="cls-2" d="M1704.42,251.5c2.15-2.56,5.52-4.26,6.53-7.44.17-.55.49-1.28,1-1.17a1.12,1.12,0,0,1,.46.27,32.78,32.78,0,0,1,6,6.69"/><path class="cls-2" d="M1704.23,257.73a13.45,13.45,0,0,0,6.24-5.87,1.44,1.44,0,0,1,.4-.51,1.08,1.08,0,0,1,.59-.09c1.6.16,2.68,1.69,3.32,3.16s1.13,3.12,2.38,4.13"/><path class="cls-2" d="M1706.94,264.26a71.9,71.9,0,0,1,5.21-5.41.72.72,0,0,1,.5-.27c.26,0,.43.26.55.48l3.41,6.07"/><path class="cls-2" d="M1705.16,270.93a45.36,45.36,0,0,0,6.95-6.55.64.64,0,0,1,.31-.23c.23,0,.41.2.52.41a55,55,0,0,0,8.46,11.54"/><path class="cls-2" d="M1702,277.16a16.38,16.38,0,0,0,8.28-5.33,1.84,1.84,0,0,1,1-.77c.74-.14,1.28.65,1.64,1.31a37.86,37.86,0,0,0,9.45,11.46"/><path class="cls-2" d="M1701.77,284.06a40.84,40.84,0,0,0,8.61-5.55,1.69,1.69,0,0,1,1.28-.56c.51.08.8.61,1,1.06a29.26,29.26,0,0,0,9.77,10.95"/><path class="cls-2" d="M1711.79,234.06c-.55,15.31,1.53,30.68.22,45.95-.35,4.06-.93,8.1-1,12.18,0,9.62,3.11,19.23,1.71,28.75"/><path class="cls-2" d="M1764.39,174.09l6.27-6.94a19.12,19.12,0,0,1,4.25-3.84,52.89,52.89,0,0,0,8.83,10"/><path class="cls-2" d="M1767.42,181.5c2.15-2.56,5.52-4.26,6.53-7.44.17-.55.49-1.28,1-1.17a1.12,1.12,0,0,1,.46.27,32.78,32.78,0,0,1,6,6.69"/><path class="cls-2" d="M1767.23,187.73a13.45,13.45,0,0,0,6.24-5.87,1.44,1.44,0,0,1,.4-.51,1.08,1.08,0,0,1,.59-.09c1.6.16,2.68,1.69,3.32,3.16s1.13,3.12,2.38,4.13"/><path class="cls-2" d="M1769.94,194.26a71.9,71.9,0,0,1,5.21-5.41.72.72,0,0,1,.5-.27c.26,0,.43.26.55.48l3.41,6.07"/><path class="cls-2" d="M1768.16,200.93a45.36,45.36,0,0,0,6.95-6.55.64.64,0,0,1,.31-.23c.23,0,.41.2.52.41a55,55,0,0,0,8.46,11.54"/><path class="cls-2" d="M1765,207.16a16.38,16.38,0,0,0,8.28-5.33,1.84,1.84,0,0,1,1-.77c.74-.14,1.28.65,1.64,1.31a37.86,37.86,0,0,0,9.45,11.46"/><path class="cls-2" d="M1764.77,214.06a40.84,40.84,0,0,0,8.61-5.55,1.69,1.69,0,0,1,1.28-.56c.51.08.8.61,1,1.06a29.26,29.26,0,0,0,9.77,11"/><path class="cls-2" d="M1774.79,164.06c-.55,15.31,1.53,30.68.22,45.95-.35,4.06-.93,8.1-1,12.18,0,9.62,3.11,19.23,1.71,28.75"/><path class="cls-2" d="M1825.39,259.09l6.27-6.94a19.12,19.12,0,0,1,4.25-3.84,52.89,52.89,0,0,0,8.83,10"/><path class="cls-2" d="M1828.42,266.5c2.15-2.56,5.52-4.26,6.53-7.44.17-.55.49-1.28,1-1.17a1.12,1.12,0,0,1,.46.27,32.78,32.78,0,0,1,6,6.69"/><path class="cls-2" d="M1828.23,272.73a13.45,13.45,0,0,0,6.24-5.87,1.44,1.44,0,0,1,.4-.51,1.08,1.08,0,0,1,.59-.09c1.6.16,2.68,1.69,3.32,3.16s1.13,3.12,2.38,4.13"/><path class="cls-2" d="M1830.94,279.26a71.9,71.9,0,0,1,5.21-5.41.72.72,0,0,1,.5-.27c.26,0,.43.26.55.48l3.41,6.07"/><path class="cls-2" d="M1829.16,285.93a45.36,45.36,0,0,0,6.95-6.55.64.64,0,0,1,.31-.23c.23,0,.41.2.52.41a55,55,0,0,0,8.46,11.54"/><path class="cls-2" d="M1826,292.16a16.38,16.38,0,0,0,8.28-5.33,1.84,1.84,0,0,1,1-.77c.74-.14,1.28.65,1.64,1.31a37.86,37.86,0,0,0,9.45,11.46"/><path class="cls-2" d="M1825.77,299.06a40.84,40.84,0,0,0,8.61-5.55,1.69,1.69,0,0,1,1.28-.56c.51.08.8.61,1,1.06a29.26,29.26,0,0,0,9.77,10.95"/><path class="cls-2" d="M1835.79,249.06c-.55,15.31,1.53,30.68.22,45.95-.35,4.06-.93,8.1-1,12.18,0,9.62,3.11,19.23,1.71,28.75"/><path class="cls-2" d="M1874.39,321.09l6.27-6.94a19.12,19.12,0,0,1,4.25-3.84,52.89,52.89,0,0,0,8.83,10"/><path class="cls-2" d="M1877.42,328.5c2.15-2.56,5.52-4.26,6.53-7.44.17-.55.49-1.28,1-1.17a1.12,1.12,0,0,1,.46.27,32.78,32.78,0,0,1,6,6.69"/><path class="cls-2" d="M1877.23,334.73a13.45,13.45,0,0,0,6.24-5.87,1.44,1.44,0,0,1,.4-.51,1.08,1.08,0,0,1,.59-.09c1.6.16,2.68,1.69,3.32,3.16s1.13,3.12,2.38,4.13"/><path class="cls-2" d="M1879.94,341.26a71.9,71.9,0,0,1,5.21-5.41.72.72,0,0,1,.5-.27c.26,0,.43.26.55.48l3.41,6.07"/><path class="cls-2" d="M1878.16,347.93a45.36,45.36,0,0,0,6.95-6.55.64.64,0,0,1,.31-.23c.23,0,.41.2.52.41a55,55,0,0,0,8.46,11.54"/><path class="cls-2" d="M1875,354.16a16.38,16.38,0,0,0,8.28-5.33,1.84,1.84,0,0,1,1-.77c.74-.14,1.28.65,1.64,1.31a37.86,37.86,0,0,0,9.45,11.46"/><path class="cls-2" d="M1874.77,361.06a40.84,40.84,0,0,0,8.61-5.55,1.69,1.69,0,0,1,1.28-.56c.51.08.8.61,1,1.06a29.26,29.26,0,0,0,9.77,10.95"/><path class="cls-2" d="M1884.79,311.06c-.55,15.31,1.53,30.68.22,45.95-.35,4.06-.93,8.1-1,12.18,0,9.62,3.11,19.23,1.71,28.75"/><path class="cls-2" d="M1818.39,395.09l6.27-6.94a19.12,19.12,0,0,1,4.25-3.84,52.89,52.89,0,0,0,8.83,10"/><path class="cls-2" d="M1821.42,402.5c2.15-2.56,5.52-4.26,6.53-7.44.17-.55.49-1.28,1-1.17a1.12,1.12,0,0,1,.46.27,32.78,32.78,0,0,1,6,6.69"/><path class="cls-2" d="M1821.23,408.73a13.45,13.45,0,0,0,6.24-5.87,1.44,1.44,0,0,1,.4-.51,1.08,1.08,0,0,1,.59-.09c1.6.16,2.68,1.69,3.32,3.16s1.13,3.12,2.38,4.13"/><path class="cls-2" d="M1823.94,415.26a71.9,71.9,0,0,1,5.21-5.41.72.72,0,0,1,.5-.27c.26,0,.43.26.55.48l3.41,6.07"/><path class="cls-2" d="M1822.16,421.93a45.36,45.36,0,0,0,6.95-6.55.64.64,0,0,1,.31-.23c.23,0,.41.2.52.41a55,55,0,0,0,8.46,11.54"/><path class="cls-2" d="M1819,428.16a16.38,16.38,0,0,0,8.28-5.33,1.84,1.84,0,0,1,1-.77c.74-.14,1.28.65,1.64,1.31a37.86,37.86,0,0,0,9.45,11.46"/><path class="cls-2" d="M1818.77,435.06a40.84,40.84,0,0,0,8.61-5.55,1.69,1.69,0,0,1,1.28-.56c.51.08.8.61,1,1.06a29.26,29.26,0,0,0,9.77,10.95"/><path class="cls-2" d="M1828.79,385.06c-.55,15.31,1.53,30.68.22,45.95-.35,4.06-.93,8.1-1,12.18,0,9.62,3.11,19.23,1.71,28.75"/><path class="cls-2" d="M1771.39,315.09l6.27-6.94a19.12,19.12,0,0,1,4.25-3.84,52.89,52.89,0,0,0,8.83,10"/><path class="cls-2" d="M1774.42,322.5c2.15-2.56,5.52-4.26,6.53-7.44.17-.55.49-1.28,1-1.17a1.12,1.12,0,0,1,.46.27,32.78,32.78,0,0,1,6,6.69"/><path class="cls-2" d="M1774.23,328.73a13.45,13.45,0,0,0,6.24-5.87,1.44,1.44,0,0,1,.4-.51,1.08,1.08,0,0,1,.59-.09c1.6.16,2.68,1.69,3.32,3.16s1.13,3.12,2.38,4.13"/><path class="cls-2" d="M1776.94,335.26a71.9,71.9,0,0,1,5.21-5.41.72.72,0,0,1,.5-.27c.26,0,.43.26.55.48l3.41,6.07"/><path class="cls-2" d="M1775.16,341.93a45.36,45.36,0,0,0,6.95-6.55.64.64,0,0,1,.31-.23c.23,0,.41.2.52.41a55,55,0,0,0,8.46,11.54"/><path class="cls-2" d="M1772,348.16a16.38,16.38,0,0,0,8.28-5.33,1.84,1.84,0,0,1,1-.77c.74-.14,1.28.65,1.64,1.31a37.86,37.86,0,0,0,9.45,11.46"/><path class="cls-2" d="M1771.77,355.06a40.84,40.84,0,0,0,8.61-5.55,1.69,1.69,0,0,1,1.28-.56c.51.08.8.61,1,1.06a29.26,29.26,0,0,0,9.77,10.95"/><path class="cls-2" d="M1781.79,305.06c-.55,15.31,1.53,30.68.22,45.95-.35,4.06-.93,8.1-1,12.18,0,9.62,3.11,19.23,1.71,28.75"/><path class="cls-2" d="M1724.39,340.09l6.27-6.94a19.12,19.12,0,0,1,4.25-3.84,52.89,52.89,0,0,0,8.83,10"/><path class="cls-2" d="M1727.42,347.5c2.15-2.56,5.52-4.26,6.53-7.44.17-.55.49-1.28,1-1.17a1.12,1.12,0,0,1,.46.27,32.78,32.78,0,0,1,6,6.69"/><path class="cls-2" d="M1727.23,353.73a13.45,13.45,0,0,0,6.24-5.87,1.44,1.44,0,0,1,.4-.51,1.08,1.08,0,0,1,.59-.09c1.6.16,2.68,1.69,3.32,3.16s1.13,3.12,2.38,4.13"/><path class="cls-2" d="M1729.94,360.26a71.9,71.9,0,0,1,5.21-5.41.72.72,0,0,1,.5-.27c.26,0,.43.26.55.48l3.41,6.07"/><path class="cls-2" d="M1728.16,366.93a45.36,45.36,0,0,0,6.95-6.55.64.64,0,0,1,.31-.23c.23,0,.41.2.52.41a55,55,0,0,0,8.46,11.54"/><path class="cls-2" d="M1725,373.16a16.38,16.38,0,0,0,8.28-5.33,1.84,1.84,0,0,1,1-.77c.74-.14,1.28.65,1.64,1.31a37.86,37.86,0,0,0,9.45,11.46"/><path class="cls-2" d="M1724.77,380.06a40.84,40.84,0,0,0,8.61-5.55,1.69,1.69,0,0,1,1.28-.56c.51.08.8.61,1,1.06a29.26,29.26,0,0,0,9.77,10.95"/><path class="cls-2" d="M1734.79,330.06c-.55,15.31,1.53,30.68.22,45.95-.35,4.06-.93,8.1-1,12.18,0,9.62,3.11,19.23,1.71,28.75"/><path class="cls-2" d="M1737.39,49.09l6.27-6.94a19.12,19.12,0,0,1,4.25-3.84,52.89,52.89,0,0,0,8.83,10"/><path class="cls-2" d="M1740.42,56.5c2.15-2.56,5.52-4.26,6.53-7.44.17-.55.49-1.28,1-1.17a1.12,1.12,0,0,1,.46.27,32.78,32.78,0,0,1,6,6.69"/><path class="cls-2" d="M1740.23,62.73a13.45,13.45,0,0,0,6.24-5.87,1.44,1.44,0,0,1,.4-.51,1.08,1.08,0,0,1,.59-.09c1.6.16,2.68,1.69,3.32,3.16s1.13,3.12,2.38,4.13"/><path class="cls-2" d="M1742.94,69.26a71.9,71.9,0,0,1,5.21-5.41.72.72,0,0,1,.5-.27c.26,0,.43.26.55.48l3.41,6.07"/><path class="cls-2" d="M1741.16,75.93a45.36,45.36,0,0,0,6.95-6.55.64.64,0,0,1,.31-.23c.23,0,.41.2.52.41a55,55,0,0,0,8.46,11.54"/><path class="cls-2" d="M1738,82.16a16.38,16.38,0,0,0,8.28-5.33,1.84,1.84,0,0,1,1-.77c.74-.14,1.28.65,1.64,1.31a37.86,37.86,0,0,0,9.45,11.46"/><path class="cls-2" d="M1737.77,89.06a40.84,40.84,0,0,0,8.61-5.55,1.69,1.69,0,0,1,1.28-.56c.51.08.8.61,1,1.06A29.26,29.26,0,0,0,1758.47,95"/><path class="cls-2" d="M1747.79,39.06c-.55,15.31,1.53,30.68.22,46-.35,4.06-.93,8.1-1,12.18,0,9.62,3.11,19.23,1.71,28.75"/><path class="cls-2" d="M1797.39,24.09l6.27-6.94a19.12,19.12,0,0,1,4.25-3.84,52.89,52.89,0,0,0,8.83,10"/><path class="cls-2" d="M1800.42,31.5c2.15-2.56,5.52-4.26,6.53-7.44.17-.55.49-1.28,1-1.17a1.12,1.12,0,0,1,.46.27,32.78,32.78,0,0,1,6,6.69"/><path class="cls-2" d="M1800.23,37.73a13.45,13.45,0,0,0,6.24-5.87,1.44,1.44,0,0,1,.4-.51,1.08,1.08,0,0,1,.59-.09c1.6.16,2.68,1.69,3.32,3.16s1.13,3.12,2.38,4.13"/><path class="cls-2" d="M1802.94,44.26a71.9,71.9,0,0,1,5.21-5.41.72.72,0,0,1,.5-.27c.26,0,.43.26.55.48l3.41,6.07"/><path class="cls-2" d="M1801.16,50.93a45.36,45.36,0,0,0,6.95-6.55.64.64,0,0,1,.31-.23c.23,0,.41.2.52.41a55,55,0,0,0,8.46,11.54"/><path class="cls-2" d="M1798,57.16a16.38,16.38,0,0,0,8.28-5.33,1.84,1.84,0,0,1,1-.77c.74-.14,1.28.65,1.64,1.31a37.86,37.86,0,0,0,9.45,11.46"/><path class="cls-2" d="M1797.77,64.06a40.84,40.84,0,0,0,8.61-5.55,1.69,1.69,0,0,1,1.28-.56c.51.08.8.61,1,1.06A29.26,29.26,0,0,0,1818.47,70"/><path class="cls-2" d="M1807.79,14.06c-.55,15.31,1.53,30.68.22,45.95-.35,4.06-.93,8.1-1,12.18,0,9.62,3.11,19.23,1.71,28.75"/><path class="cls-2" d="M1823.39,128.09l6.27-6.94a19.12,19.12,0,0,1,4.25-3.84,52.89,52.89,0,0,0,8.83,10"/><path class="cls-2" d="M1826.42,135.5c2.15-2.56,5.52-4.26,6.53-7.44.17-.55.49-1.28,1-1.17a1.12,1.12,0,0,1,.46.27,32.78,32.78,0,0,1,6,6.69"/><path class="cls-2" d="M1826.23,141.73a13.45,13.45,0,0,0,6.24-5.87,1.44,1.44,0,0,1,.4-.51,1.08,1.08,0,0,1,.59-.09c1.6.16,2.68,1.69,3.32,3.16s1.13,3.12,2.38,4.13"/><path class="cls-2" d="M1828.94,148.26a71.9,71.9,0,0,1,5.21-5.41.72.72,0,0,1,.5-.27c.26,0,.43.26.55.48l3.41,6.07"/><path class="cls-2" d="M1827.16,154.93a45.36,45.36,0,0,0,6.95-6.55.64.64,0,0,1,.31-.23c.23,0,.41.2.52.41a55,55,0,0,0,8.46,11.54"/><path class="cls-2" d="M1824,161.16a16.38,16.38,0,0,0,8.28-5.33,1.84,1.84,0,0,1,1-.77c.74-.14,1.28.65,1.64,1.31a37.86,37.86,0,0,0,9.45,11.46"/><path class="cls-2" d="M1823.77,168.06a40.84,40.84,0,0,0,8.61-5.55,1.69,1.69,0,0,1,1.28-.56c.51.08.8.61,1,1.06a29.26,29.26,0,0,0,9.77,11"/><path class="cls-2" d="M1833.79,118.06c-.55,15.31,1.53,30.68.22,45.95-.35,4.06-.93,8.1-1,12.18,0,9.62,3.11,19.23,1.71,28.75"/><path class="cls-2" d="M1876.39,37.09l6.27-6.94a19.12,19.12,0,0,1,4.25-3.84,52.89,52.89,0,0,0,8.83,10"/><path class="cls-2" d="M1879.42,44.5c2.15-2.56,5.52-4.26,6.53-7.44.17-.55.49-1.28,1-1.17a1.12,1.12,0,0,1,.46.27,32.78,32.78,0,0,1,6,6.69"/><path class="cls-2" d="M1879.23,50.73a13.45,13.45,0,0,0,6.24-5.87,1.44,1.44,0,0,1,.4-.51,1.08,1.08,0,0,1,.59-.09c1.6.16,2.68,1.69,3.32,3.16s1.13,3.12,2.38,4.13"/><path class="cls-2" d="M1881.94,57.26a71.9,71.9,0,0,1,5.21-5.41.72.72,0,0,1,.5-.27c.26,0,.43.26.55.48l3.41,6.07"/><path class="cls-2" d="M1880.16,63.93a45.36,45.36,0,0,0,6.95-6.55.64.64,0,0,1,.31-.23c.23,0,.41.2.52.41a55,55,0,0,0,8.46,11.54"/><path class="cls-2" d="M1877,70.16a16.38,16.38,0,0,0,8.28-5.33,1.84,1.84,0,0,1,1-.77c.74-.14,1.28.65,1.64,1.31a37.86,37.86,0,0,0,9.45,11.46"/><path class="cls-2" d="M1876.77,77.06a40.84,40.84,0,0,0,8.61-5.55,1.69,1.69,0,0,1,1.28-.56c.51.08.8.61,1,1.06A29.26,29.26,0,0,0,1897.47,83"/><path class="cls-2" d="M1886.79,27.06c-.55,15.31,1.53,30.68.22,46-.35,4.06-.93,8.1-1,12.18,0,9.62,3.11,19.23,1.71,28.75"/><path class="cls-2" d="M1870.39,187.09l6.27-6.94a19.12,19.12,0,0,1,4.25-3.84,52.89,52.89,0,0,0,8.83,10"/><path class="cls-2" d="M1873.42,194.5c2.15-2.56,5.52-4.26,6.53-7.44.17-.55.49-1.28,1-1.17a1.12,1.12,0,0,1,.46.27,32.78,32.78,0,0,1,6,6.69"/><path class="cls-2" d="M1873.23,200.73a13.45,13.45,0,0,0,6.24-5.87,1.44,1.44,0,0,1,.4-.51,1.08,1.08,0,0,1,.59-.09c1.6.16,2.68,1.69,3.32,3.16s1.13,3.12,2.38,4.13"/><path class="cls-2" d="M1875.94,207.26a71.9,71.9,0,0,1,5.21-5.41.72.72,0,0,1,.5-.27c.26,0,.43.26.55.48l3.41,6.07"/><path class="cls-2" d="M1874.16,213.93a45.36,45.36,0,0,0,6.95-6.55.64.64,0,0,1,.31-.23c.23,0,.41.2.52.41a55,55,0,0,0,8.46,11.54"/><path class="cls-2" d="M1871,220.16a16.38,16.38,0,0,0,8.28-5.33,1.84,1.84,0,0,1,1-.77c.74-.14,1.28.65,1.64,1.31a37.86,37.86,0,0,0,9.45,11.46"/><path class="cls-2" d="M1870.77,227.06a40.84,40.84,0,0,0,8.61-5.55,1.69,1.69,0,0,1,1.28-.56c.51.08.8.61,1,1.06a29.26,29.26,0,0,0,9.77,11"/><path class="cls-2" d="M1880.79,177.06c-.55,15.31,1.53,30.68.22,45.95-.35,4.06-.93,8.1-1,12.18,0,9.62,3.11,19.23,1.71,28.75"/><path class="cls-2" d="M1867.39,430.09l6.27-6.94a19.12,19.12,0,0,1,4.25-3.84,52.89,52.89,0,0,0,8.83,10"/><path class="cls-2" d="M1870.42,437.5c2.15-2.56,5.52-4.26,6.53-7.44.17-.55.49-1.28,1-1.17a1.12,1.12,0,0,1,.46.27,32.78,32.78,0,0,1,6,6.69"/><path class="cls-2" d="M1870.23,443.73a13.45,13.45,0,0,0,6.24-5.87,1.44,1.44,0,0,1,.4-.51,1.08,1.08,0,0,1,.59-.09c1.6.16,2.68,1.69,3.32,3.16s1.13,3.12,2.38,4.13"/><path class="cls-2" d="M1872.94,450.26a71.9,71.9,0,0,1,5.21-5.41.72.72,0,0,1,.5-.27c.26,0,.43.26.55.48l3.41,6.07"/><path class="cls-2" d="M1871.16,456.93a45.36,45.36,0,0,0,6.95-6.55.64.64,0,0,1,.31-.23c.23,0,.41.2.52.41a55,55,0,0,0,8.46,11.54"/><path class="cls-2" d="M1868,463.16a16.38,16.38,0,0,0,8.28-5.33,1.84,1.84,0,0,1,1-.77c.74-.14,1.28.65,1.64,1.31a37.86,37.86,0,0,0,9.45,11.46"/><path class="cls-2" d="M1867.77,470.06a40.84,40.84,0,0,0,8.61-5.55,1.69,1.69,0,0,1,1.28-.56c.51.08.8.61,1,1.06a29.26,29.26,0,0,0,9.77,10.95"/><path class="cls-2" d="M1877.79,420.06c-.55,15.31,1.53,30.68.22,45.95-.35,4.06-.93,8.1-1,12.18,0,9.62,3.11,19.23,1.71,28.75"/><path class="cls-2" d="M1879.39,567.09l6.27-6.94a19.12,19.12,0,0,1,4.25-3.84,52.89,52.89,0,0,0,8.83,10"/><path class="cls-2" d="M1882.42,574.5c2.15-2.56,5.52-4.26,6.53-7.44.17-.55.49-1.28,1-1.17a1.12,1.12,0,0,1,.46.27,32.78,32.78,0,0,1,6,6.69"/><path class="cls-2" d="M1882.23,580.73a13.45,13.45,0,0,0,6.24-5.87,1.44,1.44,0,0,1,.4-.51,1.08,1.08,0,0,1,.59-.09c1.6.16,2.68,1.69,3.32,3.16s1.13,3.12,2.38,4.13"/><path class="cls-2" d="M1884.94,587.26a71.9,71.9,0,0,1,5.21-5.41.72.72,0,0,1,.5-.27c.26,0,.43.26.55.48l3.41,6.07"/><path class="cls-2" d="M1883.16,593.93a45.36,45.36,0,0,0,6.95-6.55.64.64,0,0,1,.31-.23c.23,0,.41.2.52.41a55,55,0,0,0,8.46,11.54"/><path class="cls-2" d="M1880,600.16a16.38,16.38,0,0,0,8.28-5.33,1.84,1.84,0,0,1,1-.77c.74-.14,1.28.65,1.64,1.31a37.86,37.86,0,0,0,9.45,11.46"/><path class="cls-2" d="M1879.77,607.06a40.84,40.84,0,0,0,8.61-5.55,1.69,1.69,0,0,1,1.28-.56c.51.08.8.61,1,1.06a29.26,29.26,0,0,0,9.77,11"/><path class="cls-2" d="M1889.79,557.06c-.55,15.31,1.53,30.68.22,46-.35,4.06-.93,8.1-1,12.18,0,9.62,3.11,19.23,1.71,28.75"/><path class="cls-2" d="M1880.39,682.09l6.27-6.94a19.12,19.12,0,0,1,4.25-3.84,52.89,52.89,0,0,0,8.83,10"/><path class="cls-2" d="M1883.42,689.5c2.15-2.56,5.52-4.26,6.53-7.44.17-.55.49-1.28,1-1.17a1.12,1.12,0,0,1,.46.27,32.78,32.78,0,0,1,6,6.69"/><path class="cls-2" d="M1883.23,695.73a13.45,13.45,0,0,0,6.24-5.87,1.44,1.44,0,0,1,.4-.51,1.08,1.08,0,0,1,.59-.09c1.6.16,2.68,1.69,3.32,3.16s1.13,3.12,2.38,4.13"/><path class="cls-2" d="M1885.94,702.26a71.9,71.9,0,0,1,5.21-5.41.72.72,0,0,1,.5-.27c.26,0,.43.26.55.48l3.41,6.07"/><path class="cls-2" d="M1884.16,708.93a45.36,45.36,0,0,0,6.95-6.55.64.64,0,0,1,.31-.23c.23,0,.41.2.52.41a55,55,0,0,0,8.46,11.54"/><path class="cls-2" d="M1881,715.16a16.38,16.38,0,0,0,8.28-5.33,1.84,1.84,0,0,1,1-.77c.74-.14,1.28.65,1.64,1.31a37.86,37.86,0,0,0,9.45,11.46"/><path class="cls-2" d="M1880.77,722.06a40.84,40.84,0,0,0,8.61-5.55,1.69,1.69,0,0,1,1.28-.56c.51.08.8.61,1,1.06a29.26,29.26,0,0,0,9.77,11"/><path class="cls-2" d="M1890.79,672.06c-.55,15.31,1.53,30.68.22,46-.35,4.06-.93,8.1-1,12.18,0,9.62,3.11,19.23,1.71,28.75"/><path class="cls-2" d="M1645.39,198.09l6.27-6.94a19.12,19.12,0,0,1,4.25-3.84,52.89,52.89,0,0,0,8.83,10"/><path class="cls-2" d="M1648.42,205.5c2.15-2.56,5.52-4.26,6.53-7.44.17-.55.49-1.28,1-1.17a1.12,1.12,0,0,1,.46.27,32.78,32.78,0,0,1,6,6.69"/><path class="cls-2" d="M1648.23,211.73a13.45,13.45,0,0,0,6.24-5.87,1.44,1.44,0,0,1,.4-.51,1.08,1.08,0,0,1,.59-.09c1.6.16,2.68,1.69,3.32,3.16s1.13,3.12,2.38,4.13"/><path class="cls-2" d="M1650.94,218.26a71.9,71.9,0,0,1,5.21-5.41.72.72,0,0,1,.5-.27c.26,0,.43.26.55.48l3.41,6.07"/><path class="cls-2" d="M1649.16,224.93a45.36,45.36,0,0,0,6.95-6.55.64.64,0,0,1,.31-.23c.23,0,.41.2.52.41a55,55,0,0,0,8.46,11.54"/><path class="cls-2" d="M1646,231.16a16.38,16.38,0,0,0,8.28-5.33,1.84,1.84,0,0,1,1-.77c.74-.14,1.28.65,1.64,1.31a37.86,37.86,0,0,0,9.45,11.46"/><path class="cls-2" d="M1645.77,238.06a40.84,40.84,0,0,0,8.61-5.55,1.69,1.69,0,0,1,1.28-.56c.51.08.8.61,1,1.06a29.26,29.26,0,0,0,9.77,11"/><path class="cls-2" d="M1655.79,188.06c-.55,15.31,1.53,30.68.22,45.95-.35,4.06-.93,8.1-1,12.18,0,9.62,3.11,19.23,1.71,28.75"/><path class="cls-2" d="M1588.39,252.09l6.27-6.94a19.12,19.12,0,0,1,4.25-3.84,52.89,52.89,0,0,0,8.83,10"/><path class="cls-2" d="M1591.42,259.5c2.15-2.56,5.52-4.26,6.53-7.44.17-.55.49-1.28,1-1.17a1.12,1.12,0,0,1,.46.27,32.78,32.78,0,0,1,6,6.69"/><path class="cls-2" d="M1591.23,265.73a13.45,13.45,0,0,0,6.24-5.87,1.44,1.44,0,0,1,.4-.51,1.08,1.08,0,0,1,.59-.09c1.6.16,2.68,1.69,3.32,3.16s1.13,3.12,2.38,4.13"/><path class="cls-2" d="M1593.94,272.26a71.9,71.9,0,0,1,5.21-5.41.72.72,0,0,1,.5-.27c.26,0,.43.26.55.48l3.41,6.07"/><path class="cls-2" d="M1592.16,278.93a45.36,45.36,0,0,0,6.95-6.55.64.64,0,0,1,.31-.23c.23,0,.41.2.52.41a55,55,0,0,0,8.46,11.54"/><path class="cls-2" d="M1589,285.16a16.38,16.38,0,0,0,8.28-5.33,1.84,1.84,0,0,1,1-.77c.74-.14,1.28.65,1.64,1.31a37.86,37.86,0,0,0,9.45,11.46"/><path class="cls-2" d="M1588.77,292.06a40.84,40.84,0,0,0,8.61-5.55,1.69,1.69,0,0,1,1.28-.56c.51.08.8.61,1,1.06a29.26,29.26,0,0,0,9.77,10.95"/><path class="cls-2" d="M1598.79,242.06c-.55,15.31,1.53,30.68.22,45.95-.35,4.06-.93,8.1-1,12.18,0,9.62,3.11,19.23,1.71,28.75"/><path class="cls-2" d="M1538.39,316.09l6.27-6.94a19.12,19.12,0,0,1,4.25-3.84,52.89,52.89,0,0,0,8.83,10"/><path class="cls-2" d="M1541.42,323.5c2.15-2.56,5.52-4.26,6.53-7.44.17-.55.49-1.28,1-1.17a1.12,1.12,0,0,1,.46.27,32.78,32.78,0,0,1,6,6.69"/><path class="cls-2" d="M1541.23,329.73a13.45,13.45,0,0,0,6.24-5.87,1.44,1.44,0,0,1,.4-.51,1.08,1.08,0,0,1,.59-.09c1.6.16,2.68,1.69,3.32,3.16s1.13,3.12,2.38,4.13"/><path class="cls-2" d="M1543.94,336.26a71.9,71.9,0,0,1,5.21-5.41.72.72,0,0,1,.5-.27c.26,0,.43.26.55.48l3.41,6.07"/><path class="cls-2" d="M1542.16,342.93a45.36,45.36,0,0,0,6.95-6.55.64.64,0,0,1,.31-.23c.23,0,.41.2.52.41a55,55,0,0,0,8.46,11.54"/><path class="cls-2" d="M1539,349.16a16.38,16.38,0,0,0,8.28-5.33,1.84,1.84,0,0,1,1-.77c.74-.14,1.28.65,1.64,1.31a37.86,37.86,0,0,0,9.45,11.46"/><path class="cls-2" d="M1538.77,356.06a40.84,40.84,0,0,0,8.61-5.55,1.69,1.69,0,0,1,1.28-.56c.51.08.8.61,1,1.06a29.26,29.26,0,0,0,9.77,10.95"/><path class="cls-2" d="M1548.79,306.06c-.55,15.31,1.53,30.68.22,45.95-.35,4.06-.93,8.1-1,12.18,0,9.62,3.11,19.23,1.71,28.75"/><path class="cls-2" d="M1605.39,377.09l6.27-6.94a19.12,19.12,0,0,1,4.25-3.84,52.89,52.89,0,0,0,8.83,10"/><path class="cls-2" d="M1608.42,384.5c2.15-2.56,5.52-4.26,6.53-7.44.17-.55.49-1.28,1-1.17a1.12,1.12,0,0,1,.46.27,32.78,32.78,0,0,1,6,6.69"/><path class="cls-2" d="M1608.23,390.73a13.45,13.45,0,0,0,6.24-5.87,1.44,1.44,0,0,1,.4-.51,1.08,1.08,0,0,1,.59-.09c1.6.16,2.68,1.69,3.32,3.16s1.13,3.12,2.38,4.13"/><path class="cls-2" d="M1610.94,397.26a71.9,71.9,0,0,1,5.21-5.41.72.72,0,0,1,.5-.27c.26,0,.43.26.55.48l3.41,6.07"/><path class="cls-2" d="M1609.16,403.93a45.36,45.36,0,0,0,6.95-6.55.64.64,0,0,1,.31-.23c.23,0,.41.2.52.41a55,55,0,0,0,8.46,11.54"/><path class="cls-2" d="M1606,410.16a16.38,16.38,0,0,0,8.28-5.33,1.84,1.84,0,0,1,1-.77c.74-.14,1.28.65,1.64,1.31a37.86,37.86,0,0,0,9.45,11.46"/><path class="cls-2" d="M1605.77,417.06a40.84,40.84,0,0,0,8.61-5.55,1.69,1.69,0,0,1,1.28-.56c.51.08.8.61,1,1.06a29.26,29.26,0,0,0,9.77,10.95"/><path class="cls-2" d="M1615.79,367.06c-.55,15.31,1.53,30.68.22,45.95-.35,4.06-.93,8.1-1,12.18,0,9.62,3.11,19.23,1.71,28.75"/><path class="cls-2" d="M1683.39,419.09l6.27-6.94a19.12,19.12,0,0,1,4.25-3.84,52.89,52.89,0,0,0,8.83,10"/><path class="cls-2" d="M1686.42,426.5c2.15-2.56,5.52-4.26,6.53-7.44.17-.55.49-1.28,1-1.17a1.12,1.12,0,0,1,.46.27,32.78,32.78,0,0,1,6,6.69"/><path class="cls-2" d="M1686.23,432.73a13.45,13.45,0,0,0,6.24-5.87,1.44,1.44,0,0,1,.4-.51,1.08,1.08,0,0,1,.59-.09c1.6.16,2.68,1.69,3.32,3.16s1.13,3.12,2.38,4.13"/><path class="cls-2" d="M1688.94,439.26a71.9,71.9,0,0,1,5.21-5.41.72.72,0,0,1,.5-.27c.26,0,.43.26.55.48l3.41,6.07"/><path class="cls-2" d="M1687.16,445.93a45.36,45.36,0,0,0,6.95-6.55.64.64,0,0,1,.31-.23c.23,0,.41.2.52.41a55,55,0,0,0,8.46,11.54"/><path class="cls-2" d="M1684,452.16a16.38,16.38,0,0,0,8.28-5.33,1.84,1.84,0,0,1,1-.77c.74-.14,1.28.65,1.64,1.31a37.86,37.86,0,0,0,9.45,11.46"/><path class="cls-2" d="M1683.77,459.06a40.84,40.84,0,0,0,8.61-5.55,1.69,1.69,0,0,1,1.28-.56c.51.08.8.61,1,1.06a29.26,29.26,0,0,0,9.77,10.95"/><path class="cls-2" d="M1693.79,409.06c-.55,15.31,1.53,30.68.22,45.95-.35,4.06-.93,8.1-1,12.18,0,9.62,3.11,19.23,1.71,28.75"/><path class="cls-2" d="M1769.39,475.09l6.27-6.94a19.12,19.12,0,0,1,4.25-3.84,52.89,52.89,0,0,0,8.83,10"/><path class="cls-2" d="M1772.42,482.5c2.15-2.56,5.52-4.26,6.53-7.44.17-.55.49-1.28,1-1.17a1.12,1.12,0,0,1,.46.27,32.78,32.78,0,0,1,6,6.69"/><path class="cls-2" d="M1772.23,488.73a13.45,13.45,0,0,0,6.24-5.87,1.44,1.44,0,0,1,.4-.51,1.08,1.08,0,0,1,.59-.09c1.6.16,2.68,1.69,3.32,3.16s1.13,3.12,2.38,4.13"/><path class="cls-2" d="M1774.94,495.26a71.9,71.9,0,0,1,5.21-5.41.72.72,0,0,1,.5-.27c.26,0,.43.26.55.48l3.41,6.07"/><path class="cls-2" d="M1773.16,501.93a45.36,45.36,0,0,0,6.95-6.55.64.64,0,0,1,.31-.23c.23,0,.41.2.52.41a55,55,0,0,0,8.46,11.54"/><path class="cls-2" d="M1770,508.16a16.38,16.38,0,0,0,8.28-5.33,1.84,1.84,0,0,1,1-.77c.74-.14,1.28.65,1.64,1.31a37.86,37.86,0,0,0,9.45,11.46"/><path class="cls-2" d="M1769.77,515.06a40.84,40.84,0,0,0,8.61-5.55,1.69,1.69,0,0,1,1.28-.56c.51.08.8.61,1,1.06a29.26,29.26,0,0,0,9.77,11"/><path class="cls-2" d="M1779.79,465.06c-.55,15.31,1.53,30.68.22,45.95-.35,4.06-.93,8.1-1,12.18,0,9.62,3.11,19.23,1.71,28.75"/><path class="cls-2" d="M1824.39,539.09l6.27-6.94a19.12,19.12,0,0,1,4.25-3.84,52.89,52.89,0,0,0,8.83,10"/><path class="cls-2" d="M1827.42,546.5c2.15-2.56,5.52-4.26,6.53-7.44.17-.55.49-1.28,1-1.17a1.12,1.12,0,0,1,.46.27,32.78,32.78,0,0,1,6,6.69"/><path class="cls-2" d="M1827.23,552.73a13.45,13.45,0,0,0,6.24-5.87,1.44,1.44,0,0,1,.4-.51,1.08,1.08,0,0,1,.59-.09c1.6.16,2.68,1.69,3.32,3.16s1.13,3.12,2.38,4.13"/><path class="cls-2" d="M1829.94,559.26a71.9,71.9,0,0,1,5.21-5.41.72.72,0,0,1,.5-.27c.26,0,.43.26.55.48l3.41,6.07"/><path class="cls-2" d="M1828.16,565.93a45.36,45.36,0,0,0,6.95-6.55.64.64,0,0,1,.31-.23c.23,0,.41.2.52.41a55,55,0,0,0,8.46,11.54"/><path class="cls-2" d="M1825,572.16a16.38,16.38,0,0,0,8.28-5.33,1.84,1.84,0,0,1,1-.77c.74-.14,1.28.65,1.64,1.31a37.86,37.86,0,0,0,9.45,11.46"/><path class="cls-2" d="M1824.77,579.06a40.84,40.84,0,0,0,8.61-5.55,1.69,1.69,0,0,1,1.28-.56c.51.08.8.61,1,1.06a29.26,29.26,0,0,0,9.77,11"/><path class="cls-2" d="M1834.79,529.06c-.55,15.31,1.53,30.68.22,46-.35,4.06-.93,8.1-1,12.18,0,9.62,3.11,19.23,1.71,28.75"/><path class="cls-2" d="M1802.39,653.09l6.27-6.94a19.12,19.12,0,0,1,4.25-3.84,52.89,52.89,0,0,0,8.83,10"/><path class="cls-2" d="M1805.42,660.5c2.15-2.56,5.52-4.26,6.53-7.44.17-.55.49-1.28,1-1.17a1.12,1.12,0,0,1,.46.27,32.78,32.78,0,0,1,6,6.69"/><path class="cls-2" d="M1805.23,666.73a13.45,13.45,0,0,0,6.24-5.87,1.44,1.44,0,0,1,.4-.51,1.08,1.08,0,0,1,.59-.09c1.6.16,2.68,1.69,3.32,3.16s1.13,3.12,2.38,4.13"/><path class="cls-2" d="M1807.94,673.26a71.9,71.9,0,0,1,5.21-5.41.72.72,0,0,1,.5-.27c.26,0,.43.26.55.48l3.41,6.07"/><path class="cls-2" d="M1806.16,679.93a45.36,45.36,0,0,0,6.95-6.55.64.64,0,0,1,.31-.23c.23,0,.41.2.52.41a55,55,0,0,0,8.46,11.54"/><path class="cls-2" d="M1803,686.16a16.38,16.38,0,0,0,8.28-5.33,1.84,1.84,0,0,1,1-.77c.74-.14,1.28.65,1.64,1.31a37.86,37.86,0,0,0,9.45,11.46"/><path class="cls-2" d="M1802.77,693.06a40.84,40.84,0,0,0,8.61-5.55,1.69,1.69,0,0,1,1.28-.56c.51.08.8.61,1,1.06a29.26,29.26,0,0,0,9.77,11"/><path class="cls-2" d="M1812.79,643.06c-.55,15.31,1.53,30.68.22,46-.35,4.06-.93,8.1-1,12.18,0,9.62,3.11,19.23,1.71,28.75"/><path class="cls-2" d="M1804.39,783.09l6.27-6.94a19.12,19.12,0,0,1,4.25-3.84,52.89,52.89,0,0,0,8.83,10"/><path class="cls-2" d="M1807.42,790.5c2.15-2.56,5.52-4.26,6.53-7.44.17-.55.49-1.28,1-1.17a1.12,1.12,0,0,1,.46.27,32.78,32.78,0,0,1,6,6.69"/><path class="cls-2" d="M1807.23,796.73a13.45,13.45,0,0,0,6.24-5.87,1.44,1.44,0,0,1,.4-.51,1.08,1.08,0,0,1,.59-.09c1.6.16,2.68,1.69,3.32,3.16s1.13,3.12,2.38,4.13"/><path class="cls-2" d="M1809.94,803.26a71.9,71.9,0,0,1,5.21-5.41.72.72,0,0,1,.5-.27c.26,0,.43.26.55.48l3.41,6.07"/><path class="cls-2" d="M1808.16,809.93a45.36,45.36,0,0,0,6.95-6.55.64.64,0,0,1,.31-.23c.23,0,.41.2.52.41a55,55,0,0,0,8.46,11.54"/><path class="cls-2" d="M1805,816.16a16.38,16.38,0,0,0,8.28-5.33,1.84,1.84,0,0,1,1-.77c.74-.14,1.28.65,1.64,1.31a37.86,37.86,0,0,0,9.45,11.46"/><path class="cls-2" d="M1804.77,823.06a40.84,40.84,0,0,0,8.61-5.55,1.69,1.69,0,0,1,1.28-.56c.51.08.8.61,1,1.06a29.26,29.26,0,0,0,9.77,11"/><path class="cls-2" d="M1814.79,773.06c-.55,15.31,1.53,30.68.22,46-.35,4.06-.93,8.1-1,12.18,0,9.62,3.11,19.23,1.71,28.75"/><path class="cls-2" d="M1861.39,804.09l6.27-6.94a19.12,19.12,0,0,1,4.25-3.84,52.89,52.89,0,0,0,8.83,10"/><path class="cls-2" d="M1864.42,811.5c2.15-2.56,5.52-4.26,6.53-7.44.17-.55.49-1.28,1-1.17a1.12,1.12,0,0,1,.46.27,32.78,32.78,0,0,1,6,6.69"/><path class="cls-2" d="M1864.23,817.73a13.45,13.45,0,0,0,6.24-5.87,1.44,1.44,0,0,1,.4-.51,1.08,1.08,0,0,1,.59-.09c1.6.16,2.68,1.69,3.32,3.16s1.13,3.12,2.38,4.13"/><path class="cls-2" d="M1866.94,824.26a71.9,71.9,0,0,1,5.21-5.41.72.72,0,0,1,.5-.27c.26,0,.43.26.55.48l3.41,6.07"/><path class="cls-2" d="M1865.16,830.93a45.36,45.36,0,0,0,6.95-6.55.64.64,0,0,1,.31-.23c.23,0,.41.2.52.41a55,55,0,0,0,8.46,11.54"/><path class="cls-2" d="M1862,837.16a16.38,16.38,0,0,0,8.28-5.33,1.84,1.84,0,0,1,1-.77c.74-.14,1.28.65,1.64,1.31a37.86,37.86,0,0,0,9.45,11.46"/><path class="cls-2" d="M1861.77,844.06a40.84,40.84,0,0,0,8.61-5.55,1.69,1.69,0,0,1,1.28-.56c.51.08.8.61,1,1.06a29.26,29.26,0,0,0,9.77,11"/><path class="cls-2" d="M1871.79,794.06c-.55,15.31,1.53,30.68.22,46-.35,4.06-.93,8.1-1,12.18,0,9.62,3.11,19.23,1.71,28.75"/><path class="cls-2" d="M1851.39,930.09l6.27-6.94a19.12,19.12,0,0,1,4.25-3.84,52.89,52.89,0,0,0,8.83,10"/><path class="cls-2" d="M1854.42,937.5c2.15-2.56,5.52-4.26,6.53-7.44.17-.55.49-1.28,1-1.17a1.12,1.12,0,0,1,.46.27,32.78,32.78,0,0,1,6,6.69"/><path class="cls-2" d="M1854.23,943.73a13.45,13.45,0,0,0,6.24-5.87,1.44,1.44,0,0,1,.4-.51,1.08,1.08,0,0,1,.59-.09c1.6.16,2.68,1.69,3.32,3.16s1.13,3.12,2.38,4.13"/><path class="cls-2" d="M1856.94,950.26a71.9,71.9,0,0,1,5.21-5.41.72.72,0,0,1,.5-.27c.26,0,.43.26.55.48l3.41,6.07"/><path class="cls-2" d="M1855.16,956.93a45.36,45.36,0,0,0,6.95-6.55.64.64,0,0,1,.31-.23c.23,0,.41.2.52.41a55,55,0,0,0,8.46,11.54"/><path class="cls-2" d="M1852,963.16a16.38,16.38,0,0,0,8.28-5.33,1.84,1.84,0,0,1,1-.77c.74-.14,1.28.65,1.64,1.31a37.86,37.86,0,0,0,9.45,11.46"/><path class="cls-2" d="M1851.77,970.06a40.84,40.84,0,0,0,8.61-5.55,1.69,1.69,0,0,1,1.28-.56c.51.08.8.61,1,1.06a29.26,29.26,0,0,0,9.77,11"/><path class="cls-2" d="M1861.79,920.06c-.55,15.31,1.53,30.68.22,46-.35,4.06-.93,8.1-1,12.18,0,9.62,3.11,19.23,1.71,28.75"/><path class="cls-2" d="M1857.39,1045.09l6.27-6.94a19.12,19.12,0,0,1,4.25-3.84,52.89,52.89,0,0,0,8.83,10"/><path class="cls-2" d="M1860.42,1052.5c2.15-2.56,5.52-4.26,6.53-7.44.17-.55.49-1.28,1-1.17a1.12,1.12,0,0,1,.46.27,32.78,32.78,0,0,1,6,6.69"/><path class="cls-2" d="M1860.23,1058.73a13.45,13.45,0,0,0,6.24-5.87,1.44,1.44,0,0,1,.4-.51,1.08,1.08,0,0,1,.59-.09c1.6.16,2.68,1.69,3.32,3.16s1.13,3.12,2.38,4.13"/><path class="cls-2" d="M1862.94,1065.26a71.9,71.9,0,0,1,5.21-5.41.72.72,0,0,1,.5-.27c.26,0,.43.26.55.48l3.41,6.07"/><path class="cls-2" d="M1861.16,1071.93a45.36,45.36,0,0,0,6.95-6.55.64.64,0,0,1,.31-.23c.23,0,.41.2.52.41a55,55,0,0,0,8.46,11.54"/><path class="cls-2" d="M1858,1078.16a16.38,16.38,0,0,0,8.28-5.33,1.84,1.84,0,0,1,1-.77c.74-.14,1.28.65,1.64,1.31a37.86,37.86,0,0,0,9.45,11.46"/><path class="cls-2" d="M1857.77,1085.06a40.84,40.84,0,0,0,8.61-5.55,1.69,1.69,0,0,1,1.28-.56c.51.08.8.61,1,1.06a29.26,29.26,0,0,0,9.77,11"/><path class="cls-2" d="M1867.79,1035.06c-.55,15.31,1.53,30.68.22,46-.35,4.06-.93,8.1-1,12.18,0,9.62,3.11,19.23,1.71,28.75"/><path class="cls-2" d="M1681.39,932.09l6.27-6.94a19.12,19.12,0,0,1,4.25-3.84,52.89,52.89,0,0,0,8.83,10"/><path class="cls-2" d="M1684.42,939.5c2.15-2.56,5.52-4.26,6.53-7.44.17-.55.49-1.28,1-1.17a1.12,1.12,0,0,1,.46.27,32.78,32.78,0,0,1,6,6.69"/><path class="cls-2" d="M1684.23,945.73a13.45,13.45,0,0,0,6.24-5.87,1.44,1.44,0,0,1,.4-.51,1.08,1.08,0,0,1,.59-.09c1.6.16,2.68,1.69,3.32,3.16s1.13,3.12,2.38,4.13"/><path class="cls-2" d="M1686.94,952.26a71.9,71.9,0,0,1,5.21-5.41.72.72,0,0,1,.5-.27c.26,0,.43.26.55.48l3.41,6.07"/><path class="cls-2" d="M1685.16,958.93a45.36,45.36,0,0,0,6.95-6.55.64.64,0,0,1,.31-.23c.23,0,.41.2.52.41a55,55,0,0,0,8.46,11.54"/><path class="cls-2" d="M1682,965.16a16.38,16.38,0,0,0,8.28-5.33,1.84,1.84,0,0,1,1-.77c.74-.14,1.28.65,1.64,1.31a37.86,37.86,0,0,0,9.45,11.46"/><path class="cls-2" d="M1681.77,972.06a40.84,40.84,0,0,0,8.61-5.55,1.69,1.69,0,0,1,1.28-.56c.51.08.8.61,1,1.06a29.26,29.26,0,0,0,9.77,11"/><path class="cls-2" d="M1691.79,922.06c-.55,15.31,1.53,30.68.22,46-.35,4.06-.93,8.1-1,12.18,0,9.62,3.11,19.23,1.71,28.75"/><path class="cls-2" d="M1742.39,988.09l6.27-6.94a19.12,19.12,0,0,1,4.25-3.84,52.89,52.89,0,0,0,8.83,10"/><path class="cls-2" d="M1745.42,995.5c2.15-2.56,5.52-4.26,6.53-7.44.17-.55.49-1.28,1-1.17a1.12,1.12,0,0,1,.46.27,32.78,32.78,0,0,1,6,6.69"/><path class="cls-2" d="M1745.23,1001.73a13.45,13.45,0,0,0,6.24-5.87,1.44,1.44,0,0,1,.4-.51,1.08,1.08,0,0,1,.59-.09c1.6.16,2.68,1.69,3.32,3.16s1.13,3.12,2.38,4.13"/><path class="cls-2" d="M1747.94,1008.26a71.9,71.9,0,0,1,5.21-5.41.72.72,0,0,1,.5-.27c.26,0,.43.26.55.48l3.41,6.07"/><path class="cls-2" d="M1746.16,1014.93a45.36,45.36,0,0,0,6.95-6.55.64.64,0,0,1,.31-.23c.23,0,.41.2.52.41a55,55,0,0,0,8.46,11.54"/><path class="cls-2" d="M1743,1021.16a16.38,16.38,0,0,0,8.28-5.33,1.84,1.84,0,0,1,1-.77c.74-.14,1.28.65,1.64,1.31a37.86,37.86,0,0,0,9.45,11.46"/><path class="cls-2" d="M1742.77,1028.06a40.84,40.84,0,0,0,8.61-5.55,1.69,1.69,0,0,1,1.28-.56c.51.08.8.61,1,1.06a29.26,29.26,0,0,0,9.77,11"/><path class="cls-2" d="M1752.79,978.06c-.55,15.31,1.53,30.68.22,46-.35,4.06-.93,8.1-1,12.18,0,9.62,3.11,19.23,1.71,28.75"/><path class="cls-2" d="M1632.39,1030.09l6.27-6.94a19.12,19.12,0,0,1,4.25-3.84,52.89,52.89,0,0,0,8.83,10"/><path class="cls-2" d="M1635.42,1037.5c2.15-2.56,5.52-4.26,6.53-7.44.17-.55.49-1.28,1-1.17a1.12,1.12,0,0,1,.46.27,32.78,32.78,0,0,1,6,6.69"/><path class="cls-2" d="M1635.23,1043.73a13.45,13.45,0,0,0,6.24-5.87,1.44,1.44,0,0,1,.4-.51,1.08,1.08,0,0,1,.59-.09c1.6.16,2.68,1.69,3.32,3.16s1.13,3.12,2.38,4.13"/><path class="cls-2" d="M1637.94,1050.26a71.9,71.9,0,0,1,5.21-5.41.72.72,0,0,1,.5-.27c.26,0,.43.26.55.48l3.41,6.07"/><path class="cls-2" d="M1636.16,1056.93a45.36,45.36,0,0,0,6.95-6.55.64.64,0,0,1,.31-.23c.23,0,.41.2.52.41a55,55,0,0,0,8.46,11.54"/><path class="cls-2" d="M1633,1063.16a16.38,16.38,0,0,0,8.28-5.33,1.84,1.84,0,0,1,1-.77c.74-.14,1.28.65,1.64,1.31a37.86,37.86,0,0,0,9.45,11.46"/><path class="cls-2" d="M1632.77,1070.06a40.84,40.84,0,0,0,8.61-5.55,1.69,1.69,0,0,1,1.28-.56c.51.08.8.61,1,1.06a29.26,29.26,0,0,0,9.77,11"/><path class="cls-2" d="M1642.79,1020.06c-.55,15.31,1.53,30.68.22,46-.35,4.06-.93,8.1-1,12.18,0,9.62,3.11,19.23,1.71,28.75"/><path class="cls-2" d="M1704.39,1067.09l6.27-6.94a19.12,19.12,0,0,1,4.25-3.84,52.89,52.89,0,0,0,8.83,10"/><path class="cls-2" d="M1707.42,1074.5c2.15-2.56,5.52-4.26,6.53-7.44.17-.55.49-1.28,1-1.17a1.12,1.12,0,0,1,.46.27,32.78,32.78,0,0,1,6,6.69"/><path class="cls-2" d="M1707.23,1080.73a13.45,13.45,0,0,0,6.24-5.87,1.44,1.44,0,0,1,.4-.51,1.08,1.08,0,0,1,.59-.09c1.6.16,2.68,1.69,3.32,3.16s1.13,3.12,2.38,4.13"/><path class="cls-2" d="M1709.94,1087.26a71.9,71.9,0,0,1,5.21-5.41.72.72,0,0,1,.5-.27c.26,0,.43.26.55.48l3.41,6.07"/><path class="cls-2" d="M1708.16,1093.93a45.36,45.36,0,0,0,6.95-6.55.64.64,0,0,1,.31-.23c.23,0,.41.2.52.41a55,55,0,0,0,8.46,11.54"/><path class="cls-2" d="M1705,1100.16a16.38,16.38,0,0,0,8.28-5.33,1.84,1.84,0,0,1,1-.77c.74-.14,1.28.65,1.64,1.31a37.86,37.86,0,0,0,9.45,11.46"/><path class="cls-2" d="M1704.77,1107.06a40.84,40.84,0,0,0,8.61-5.55,1.69,1.69,0,0,1,1.28-.56c.51.08.8.61,1,1.06a29.26,29.26,0,0,0,9.77,11"/><path class="cls-2" d="M1714.79,1057.06c-.55,15.31,1.53,30.68.22,46-.35,4.06-.93,8.1-1,12.18,0,9.62,3.11,19.23,1.71,28.75"/><path class="cls-2" d="M1797.39,1065.09l6.27-6.94a19.12,19.12,0,0,1,4.25-3.84,52.89,52.89,0,0,0,8.83,10"/><path class="cls-2" d="M1800.42,1072.5c2.15-2.56,5.52-4.26,6.53-7.44.17-.55.49-1.28,1-1.17a1.12,1.12,0,0,1,.46.27,32.78,32.78,0,0,1,6,6.69"/><path class="cls-2" d="M1800.23,1078.73a13.45,13.45,0,0,0,6.24-5.87,1.44,1.44,0,0,1,.4-.51,1.08,1.08,0,0,1,.59-.09c1.6.16,2.68,1.69,3.32,3.16s1.13,3.12,2.38,4.13"/><path class="cls-2" d="M1802.94,1085.26a71.9,71.9,0,0,1,5.21-5.41.72.72,0,0,1,.5-.27c.26,0,.43.26.55.48l3.41,6.07"/><path class="cls-2" d="M1801.16,1091.93a45.36,45.36,0,0,0,6.95-6.55.64.64,0,0,1,.31-.23c.23,0,.41.2.52.41a55,55,0,0,0,8.46,11.54"/><path class="cls-2" d="M1798,1098.16a16.38,16.38,0,0,0,8.28-5.33,1.84,1.84,0,0,1,1-.77c.74-.14,1.28.65,1.64,1.31a37.86,37.86,0,0,0,9.45,11.46"/><path class="cls-2" d="M1797.77,1105.06a40.84,40.84,0,0,0,8.61-5.55,1.69,1.69,0,0,1,1.28-.56c.51.08.8.61,1,1.06a29.26,29.26,0,0,0,9.77,11"/><path class="cls-2" d="M1807.79,1055.06c-.55,15.31,1.53,30.68.22,46-.35,4.06-.93,8.1-1,12.18,0,9.62,3.11,19.23,1.71,28.75"/><path class="cls-2" d="M1798.39,908.09l6.27-6.94a19.12,19.12,0,0,1,4.25-3.84,52.89,52.89,0,0,0,8.83,10"/><path class="cls-2" d="M1801.42,915.5c2.15-2.56,5.52-4.26,6.53-7.44.17-.55.49-1.28,1-1.17a1.12,1.12,0,0,1,.46.27,32.78,32.78,0,0,1,6,6.69"/><path class="cls-2" d="M1801.23,921.73a13.45,13.45,0,0,0,6.24-5.87,1.44,1.44,0,0,1,.4-.51,1.08,1.08,0,0,1,.59-.09c1.6.16,2.68,1.69,3.32,3.16s1.13,3.12,2.38,4.13"/><path class="cls-2" d="M1803.94,928.26a71.9,71.9,0,0,1,5.21-5.41.72.72,0,0,1,.5-.27c.26,0,.43.26.55.48l3.41,6.07"/><path class="cls-2" d="M1802.16,934.93a45.36,45.36,0,0,0,6.95-6.55.64.64,0,0,1,.31-.23c.23,0,.41.2.52.41a55,55,0,0,0,8.46,11.54"/><path class="cls-2" d="M1799,941.16a16.38,16.38,0,0,0,8.28-5.33,1.84,1.84,0,0,1,1-.77c.74-.14,1.28.65,1.64,1.31a37.86,37.86,0,0,0,9.45,11.46"/><path class="cls-2" d="M1798.77,948.06a40.84,40.84,0,0,0,8.61-5.55,1.69,1.69,0,0,1,1.28-.56c.51.08.8.61,1,1.06a29.26,29.26,0,0,0,9.77,11"/><path class="cls-2" d="M1808.79,898.06c-.55,15.31,1.53,30.68.22,46-.35,4.06-.93,8.1-1,12.18,0,9.62,3.11,19.23,1.71,28.75"/><path class="cls-2" d="M1737.39,849.09l6.27-6.94a19.12,19.12,0,0,1,4.25-3.84,52.89,52.89,0,0,0,8.83,10"/><path class="cls-2" d="M1740.42,856.5c2.15-2.56,5.52-4.26,6.53-7.44.17-.55.49-1.28,1-1.17a1.12,1.12,0,0,1,.46.27,32.78,32.78,0,0,1,6,6.69"/><path class="cls-2" d="M1740.23,862.73a13.45,13.45,0,0,0,6.24-5.87,1.44,1.44,0,0,1,.4-.51,1.08,1.08,0,0,1,.59-.09c1.6.16,2.68,1.69,3.32,3.16s1.13,3.12,2.38,4.13"/><path class="cls-2" d="M1742.94,869.26a71.9,71.9,0,0,1,5.21-5.41.72.72,0,0,1,.5-.27c.26,0,.43.26.55.48l3.41,6.07"/><path class="cls-2" d="M1741.16,875.93a45.36,45.36,0,0,0,6.95-6.55.64.64,0,0,1,.31-.23c.23,0,.41.2.52.41a55,55,0,0,0,8.46,11.54"/><path class="cls-2" d="M1738,882.16a16.38,16.38,0,0,0,8.28-5.33,1.84,1.84,0,0,1,1-.77c.74-.14,1.28.65,1.64,1.31a37.86,37.86,0,0,0,9.45,11.46"/><path class="cls-2" d="M1737.77,889.06a40.84,40.84,0,0,0,8.61-5.55,1.69,1.69,0,0,1,1.28-.56c.51.08.8.61,1,1.06a29.26,29.26,0,0,0,9.77,11"/><path class="cls-2" d="M1747.79,839.06c-.55,15.31,1.53,30.68.22,46-.35,4.06-.93,8.1-1,12.18,0,9.62,3.11,19.23,1.71,28.75"/><path class="cls-2" d="M1744.39,709.09l6.27-6.94a19.12,19.12,0,0,1,4.25-3.84,52.89,52.89,0,0,0,8.83,10"/><path class="cls-2" d="M1747.42,716.5c2.15-2.56,5.52-4.26,6.53-7.44.17-.55.49-1.28,1-1.17a1.12,1.12,0,0,1,.46.27,32.78,32.78,0,0,1,6,6.69"/><path class="cls-2" d="M1747.23,722.73a13.45,13.45,0,0,0,6.24-5.87,1.44,1.44,0,0,1,.4-.51,1.08,1.08,0,0,1,.59-.09c1.6.16,2.68,1.69,3.32,3.16s1.13,3.12,2.38,4.13"/><path class="cls-2" d="M1749.94,729.26a71.9,71.9,0,0,1,5.21-5.41.72.72,0,0,1,.5-.27c.26,0,.43.26.55.48l3.41,6.07"/><path class="cls-2" d="M1748.16,735.93a45.36,45.36,0,0,0,6.95-6.55.64.64,0,0,1,.31-.23c.23,0,.41.2.52.41a55,55,0,0,0,8.46,11.54"/><path class="cls-2" d="M1745,742.16a16.38,16.38,0,0,0,8.28-5.33,1.84,1.84,0,0,1,1-.77c.74-.14,1.28.65,1.64,1.31a37.86,37.86,0,0,0,9.45,11.46"/><path class="cls-2" d="M1744.77,749.06a40.84,40.84,0,0,0,8.61-5.55,1.69,1.69,0,0,1,1.28-.56c.51.08.8.61,1,1.06a29.26,29.26,0,0,0,9.77,11"/><path class="cls-2" d="M1754.79,699.06c-.55,15.31,1.53,30.68.22,46-.35,4.06-.93,8.1-1,12.18,0,9.62,3.11,19.23,1.71,28.75"/><path class="cls-2" d="M1672.39,775.09l6.27-6.94a19.12,19.12,0,0,1,4.25-3.84,52.89,52.89,0,0,0,8.83,10"/><path class="cls-2" d="M1675.42,782.5c2.15-2.56,5.52-4.26,6.53-7.44.17-.55.49-1.28,1-1.17a1.12,1.12,0,0,1,.46.27,32.78,32.78,0,0,1,6,6.69"/><path class="cls-2" d="M1675.23,788.73a13.45,13.45,0,0,0,6.24-5.87,1.44,1.44,0,0,1,.4-.51,1.08,1.08,0,0,1,.59-.09c1.6.16,2.68,1.69,3.32,3.16s1.13,3.12,2.38,4.13"/><path class="cls-2" d="M1677.94,795.26a71.9,71.9,0,0,1,5.21-5.41.72.72,0,0,1,.5-.27c.26,0,.43.26.55.48l3.41,6.07"/><path class="cls-2" d="M1676.16,801.93a45.36,45.36,0,0,0,6.95-6.55.64.64,0,0,1,.31-.23c.23,0,.41.2.52.41a55,55,0,0,0,8.46,11.54"/><path class="cls-2" d="M1673,808.16a16.38,16.38,0,0,0,8.28-5.33,1.84,1.84,0,0,1,1-.77c.74-.14,1.28.65,1.64,1.31a37.86,37.86,0,0,0,9.45,11.46"/><path class="cls-2" d="M1672.77,815.06a40.84,40.84,0,0,0,8.61-5.55,1.69,1.69,0,0,1,1.28-.56c.51.08.8.61,1,1.06a29.26,29.26,0,0,0,9.77,11"/><path class="cls-2" d="M1682.79,765.06c-.55,15.31,1.53,30.68.22,46-.35,4.06-.93,8.1-1,12.18,0,9.62,3.11,19.23,1.71,28.75"/><path class="cls-2" d="M1618.39,871.09l6.27-6.94a19.12,19.12,0,0,1,4.25-3.84,52.89,52.89,0,0,0,8.83,10"/><path class="cls-2" d="M1621.42,878.5c2.15-2.56,5.52-4.26,6.53-7.44.17-.55.49-1.28,1-1.17a1.12,1.12,0,0,1,.46.27,32.78,32.78,0,0,1,6,6.69"/><path class="cls-2" d="M1621.23,884.73a13.45,13.45,0,0,0,6.24-5.87,1.44,1.44,0,0,1,.4-.51,1.08,1.08,0,0,1,.59-.09c1.6.16,2.68,1.69,3.32,3.16s1.13,3.12,2.38,4.13"/><path class="cls-2" d="M1623.94,891.26a71.9,71.9,0,0,1,5.21-5.41.72.72,0,0,1,.5-.27c.26,0,.43.26.55.48l3.41,6.07"/><path class="cls-2" d="M1622.16,897.93a45.36,45.36,0,0,0,6.95-6.55.64.64,0,0,1,.31-.23c.23,0,.41.2.52.41a55,55,0,0,0,8.46,11.54"/><path class="cls-2" d="M1619,904.16a16.38,16.38,0,0,0,8.28-5.33,1.84,1.84,0,0,1,1-.77c.74-.14,1.28.65,1.64,1.31a37.86,37.86,0,0,0,9.45,11.46"/><path class="cls-2" d="M1618.77,911.06a40.84,40.84,0,0,0,8.61-5.55,1.69,1.69,0,0,1,1.28-.56c.51.08.8.61,1,1.06a29.26,29.26,0,0,0,9.77,11"/><path class="cls-2" d="M1628.79,861.06c-.55,15.31,1.53,30.68.22,46-.35,4.06-.93,8.1-1,12.18,0,9.62,3.11,19.23,1.71,28.75"/><path class="cls-2" d="M1578.39,963.09l6.27-6.94a19.12,19.12,0,0,1,4.25-3.84,52.89,52.89,0,0,0,8.83,10"/><path class="cls-2" d="M1581.42,970.5c2.15-2.56,5.52-4.26,6.53-7.44.17-.55.49-1.28,1-1.17a1.12,1.12,0,0,1,.46.27,32.78,32.78,0,0,1,6,6.69"/><path class="cls-2" d="M1581.23,976.73a13.45,13.45,0,0,0,6.24-5.87,1.44,1.44,0,0,1,.4-.51,1.08,1.08,0,0,1,.59-.09c1.6.16,2.68,1.69,3.32,3.16s1.13,3.12,2.38,4.13"/><path class="cls-2" d="M1583.94,983.26a71.9,71.9,0,0,1,5.21-5.41.72.72,0,0,1,.5-.27c.26,0,.43.26.55.48l3.41,6.07"/><path class="cls-2" d="M1582.16,989.93a45.36,45.36,0,0,0,6.95-6.55.64.64,0,0,1,.31-.23c.23,0,.41.2.52.41a55,55,0,0,0,8.46,11.54"/><path class="cls-2" d="M1579,996.16a16.38,16.38,0,0,0,8.28-5.33,1.84,1.84,0,0,1,1-.77c.74-.14,1.28.65,1.64,1.31a37.86,37.86,0,0,0,9.45,11.46"/><path class="cls-2" d="M1578.77,1003.06a40.84,40.84,0,0,0,8.61-5.55,1.69,1.69,0,0,1,1.28-.56c.51.08.8.61,1,1.06a29.26,29.26,0,0,0,9.77,11"/><path class="cls-2" d="M1588.79,953.06c-.55,15.31,1.53,30.68.22,46-.35,4.06-.93,8.1-1,12.18,0,9.62,3.11,19.23,1.71,28.75"/><path class="cls-2" d="M1534.39,1066.09l6.27-6.94a19.12,19.12,0,0,1,4.25-3.84,52.89,52.89,0,0,0,8.83,10"/><path class="cls-2" d="M1537.42,1073.5c2.15-2.56,5.52-4.26,6.53-7.44.17-.55.49-1.28,1-1.17a1.12,1.12,0,0,1,.46.27,32.78,32.78,0,0,1,6,6.69"/><path class="cls-2" d="M1537.23,1079.73a13.45,13.45,0,0,0,6.24-5.87,1.44,1.44,0,0,1,.4-.51,1.08,1.08,0,0,1,.59-.09c1.6.16,2.68,1.69,3.32,3.16s1.13,3.12,2.38,4.13"/><path class="cls-2" d="M1539.94,1086.26a71.9,71.9,0,0,1,5.21-5.41.72.72,0,0,1,.5-.27c.26,0,.43.26.55.48l3.41,6.07"/><path class="cls-2" d="M1538.16,1092.93a45.36,45.36,0,0,0,6.95-6.55.64.64,0,0,1,.31-.23c.23,0,.41.2.52.41a55,55,0,0,0,8.46,11.54"/><path class="cls-2" d="M1535,1099.16a16.38,16.38,0,0,0,8.28-5.33,1.84,1.84,0,0,1,1-.77c.74-.14,1.28.65,1.64,1.31a37.86,37.86,0,0,0,9.45,11.46"/><path class="cls-2" d="M1534.77,1106.06a40.84,40.84,0,0,0,8.61-5.55,1.69,1.69,0,0,1,1.28-.56c.51.08.8.61,1,1.06a29.26,29.26,0,0,0,9.77,11"/><path class="cls-2" d="M1544.79,1056.06c-.55,15.31,1.53,30.68.22,46-.35,4.06-.93,8.1-1,12.18,0,9.62,3.11,19.23,1.71,28.75"/></svg>