<?xml version="1.0" encoding="utf-8"?>
<!-- Generator: Adobe Illustrator 23.0.2, SVG Export Plug-In . SVG Version: 6.00 Build 0)  -->
<svg version="1.1" id="Capa_1" xmlns="http://www.w3.org/2000/svg" xmlns:xlink="http://www.w3.org/1999/xlink" x="0px" y="0px"
	 viewBox="0 0 100 100" style="enable-background:new 0 0 100 100;" xml:space="preserve">
<style type="text/css">
	.st0{fill:#FFFFFF;}
	.st1{fill:#4ED3DD;}
</style>
<rect class="st0" width="100" height="100"/>
<g>
	<path class="st1" d="M30.3,83.2c-2-1.8-2-4.8-0.9-6.9c1-2,2.9-3.4,4.7-4.6c4.4-2.9,9.1-5.2,13.7-7.5c6.3-3.1,12.8-6.3,18.2-10.8
		c0.5-0.4,0.9-0.8,1.4-1.3c0.1-4.2-2.1-7.7-4.2-10l0,0c-3.7-4.2-8.1-7.8-11.9-10.9c-1.3-1-2.9-2.1-4.5-3.1
		c-4.7-3.1-9.6-6.4-7.8-10.1c0.6-1.3,1.7-2.1,3-2.3c5.5-0.9,15,7.9,21.6,14.6l0.4,0.4c2.5,2.5,8.4,8.4,9,12.8c0.6,3.7-1.4,7-3.8,9.5
		c-0.1,0.6-0.1,1.3-0.3,1.9c-0.8,3.6-3.6,6.4-6.4,8.8c-7.2,6.4-14.9,12.5-22.7,18.1c-2.4,1.7-4.7,2.6-6.5,2.6
		C32.3,84.4,31.2,84,30.3,83.2z M48.7,66c-4.5,2.2-9.2,4.6-13.5,7.4c-1.9,1.2-3.3,2.3-4.1,3.9c-0.7,1.4-0.8,3.4,0.4,4.5
		c2,1.8,5.4-0.2,7.3-1.6c7.8-5.6,15.4-11.6,22.6-18c2.3-2,4.6-4.3,5.5-6.9C61.5,59.7,55,62.9,48.7,66z M42.5,17.6
		c-0.7,0.1-1.2,0.5-1.6,1.2c-1.1,2.1,3.3,5,7.1,7.5c1.6,1.1,3.3,2.2,4.6,3.3c3.9,3.1,8.3,6.8,12.1,11.1l0,0c2.6,2.9,4.1,6,4.6,9.2
		c1.3-1.8,2.3-4,1.9-6.2c-0.6-3.8-6.3-9.6-8.5-11.7l-0.4-0.4C51,20.2,45.6,17.6,43,17.6C42.9,17.6,42.7,17.6,42.5,17.6z"/>
</g>
</svg>
