<?xml version="1.0" encoding="utf-8"?>
<!-- Generator: Adobe Illustrator 23.0.2, SVG Export Plug-In . SVG Version: 6.00 Build 0)  -->
<svg version="1.1" id="Capa_1" xmlns="http://www.w3.org/2000/svg" xmlns:xlink="http://www.w3.org/1999/xlink" x="0px" y="0px"
	 viewBox="0 0 1920 1620" style="enable-background:new 0 0 1920 1620;" xml:space="preserve">
<style type="text/css">
	.st0{fill:url(#SVGID_1_);}
	.st1{fill:#FF8676;}
	.st2{fill:none;stroke:#FFFFFF;stroke-width:0.75;stroke-miterlimit:10;}
	.st3{fill:none;stroke:#FFFFFF;stroke-miterlimit:10;}
	.st4{opacity:0.4;fill:none;stroke:#FFFFFF;stroke-miterlimit:10;}
</style>
<title>rosengarten</title>
<linearGradient id="SVGID_1_" gradientUnits="userSpaceOnUse" x1="959.895" y1="1177.0455" x2="959.895" y2="1619.0455" gradientTransform="matrix(1 0 0 -1 0 1619.2756)">
	<stop  offset="0" style="stop-color:#61C1D1"/>
	<stop  offset="0.1123" style="stop-color:#7ECDDA"/>
	<stop  offset="0.3437" style="stop-color:#B5E2EA"/>
	<stop  offset="0.5433" style="stop-color:#DDF2F5"/>
	<stop  offset="0.7011" style="stop-color:#F6FBFC"/>
	<stop  offset="0.7974" style="stop-color:#FFFFFF"/>
	<stop  offset="1" style="stop-color:#FFFFFF"/>
</linearGradient>
<rect x="-0.6" y="0.2" class="st0" width="1920.9" height="442"/>
<path class="st1" d="M1920.5,315.7c-17.7-3.6-25-22.2-29.6-12c-5.2,11.4-43.7,13.5-48.9-1c-6.3-17.5-52-17.7-70.7-12.5
	c-23.4,6.5-39.4-22.6-55.6,1.3c-17.7,26-24.8,3.1-35.3,3.1c-28.1,0-16.1,19.2-33.3,12.5c-11.3-4.4-30.2-9.4-41.6-1
	c-21.6,14.1-33,5.3-41.8,5.3s-10.8,7.4-37.1,9.4c-19.5,1.5-19.8,7.3-20.2,14.1c-0.7,10.1-21.6,6.1-23.6,3.4s-10.8-6.1-12.8-3.4
	s-6.7,2.7-6.7-0.7s-5.4-4-7.4-2c-2.7,2.7-6.1,3.4-8.1,0.7s-6.7-3.4-14.2-2.7c-8.7,0.8-6.7,10.8-13.5,10.1s-7.4-10.1-13.5-10.8
	s-16.2-3.4-21.6-6.7s-4-10.8-13.5-6.7s-13.5-3.4-17.5-10.1s-26.3,0-40.4-4c-9.1-2.6-8.8-4-17.5-4.7s-17.5,1.3-19.5,7.4
	s-4.7,6.6-8.7,1.2s-13.5-4.7-12.8,4s-9.4,9.4-14.8,2.7s-22.9-13.5-23.6-6.1s-8.1,7.4-10.8,9.4s6.1,15.5,1.3,16.2
	s-10.8-10.1-16.2-24.9s-15.5-21.5-27.6-28.3c-8.5-4.7-8.8-18.2-27-36.4s-20.1-7.9-29-10.1c-5.4-1.4,0.7-5.4-19.5-14.8
	s-30.3-8.7-39-6.7s-8.8-6.1-19.5-5.4s-24.3,14.1-30.3,18.9c-9.9,7.7-8.8,14.8-14.8,11.4s-11.5,1.4-14.8,3.4s-6.1,0-13.5,2
	s-8.1,0-9.4-3.4s-4.7-5.4-8.8-6.1s-8.8-0.7-13.5,4s-6.7,0.7-9.4-2.7c-6.6-8.2-10.1-0.7-12.8-4.7s-9.9-5.4-14.2,2
	c-5.4,9.4-13.5,16.2-18.2,8.8c-4.2-6.7-14.2-10.8-21.6-8.1c-7.8,2.9-5.4,22.9-8.8,22.9c-2.7,0-1.3-10.1-2-13.5
	c-1-4.8-6.1,2.7-8.8,9.4c-2.7,6.7-0.7,20.2-2.7,20.2s-1.3-2.7-2-9.4c-0.7-6.7-6.1-11.5-9.4-10.1c-8.2,3.3-3.4,25.6-12.8,27.6
	s-8.8,20.9-14.1,24.9s5.4,30.3-12.8,30.3c-10.4,0-18.2-4.7-18.2-12.1c0-5.4-5.9-5.7-8.8,0c-4.7,9.4-15.5-8.1-16.2-21.6
	c-1-20.9-8.5-20.2-8.1-12.1c0.7,12.8-6.1,12.8-10.1,21.5s7.4,54.6,0,55.2s-4.5-37.6-15.5-42.4c-10.8-4.7-4-10.8-10.1-24.9
	s-14.8-4-18.9,10.1s-6.7,13.5-6.7,1.4s-5.4-14.8-11.5-14.8s-14.1,14.1-12.8,22.2s-3.4,8.8-13.5,6.1s-8.8,6.7-7.4,12.1
	c3,11.9-2,21.5-4.7,11.5s-8.8-7.4-8.8,3.4c0,13.5-5.4,17.5-6.7,30.3s-9.4,8.1-11.5-3.4s-18.9-22.2-22.2-19.5s0,8.1-5.4,11.5
	s-0.7,34.4-4.7,34.4s-2-13.5-3.4-22.9s-11.5-10.8-24.3-20.9s-19.5-4-29,5.4s-13.5,2.7-22.9-6.1s-15.8-7.1-26.6-3.7
	s-9.4-6.7-18.9-8.8s-5.4,8.1-17.5-0.7s-17.5-25.6-28.3-12.8s-20.2,10.8-27.6,6.7s-4,9.4-8.8,12.8s-6.7-6.1-14.8-16.8
	s-12-7.8-18.3-6.7c0,0-25.4,5.4-43-2.9s-32.9-31.4-43.3-54.3s-19.7-28-29.1-12.4c-13.4,22.4-27.8,11.4-26.5-17.2
	c0.9-20.1-9.4-17.5-13.1-10.1c-3,6-3.1,13.3-7,13c-4.5-0.4,2-20-6-20c-12.7,0-22.5,25.3-63,43c-40.5,17.7-77,23-82.5,50.2L-1,1620.7
	h1920.5L1920.5,315.7z"/>
<g>
	<path class="st2" d="M1014.3,1064c5.2,7,0,17.1-4.4,16.9c-4.6-0.3-6.3,3-5.6,5.5c0.7,2.9,4.9,3.9,7.3,0.5c2.2-3.1,9.4-7.6,11.9-2.5
		s-0.9,15.2-7.7,15.2c-5.1,0-6,5-5.1,6.7c1.2,2.4,2.5,3.4,5.9,4.3c3.4,0.9,7.6,8.5,8.4,17.1c0.6,6.1-2.6,3.3-5.4,6.2
		c-2.8,2.9-6.4,2.9-6.5,5c-0.1,2.1,4.7,0.9,8.6-0.1c4-0.9,0.6-0.3,15.2-2.7c14.5-2.4,12.6-5.6,11.6-6.8c-0.9-1.1-5.1-1.7-5.9-5.1
		c-2.5-10.4-10.9-10.2-7.5-17c3.4-6.8,19-10.2,17.1-20.2c-0.8-4.2-4.2-6.8-2.5-8.5c1.9-1.9,5.9,0.5,6-4c0-4.4-4.1-16.3-10.5-22.4
		c-5.7-5.5-12.2-0.5-18.1-1.8c-4.8-1.1-7.3-3-7.1-8.7c0.3-8.2-10.7-10.8-17.5-4.9c-7.7,6.7,4.1,14.4,5,19.5
		S1011.8,1060.6,1014.3,1064z"/>
	<path class="st2" d="M1043.3,1125.5c-3.1,0.4-5.5,7.9-10.8,8.8c-5.4,0.9-7.6-3.4-7.6-3.4"/>
	<path class="st2" d="M1037.6,1104.3c-3,2.7-7.7,4.7-5.1,13.2c2.3,7.2,6.9,11.1,6.9,11.1c2.8,2.6,5.2,4.4,3.2,6.4"/>
	<path class="st2" d="M1033.7,1050.2c0.3,7.7,13.5,12.2,15.6,29.1"/>
	<path class="st2" d="M1010.9,1061.2c4.7,0.3,4.2-4.8,5.2-8.4c1.4-5,5.5-5.1,5.5-5.1"/>
	<path class="st2" d="M1015.8,1053.8c-2.6-1.3-5-1.7-5.3-6.2c-0.2-4.5-4.7-8.8-9.6-8.8"/>
	<path class="st2" d="M1051.7,1092c0,0-5.1,5-20.8,1.4"/>
	<path class="st2" d="M1048.5,1132.4c4-0.7,23.3-5.7,29.3-7.1c6.1-1.4,8.1,4.4,0.1,5c-7.9,0.6-27.9,5.6-43.4,8
		c-13.4,2.1-44.2,8.2-52.6,9.6c-8.4,1.4-8.6-3.5-5.1-3.7c3.4-0.2,3.5-1,5-2.4c2.3-2.1,14.2-0.8,34.2-5.4"/>
	<path class="st2" d="M1022.6,1083.2c-4.5-4.4-6-8.7-6.3-15c0,0,3.7-17.1,12.8-14c4.5,1.6,3.2,9,2.4,13.2
		c-1.6,8.5,5.3,13.2,2.4,21.3c-1.5,4.2-7.5,8.5-9.5,13.9c-2.3,6.1-6.3,8.2-8.8,7.7"/>
	<path class="st2" d="M1014.2,1099.7c1,2.4,4.9,1.1,6.9,2.6c1.8,1.4,1.4,3.9,0.3,5.3"/>
	<path class="st2" d="M1011.6,1086.9c0.9-1.9,1.2-5.8-1.7-6"/>
	<path class="st2" d="M1071.1,1126.9c-0.9-3.7-10.7,2.2-21.8,4"/>
	<path class="st2" d="M1013.1,1138.6c-4.3,1.1-28,5-36.4,5.5"/>
	<path class="st2" d="M1020.6,1108.5c0,0,58.8,25.9,59.7,26.2c0.9,0.4,1.3-1.3,1.8-1.1c0.4,0.2-0.1,1.7,0.3,1.9
		c0.2,0.1,1.4,0.6,1.4,0.6"/>
	<line class="st2" x1="1011" y1="1087.5" x2="1023.4" y2="1093.2"/>
	<path class="st2" d="M1042.4,1100.8c0,0,27.5,11.8,28.1,12.2c0.6,0.3,1.4-1.6,1.8-1.3c0.4,0.3-0.4,1.8,0.1,2.1
		c0.3,0.2,1.5,0.9,1.5,0.9"/>
</g>
<path class="st3" d="M713.6,364.5c55.6,403.6,507.5,325.4,507.7,440.8c0.1,78-175,65-175,133c0,80,205,66,205,143
	c0,94-469,52-469,137c0,75,192,37,192,109c0,114-607.3,54.8-975.3,170.8"/>
<g>
	<path class="st4" d="M119.3,1318.9c-2.1-2.3-4.2-4.6-6.3-6.9c-1.3-1.4-2.6-2.9-4.3-3.8c-2.5,3.7-5.5,7.1-8.8,10"/>
	<path class="st4" d="M116.3,1326.3c-2.1-2.6-5.5-4.3-6.5-7.4c-0.2-0.6-0.5-1.3-1.1-1.2c-0.2,0-0.3,0.2-0.5,0.3
		c-2.3,1.9-4.3,4.2-6,6.7"/>
	<path class="st4" d="M116.4,1332.5c-2.6-1.2-4.9-3.3-6.2-5.9c-0.1-0.2-0.2-0.4-0.4-0.5c-0.2-0.1-0.4-0.1-0.6-0.1
		c-1.6,0.2-2.7,1.7-3.3,3.2c-0.6,1.5-1.1,3.1-2.4,4.1"/>
	<path class="st4" d="M113.7,1339c-1.6-1.9-3.4-3.7-5.2-5.4c-0.1-0.1-0.3-0.3-0.5-0.3c-0.3,0-0.4,0.3-0.5,0.5c-1.1,2-2.3,4-3.4,6.1"
		/>
	<path class="st4" d="M115.5,1345.7c-2.5-1.9-4.9-4.1-7-6.5c-0.1-0.1-0.2-0.2-0.3-0.2c-0.2,0-0.4,0.2-0.5,0.4
		c-2.3,4.2-5.2,8.1-8.5,11.5"/>
	<path class="st4" d="M118.7,1351.9c-3.2-0.9-6.2-2.8-8.3-5.3c-0.3-0.3-0.6-0.7-1-0.8c-0.7-0.1-1.3,0.6-1.6,1.3
		c-2.4,4.4-5.6,8.3-9.5,11.5"/>
	<path class="st4" d="M118.9,1358.8c-3.1-1.5-6-3.3-8.6-5.6c-0.4-0.3-0.8-0.6-1.3-0.6c-0.5,0.1-0.8,0.6-1,1.1
		c-2.3,4.4-5.7,8.2-9.8,10.9"/>
	<path class="st4" d="M108.9,1308.8c0.5,15.3-1.5,30.7-0.2,45.9c0.3,4.1,0.9,8.1,0.9,12.2c0,9.6-3.1,19.2-1.7,28.7"/>
</g>
<g>
	<path class="st4" d="M187.3,1331.9c-2.1-2.3-4.2-4.6-6.3-6.9c-1.3-1.4-2.6-2.9-4.3-3.8c-2.5,3.7-5.5,7.1-8.8,10"/>
	<path class="st4" d="M184.3,1339.3c-2.1-2.6-5.5-4.3-6.5-7.4c-0.2-0.6-0.5-1.3-1.1-1.2c-0.2,0-0.3,0.2-0.5,0.3
		c-2.3,1.9-4.3,4.2-6,6.7"/>
	<path class="st4" d="M184.4,1345.5c-2.6-1.2-4.9-3.3-6.2-5.9c-0.1-0.2-0.2-0.4-0.4-0.5c-0.2-0.1-0.4-0.1-0.6-0.1
		c-1.6,0.2-2.7,1.7-3.3,3.2s-1.1,3.1-2.4,4.1"/>
	<path class="st4" d="M181.7,1352c-1.6-1.9-3.4-3.7-5.2-5.4c-0.1-0.1-0.3-0.3-0.5-0.3c-0.3,0-0.4,0.3-0.5,0.5c-1.1,2-2.3,4-3.4,6.1"
		/>
	<path class="st4" d="M183.5,1358.7c-2.5-1.9-4.9-4.1-7-6.5c-0.1-0.1-0.2-0.2-0.3-0.2c-0.2,0-0.4,0.2-0.5,0.4
		c-2.3,4.2-5.2,8.1-8.5,11.5"/>
	<path class="st4" d="M186.7,1364.9c-3.2-0.9-6.2-2.8-8.3-5.3c-0.3-0.3-0.6-0.7-1-0.8c-0.7-0.1-1.3,0.6-1.6,1.3
		c-2.4,4.4-5.6,8.3-9.5,11.5"/>
	<path class="st4" d="M186.9,1371.8c-3.1-1.5-6-3.3-8.6-5.6c-0.4-0.3-0.8-0.6-1.3-0.6c-0.5,0.1-0.8,0.6-1,1.1
		c-2.3,4.4-5.7,8.2-9.8,10.9"/>
	<path class="st4" d="M176.9,1321.8c0.5,15.3-1.5,30.7-0.2,45.9c0.3,4.1,0.9,8.1,0.9,12.2c0,9.6-3.1,19.2-1.7,28.7"/>
</g>
<g>
	<path class="st4" d="M57.3,1222.9c-2.1-2.3-4.2-4.6-6.3-6.9c-1.3-1.4-2.6-2.9-4.3-3.8c-2.5,3.7-5.5,7.1-8.8,10"/>
	<path class="st4" d="M54.3,1230.3c-2.1-2.6-5.5-4.3-6.5-7.4c-0.2-0.6-0.5-1.3-1.1-1.2c-0.2,0-0.3,0.2-0.5,0.3
		c-2.3,1.9-4.3,4.2-6,6.7"/>
	<path class="st4" d="M54.4,1236.5c-2.6-1.2-4.9-3.3-6.2-5.9c-0.1-0.2-0.2-0.4-0.4-0.5c-0.2-0.1-0.4-0.1-0.6-0.1
		c-1.6,0.2-2.7,1.7-3.3,3.2s-1.1,3.1-2.4,4.1"/>
	<path class="st4" d="M51.7,1243c-1.6-1.9-3.4-3.7-5.2-5.4c-0.1-0.1-0.3-0.3-0.5-0.3c-0.3,0-0.4,0.3-0.5,0.5c-1.1,2-2.3,4-3.4,6.1"
		/>
	<path class="st4" d="M53.5,1249.7c-2.5-1.9-4.9-4.1-7-6.5c-0.1-0.1-0.2-0.2-0.3-0.2c-0.2,0-0.4,0.2-0.5,0.4
		c-2.3,4.2-5.2,8.1-8.5,11.5"/>
	<path class="st4" d="M56.7,1255.9c-3.2-0.9-6.2-2.8-8.3-5.3c-0.3-0.3-0.6-0.7-1-0.8c-0.7-0.1-1.3,0.6-1.6,1.3
		c-2.4,4.4-5.6,8.3-9.5,11.5"/>
	<path class="st4" d="M56.9,1262.8c-3.1-1.5-6-3.3-8.6-5.6c-0.4-0.3-0.8-0.6-1.3-0.6c-0.5,0.1-0.8,0.6-1,1.1
		c-2.3,4.4-5.7,8.2-9.8,10.9"/>
	<path class="st4" d="M46.9,1212.8c0.5,15.3-1.5,30.7-0.2,45.9c0.3,4.1,0.9,8.1,0.9,12.2c0,9.6-3.1,19.2-1.7,28.7"/>
</g>
<g>
	<path class="st4" d="M166.3,1210.9c-2.1-2.3-4.2-4.6-6.3-6.9c-1.3-1.4-2.6-2.9-4.3-3.8c-2.5,3.7-5.5,7.1-8.8,10"/>
	<path class="st4" d="M163.3,1218.3c-2.1-2.6-5.5-4.3-6.5-7.4c-0.2-0.6-0.5-1.3-1.1-1.2c-0.2,0-0.3,0.2-0.5,0.3
		c-2.3,1.9-4.3,4.2-6,6.7"/>
	<path class="st4" d="M163.4,1224.5c-2.6-1.2-4.9-3.3-6.2-5.9c-0.1-0.2-0.2-0.4-0.4-0.5c-0.2-0.1-0.4-0.1-0.6-0.1
		c-1.6,0.2-2.7,1.7-3.3,3.2s-1.1,3.1-2.4,4.1"/>
	<path class="st4" d="M160.7,1231c-1.6-1.9-3.4-3.7-5.2-5.4c-0.1-0.1-0.3-0.3-0.5-0.3c-0.3,0-0.4,0.3-0.5,0.5c-1.1,2-2.3,4-3.4,6.1"
		/>
	<path class="st4" d="M162.5,1237.7c-2.5-1.9-4.9-4.1-7-6.5c-0.1-0.1-0.2-0.2-0.3-0.2c-0.2,0-0.4,0.2-0.5,0.4
		c-2.3,4.2-5.2,8.1-8.5,11.5"/>
	<path class="st4" d="M165.7,1243.9c-3.2-0.9-6.2-2.8-8.3-5.3c-0.3-0.3-0.6-0.7-1-0.8c-0.7-0.1-1.3,0.6-1.6,1.3
		c-2.4,4.4-5.6,8.3-9.5,11.5"/>
	<path class="st4" d="M165.9,1250.8c-3.1-1.5-6-3.3-8.6-5.6c-0.4-0.3-0.8-0.6-1.3-0.6c-0.5,0.1-0.8,0.6-1,1.1
		c-2.3,4.4-5.7,8.2-9.8,10.9"/>
	<path class="st4" d="M155.9,1200.8c0.5,15.3-1.5,30.7-0.2,45.9c0.3,4.1,0.9,8.1,0.9,12.2c0,9.6-3.1,19.2-1.7,28.7"/>
</g>
<g>
	<path class="st4" d="M109.3,1160.9c-2.1-2.3-4.2-4.6-6.3-6.9c-1.3-1.4-2.6-2.9-4.3-3.8c-2.5,3.7-5.5,7.1-8.8,10"/>
	<path class="st4" d="M106.3,1168.3c-2.1-2.6-5.5-4.3-6.5-7.4c-0.2-0.6-0.5-1.3-1.1-1.2c-0.2,0-0.3,0.2-0.5,0.3
		c-2.3,1.9-4.3,4.2-6,6.7"/>
	<path class="st4" d="M106.4,1174.5c-2.6-1.2-4.9-3.3-6.2-5.9c-0.1-0.2-0.2-0.4-0.4-0.5c-0.2-0.1-0.4-0.1-0.6-0.1
		c-1.6,0.2-2.7,1.7-3.3,3.2c-0.6,1.5-1.1,3.1-2.4,4.1"/>
	<path class="st4" d="M103.7,1181c-1.6-1.9-3.4-3.7-5.2-5.4c-0.1-0.1-0.3-0.3-0.5-0.3c-0.3,0-0.4,0.3-0.5,0.5c-1.1,2-2.3,4-3.4,6.1"
		/>
	<path class="st4" d="M105.5,1187.7c-2.5-1.9-4.9-4.1-7-6.5c-0.1-0.1-0.2-0.2-0.3-0.2c-0.2,0-0.4,0.2-0.5,0.4
		c-2.3,4.2-5.2,8.1-8.5,11.5"/>
	<path class="st4" d="M108.7,1193.9c-3.2-0.9-6.2-2.8-8.3-5.3c-0.3-0.3-0.6-0.7-1-0.8c-0.7-0.1-1.3,0.6-1.6,1.3
		c-2.4,4.4-5.6,8.3-9.5,11.5"/>
	<path class="st4" d="M108.9,1200.8c-3.1-1.5-6-3.3-8.6-5.6c-0.4-0.3-0.8-0.6-1.3-0.6c-0.5,0.1-0.8,0.6-1,1.1
		c-2.3,4.4-5.7,8.2-9.8,10.9"/>
	<path class="st4" d="M98.9,1150.8c0.5,15.3-1.5,30.7-0.2,45.9c0.3,4.1,0.9,8.1,0.9,12.2c0,9.6-3.1,19.2-1.7,28.7"/>
</g>
<g>
	<path class="st4" d="M50.3,1079.9c-2.1-2.3-4.2-4.6-6.3-6.9c-1.3-1.4-2.6-2.9-4.3-3.8c-2.5,3.7-5.5,7.1-8.8,10"/>
	<path class="st4" d="M47.3,1087.3c-2.1-2.6-5.5-4.3-6.5-7.4c-0.2-0.6-0.5-1.3-1.1-1.2c-0.2,0-0.3,0.2-0.5,0.3
		c-2.3,1.9-4.3,4.2-6,6.7"/>
	<path class="st4" d="M47.4,1093.5c-2.6-1.2-4.9-3.3-6.2-5.9c-0.1-0.2-0.2-0.4-0.4-0.5c-0.2-0.1-0.4-0.1-0.6-0.1
		c-1.6,0.2-2.7,1.7-3.3,3.2s-1.1,3.1-2.4,4.1"/>
	<path class="st4" d="M44.7,1100c-1.6-1.9-3.4-3.7-5.2-5.4c-0.1-0.1-0.3-0.3-0.5-0.3c-0.3,0-0.4,0.3-0.5,0.5c-1.1,2-2.3,4-3.4,6.1"
		/>
	<path class="st4" d="M46.5,1106.7c-2.5-1.9-4.9-4.1-7-6.5c-0.1-0.1-0.2-0.2-0.3-0.2c-0.2,0-0.4,0.2-0.5,0.4
		c-2.3,4.2-5.2,8.1-8.5,11.5"/>
	<path class="st4" d="M49.7,1112.9c-3.2-0.9-6.2-2.8-8.3-5.3c-0.3-0.3-0.6-0.7-1-0.8c-0.7-0.1-1.3,0.6-1.6,1.3
		c-2.4,4.4-5.6,8.3-9.5,11.5"/>
	<path class="st4" d="M49.9,1119.8c-3.1-1.5-6-3.3-8.6-5.6c-0.4-0.3-0.8-0.6-1.3-0.6c-0.5,0.1-0.8,0.6-1,1.1
		c-2.3,4.4-5.7,8.2-9.8,10.9"/>
	<path class="st4" d="M39.9,1069.8c0.5,15.3-1.5,30.7-0.2,45.9c0.3,4.1,0.9,8.1,0.9,12.2c0,9.6-3.1,19.2-1.7,28.7"/>
</g>
<g>
	<path class="st4" d="M244.3,1272.9c-2.1-2.3-4.2-4.6-6.3-6.9c-1.3-1.4-2.6-2.9-4.3-3.8c-2.5,3.7-5.5,7.1-8.8,10"/>
	<path class="st4" d="M241.3,1280.3c-2.1-2.6-5.5-4.3-6.5-7.4c-0.2-0.6-0.5-1.3-1.1-1.2c-0.2,0-0.3,0.2-0.5,0.3
		c-2.3,1.9-4.3,4.2-6,6.7"/>
	<path class="st4" d="M241.4,1286.5c-2.6-1.2-4.9-3.3-6.2-5.9c-0.1-0.2-0.2-0.4-0.4-0.5c-0.2-0.1-0.4-0.1-0.6-0.1
		c-1.6,0.2-2.7,1.7-3.3,3.2s-1.1,3.1-2.4,4.1"/>
	<path class="st4" d="M238.7,1293c-1.6-1.9-3.4-3.7-5.2-5.4c-0.1-0.1-0.3-0.3-0.5-0.3c-0.3,0-0.4,0.3-0.5,0.5c-1.1,2-2.3,4-3.4,6.1"
		/>
	<path class="st4" d="M240.5,1299.7c-2.5-1.9-4.9-4.1-7-6.5c-0.1-0.1-0.2-0.2-0.3-0.2c-0.2,0-0.4,0.2-0.5,0.4
		c-2.3,4.2-5.2,8.1-8.5,11.5"/>
	<path class="st4" d="M243.7,1305.9c-3.2-0.9-6.2-2.8-8.3-5.3c-0.3-0.3-0.6-0.7-1-0.8c-0.7-0.1-1.3,0.6-1.6,1.3
		c-2.4,4.4-5.6,8.3-9.5,11.5"/>
	<path class="st4" d="M243.9,1312.8c-3.1-1.5-6-3.3-8.6-5.6c-0.4-0.3-0.8-0.6-1.3-0.6c-0.5,0.1-0.8,0.6-1,1.1
		c-2.3,4.4-5.7,8.2-9.8,10.9"/>
	<path class="st4" d="M233.9,1262.8c0.5,15.3-1.5,30.7-0.2,45.9c0.3,4.1,0.9,8.1,0.9,12.2c0,9.6-3.1,19.2-1.7,28.7"/>
</g>
<g>
	<path class="st4" d="M308.3,1300.9c-2.1-2.3-4.2-4.6-6.3-6.9c-1.3-1.4-2.6-2.9-4.3-3.8c-2.5,3.7-5.5,7.1-8.8,10"/>
	<path class="st4" d="M305.3,1308.3c-2.1-2.6-5.5-4.3-6.5-7.4c-0.2-0.6-0.5-1.3-1.1-1.2c-0.2,0-0.3,0.2-0.5,0.3
		c-2.3,1.9-4.3,4.2-6,6.7"/>
	<path class="st4" d="M305.4,1314.5c-2.6-1.2-4.9-3.3-6.2-5.9c-0.1-0.2-0.2-0.4-0.4-0.5c-0.2-0.1-0.4-0.1-0.6-0.1
		c-1.6,0.2-2.7,1.7-3.3,3.2c-0.6,1.5-1.1,3.1-2.4,4.1"/>
	<path class="st4" d="M302.7,1321c-1.6-1.9-3.4-3.7-5.2-5.4c-0.1-0.1-0.3-0.3-0.5-0.3c-0.3,0-0.4,0.3-0.5,0.5c-1.1,2-2.3,4-3.4,6.1"
		/>
	<path class="st4" d="M304.5,1327.7c-2.5-1.9-4.9-4.1-7-6.5c-0.1-0.1-0.2-0.2-0.3-0.2c-0.2,0-0.4,0.2-0.5,0.4
		c-2.3,4.2-5.2,8.1-8.5,11.5"/>
	<path class="st4" d="M307.7,1333.9c-3.2-0.9-6.2-2.8-8.3-5.3c-0.3-0.3-0.6-0.7-1-0.8c-0.7-0.1-1.3,0.6-1.6,1.3
		c-2.4,4.4-5.6,8.3-9.5,11.5"/>
	<path class="st4" d="M307.9,1340.8c-3.1-1.5-6-3.3-8.6-5.6c-0.4-0.3-0.8-0.6-1.3-0.6c-0.5,0.1-0.8,0.6-1,1.1
		c-2.3,4.4-5.7,8.2-9.8,10.9"/>
	<path class="st4" d="M297.9,1290.8c0.5,15.3-1.5,30.7-0.2,45.9c0.3,4.1,0.9,8.1,0.9,12.2c0,9.6-3.1,19.2-1.7,28.7"/>
</g>
<g>
	<path class="st4" d="M376.3,1515.9c-2.1-2.3-4.2-4.6-6.3-6.9c-1.3-1.4-2.6-2.9-4.3-3.8c-2.5,3.7-5.5,7.1-8.8,10"/>
	<path class="st4" d="M373.3,1523.3c-2.1-2.6-5.5-4.3-6.5-7.4c-0.2-0.6-0.5-1.3-1.1-1.2c-0.2,0-0.3,0.2-0.5,0.3
		c-2.3,1.9-4.3,4.2-6,6.7"/>
	<path class="st4" d="M373.4,1529.5c-2.6-1.2-4.9-3.3-6.2-5.9c-0.1-0.2-0.2-0.4-0.4-0.5c-0.2-0.1-0.4-0.1-0.6-0.1
		c-1.6,0.2-2.7,1.7-3.3,3.2c-0.6,1.5-1.1,3.1-2.4,4.1"/>
	<path class="st4" d="M370.7,1536c-1.6-1.9-3.4-3.7-5.2-5.4c-0.1-0.1-0.3-0.3-0.5-0.3c-0.3,0-0.4,0.3-0.5,0.5c-1.1,2-2.3,4-3.4,6.1"
		/>
	<path class="st4" d="M372.5,1542.7c-2.5-1.9-4.9-4.1-7-6.5c-0.1-0.1-0.2-0.2-0.3-0.2c-0.2,0-0.4,0.2-0.5,0.4
		c-2.3,4.2-5.2,8.1-8.5,11.5"/>
	<path class="st4" d="M375.7,1548.9c-3.2-0.9-6.2-2.8-8.3-5.3c-0.3-0.3-0.6-0.7-1-0.8c-0.7-0.1-1.3,0.6-1.6,1.3
		c-2.4,4.4-5.6,8.3-9.5,11.5"/>
	<path class="st4" d="M375.9,1555.8c-3.1-1.5-6-3.3-8.6-5.6c-0.4-0.3-0.8-0.6-1.3-0.6c-0.5,0.1-0.8,0.6-1,1.1
		c-2.3,4.4-5.7,8.2-9.8,10.9"/>
	<path class="st4" d="M365.9,1505.8c0.5,15.3-1.5,30.7-0.2,45.9c0.3,4.1,0.9,8.1,0.9,12.2c0,9.6-3.1,19.2-1.7,28.7"/>
</g>
<g>
	<path class="st4" d="M309.3,1490.9c-2.1-2.3-4.2-4.6-6.3-6.9c-1.3-1.4-2.6-2.9-4.3-3.8c-2.5,3.7-5.5,7.1-8.8,10"/>
	<path class="st4" d="M306.3,1498.3c-2.1-2.6-5.5-4.3-6.5-7.4c-0.2-0.6-0.5-1.3-1.1-1.2c-0.2,0-0.3,0.2-0.5,0.3
		c-2.3,1.9-4.3,4.2-6,6.7"/>
	<path class="st4" d="M306.4,1504.5c-2.6-1.2-4.9-3.3-6.2-5.9c-0.1-0.2-0.2-0.4-0.4-0.5c-0.2-0.1-0.4-0.1-0.6-0.1
		c-1.6,0.2-2.7,1.7-3.3,3.2c-0.6,1.5-1.1,3.1-2.4,4.1"/>
	<path class="st4" d="M303.7,1511c-1.6-1.9-3.4-3.7-5.2-5.4c-0.1-0.1-0.3-0.3-0.5-0.3c-0.3,0-0.4,0.3-0.5,0.5c-1.1,2-2.3,4-3.4,6.1"
		/>
	<path class="st4" d="M305.5,1517.7c-2.5-1.9-4.9-4.1-7-6.5c-0.1-0.1-0.2-0.2-0.3-0.2c-0.2,0-0.4,0.2-0.5,0.4
		c-2.3,4.2-5.2,8.1-8.5,11.5"/>
	<path class="st4" d="M308.7,1523.9c-3.2-0.9-6.2-2.8-8.3-5.3c-0.3-0.3-0.6-0.7-1-0.8c-0.7-0.1-1.3,0.6-1.6,1.3
		c-2.4,4.4-5.6,8.3-9.5,11.5"/>
	<path class="st4" d="M308.9,1530.8c-3.1-1.5-6-3.3-8.6-5.6c-0.4-0.3-0.8-0.6-1.3-0.6c-0.5,0.1-0.8,0.6-1,1.1
		c-2.3,4.4-5.7,8.2-9.8,10.9"/>
	<path class="st4" d="M298.9,1480.8c0.5,15.3-1.5,30.7-0.2,45.9c0.3,4.1,0.9,8.1,0.9,12.2c0,9.6-3.1,19.2-1.7,28.7"/>
</g>
<g>
	<path class="st4" d="M230.3,1527.9c-2.1-2.3-4.2-4.6-6.3-6.9c-1.3-1.4-2.6-2.9-4.3-3.8c-2.5,3.7-5.5,7.1-8.8,10"/>
	<path class="st4" d="M227.3,1535.3c-2.1-2.6-5.5-4.3-6.5-7.4c-0.2-0.6-0.5-1.3-1.1-1.2c-0.2,0-0.3,0.2-0.5,0.3
		c-2.3,1.9-4.3,4.2-6,6.7"/>
	<path class="st4" d="M227.4,1541.5c-2.6-1.2-4.9-3.3-6.2-5.9c-0.1-0.2-0.2-0.4-0.4-0.5c-0.2-0.1-0.4-0.1-0.6-0.1
		c-1.6,0.2-2.7,1.7-3.3,3.2s-1.1,3.1-2.4,4.1"/>
	<path class="st4" d="M224.7,1548c-1.6-1.9-3.4-3.7-5.2-5.4c-0.1-0.1-0.3-0.3-0.5-0.3c-0.3,0-0.4,0.3-0.5,0.5c-1.1,2-2.3,4-3.4,6.1"
		/>
	<path class="st4" d="M226.5,1554.7c-2.5-1.9-4.9-4.1-7-6.5c-0.1-0.1-0.2-0.2-0.3-0.2c-0.2,0-0.4,0.2-0.5,0.4
		c-2.3,4.2-5.2,8.1-8.5,11.5"/>
	<path class="st4" d="M229.7,1560.9c-3.2-0.9-6.2-2.8-8.3-5.3c-0.3-0.3-0.6-0.7-1-0.8c-0.7-0.1-1.3,0.6-1.6,1.3
		c-2.4,4.4-5.6,8.3-9.5,11.5"/>
	<path class="st4" d="M229.9,1567.8c-3.1-1.5-6-3.3-8.6-5.6c-0.4-0.3-0.8-0.6-1.3-0.6c-0.5,0.1-0.8,0.6-1,1.1
		c-2.3,4.4-5.7,8.2-9.8,10.9"/>
	<path class="st4" d="M219.9,1517.8c0.5,15.3-1.5,30.7-0.2,45.9c0.3,4.1,0.9,8.1,0.9,12.2c0,9.6-3.1,19.2-1.7,28.7"/>
</g>
<g>
	<path class="st4" d="M61.3,1524.9c-2.1-2.3-4.2-4.6-6.3-6.9c-1.3-1.4-2.6-2.9-4.3-3.8c-2.5,3.7-5.5,7.1-8.8,10"/>
	<path class="st4" d="M58.3,1532.3c-2.1-2.6-5.5-4.3-6.5-7.4c-0.2-0.6-0.5-1.3-1.1-1.2c-0.2,0-0.3,0.2-0.5,0.3
		c-2.3,1.9-4.3,4.2-6,6.7"/>
	<path class="st4" d="M58.4,1538.5c-2.6-1.2-4.9-3.3-6.2-5.9c-0.1-0.2-0.2-0.4-0.4-0.5c-0.2-0.1-0.4-0.1-0.6-0.1
		c-1.6,0.2-2.7,1.7-3.3,3.2s-1.1,3.1-2.4,4.1"/>
	<path class="st4" d="M55.7,1545c-1.6-1.9-3.4-3.7-5.2-5.4c-0.1-0.1-0.3-0.3-0.5-0.3c-0.3,0-0.4,0.3-0.5,0.5c-1.1,2-2.3,4-3.4,6.1"
		/>
	<path class="st4" d="M57.5,1551.7c-2.5-1.9-4.9-4.1-7-6.5c-0.1-0.1-0.2-0.2-0.3-0.2c-0.2,0-0.4,0.2-0.5,0.4
		c-2.3,4.2-5.2,8.1-8.5,11.5"/>
	<path class="st4" d="M60.7,1557.9c-3.2-0.9-6.2-2.8-8.3-5.3c-0.3-0.3-0.6-0.7-1-0.8c-0.7-0.1-1.3,0.6-1.6,1.3
		c-2.4,4.4-5.6,8.3-9.5,11.5"/>
	<path class="st4" d="M60.9,1564.8c-3.1-1.5-6-3.3-8.6-5.6c-0.4-0.3-0.8-0.6-1.3-0.6c-0.5,0.1-0.8,0.6-1,1.1
		c-2.3,4.4-5.7,8.2-9.8,10.9"/>
	<path class="st4" d="M50.9,1514.8c0.5,15.3-1.5,30.7-0.2,45.9c0.3,4.1,0.9,8.1,0.9,12.2c0,9.6-3.1,19.2-1.7,28.7"/>
</g>
<g>
	<path class="st4" d="M54.3,1354.9c-2.1-2.3-4.2-4.6-6.3-6.9c-1.3-1.4-2.6-2.9-4.3-3.8c-2.5,3.7-5.5,7.1-8.8,10"/>
	<path class="st4" d="M51.3,1362.3c-2.1-2.6-5.5-4.3-6.5-7.4c-0.2-0.6-0.5-1.3-1.1-1.2c-0.2,0-0.3,0.2-0.5,0.3
		c-2.3,1.9-4.3,4.2-6,6.7"/>
	<path class="st4" d="M51.4,1368.5c-2.6-1.2-4.9-3.3-6.2-5.9c-0.1-0.2-0.2-0.4-0.4-0.5c-0.2-0.1-0.4-0.1-0.6-0.1
		c-1.6,0.2-2.7,1.7-3.3,3.2s-1.1,3.1-2.4,4.1"/>
	<path class="st4" d="M48.7,1375c-1.6-1.9-3.4-3.7-5.2-5.4c-0.1-0.1-0.3-0.3-0.5-0.3c-0.3,0-0.4,0.3-0.5,0.5c-1.1,2-2.3,4-3.4,6.1"
		/>
	<path class="st4" d="M50.5,1381.7c-2.5-1.9-4.9-4.1-7-6.5c-0.1-0.1-0.2-0.2-0.3-0.2c-0.2,0-0.4,0.2-0.5,0.4
		c-2.3,4.2-5.2,8.1-8.5,11.5"/>
	<path class="st4" d="M53.7,1387.9c-3.2-0.9-6.2-2.8-8.3-5.3c-0.3-0.3-0.6-0.7-1-0.8c-0.7-0.1-1.3,0.6-1.6,1.3
		c-2.4,4.4-5.6,8.3-9.5,11.5"/>
	<path class="st4" d="M53.9,1394.8c-3.1-1.5-6-3.3-8.6-5.6c-0.4-0.3-0.8-0.6-1.3-0.6c-0.5,0.1-0.8,0.6-1,1.1
		c-2.3,4.4-5.7,8.2-9.8,10.9"/>
	<path class="st4" d="M43.9,1344.8c0.5,15.3-1.5,30.7-0.2,45.9c0.3,4.1,0.9,8.1,0.9,12.2c0,9.6-3.1,19.2-1.7,28.7"/>
</g>
<g>
	<path class="st4" d="M143.3,1515.9c-2.1-2.3-4.2-4.6-6.3-6.9c-1.3-1.4-2.6-2.9-4.3-3.8c-2.5,3.7-5.5,7.1-8.8,10"/>
	<path class="st4" d="M140.3,1523.3c-2.1-2.6-5.5-4.3-6.5-7.4c-0.2-0.6-0.5-1.3-1.1-1.2c-0.2,0-0.3,0.2-0.5,0.3
		c-2.3,1.9-4.3,4.2-6,6.7"/>
	<path class="st4" d="M140.4,1529.5c-2.6-1.2-4.9-3.3-6.2-5.9c-0.1-0.2-0.2-0.4-0.4-0.5c-0.2-0.1-0.4-0.1-0.6-0.1
		c-1.6,0.2-2.7,1.7-3.3,3.2s-1.1,3.1-2.4,4.1"/>
	<path class="st4" d="M137.7,1536c-1.6-1.9-3.4-3.7-5.2-5.4c-0.1-0.1-0.3-0.3-0.5-0.3c-0.3,0-0.4,0.3-0.5,0.5c-1.1,2-2.3,4-3.4,6.1"
		/>
	<path class="st4" d="M139.5,1542.7c-2.5-1.9-4.9-4.1-7-6.5c-0.1-0.1-0.2-0.2-0.3-0.2c-0.2,0-0.4,0.2-0.5,0.4
		c-2.3,4.2-5.2,8.1-8.5,11.5"/>
	<path class="st4" d="M142.7,1548.9c-3.2-0.9-6.2-2.8-8.3-5.3c-0.3-0.3-0.6-0.7-1-0.8c-0.7-0.1-1.3,0.6-1.6,1.3
		c-2.4,4.4-5.6,8.3-9.5,11.5"/>
	<path class="st4" d="M142.9,1555.8c-3.1-1.5-6-3.3-8.6-5.6c-0.4-0.3-0.8-0.6-1.3-0.6c-0.5,0.1-0.8,0.6-1,1.1
		c-2.3,4.4-5.7,8.2-9.8,10.9"/>
	<path class="st4" d="M132.9,1505.8c0.5,15.3-1.5,30.7-0.2,45.9c0.3,4.1,0.9,8.1,0.9,12.2c0,9.6-3.1,19.2-1.7,28.7"/>
</g>
</svg>
