<?xml version="1.0" encoding="utf-8"?>
<!-- Generator: Adobe Illustrator 23.0.2, SVG Export Plug-In . SVG Version: 6.00 Build 0)  -->
<svg version="1.1" id="Capa_1" xmlns="http://www.w3.org/2000/svg" xmlns:xlink="http://www.w3.org/1999/xlink" x="0px" y="0px"
	 viewBox="0 0 1920 1404" style="enable-background:new 0 0 1920 1404;" xml:space="preserve">
<style type="text/css">
	.st0{fill:url(#SVGID_1_);}
	.st1{fill:#FF8676;}
	.st2{fill:#F08377;}
	.st3{fill:none;stroke:#FFFFFF;stroke-width:0.75;stroke-miterlimit:10;}
	.st4{fill:none;stroke:#F08377;stroke-width:3;stroke-miterlimit:10;}
</style>
<linearGradient id="SVGID_1_" gradientUnits="userSpaceOnUse" x1="960" y1="4085.2754" x2="960" y2="4527.2754" gradientTransform="matrix(1 0 0 -1 0 4527.2754)">
	<stop  offset="0" style="stop-color:#61C1D1"/>
	<stop  offset="0.1123" style="stop-color:#7ECDDA"/>
	<stop  offset="0.3437" style="stop-color:#B5E2EA"/>
	<stop  offset="0.5433" style="stop-color:#DDF2F5"/>
	<stop  offset="0.7011" style="stop-color:#F6FBFC"/>
	<stop  offset="0.7974" style="stop-color:#FFFFFF"/>
	<stop  offset="1" style="stop-color:#FFFFFF"/>
</linearGradient>
<rect class="st0" width="1920" height="442"/>
<path class="st1" d="M1920,349.9c-1.3-0.3-1.9-1.9-2.3-3.2c-1-3.5-2.4-7.2-5.5-9.1c-1.2-0.7-2.5-1.2-3.4-2.3c-0.7-0.8-1-1.8-1.6-2.7
	c-0.9-1.3-2.4-2.1-4-2.7c-1.8-0.7-4-1.2-5.4,0.2c-1.7,1.7-0.7,5-2.4,6.8c-1,1-2.7,1.1-4,0.6c-1.4-0.5-2.5-1.5-3.6-2.4
	c-1.4-1.1-2.8-2.2-4.3-3.2c-5.8-3.9-12.4-6.7-19.2-8.1c-2.1-0.4-4.4-0.7-6.3,0.3c-1.6,0.9-2.7,2.6-4.3,3.5c-2.3,1.2-5.1,0.4-7.6,0.8
	c-4,0.6-8.1,2.7-12.1,3c-3,0.2-5.4-2.4-7.9-4.2c-2.8-2.1-6.3-3.2-9.7-3.2c-0.8,0-1.7,0.1-2.4,0.5c-1.3,0.8-1.7,2.5-2.9,3.5
	c-1.8,1.6-4.8,0.8-6.6-0.8s-3.1-3.8-4.9-5.3c-1.9-1.6-4.9-2.3-6.6-0.6c-1.2,1.2-1.8,3.4-3.5,3.5c-1,0-1.8-0.8-2.4-1.5
	c-4-4.3-7.9-8.7-11.9-13c-1.9-2-4.5-4.3-7-3.1c-1.5,0.7-2.3,2.4-3.4,3.7c-2.5,2.9-6.7,3.6-9.2,6.5c-1.6,2-3.3,5.1-5.7,4.2
	c-0.7-0.3-1.3-1-1.9-1.4c-1.6-1.2-3.8-1.1-5.7-1c-0.7,0-1.5,0.1-1.9,0.6c-0.4,0.4-0.5,1.1-0.5,1.7c-0.2,2.3,0.5,6.7-0.5,6.8
	c-2.1,0.1-3.6-1.9-4.7-3.7c-1.9-3.1-3.6-6.4-6-9.1c-2.4-2.7-8-5.5-9.3-5.3c-1.3,0.1-3.4,0.5-4.4,1.3c-0.5,0.4-1,1-1.7,1
	c-0.7,0-1.1-0.8-1.4-1.5c-0.4-0.9-0.7-1.7-1.1-2.6c-0.3-0.6-0.5-1.2-0.9-1.7c-0.4-0.6-0.9-1-1.5-1.5c-1.1-0.9-2.2-1.9-3.6-2.2
	c-1-0.2-2.1-0.1-3.2-0.1c-2,0.1-4.5,0.3-6.2-0.8c-1.8-1.1-4-0.8-6.1-1.1c-1.4-0.2-2.6-0.7-3.9-1.2c-1.2-0.5-2.4-1-3.7-1.4
	c-1.1-0.4-2.2-0.9-2.9-1.7c-0.3-0.3-0.6-0.7-0.9-1.1c-1.5-1.9-3.7-2.9-6-3.7c-1.1-0.4-2.1-0.7-3.2-0.8c-0.6-0.1-1.2-0.2-1.8,0
	c-2.3,0.7-2.2,4.5-4.3,5.7c-0.6,0.4-1.4,0.4-2.2,0.5c-1.6,0.1-3.3,0.3-4.9,0.4c-1,0-2.1,0-3.1,0.2c-1.1,0.2-2.1,0.5-3.2,0.5
	c-2.4,0.1-4.9-0.7-7.3-1.4c-0.9-0.3-1.8-0.5-2.7-0.4c-0.5,0-1.1,0.2-1.6,0.3c-1.8,0.4-3.6,0.6-5.4,0.8c-0.5,0.1-1,0.1-1.5-0.1
	c-0.5-0.2-0.9-0.6-1.3-0.9c-1-1-2.3-1.7-3.5-2.5c-1.2-0.7-2.3-1.6-3.1-2.7c-0.4-0.7-0.7-1.5-1.3-2.1c-0.7-0.7-1.8-1-2.7-1.4
	c-0.9-0.4-1.6-0.9-2.5-1.3c-2.3-1-5-0.7-7.4,0.2c-1.2,0.4-2.4,0.6-3.5,1.2c-1.8,0.8-3.8,0.9-5.6,0.1c-0.9-0.4-1.8-0.9-2.8-1.2
	c-0.8-0.2-1.6-0.1-2.4-0.1c-1.5,0.1-3.2,0-4.5-0.8c-0.5-0.3-1-0.7-1.6-0.9c-0.9-0.4-1.9-0.4-2.9-0.7c-1.1-0.3-2.1-1.1-3.2-1.5
	c-2.2-0.9-4.6-0.7-6.9-0.4c-2.2,0.3-4.5,0.6-6.2,2.1c-1.3,1.2-2.1,2.9-3.2,4.3c-0.5,0.7-1.3,1.4-2.2,1.3c-1.2-0.1-1.8-1.5-2.3-2.6
	c-0.7-1.7-2-3.3-3.4-4.5c-2.2-1.8-4.4-3.5-6.7-5.1c-1.1-0.8-2.2-1.6-3.6-1.7c-2-0.3-3.9,0.8-5.4,2.1c-1.5,1.3-2.8,2.9-4.6,3.8
	c-1.8,0.9-3.8,1.2-5.6,2c-3.6,1.8-5.7,5.8-9.3,7.5c-2.1,1-4.6,1.1-6.5,2.6c-0.7,0.6-1.3,1.4-2.1,1.9c-0.8,0.6-1.8,0.9-2.6,0.5
	c-0.4-0.2-0.7-0.6-1-0.9c-1.8-2.2-3.6-4.3-6.1-5.7s-5.6-1.8-8-0.5c-3.1,1.7-4.9,6.8-8.3,6.4c-3.5-0.3-6.1,3.9-9.6,3.5
	c-1-0.1-1.9-0.6-2.8-1.1c-6-2.9-13-2.8-19.6-2.7c-2.3,0-4.8,0.1-6.9,1.1c-2,0.9-3.8,2.7-6,3c-1,0.1-2-0.1-3,0.2
	c-0.8,0.3-1.5,1-2.4,1.3c-1.6,0.6-3.4-0.3-5-0.1c-1.6,0.2-2.9,1.3-4.4,1.7c-1.2,0.3-2.5,0.2-3.7,0.1c-3.4-0.1-6.8,0.8-10.1,1.6
	c-1,0.3-2,0.5-2.8,1.2c-1.3,1.2-1.4,3.3-2.6,4.6c-0.6,0.7-1.4,1.1-1.8,1.9c-0.5,1.1,0.1,2.3-0.2,3.5c-0.3,1.3-1.7,2.1-3,2.3
	c-1.3,0.2-2.7,0-4,0c-1.7,0-3.5,0.5-5.1,0c-1-0.3-1.8-0.9-2.7-1.5c-2.3-1.5-5-2.1-7.7-2.6c-1.4,0.9-3.3,0.3-4.7-0.6s-2.8-2-4.4-2.2
	c-2.5-0.3-4.8,1.6-7.3,1.4c-1.6-0.1-3.1-1.1-4.6-1.8c-6-2.9-14-1-18,4.4c-0.4,0.5-0.7,1.1-1.3,1.4c-1.8,1-3.6-1.2-4.8-3
	c-2.4-3.8-6.4-6.9-10.9-6.9c-0.9,0-1.8,0.1-2.6-0.2c-1.9-0.8-2.3-3.4-4.2-4.3c-1.2-0.6-2.6-0.2-3.8-0.8c-1.9-0.9-2-3.6-3.2-5.4
	c-1.8-2.6-5.5-2.7-8.7-2.5c-2.1,0.1-4.3,0.4-5.7,1.8c-1.1,1.1-1.8,3-3.4,3c-1,0-1.8-0.9-2.4-1.7c-1.8-2.3-3.6-4.5-5.4-6.8
	c-0.9-1.1-1.8-2.2-3-3c-3.9-2.6-9-0.6-13.6-0.7c-4.3-0.1-8.5-2-12.8-1.9c-0.8,0-1.6,0.1-2.3,0.5c-0.9,0.5-1.5,1.5-2.4,1.7
	c-0.7,0.1-1.4-0.3-2.1-0.7c-2.9-1.9-5.4-4.6-8.5-6.3c-4-2.1-9.4-1.1-12.2,2.4c-0.5,0.6-0.9,1.3-1.6,1.7c-1.4,0.9-3.3,0.7-4.6,1.8
	c-2.3,1.9-1.2,6.9-4.2,7.4c-1.3,0.2-2.5-0.8-3.2-1.9c-0.7-1.1-1-2.5-1.7-3.6c-1.4-2.1-4.2-3.1-6.6-2.4c-2.4,0.7-4.2,3.1-4.2,5.6
	c0,0.9,0.2,1.7,0.2,2.6c0,1.6-0.8,3.1-2.2,3.9c-1.4,0.8-3.2,0.6-4.3-0.5c-0.8-0.8-1.1-2-1.6-3.1c-1.5-2.7-4.7-4-6.8-6.3
	c-0.6-0.7-1.2-1.5-2-2c-0.8-0.4-1.6-0.5-2.5-0.5c-3.9-0.1-7.9,0.4-11.6,1.5c-0.5,0.1-0.9,0.3-1.3,0.6c-0.5,0.5-0.7,1.2-0.9,1.9
	c-0.6,1.9-1.9,3.6-3.7,4.6c-0.7,0.4-1.4,0.7-1.9,1.3c-0.6,0.7-0.6,1.7-0.6,2.6c0,3.4,1,8.4-0.1,10.1c-1.7,2.3-5-6.4-5.7-10.3
	c-0.3-1.6-0.4-3.4-1.3-4.8c-0.5-0.8-1.1-1.5-1.7-2.2c-1.3-1.7-2.1-3.7-3.1-5.6c-1.8-3.5-4.3-6.7-6.7-9.8c-2.7-3.5-5.6-7.1-9.5-9.1
	c-3.3-1.7-7.7-2.7-8.7-6.3c-0.3-1.2-0.2-2.4-0.5-3.6c-0.6-1.9-2.3-3.2-2.9-5c-0.4-1.1-0.3-2.4-0.9-3.5c-0.6-1-1.7-1.6-2.6-2.4
	c-0.9-0.8-1.9-2.3-1.2-3.2c-0.6-3.1-3.9-4.6-6.4-6.5c-1.6-1.2-3-2.7-4.4-4.1c-2.1-1.9-4.3-3.6-6.8-5.1c-1.3-0.8-2.7-1.5-4.3-1.6
	c-3.2-0.3-6.5,2-9.5,0.8c-0.8-0.3-1.5-0.9-2.2-1.5c-2.1-1.7-4.3-3.5-6.4-5.2c-0.7-0.6-1.4-1.1-2.3-1.5c-2.1-0.8-4.5,0.1-6.5-0.8
	c-1.4-0.7-2.2-2.1-3.4-3c-0.8-0.6-1.8-0.9-2.8-1.3c-2.7-0.9-5.3-1.9-8-2.8c-1-0.4-2-0.7-3-1.3c-1.4-0.9-2.6-2.4-4.2-2.7
	c-2.8-0.4-6,2.7-8,0.7c-0.7-0.7-0.9-1.8-1.8-2.5c-0.5-0.4-1.1-0.5-1.7-0.6c-3.2-0.6-6.5-1.3-9.7-0.7c-3,0.5-5.7,2.1-8.3,3.7
	c-4.4,2.7-8.6,5.6-12.9,8.5c-1.6,1.1-3.5,3.1-5.4,3.4c-1.8,0.3-3.5,1.4-4.5,3c-0.4,0.6-0.6,1.4-1.2,1.8c-0.9,0.7-2.2,0.6-3.2,1
	c-1.8,0.7-2.7,3.1-4.5,3.7c-1.6,0.5-3.3-0.4-4.9-0.4c-1.8,0-3.5,1.1-5.1,1.9c-3.9,2-8.4,2.5-12.7,3c-2.2,0.2-4.4,0.5-6.7,0.7
	c-2.8,0.3-5.6,0.6-8.2,1.6c-1.1,0.4-2.1,0.9-3.2,1.3c-2.5,0.7-5.3,0.5-7.6-0.7c-1.9-1-3.5-2.6-5.5-3.3c-1.8-0.6-3.8-0.4-5.5-0.9
	c-1.2-0.4-2.2-1.1-3.2-1.6c-2.5-1.3-5.2-1.8-8-2.3c-1.7-0.3-3.4-0.6-5.1-0.6c-4.6,0.2-8.1,4.6-12.4,6.2c-3.7,1.4-7.1,3.7-9.7,6.7
	c-0.5,0.6-1.1,1.3-1.9,1.4c-2,0.2-2.3-3-4-4c-0.7-0.4-1.5-0.4-2.1-0.9c-1.2-0.8-1.4-2.5-2.7-3.1c-0.8-0.3-1.7-0.1-2.5-0.2
	c-1.8-0.1-3.4-1.6-5.1-1.1c-0.6,0.2-1.2,0.6-1.6,1.1c-2.5,2.5-4.1,5.9-4.3,9.4c0,0.4,0,0.8-0.3,1.1c-0.7,0.9-2.1,0-2.4-1.1
	c-0.4-1-0.5-2.4-1.4-2.9c-1.2-0.7-2.6,0.6-3.3,1.8c-1.6,2.8-2.3,6.1-2.9,9.4c-0.1,0.6-0.2,1.3-0.7,1.7c-1.3,1.2-3.2-0.5-4.1-1.9
	c-0.7-1-1.5-2.1-2.5-2.7c-1.1-0.6-2.6-0.6-3.4,0.3c-0.5,0.6-0.7,1.4-0.8,2.1c-1.2,5.2-3.4,10.1-6.5,14.4c-2.1,2.9-4.6,5.5-7,8.2
	c-1.4,1.6-2.8,3.4-3.5,5.4c-0.9,2.8-0.3,5.9-1.5,8.6c-0.9,2.2-2.9,3.9-3.3,6.3c-0.2,1.7,0.5,3.4,0.8,5.1c0.4,2,0.3,4.2-0.4,6.1
	c-0.2,0.6-0.5,1.2-1,1.5c-0.7,0.5-1.7,0.2-2.5,0c-4.2-1.4-8.1-4-10.9-7.4c-2-2.5-3.5-5.4-4.5-8.4c-0.2-0.7-0.5-1.5-1-2.1
	c-0.6-0.5-1.5-0.7-2.2-0.4c0.5,3.2,0.3,6.4-0.4,9.5c-1.8,0.2-3.2-1.5-4.2-3c-1.9-2.8-3.8-5.7-4.2-9c-0.2-1.4,0-2.9-0.5-4.3
	c-0.4-1.1-1.1-2.1-1.4-3.2c-0.5-1.9,0.3-3.9,0.4-5.8c0.2-3.4-1.9-6.8-5-8.1c-1.2-0.1-2,1.8-1.5,2.9c1.3,2.8-1.5,5.7-2.1,8.6
	c-0.1,0.6-0.2,1.2-0.4,1.7c-0.3,0.9-1.1,1.6-1.7,2.4c-3.8,4.5-3.3,11.1-2.3,17s2.4,12.1-0.1,17.4c-0.9,0-1.7-0.8-2-1.6
	c-0.3-0.8-0.3-1.8-0.3-2.7c-0.1-2.6-0.6-5.1-1.5-7.5c-0.3-0.8-0.7-1.7-1.2-2.4c-0.9-1.2-2.1-2-3.1-3c-1.8-1.8-2.9-4.2-3.2-6.7
	c-0.1-1,0-2-0.4-2.9c-0.5-1.2-1.5-2-2.2-3c-2.1-2.7-2.1-6.6-3.5-9.7c-1.3-2.8-3.7-4.9-6-7c-1-0.8-2-1.7-3.3-2
	c-1.3-0.2-2.8,0.5-3,1.7c-0.1,0.8,0.3,1.5,0.5,2.3c1.1,3.7-1.9,7.3-2.9,11c-0.6,2.2-0.4,4.5-0.5,6.8c0,1-0.5,2.3-1.5,2.3
	c-0.3,0-0.6-0.1-0.9-0.3c-3.1-1.8-3.4-6.2-3.4-9.8c0-2.2-0.2-4.7-1.9-5.9c-0.6-0.4-1.2-0.6-1.8-1c-1.3-0.9-1.9-2.5-2.7-3.8
	c-0.8-1.3-2.2-2.6-3.8-2.3c-1.3,0.3-2,1.6-2.4,2.8s-0.4,2.6-1.1,3.7c-0.8,1.3-2.2,2.1-3.1,3.4c-1.6,2.3-1,5.6-1.8,8.3
	c-0.2,0.5-0.4,1-0.8,1.3c-0.4,0.4-1,0.5-1.5,0.7c-1.3,0.6-0.4,3.4-2.1,3.6c-2.2-0.1-4.4-2.4-7-2.3c-1.4,0.1-2.6,1.2-3,2.6
	c-0.5,1.3-0.4,2.8-0.3,4.2c0.4,5.3,2,15.1,1.1,15.9c-1.2,1.1-3.8-3.6-4.4-6c-0.3-1.1-0.4-2.2-0.9-3.2c-0.5-1-1.6-1.7-2.7-1.4
	c-1.1,0.4-1.6,1.7-1.8,2.9c-1,4.3-2.6,8.3-4,12.5c-1.9,6-0.4,13.1-4,18.3c-0.7,1-1.9,2-3.2,1.7c-1.3-0.3-1.9-1.9-2.3-3.2
	c-1-3.5-2.4-7.2-5.5-9.1c-1.2-0.7-2.5-1.2-3.4-2.3c-0.7-0.8-1-1.8-1.6-2.7c-0.9-1.3-2.4-2.1-4-2.7c-1.8-0.7-4-1.2-5.4,0.2
	c-1.7,1.7-0.7,5-2.4,6.8c-1,1-2.7,1.1-4,0.6c-1.4-0.5-2.5-1.5-3.6-2.4c-1.4-1.1-2.8-2.2-4.3-3.2c-5.8-3.9-12.4-6.7-19.2-8.1
	c-2.1-0.4-4.4-0.7-6.3,0.3c-1.6,0.9-2.7,2.6-4.3,3.5c-2.3,1.2-5.1,0.4-7.6,0.8c-4,0.6-8.1,2.7-12.1,3c-3,0.2-5.4-2.4-7.9-4.2
	c-2.8-2.1-6.3-3.2-9.7-3.2c-0.8,0-1.7,0.1-2.4,0.5c-1.3,0.8-1.7,2.5-2.9,3.5c-1.8,1.6-4.8,0.8-6.6-0.8s-3.1-3.8-4.9-5.3
	c-1.9-1.6-4.9-2.3-6.6-0.6c-1.2,1.2-1.8,3.4-3.5,3.5c-1,0-1.8-0.8-2.4-1.5c-4-4.3-7.9-8.7-11.9-13c-1.9-2-4.5-4.3-7-3.1
	c-1.5,0.7-2.3,2.4-3.4,3.7c-2.5,2.9-6.7,3.6-9.2,6.5c-1.6,2-3.3,5.1-5.7,4.2c-0.7-0.3-1.3-1-1.9-1.4c-1.6-1.2-3.8-1.1-5.7-1
	c-0.7,0-1.5,0.1-1.9,0.6c-0.4,0.4-0.5,1.1-0.5,1.7c-0.2,2.3,0.5,6.7-0.5,6.8c-2.1,0.1-3.6-1.9-4.7-3.7c-1.9-3.1-3.6-6.4-6-9.1
	c-2.4-2.7-5.6-5-9.3-5.3c-2.3-0.2-4.6,0.4-6.9,0.8c-5.3,1.1-10.9,1.5-16.2,0.3c-2.2-0.5-4.3-1.3-6.4-2.1c-3.9-1.5-7.8-3-11.1-5.4
	c-2.8-2.1-6.2-4.5-9.6-5.5c-3.6-1.1-5.7-4.9-7-8.5c-1.3-3.6-2.3-7.5-5.1-10c-1.3-1.1-2.9-1.9-4.1-3.1c-3-2.8-3.5-7.3-5.3-11.1
	c-1.8-3.9-4.9-7-8-10c-0.6-0.6-1.3-1.2-2.1-1.4c-1.8-0.4-3.5,1.3-4.1,3.1c-0.6,1.8-0.8,3.8-1.9,5.3c-1.5,2.1-4.4,2.6-6.6,4.1
	c-2.5,1.7-3.9,4.5-6.2,6.5c-2.3,2-6.3,2.7-7.9,0.1c-0.8-1.3-0.6-3.1-0.5-4.6c0.6-5.4,0.7-10.8,0.3-16.2c-0.2-2.7-0.7-5.9-3.1-7.3
	c-1-0.7-2.3-0.9-3.3-1.5c-2-1.2-3-3.5-4.6-5c-2.8-2.6-8.5-2.4-11.6,0c-5.4,4-12,5.7-18.3,8c-10.3,3.8-19.7,9.5-29.1,15.1
	c-19.5,11.6-34.2,22.5-53.7,34.1c-1.6,0.9-8,2.6-9.8,2.7c-1.7,0.1-3.4-0.6-5-1.3c-11.4-4.8-22.8-9.5-34.2-14.3
	c-2.2-0.9-4.7-1.9-6.9-0.9c-1.8,0.8-3.1,2.7-5.1,3c-1.3,0.1-2.5-0.5-3.6-1.1c-14.5-7.9-29.1-15.7-43.7-23.5c-1.3-0.7-2.7-1.4-4.1-1
	c-2,0.6-2.6,3.1-2.9,5.2c-2.3,14.3-2.4,28.4-9.8,40.9c-2.7,4-23.2-7.3-27.2,4.1c-0.4,1.2-0.8,2.5-2,3c-1.5,0.7-3.2-0.6-4.5-1.7
	c-10.6-9.3-26.4-12.2-39.7-7.3c-1.9,0.7-3.8,1.6-5,3.2c-1.7,2.3-1.7,5.7-3.7,7.8c-3.3,3.5-8.9,1.2-13.6,0.5
	c-12.4-1.7-23.6,10.3-36.1,8.8v1095.4H1920V349.9z"/>
<rect x="-24.8" y="2881.3" class="st2" width="1920" height="65.1"/>
<path class="st1" d="M-273.7,1870.4c-17.7-3.1-23.9-18.7-28.5-10c-5.2,9.7-43.7,11.4-48.9-0.8c-6.3-14.8-52-15-70.7-10.6
	c-23.4,5.5-39.4-19.2-55.6,1.1c-17.7,22-24.8,2.6-35.3,2.6c-28.1,0-16.1,16.3-33.3,10.6c-11.3-3.7-30.2-8-41.6-0.8
	c-21.6,12-33,4.5-41.8,4.5s-10.8,6.3-37.1,8c-19.5,1.3-19.8,6.2-20.2,12c-0.7,8.6-21.6,5.2-23.6,2.9s-10.8-5.2-12.8-2.9
	c-2,2.3-6.7,2.3-6.7-0.6s-5.4-3.4-7.4-1.7c-2.7,2.3-6.1,2.9-8.1,0.6c-2-2.3-6.7-2.9-14.2-2.3c-8.7,0.7-6.7,9.2-13.5,8.6
	c-6.8-0.6-7.4-8.6-13.5-9.2s-16.2-2.9-21.6-5.7c-5.4-2.8-4-9.2-13.5-5.7s-13.5-2.9-17.5-8.6c-4-5.7-26.3,0-40.4-3.4
	c-9.1-2.2-8.8-3.4-17.5-4s-17.5,1.1-19.5,6.3c-2,5.2-4.7,5.6-8.7,1c-4-4.6-13.5-4-12.8,3.4c0.7,7.4-9.4,8-14.8,2.3
	c-5.4-5.7-22.9-11.4-23.6-5.2c-0.7,6.2-8.1,6.3-10.8,8c-2.7,1.7,6.1,13.1,1.3,13.7s-10.8-8.6-16.2-21.1s-15.5-18.2-27.6-24
	c-8.5-4-8.8-15.4-27-30.9s-20.1-6.7-29-8.6c-5.4-1.2,0.7-4.6-19.5-12.5c-20.2-8-30.3-7.4-39-5.7c-8.7,1.7-8.8-5.2-19.5-4.6
	s-24.3,12-30.3,16c-9.9,6.5-8.8,12.5-14.8,9.7c-6-2.8-11.5,1.2-14.8,2.9c-3.3,1.7-6.1,0-13.5,1.7c-7.4,1.7-8.1,0-9.4-2.9
	s-4.7-4.6-8.8-5.2c-4.1-0.6-8.8-0.6-13.5,3.4c-4.7,4-6.7,0.6-9.4-2.3c-6.6-7-10.1-0.6-12.8-4c-2.7-3.4-9.9-4.6-14.2,1.7
	c-5.4,8-13.5,13.7-18.2,7.5c-4.2-5.7-14.2-9.2-21.6-6.9c-7.8,2.5-5.4,19.4-8.8,19.4c-2.7,0-1.3-8.6-2-11.4c-1-4.1-6.1,2.3-8.8,8
	c-2.7,5.7-0.7,17.1-2.7,17.1s-1.3-2.3-2-8c-0.7-5.7-6.1-9.8-9.4-8.6c-8.2,2.8-3.4,21.7-12.8,23.4c-9.4,1.7-8.8,17.7-14.1,21.1
	c-5.3,3.4,5.4,25.7-12.8,25.7c-10.4,0-18.2-4-18.2-10.3c0-4.6-5.9-4.8-8.8,0c-4.7,8-15.5-6.9-16.2-18.3c-1-17.7-8.5-17.1-8.1-10.3
	c0.7,10.9-6.1,10.9-10.1,18.2c-4,7.3,7.4,46.3,0,46.8s-4.5-31.9-15.5-36c-10.8-4-4-9.2-10.1-21.1s-14.8-3.4-18.9,8.6
	c-4.1,12-6.7,11.4-6.7,1.2c0-10.3-5.4-12.5-11.5-12.5s-14.1,12-12.8,18.8c1.3,6.9-3.4,7.5-13.5,5.2c-10.1-2.3-8.8,5.7-7.4,10.3
	c3,10.1-2,18.2-4.7,9.8c-2.7-8.5-8.8-6.3-8.8,2.9c0,11.4-5.4,14.8-6.7,25.7c-1.3,10.9-9.4,6.9-11.5-2.9
	c-2.1-9.8-18.9-18.8-22.2-16.5c-3.3,2.3,0,6.9-5.4,9.8c-5.4,2.9-0.7,29.2-4.7,29.2s-2-11.4-3.4-19.4s-11.5-9.2-24.3-17.7
	c-12.8-8.5-19.5-3.4-29,4.6s-13.5,2.3-22.9-5.2s-15.8-6-26.6-3.1c-10.8,2.9-9.4-5.7-18.9-7.5c-9.5-1.8-5.4,6.9-17.5-0.6
	s-17.5-21.7-28.3-10.9c-10.8,10.8-20.2,9.2-27.6,5.7s-4,8-8.8,10.9c-4.8,2.9-6.7-5.2-14.8-14.2c-8.1-9.1-12-6.6-18.3-5.7
	c0,0-25.4,4.6-43-2.5c-17.6-7-32.9-26.6-43.3-46c-10.4-19.4-19.7-23.7-29.1-10.5c-13.4,19-27.8,9.7-26.5-14.6
	c0.9-17-9.4-14.8-13.1-8.6c-3,5.1-3.1,11.3-7,11c-4.5-0.3,2-17-6-17c-12.7,0-22.5,21.5-63,36.5s-76.6,19.2-82.1,42.3v1104.2h1920
	V1870.4L-273.7,1870.4z"/>
<path class="st2" d="M1920,534.6c-211.7,57.8-558,44.8-556.1,105.1c-0.5,56.3,186.5,34.5,185.5,93.4C1548,817.3,833,830.8,825.6,956
	c-7.4,125.9,425.1,88.9,431.2,247.1c5.3,136.8-524.4,179.7-1256.9,195.9v4.9h1920V1225c-160.7-106.7-419.1-145.1-689.7-170
	c-277.1-25.5-387.9-43-384-99.1c4.1-59.2,204.9-90,315.3-111.3c142.5-27.5,392.3-48.2,400.3-109c9.2-69.4-191.7-47.5-190.3-96.2
	c2.9-49.2,322.3-45,548.4-102.2L1920,534.6L1920,534.6z"/>
<path class="st2" d="M3995.2,1207.2c-160.7-106.7-419.1-145.1-689.7-170c-277.1-25.5-383-27.6-388.6-83.7
	c-5.2-52.3,90.7-74.8,200.6-98.5c116.5-25.1,174.8-44.5,175.4-80c0.6-36.8-59.9-56-183.6-68.7c-94-9.6-159.4-23.7-156.1-59.4
	c4.8-52.9,192.7-50.9,194.1-111.1c1.9-79.7-335.1-28.6-358.2-213.7c11.9,184,350,145.7,351.1,212.6c0.9,54.9-190.8,53.9-195.2,112.7
	c-3.2,42.3,60.6,53.3,160,65.5c119.3,14.6,179.6,28.7,179.4,62.2c-0.6,79.5-381.1,63.4-381.8,178.8
	c-0.7,119.4,423.4,73.2,429.5,231.5c5.3,136.8-524.4,179.7-1256.9,195.9v4.9h1920L3995.2,1207.2L3995.2,1207.2z"/>
<g>
	<path class="st3" d="M1031,788.6c5.3,6.9,0.2,17.1-4.2,17c-4.6-0.2-6.2,3.1-5.5,5.6c0.8,2.9,5,3.8,7.3,0.4
		c2.1-3.1,9.3-7.7,11.9-2.6c2.6,5.1-0.7,15.2-7.5,15.3c-5.1,0.1-5.9,5.1-5,6.8c1.2,2.4,2.6,3.4,6,4.2s7.7,8.4,8.6,17
		c0.7,6.1-2.5,3.3-5.3,6.3c-2.7,3-6.3,3-6.4,5.1s4.7,0.8,8.6-0.2c4-1,0.6-0.3,15.1-2.9c14.5-2.6,12.5-5.7,11.5-6.9
		c-0.9-1.1-5.1-1.6-6-5c-2.6-10.4-11-10.1-7.7-16.9c3.3-6.9,18.9-10.5,16.8-20.4c-0.9-4.2-4.3-6.7-2.6-8.5c1.9-1.9,5.9,0.4,5.9-4.1
		c-0.1-4.4-4.3-16.2-10.8-22.3c-5.8-5.4-12.2-0.4-18.1-1.6c-4.8-1-7.4-2.9-7.2-8.6c0.2-8.2-10.8-10.7-17.6-4.7
		c-7.6,6.8,4.3,14.3,5.3,19.4C1025,786.1,1028.4,785.3,1031,788.6z"/>
	<path class="st3" d="M1060.7,849.8c-3.1,0.5-5.4,8-10.7,8.9c-5.4,1-7.7-3.3-7.7-3.3"/>
	<path class="st3" d="M1054.7,828.5c-2.9,2.8-7.6,4.8-5,13.3c2.4,7.2,7,11,7,11c2.8,2.5,5.3,4.3,3.3,6.3"/>
	<path class="st3" d="M1050.2,774.6c0.4,7.7,13.6,12,15.9,28.9"/>
	<path class="st3" d="M1027.5,785.9c4.7,0.2,4.1-4.9,5.1-8.5c1.3-5,5.4-5.2,5.4-5.2"/>
	<path class="st3" d="M1032.3,778.3c-2.6-1.3-5-1.6-5.4-6.1c-0.3-4.5-4.8-8.7-9.7-8.7"/>
	<path class="st3" d="M1068.7,816.1c0,0-5,5.1-20.8,1.7"/>
	<path class="st3" d="M1066,856.5c4-0.8,23.2-6,29.2-7.5c6.1-1.5,8.2,4.3,0.2,5c-7.9,0.7-27.8,5.9-43.3,8.5
		c-13.4,2.3-44.1,8.7-52.5,10.3s-8.7-3.4-5.2-3.6c3.4-0.3,3.5-1.1,5-2.5c2.3-2.1,14.2-1,34.1-5.8"/>
	<path class="st3" d="M1039.5,807.7c-4.6-4.3-6.1-8.6-6.5-14.9c0,0,3.5-17.2,12.6-14.1c4.5,1.5,3.3,8.9,2.5,13.2
		c-1.5,8.5,5.4,13.1,2.7,21.3c-1.4,4.2-7.4,8.6-9.3,14c-2.2,6.1-6.2,8.3-8.7,7.8"/>
	<path class="st3" d="M1031.3,824.3c1,2.4,4.9,1,6.9,2.5c1.8,1.4,1.5,3.9,0.4,5.3"/>
	<path class="st3" d="M1028.5,811.5c0.9-1.9,1.1-5.8-1.8-6"/>
	<path class="st3" d="M1088.5,850.7c-1-3.7-10.7,2.3-21.7,4.3"/>
	<path class="st3" d="M1030.7,863.3c-4.3,1.2-27.9,5.3-36.3,6"/>
	<path class="st3" d="M1037.8,833c0,0,59.1,25.2,60,25.5c0.9,0.4,1.3-1.3,1.8-1.1c0.4,0.2-0.1,1.7,0.3,1.9c0.2,0.1,1.4,0.6,1.4,0.6"
		/>
	<line class="st3" x1="1027.9" y1="812.2" x2="1040.4" y2="817.7"/>
	<path class="st3" d="M1059.5,825c0,0,27.6,11.5,28.2,11.9c0.6,0.3,1.4-1.6,1.8-1.3s-0.4,1.8,0.1,2.1c0.3,0.2,1.5,0.9,1.5,0.9"/>
</g>
<g>
	<rect x="52.2" y="2985.3" class="st1" width="49" height="49"/>
	<rect x="131.4" y="2985.3" class="st1" width="49" height="49"/>
	<rect x="210.6" y="2985.3" class="st1" width="49" height="49"/>
	<rect x="289.7" y="2985.3" class="st1" width="49" height="49"/>
	<rect x="368.9" y="2985.3" class="st1" width="49" height="49"/>
	<rect x="448.1" y="2985.3" class="st1" width="49" height="49"/>
	<rect x="527.3" y="2985.3" class="st1" width="49" height="49"/>
	<rect x="606.5" y="2985.3" class="st1" width="49" height="49"/>
	<rect x="685.7" y="2985.3" class="st1" width="49" height="49"/>
	<rect x="764.9" y="2985.3" class="st1" width="49" height="49"/>
	<rect x="844.1" y="2985.3" class="st1" width="49" height="49"/>
	<rect x="923.3" y="2985.3" class="st1" width="49" height="49"/>
	<rect x="1002.5" y="2985.3" class="st1" width="49" height="49"/>
	<rect x="1081.7" y="2985.3" class="st1" width="49" height="49"/>
	<rect x="1160.9" y="2985.3" class="st1" width="49" height="49"/>
	<rect x="1240.1" y="2985.3" class="st1" width="49" height="49"/>
	<rect x="1319.3" y="2985.3" class="st1" width="49" height="49"/>
	<rect x="1398.5" y="2985.3" class="st1" width="49" height="49"/>
	<rect x="1477.6" y="2985.3" class="st1" width="49" height="49"/>
	<rect x="1556.8" y="2985.3" class="st1" width="49" height="49"/>
	<rect x="1636" y="2985.3" class="st1" width="49" height="49"/>
	<rect x="1715.2" y="2985.3" class="st1" width="49" height="49"/>
	<rect x="1794.4" y="2985.3" class="st1" width="49" height="49"/>
	<rect x="1873.6" y="2985.3" class="st1" width="49" height="49"/>
</g>
<rect x="18.8" y="2803.1" class="st1" width="49" height="49"/>
<path class="st4" d="M23.5,2842.7c-0.7-2.2-0.7-4.5-0.7-6.8c0-5.6,0-11.2,0-16.8c0-2.4,0-4.9,1.3-6.9c2-3.2,6.2-4.1,9.9-4.5
	c7-0.8,14.1-0.5,21.1-0.8c3.6-0.1,6.2,1.4,7.1,2.8c2.4,3.4,2.3,11.6,2.3,17.4c0,3.5,0,7,0,10.5c0,2.4-0.1,5.1-1.8,6.9
	c-1.3,1.3-3.2,1.8-5,2.2c-7,1.4-14.2,1.6-21.3,1.4C31,2848,25.4,2849.2,23.5,2842.7z"/>
</svg>
