<?xml version="1.0" encoding="utf-8"?>
<!-- Generator: Adobe Illustrator 23.0.2, SVG Export Plug-In . SVG Version: 6.00 Build 0)  -->
<svg version="1.1" id="Capa_1" xmlns="http://www.w3.org/2000/svg" xmlns:xlink="http://www.w3.org/1999/xlink" x="0px" y="0px"
	 viewBox="0 0 765.4 246.2" style="enable-background:new 0 0 765.4 246.2;" xml:space="preserve">
<style type="text/css">
	.st0{fill:#62C3D2;}
</style>
<title>skis</title>
<path class="st0" d="M0,40.7C0,9.2,25.4,0.2,57.6,1.7c32.2,1.5,195.7,6,300.4,6s314.3-2.8,367.2-7.5c50.6-4.5,55.3,81,3.4,79.5
	c-49.5-1.4-313.1-9-368.3-7.5s-275.1,6-301.6,7.5S0,75.1,0,40.7z"/>
<path class="st0" d="M0,207c0-31.5,25.3-40.5,57.5-39c32.2,1.5,195.7,6,300.4,6s314.3-2.8,367.2-7.5c50.6-4.5,55.3,81,3.4,79.5
	c-49.5-1.4-313.1-9-368.3-7.5s-275.1,6-301.6,7.5S0,241.5,0,207z"/>
</svg>
