<svg id="Capa_1" data-name="Capa 1" xmlns="http://www.w3.org/2000/svg" viewBox="0 0 953 295"><defs><style>.cls-1{fill:#4ed3dd;}</style></defs><title>waterglass_Mesa de trabajo 1</title><path class="cls-1" d="M482.38,266h-6c-55.41,0-71.28-11.78-73.85-54.79-.57-9.52-2-24.8-3.66-42.48C393.17,107.37,389.2,60,394.62,54.59s68.46-5.56,81-5.51c36,.15,76.92,1.9,81.83,5.41,6.52,4.66,3.27,40.85-2.85,99.9-1.79,17.23-3.63,35-5,51.15C544.7,264.82,528.84,266,482.38,266ZM470.25,51.05c-41.07,0-71.26,2-74.22,5-5.19,5.19.86,69.79,4.86,112.54,1.66,17.7,3.09,33,3.66,42.55,2.51,42,17.29,52.92,71.87,52.92h3.08c48.56,0,63.27,0,68.16-58.64,1.34-16.12,3.19-34,5-51.19,4.56-43.94,9.72-93.75,3.67-98.07-3.77-2.7-38.46-4.87-80.68-5Z"/><path class="cls-1" d="M476.07,254.69c43.47,0,56.85,1.07,61.14-50.41s7.88-58.26.37-63.62-117.74-5.21-124.18,1.23-.77,37.72,1,67.21C416.53,245,429.41,254.69,476.07,254.69Z"/></svg>