<?xml version="1.0" encoding="utf-8"?>
<!-- Generator: Adobe Illustrator 23.0.2, SVG Export Plug-In . SVG Version: 6.00 Build 0)  -->
<svg version="1.1" id="Capa_1" xmlns="http://www.w3.org/2000/svg" xmlns:xlink="http://www.w3.org/1999/xlink" x="0px" y="0px"
	 viewBox="0 0 953 344" style="enable-background:new 0 0 953 344;" xml:space="preserve">
<style type="text/css">
	.st0{fill:#4ED3DD;}
</style>
<title>waterglass</title>
<path class="st0" d="M482.4,269h-6c-55.4,0-71.3-11.8-73.9-54.8c-0.6-9.5-2-24.8-3.7-42.5c-5.7-61.4-9.7-108.7-4.3-114.1
	s68.5-5.6,81-5.5c36,0.2,76.9,1.9,81.8,5.4c6.5,4.7,3.3,40.9-2.8,99.9c-1.8,17.2-3.6,35-5,51.1C544.7,267.8,528.8,269,482.4,269z
	 M470.3,54.1c-41.1,0-71.3,2-74.2,5c-5.2,5.2,0.9,69.8,4.9,112.5c1.7,17.7,3.1,33,3.7,42.5c2.5,42,17.3,52.9,71.9,52.9h3.1
	c48.6,0,63.3,0,68.2-58.6c1.3-16.1,3.2-34,5-51.2c4.6-43.9,9.7-93.8,3.7-98.1c-3.8-2.7-38.5-4.9-80.7-5L470.3,54.1z"/>
<path class="st0" d="M476.1,257.7c43.5,0,56.8,1.1,61.1-50.4s7.9-58.3,0.4-63.6s-117.7-5.2-124.2,1.2s-0.8,37.7,1,67.2
	C416.5,248,429.4,257.7,476.1,257.7z"/>
</svg>
