<?xml version="1.0" encoding="utf-8"?>
<!-- Generator: Adobe Illustrator 23.0.2, SVG Export Plug-In . SVG Version: 6.00 Build 0)  -->
<svg version="1.1" id="Capa_1" xmlns="http://www.w3.org/2000/svg" xmlns:xlink="http://www.w3.org/1999/xlink" x="0px" y="0px"
	 viewBox="0 0 1920 1080" style="enable-background:new 0 0 1920 1080;" xml:space="preserve">
<style type="text/css">
	.st0{fill:#FF8676;}
	.st1{fill:#EF8276;}
	.st2{fill:none;stroke:#FFFFFF;stroke-width:0.75;stroke-miterlimit:10;}
	.st3{fill:none;stroke:#FFFFFF;stroke-linecap:round;stroke-miterlimit:10;}
</style>
<line class="st0" x1="1919" y1="1143" x2="-1" y2="1143"/>
<polyline class="st1" points="0,1080 0,0 1920,0 1920,1080 "/>
<g>
	<g>
		<path class="st2" d="M949.12,538.52c4.69,8.41-2.45,18.75-7.21,17.87c-5-0.93-7.28,2.38-6.95,5.2c0.38,3.25,4.77,4.95,7.98,1.57
			c2.88-3.03,11.32-6.96,13.35-1.02c2.03,5.94-3.19,16.55-10.6,15.55c-5.64-0.76-7.24,4.68-6.57,6.66c0.95,2.8,2.28,4.08,5.86,5.51
			c3.58,1.43,7.08,10.4,6.83,19.92c-0.18,6.74-3.36,3.2-6.84,6.02c-3.48,2.82-7.39,2.31-7.8,4.59c-0.42,2.32,4.98,1.62,9.47,1.17
			c4.5-0.46,0.68-0.24,17.05-0.79c16.24-0.55,14.59-4.38,13.72-5.8c-0.82-1.34-5.3-2.55-5.72-6.38
			c-1.3-11.76-10.54-12.75-5.82-19.66s22.25-8.52,21.55-19.72c-0.3-4.76-3.63-8.04-1.52-9.64c2.35-1.79,6.45,1.35,7.09-3.52
			s-2.22-18.47-8.28-26.06c-5.49-6.88-13.34-2.28-19.56-4.51c-5.11-1.84-7.56-4.33-6.54-10.5c1.47-8.93-10.19-13.4-18.44-7.85
			c-9.34,6.28,2.5,16.38,2.67,22.06C943.01,534.86,946.85,534.44,949.12,538.52z"/>
		<path class="st2" d="M972.17,610.03c-3.51,0.02-7.09,7.88-13.1,8.16c-6.01,0.27-7.84-4.84-7.84-4.84"/>
		<path class="st2" d="M969,585.94c-3.68,2.55-9.13,4.11-7.41,13.71c1.48,8.23,6.03,13.12,6.03,13.12c2.71,3.25,5.11,5.51,2.58,7.48
			"/>
		<path class="st2" d="M972.33,526.12c-0.76,8.5,13.05,15.28,13.01,34.12"/>
		<path class="st2" d="M945.76,534.93c5.12,0.98,5.28-4.63,6.91-8.47c2.26-5.31,6.72-4.8,6.72-4.8"/>
		<path class="st2" d="M952.26,527.55c-2.63-1.78-5.27-2.61-4.9-7.52c0.37-4.91-3.9-10.29-9.31-11.03"/>
		<path class="st2" d="M986.19,574.43c0,0-6.32,4.76-22.98-1.43"/>
		<path class="st2" d="M976.92,618.23c4.46-0.17,26.33-2.93,33.06-3.63c6.86-0.71,8.21,5.95-0.56,5.53s-31.39,2.16-48.72,2.61
			c-15,0.39-49.61,2.69-58.98,3.02c-9.37,0.32-8.89-5.1-5.09-4.81s4-0.62,5.81-1.92c2.84-2.03,15.68,1.17,38.27-1.03"/>
		<path class="st2" d="M955.51,560.65c-4.29-5.5-5.34-10.34-4.75-17.3c0,0,6.5-18.25,16-13.47c4.74,2.38,2.19,10.25,0.71,14.81
			c-2.94,9.04,3.91,15.2-0.39,23.72c-2.2,4.35-9.43,8.24-12.39,13.87c-3.35,6.39-8.09,8.03-10.77,7.13"/>
		<path class="st2" d="M944,577.65c0.81,2.72,5.25,1.88,7.24,3.81c1.81,1.75,0.99,4.46-0.38,5.84"/>
		<path class="st2" d="M942.95,563.16c1.29-1.99,2.19-6.21-1.04-6.77"/>
		<path class="st2" d="M1002.39,615.46c-0.48-4.13-12.01,0.92-24.49,1.34"/>
		<path class="st2" d="M937.27,620.05c-4.92,0.61-31.36,1.54-40.63,0.9"/>
		<path class="st2" d="M949.74,588.15c0,0,60.74,36.67,61.68,37.19c0.95,0.52,1.57-1.27,2.1-1.01c0.45,0.23-0.34,1.9,0.02,2.17
			c0.24,0.18,1.47,0.88,1.47,0.88"/>
		<line class="st2" x1="942.23" y1="563.81" x2="954.97" y2="571.74"/>
		<path class="st2" d="M974.66,582.74c0,0,28.45,16.86,29.06,17.33c0.62,0.47,1.81-1.56,2.2-1.19c0.39,0.37-0.65,1.89-0.22,2.28
			c0.31,0.28,1.47,1.15,1.47,1.15"/>
	</g>
</g>
<path class="st3" d="M1920.5,33.5c-427,130-725.46,77.36-795,160c-69,82-327,47.86-327,104c0,28.85,57.15,39.06,128,47
	c108.42,12.15,245.06,17.29,247,62c2,46-97,39.99-97,87c0,41,90,39.99,90,85c0,62-273,58-273,58"/>
<path class="st3" d="M1920.5,39.5c-427,130-721.71,78-792,160c-72,84-322,49-322,100c0,19.61,52.75,30.39,119,38
	c109.42,12.57,251,17,256,67c5.27,52.75-97,46-97,90c0,36,89.76,32.01,89,85c-1,70-280,63-280,63"/>
</svg>
