<?xml version="1.0" encoding="utf-8"?>
<!-- Generator: Adobe Illustrator 23.0.2, SVG Export Plug-In . SVG Version: 6.00 Build 0)  -->
<svg version="1.1" id="Capa_1" xmlns="http://www.w3.org/2000/svg" xmlns:xlink="http://www.w3.org/1999/xlink" x="0px" y="0px"
	 viewBox="0 0 953 344" style="enable-background:new 0 0 953 344;" xml:space="preserve">
<style type="text/css">
	.st0{fill:#4ED3DD;}
</style>
<title>wineglass</title>
<path class="st0" d="M476.2,267c-21.9,0-35.3-3.2-35.8-8.6c-0.3-3.3,4.1-6.1,12-7.6c19.5-3.9,19.5-14.1,19.4-31c0-1,0-2.1,0-3.1
	c0-2.3,0-4.6,0-7c0.1-16.9,0.3-37.8-5.6-42.9l0,0c-1.9-1.6-4-3.1-6.1-4.8c-8.2-6.1-18.5-13.7-25.2-31.1c-5.4-13.9-3.5-37.6-2.5-47.1
	c1.4-12,4.7-30.6,8.5-32.5c4.3-2.2,67-0.8,70.3-0.1c7,1.5,11.2,42.8,10.1,66.9c-1.3,28.4-22.6,41.6-34,48.7
	c-7.2,4.5-6.8,26.9-6.5,41.8c0.1,2.8,0.1,5.5,0.1,7.8c0,17.6,1.1,30.4,16,33.9c8.7,2,13.6,5.3,13.2,8.8
	C509.6,264.1,497.5,267,476.2,267z M467.5,165.1c6.6,5.7,6.4,26.3,6.3,44.4c0,2.4,0,4.8,0,7c0,1.1,0,2.1,0,3.1
	c0.1,16.7,0.1,28.8-21,33c-7.4,1.5-10.6,3.9-10.4,5.5c0.2,2.4,7.6,6.8,33.9,6.8c24.7,0,31.7-4,32-6.3c0.2-1.8-3.4-4.7-11.7-6.6
	c-16.3-3.8-17.6-17.8-17.6-35.8c0-2.3,0-4.9-0.1-7.7c-0.3-16.2-0.8-38.4,7.4-43.5c11.1-6.9,31.8-19.7,33.1-47.1s-4.2-63.9-8.6-64.9
	c-4.8-1.1-65.6-1.7-69-0.1c-1.8,0.9-5.4,13.1-7.4,31c-1,9.4-2.9,32.6,2.3,46.1c6.5,16.8,16.1,23.9,24.5,30.2
	C463.5,161.9,465.6,163.5,467.5,165.1L467.5,165.1z"/>
<path class="st0" d="M441,99.3c2.5-11.8,18.5,3,41.2-3c18.6-4.9,31.6,1.8,31.6,14.3s-3.6,26.3-13.1,34.6s-27.5,14.9-43.6,2.4
	C444.1,137.5,437.4,116,441,99.3z"/>
</svg>
