<svg id="Capa_1" data-name="Capa 1" xmlns="http://www.w3.org/2000/svg" viewBox="0 0 15.72 29"><defs><style>.cls-1{fill:#4ed3dd;}.cls-2{fill:#fff;}</style></defs><title>phone_Mesa de trabajo 1</title><path class="cls-1" d="M22.39,1c1.88,0,6.73,0,7.25.77s.58,12.3.52,14,.45,12.49-.45,13.27-5.5,1-7.45,1-6.21,0-7-.84-.64-10.94-.64-13.27-.46-13.13.58-14S21,1,22.39,1Z" transform="translate(-14.53 -1)"/><path class="cls-2" d="M22.37,2.91c1.55,0,5.56,0,6,.59s.48,9.38.43,10.66.37,9.52-.37,10.12-4.56.74-6.16.74-5.14,0-5.78-.64-.54-8.35-.54-10.12-.38-10,.48-10.71S21.19,2.91,22.37,2.91Z" transform="translate(-14.53 -1)"/><path class="cls-2" d="M21.87,28.58a.73.73,0,0,1-.45-.46.67.67,0,0,1,.33-.77,1.41,1.41,0,0,1,.58-.08.75.75,0,0,1,.62.23.87.87,0,0,1,.19.4,2.25,2.25,0,0,0,0,.26.61.61,0,0,1-.13.31C22.8,28.77,22.14,28.7,21.87,28.58Z" transform="translate(-14.53 -1)"/></svg>